<svg width="150" height="150" viewBox="0 0 150 150" fill="none" xmlns="http://www.w3.org/2000/svg">
<circle cx="75" cy="75" r="75" fill="white"/>
<path d="M60.86 48.785C63.2867 46.895 66.46 45.8508 69.6129 45.8508C71.5 45.8508 73.0254 46.4983 74.1833 47.5279C74.4954 47.805 74.7725 48.1054 75.0204 48.4146C75.2683 48.1054 75.5454 47.805 75.8575 47.5279C77.0154 46.4983 78.5408 45.8508 80.4279 45.8508C83.5808 45.8508 86.7571 46.895 89.1779 48.785C91.0679 50.2521 92.5467 52.2792 93.1271 54.7262C94.3521 54.9304 95.44 55.5546 96.3208 56.38C97.7208 57.6954 98.7212 59.5971 99.3483 61.5542C99.9871 63.5404 100.305 65.7717 100.209 67.9154C100.159 69.0121 99.9987 70.1321 99.6925 71.2025L99.8821 71.29C100.961 71.7975 101.836 72.5937 102.493 73.6525C103.732 75.6504 104.17 78.5262 104.17 82.1925C104.17 86.4071 102.557 89.2683 100.486 91.0446C99.4072 91.9696 98.1447 92.6556 96.7817 93.0571C96.2871 95.3363 95.2707 97.4698 93.8125 99.29C91.7038 101.927 88.4254 104.155 84.0213 104.155C80.4921 104.155 77.7125 102.201 75.9275 100.334C75.6109 100.001 75.3093 99.6531 75.0233 99.2929C74.7364 99.6522 74.4337 99.9986 74.1162 100.331C72.3312 102.204 69.5517 104.155 66.0225 104.155C61.6154 104.155 58.3371 101.927 56.2313 99.29C54.7708 97.4704 53.7525 95.3369 53.2563 93.0571C51.8942 92.6553 50.6327 91.9694 49.555 91.0446C47.4842 89.2654 45.8742 86.4071 45.8742 82.1925C45.8742 78.5262 46.3117 75.6504 47.5483 73.6525C48.2045 72.5648 49.1831 71.7084 50.3483 71.2025C50.0487 70.1307 49.8754 69.0275 49.8321 67.9154C49.7358 65.7717 50.0538 63.5404 50.6925 61.5542C51.3196 59.6 52.3171 57.6954 53.72 56.38C54.5974 55.5248 55.7089 54.9492 56.9138 54.7262C57.4971 52.2762 58.9729 50.2521 60.86 48.785ZM63.5492 52.2354C61.9567 53.475 61.0233 55.1258 61.0233 57.0275C61.0231 57.3739 60.9405 57.7153 60.7825 58.0236C60.6245 58.3319 60.3955 58.5983 60.1144 58.8008C59.8333 59.0032 59.5082 59.1361 59.1657 59.1883C58.8232 59.2406 58.4733 59.2107 58.1446 59.1012C57.745 58.9671 57.3221 58.9992 56.7154 59.5708C56.0388 60.2037 55.3533 61.35 54.8575 62.89C54.3615 64.45 54.1404 66.0843 54.2042 67.72C54.2771 69.3417 54.6621 70.6892 55.2688 71.5992C55.3691 71.7499 55.4504 71.9126 55.5108 72.0833H58.6667C60.7666 72.0829 62.7888 72.8772 64.3271 74.3067C65.8653 75.7362 66.8055 77.6949 66.9588 79.7892C68.2152 80.2905 69.2583 81.213 69.9096 82.3986C70.5609 83.5843 70.7799 84.9595 70.5291 86.2888C70.2782 87.6181 69.5731 88.8189 68.5345 89.6857C67.4959 90.5525 66.1884 91.0313 64.8356 91.0403C63.4829 91.0493 62.169 90.5878 61.119 89.7349C60.069 88.882 59.3481 87.6906 59.0796 86.3648C58.8111 85.0389 59.0118 83.6609 59.6473 82.4667C60.2828 81.2725 61.3136 80.3363 62.5633 79.8183C62.4248 78.884 61.955 78.0306 61.2397 77.4138C60.5244 76.797 59.6112 76.4579 58.6667 76.4583H51.0104C50.5729 77.4733 50.2492 79.2262 50.2492 82.1925C50.2492 85.1704 51.3313 86.8037 52.4046 87.7254C53.58 88.7317 54.8721 88.9942 55.2454 88.9942C55.8256 88.9942 56.382 89.2246 56.7922 89.6349C57.2024 90.0451 57.4329 90.6015 57.4329 91.1817C57.4329 92.4067 58.1096 94.6321 59.6496 96.5571C61.1313 98.415 63.2429 99.78 66.0225 99.78C67.8804 99.78 69.5896 98.7358 70.9517 97.3125C71.6108 96.6183 72.1242 95.8979 72.4625 95.3146C72.5905 95.0964 72.7026 94.8693 72.7979 94.635L72.8154 94.5942V66.9792H70.2021C69.6944 68.2341 68.7661 69.2734 67.5762 69.919C66.3863 70.5645 65.009 70.7762 63.6802 70.5176C62.3514 70.259 61.1539 69.5463 60.2929 68.5016C59.4319 67.457 58.9611 66.1454 58.9611 64.7917C58.9611 63.4379 59.4319 62.1263 60.2929 61.0817C61.1539 60.037 62.3514 59.3243 63.6802 59.0657C65.009 58.8072 66.3863 59.0188 67.5762 59.6643C68.7661 60.3099 69.6944 61.3492 70.2021 62.6042H72.8154V55.2017L72.8067 55.0354C72.7568 54.1371 72.58 53.2504 72.2817 52.4017C72.0192 51.7017 71.6779 51.1562 71.2754 50.7975C70.9167 50.4767 70.4208 50.2258 69.6129 50.2258C67.3788 50.2258 65.165 50.9783 63.5463 52.2383M77.2283 89.5833V94.5942L77.2429 94.635C77.3013 94.7896 77.4121 95.02 77.5813 95.3146C77.9167 95.8979 78.43 96.6183 79.0921 97.3125C80.4512 98.7358 82.1633 99.78 84.0213 99.78C86.7979 99.78 88.9096 98.415 90.3942 96.5571C91.9312 94.6321 92.6108 92.4037 92.6108 91.1817C92.6108 90.6015 92.8413 90.0451 93.2515 89.6349C93.6618 89.2246 94.2182 88.9942 94.7983 88.9942C95.1717 88.9942 96.4608 88.7317 97.6392 87.7254C98.7096 86.8037 99.7917 85.1704 99.7917 82.1925C99.7917 78.6692 99.3308 76.855 98.7737 75.9596C98.5994 75.6499 98.3349 75.4007 98.0154 75.245C97.7208 75.105 97.2775 75 96.5921 75C96.1962 75 95.8077 74.8925 95.468 74.689C95.1284 74.4856 94.8504 74.1937 94.6636 73.8447C94.4768 73.4956 94.3882 73.1024 94.4073 72.7069C94.4264 72.3114 94.5525 71.9286 94.7721 71.5992C95.3787 70.6892 95.7638 69.3417 95.8396 67.72C95.9023 66.0841 95.6803 64.4498 95.1833 62.89C94.6875 61.35 94.0021 60.2067 93.3283 59.5708C92.7188 58.9992 92.2958 58.9671 91.8992 59.1012C91.5703 59.2113 91.22 59.2416 90.8772 59.1896C90.5343 59.1376 90.2087 59.0049 89.9273 58.8023C89.6458 58.5998 89.4165 58.3332 89.2583 58.0246C89.1002 57.716 89.0176 57.3743 89.0175 57.0275C89.0175 55.1258 88.0842 53.475 86.4917 52.2354C84.8787 50.9783 82.6621 50.2229 80.425 50.2229C79.62 50.2229 79.1271 50.4767 78.7654 50.7946C78.3088 51.2424 77.9649 51.7922 77.7621 52.3987C77.435 53.2984 77.2548 54.2448 77.2283 55.2017V85.2083H79.0833C80.1276 85.2083 81.1291 84.7935 81.8676 84.0551C82.606 83.3166 83.0208 82.3151 83.0208 81.2708V76.0354C81.7659 75.5278 80.7266 74.5994 80.081 73.4096C79.4355 72.2197 79.2238 70.8423 79.4824 69.5135C79.741 68.1847 80.4537 66.9872 81.4984 66.1262C82.543 65.2653 83.8546 64.7944 85.2083 64.7944C86.5621 64.7944 87.8737 65.2653 88.9183 66.1262C89.963 66.9872 90.6757 68.1847 90.9343 69.5135C91.1928 70.8423 90.9812 72.2197 90.3357 73.4096C89.6901 74.5994 88.6508 75.5278 87.3958 76.0354V81.2708C87.3958 83.4754 86.5201 85.5898 84.9612 87.1487C83.4023 88.7075 81.2879 89.5833 79.0833 89.5833H77.2283ZM64.7917 63.3333C64.4049 63.3333 64.034 63.487 63.7605 63.7605C63.487 64.034 63.3333 64.4049 63.3333 64.7917C63.3333 65.1784 63.487 65.5494 63.7605 65.8229C64.034 66.0964 64.4049 66.25 64.7917 66.25C65.1784 66.25 65.5494 66.0964 65.8229 65.8229C66.0964 65.5494 66.25 65.1784 66.25 64.7917C66.25 64.4049 66.0964 64.034 65.8229 63.7605C65.5494 63.487 65.1784 63.3333 64.7917 63.3333ZM63.3333 85.2083C63.3333 85.5951 63.487 85.966 63.7605 86.2395C64.034 86.513 64.4049 86.6667 64.7917 86.6667C65.1784 86.6667 65.5494 86.513 65.8229 86.2395C66.0964 85.966 66.25 85.5951 66.25 85.2083C66.25 84.8216 66.0964 84.4506 65.8229 84.1771C65.5494 83.9036 65.1784 83.75 64.7917 83.75C64.4049 83.75 64.034 83.9036 63.7605 84.1771C63.487 84.4506 63.3333 84.8216 63.3333 85.2083ZM83.75 70.625C83.75 71.0118 83.9036 71.3827 84.1771 71.6562C84.4506 71.9297 84.8216 72.0833 85.2083 72.0833C85.5951 72.0833 85.966 71.9297 86.2395 71.6562C86.513 71.3827 86.6667 71.0118 86.6667 70.625C86.6667 70.2382 86.513 69.8673 86.2395 69.5938C85.966 69.3203 85.5951 69.1667 85.2083 69.1667C84.8216 69.1667 84.4506 69.3203 84.1771 69.5938C83.9036 69.8673 83.75 70.2382 83.75 70.625Z" fill="black"/>
</svg>
