<svg width="150" height="150" viewBox="0 0 150 150" fill="none" xmlns="http://www.w3.org/2000/svg">
<circle cx="75" cy="75" r="75" fill="white"/>
<path d="M96.875 50.9375H53.125C49.5006 50.9375 46.5625 53.8756 46.5625 57.5V96.875C46.5625 100.499 49.5006 103.438 53.125 103.438H96.875C100.499 103.438 103.438 100.499 103.438 96.875V57.5C103.438 53.8756 100.499 50.9375 96.875 50.9375Z" stroke="black" stroke-width="5" stroke-linejoin="round"/>
<path d="M80.4688 75C82.2809 75 83.75 73.5309 83.75 71.7188C83.75 69.9066 82.2809 68.4375 80.4688 68.4375C78.6566 68.4375 77.1875 69.9066 77.1875 71.7188C77.1875 73.5309 78.6566 75 80.4688 75Z" fill="black"/>
<path d="M91.4062 75C93.2184 75 94.6875 73.5309 94.6875 71.7188C94.6875 69.9066 93.2184 68.4375 91.4062 68.4375C89.5941 68.4375 88.125 69.9066 88.125 71.7188C88.125 73.5309 89.5941 75 91.4062 75Z" fill="black"/>
<path d="M80.4688 85.9375C82.2809 85.9375 83.75 84.4684 83.75 82.6562C83.75 80.8441 82.2809 79.375 80.4688 79.375C78.6566 79.375 77.1875 80.8441 77.1875 82.6562C77.1875 84.4684 78.6566 85.9375 80.4688 85.9375Z" fill="black"/>
<path d="M91.4062 85.9375C93.2184 85.9375 94.6875 84.4684 94.6875 82.6562C94.6875 80.8441 93.2184 79.375 91.4062 79.375C89.5941 79.375 88.125 80.8441 88.125 82.6562C88.125 84.4684 89.5941 85.9375 91.4062 85.9375Z" fill="black"/>
<path d="M58.5938 85.9375C60.4059 85.9375 61.875 84.4684 61.875 82.6562C61.875 80.8441 60.4059 79.375 58.5938 79.375C56.7816 79.375 55.3125 80.8441 55.3125 82.6562C55.3125 84.4684 56.7816 85.9375 58.5938 85.9375Z" fill="black"/>
<path d="M69.5312 85.9375C71.3434 85.9375 72.8125 84.4684 72.8125 82.6562C72.8125 80.8441 71.3434 79.375 69.5312 79.375C67.7191 79.375 66.25 80.8441 66.25 82.6562C66.25 84.4684 67.7191 85.9375 69.5312 85.9375Z" fill="black"/>
<path d="M58.5938 96.875C60.4059 96.875 61.875 95.4059 61.875 93.5938C61.875 91.7816 60.4059 90.3125 58.5938 90.3125C56.7816 90.3125 55.3125 91.7816 55.3125 93.5938C55.3125 95.4059 56.7816 96.875 58.5938 96.875Z" fill="black"/>
<path d="M69.5312 96.875C71.3434 96.875 72.8125 95.4059 72.8125 93.5938C72.8125 91.7816 71.3434 90.3125 69.5312 90.3125C67.7191 90.3125 66.25 91.7816 66.25 93.5938C66.25 95.4059 67.7191 96.875 69.5312 96.875Z" fill="black"/>
<path d="M80.4688 96.875C82.2809 96.875 83.75 95.4059 83.75 93.5938C83.75 91.7816 82.2809 90.3125 80.4688 90.3125C78.6566 90.3125 77.1875 91.7816 77.1875 93.5938C77.1875 95.4059 78.6566 96.875 80.4688 96.875Z" fill="black"/>
<path d="M57.5 46.5625V50.9375M92.5 46.5625V50.9375" stroke="black" stroke-width="5" stroke-linecap="round" stroke-linejoin="round"/>
<path d="M103.438 61.875H46.5625" stroke="black" stroke-width="5" stroke-linejoin="round"/>
</svg>
