<svg width="220" height="220" viewBox="0 0 220 220" fill="none" xmlns="http://www.w3.org/2000/svg">
<circle cx="110" cy="110" r="110" fill="#9E2ECC"/>
<path d="M120.201 149.512C120.201 138.397 116.021 128.491 109.494 122.023C102.968 128.491 98.7871 138.397 98.7871 149.512C98.7871 160.627 102.968 170.533 109.494 177C116.021 170.533 120.201 160.627 120.201 149.512Z" stroke="#FAE033" stroke-width="6.55" stroke-miterlimit="10"/>
<path d="M94.8968 148.232C101.365 139.242 103.734 128.737 102.225 119.629C93.1897 120.991 84.0387 126.507 77.5819 135.509C71.1252 144.512 68.7445 155.005 70.2542 164.113C79.289 162.751 88.44 157.235 94.8968 148.232Z" stroke="#FAE033" stroke-width="6.55" stroke-miterlimit="10"/>
<path d="M75.1549 132.153C85.6181 128.714 93.6426 121.636 97.7071 113.373C89.6013 109.101 78.9988 108.139 68.5355 111.578C58.0723 115.016 50.0478 122.094 45.9833 130.357C54.0891 134.629 64.6917 135.592 75.1549 132.153Z" stroke="#FAE033" stroke-width="6.55" stroke-miterlimit="10"/>
<path d="M68.5471 107.423C79.0104 110.861 89.6246 109.899 97.7187 105.627C93.6542 97.3638 85.6181 90.2746 75.1665 86.8474C64.7149 83.4202 54.0891 84.3709 45.9949 88.6432C50.0594 96.9061 58.0955 103.995 68.5471 107.423Z" stroke="#FAE033" stroke-width="6.55" stroke-miterlimit="10"/>
<path d="M77.5704 83.4906C84.0388 92.4812 93.1782 98.0094 102.213 99.3709C103.734 90.2629 101.354 79.77 94.8853 70.7676C88.4169 61.7653 79.2775 56.2488 70.2427 54.8873C68.7214 63.9953 71.102 74.4883 77.5704 83.4906Z" stroke="#FAE033" stroke-width="6.55" stroke-miterlimit="10"/>
<path d="M98.7988 69.4883C98.7988 80.6033 102.979 90.5094 109.506 96.9765C116.032 90.5094 120.213 80.6033 120.213 69.4883C120.213 58.3732 116.032 48.4671 109.506 42C102.979 48.4671 98.7988 58.3732 98.7988 69.4883Z" stroke="#FAE033" stroke-width="6.55" stroke-miterlimit="10"/>
<path d="M124.115 70.7676C117.646 79.7582 115.277 90.2629 116.787 99.3709C125.822 98.0094 134.973 92.493 141.43 83.4906C147.886 74.4883 150.267 63.9953 148.757 54.8873C139.723 56.2488 130.572 61.7653 124.115 70.7676Z" stroke="#FAE033" stroke-width="6.55" stroke-miterlimit="10"/>
<path d="M143.845 86.8474C133.382 90.2864 125.357 97.3638 121.293 105.627C129.399 109.899 140.001 110.861 150.465 107.423C160.928 103.984 168.952 96.9061 173.017 88.6432C164.911 84.3709 154.308 83.4084 143.845 86.8474Z" stroke="#FAE033" stroke-width="6.55" stroke-miterlimit="10"/>
<path d="M150.465 111.578C140.001 108.139 129.387 109.101 121.293 113.373C125.357 121.636 133.394 128.725 143.845 132.153C154.297 135.58 164.923 134.629 173.017 130.357C168.952 122.094 160.916 115.005 150.465 111.578Z" stroke="#FAE033" stroke-width="6.55" stroke-miterlimit="10"/>
<path d="M141.43 135.509C134.961 126.519 125.822 120.991 116.787 119.629C115.266 128.737 117.646 139.23 124.115 148.232C130.583 157.235 139.723 162.751 148.757 164.113C150.279 155.005 147.898 144.512 141.43 135.509Z" stroke="#FAE033" stroke-width="6.55" stroke-miterlimit="10"/>
<path d="M88.0219 168.667C87.3716 170.686 87.7316 172.798 88.8232 174.453C90.658 173.749 92.1677 172.247 92.8064 170.228C93.4451 168.209 93.0968 166.096 92.0051 164.441C90.1703 165.146 88.6606 166.648 88.0219 168.667Z" fill="#FAE033"/>
<path d="M57.7123 144.606C56.0168 145.862 55.0762 147.775 54.9949 149.758C56.8878 150.275 58.9781 149.958 60.6736 148.702C62.3691 147.446 63.3097 145.533 63.391 143.549C61.4981 143.033 59.4078 143.35 57.7123 144.606Z" fill="#FAE033"/>
<path d="M47.191 107.129C45.089 107.129 43.2194 108.127 42 109.688C43.231 111.237 45.1006 112.223 47.2142 112.211C49.3277 112.2 51.1858 111.214 52.4052 109.653C51.1742 108.103 49.3045 107.117 47.191 107.129Z" fill="#FAE033"/>
<path d="M60.4645 70.5681C58.7574 69.324 56.6671 69.0188 54.7742 69.547C54.8671 71.5306 55.8193 73.4437 57.5148 74.6878C59.2103 75.932 61.3122 76.2371 63.2051 75.709C63.1122 73.7254 62.16 71.8123 60.4645 70.5681Z" fill="#FAE033"/>
<path d="M92.4697 48.8663C91.8194 46.8475 90.2981 45.3569 88.4633 44.6644C87.3949 46.3194 87.0465 48.432 87.6968 50.4508C88.3472 52.4696 89.8684 53.9602 91.7033 54.6527C92.7717 52.9978 93.12 50.8851 92.4697 48.8663Z" fill="#FAE033"/>
<path d="M130.99 50.3334C131.64 48.3146 131.28 46.2019 130.188 44.547C128.353 45.2512 126.844 46.7536 126.205 48.7723C125.566 50.7911 125.915 52.9038 127.006 54.5587C128.841 53.8545 130.351 52.3522 130.99 50.3334Z" fill="#FAE033"/>
<path d="M161.288 74.3944C162.983 73.1386 163.924 71.2254 164.005 69.2419C162.112 68.7254 160.022 69.0423 158.326 70.2982C156.631 71.5541 155.69 73.4672 155.609 75.4508C157.502 75.9672 159.592 75.6503 161.288 74.3944Z" fill="#FAE033"/>
<path d="M171.809 111.871C173.911 111.871 175.781 110.873 177 109.312C175.769 107.763 173.899 106.777 171.786 106.789C169.672 106.801 167.814 107.786 166.595 109.347C167.826 110.897 169.695 111.883 171.809 111.871Z" fill="#FAE033"/>
<path d="M158.535 148.432C160.243 149.676 162.333 149.981 164.226 149.453C164.133 147.47 163.181 145.556 161.485 144.312C159.79 143.068 157.688 142.763 155.795 143.291C155.888 145.275 156.84 147.188 158.535 148.432Z" fill="#FAE033"/>
<path d="M126.53 170.134C127.181 172.153 128.702 173.643 130.537 174.336C131.605 172.681 131.954 170.568 131.303 168.549C130.653 166.531 129.132 165.04 127.297 164.347C126.228 166.002 125.88 168.115 126.53 170.134Z" fill="#FAE033"/>
</svg>
