<?xml version="1.0" encoding="UTF-8"?>
<svg id="Layer_2" data-name="Layer 2" xmlns="http://www.w3.org/2000/svg" viewBox="0 0 64 64">
  <defs>
    <style>
      .cls-1 {
        fill: none;
        stroke: #fae033;
        stroke-miterlimit: 10;
        stroke-width: 3.38px;
      }

      .cls-2 {
        fill: #fae033;
        stroke-width: 0px;
      }
    </style>
  </defs>
  <g id="Layer_1-2" data-name="Layer 1">
    <g>
      <g>
        <path class="cls-1" d="M36.75,49.57c0-4.88-1.86-9.23-4.75-12.07-2.89,2.84-4.75,7.19-4.75,12.07s1.86,9.23,4.75,12.07c2.89-2.84,4.75-7.19,4.75-12.07Z"/>
        <path class="cls-1" d="M25.52,49c2.87-3.95,3.92-8.56,3.25-12.56-4.01.6-8.07,3.02-10.94,6.97s-3.92,8.56-3.25,12.56c4.01-.6,8.07-3.02,10.94-6.97Z"/>
        <path class="cls-1" d="M16.76,41.95c4.64-1.51,8.2-4.62,10.01-8.25-3.59-1.87-8.3-2.3-12.95-.79s-8.2,4.62-10.01,8.25c3.59,1.87,8.3,2.3,12.95.79Z"/>
        <path class="cls-1" d="M13.83,31.09c4.64,1.51,9.35,1.09,12.95-.79-1.81-3.63-5.37-6.74-10.01-8.25s-9.35-1.09-12.95.79c1.81,3.63,5.37,6.74,10.01,8.25Z"/>
        <path class="cls-1" d="M17.83,20.58c2.87,3.95,6.93,6.38,10.94,6.97.67-4-.38-8.61-3.25-12.56s-6.93-6.38-10.94-6.97c-.67,4,.38,8.61,3.25,12.56Z"/>
        <path class="cls-1" d="M27.25,14.43c0,4.88,1.86,9.23,4.75,12.07,2.89-2.84,4.75-7.19,4.75-12.07s-1.86-9.23-4.75-12.07c-2.89,2.84-4.75,7.19-4.75,12.07Z"/>
        <path class="cls-1" d="M38.48,15c-2.87,3.95-3.92,8.56-3.25,12.56,4.01-.6,8.07-3.02,10.94-6.97s3.92-8.56,3.25-12.56c-4.01.6-8.07,3.02-10.94,6.97Z"/>
        <path class="cls-1" d="M47.24,22.05c-4.64,1.51-8.2,4.62-10.01,8.25,3.59,1.87,8.3,2.3,12.95.79s8.2-4.62,10.01-8.25c-3.59-1.87-8.3-2.3-12.95-.79Z"/>
        <path class="cls-1" d="M50.18,32.91c-4.64-1.51-9.35-1.09-12.95.79,1.81,3.63,5.37,6.74,10.01,8.25s9.35,1.09,12.95-.79c-1.81-3.63-5.37-6.74-10.01-8.25Z"/>
        <path class="cls-1" d="M46.17,43.42c-2.87-3.95-6.93-6.38-10.94-6.97-.67,4,.38,8.61,3.25,12.56s6.93,6.38,10.94,6.97c.67-4-.38-8.61-3.25-12.56Z"/>
      </g>
      <g>
        <path class="cls-2" d="M22.47,57.98c-.29.89-.13,1.81.35,2.54.81-.31,1.48-.97,1.77-1.86s.13-1.81-.35-2.54c-.81.31-1.48.97-1.77,1.86Z"/>
        <path class="cls-2" d="M9.02,47.41c-.75.55-1.17,1.39-1.21,2.26.84.23,1.77.09,2.52-.46s1.17-1.39,1.21-2.26c-.84-.23-1.77-.09-2.52.46Z"/>
        <path class="cls-2" d="M4.35,30.96c-.93,0-1.76.44-2.31,1.12.54.68,1.38,1.11,2.31,1.11s1.76-.44,2.31-1.12c-.54-.68-1.38-1.11-2.31-1.11Z"/>
        <path class="cls-2" d="M10.24,14.91c-.76-.55-1.69-.68-2.52-.45.04.87.46,1.71,1.22,2.26s1.69.68,2.52.45c-.04-.87-.46-1.71-1.22-2.26Z"/>
        <path class="cls-2" d="M24.44,5.38c-.29-.89-.96-1.54-1.78-1.85-.48.73-.63,1.65-.34,2.54s.96,1.54,1.78,1.85c.48-.73.63-1.65.34-2.54Z"/>
        <path class="cls-2" d="M41.53,6.02c.29-.89.13-1.81-.35-2.54-.81.31-1.48.97-1.77,1.86s-.13,1.81.35,2.54c.81-.31,1.48-.97,1.77-1.86Z"/>
        <path class="cls-2" d="M54.98,16.59c.75-.55,1.17-1.39,1.21-2.26-.84-.23-1.77-.09-2.52.46s-1.17,1.39-1.21,2.26c.84.23,1.77.09,2.52-.46Z"/>
        <path class="cls-2" d="M59.65,33.04c.93,0,1.76-.44,2.31-1.12-.54-.68-1.38-1.11-2.31-1.11s-1.76.44-2.31,1.12c.54.68,1.38,1.11,2.31,1.11Z"/>
        <path class="cls-2" d="M53.76,49.09c.76.55,1.69.68,2.52.45-.04-.87-.46-1.71-1.22-2.26s-1.69-.68-2.52-.45c.04.87.46,1.71,1.22,2.26Z"/>
        <path class="cls-2" d="M39.56,58.62c.29.89.96,1.54,1.78,1.85.48-.73.63-1.65.34-2.54s-.96-1.54-1.78-1.85c-.48.73-.63,1.65-.34,2.54Z"/>
      </g>
    </g>
  </g>
</svg>