<svg width="94" height="94" viewBox="0 0 94 94" fill="none" xmlns="http://www.w3.org/2000/svg">
<g clip-path="url(#clip0_712_4614)">
<path d="M46.64 93.28C72.3986 93.28 93.28 72.3986 93.28 46.64C93.28 20.8814 72.3986 0 46.64 0C20.8814 0 0 20.8814 0 46.64C0 72.3986 20.8814 93.28 46.64 93.28Z" fill="#8CE3FF"/>
<path d="M45.9499 37.8499C45.9499 37.8499 51.6899 22.2999 67.5799 20.1899C67.5799 20.1899 62.7999 40.7099 47.3399 42.5399C47.3399 42.5399 47.8299 53.4399 44.1099 61.4399H41.5799C41.5799 61.4399 46.3599 52.0999 45.0899 42.6799C45.0899 42.6799 26.3899 42.3999 25.6899 23.6299C25.6899 23.6299 41.2899 29.7399 45.9499 37.8399V37.8499Z" fill="#5FAC44"/>
<path d="M46.6399 56.2999C33.7699 56.2999 23.3199 63.7799 23.0699 73.0799H70.2099C69.9599 63.7799 59.5099 56.2999 46.6399 56.2999Z" fill="#B37F4D"/>
</g>
<defs>
<clipPath id="clip0_712_4614">
<rect width="93.27" height="93.27" fill="white"/>
</clipPath>
</defs>
</svg>
