<svg width="94" height="94" viewBox="0 0 94 94" fill="none" xmlns="http://www.w3.org/2000/svg">
<g clip-path="url(#clip0_712_4613)">
<path d="M46.64 93.28C72.3986 93.28 93.28 72.3986 93.28 46.64C93.28 20.8814 72.3986 0 46.64 0C20.8814 0 0 20.8814 0 46.64C0 72.3986 20.8814 93.28 46.64 93.28Z" fill="#FAE033"/>
<path d="M27.8801 65.65C27.8801 65.65 27.0101 73.97 35.2901 71.33C43.5701 68.69 64.2801 57.15 66.9001 20.47C66.9001 20.47 26.0301 35.89 27.8801 65.65Z" fill="white"/>
<path d="M29.7301 71.06C22.8501 68.53 18.2001 34.62 66.34 20.48C66.37 20.48 66.4001 20.51 66.3701 20.53C63.4101 22.24 29.5501 42.12 29.7301 71.06Z" fill="black"/>
<path d="M48.3801 46.24L65.3801 23.11C65.3801 23.11 50.8301 62.24 30.0601 71.29" fill="black"/>
<path d="M64.34 22.97C64.2901 23.01 64.2301 23.05 64.1801 23.1C33.8301 47.01 29.9301 71.2 29.9301 71.2" fill="black"/>
<path d="M30.5601 71.54C30.5601 71.54 56.7201 65.95 67.4701 20.98C67.4701 20.96 67.5101 20.95 67.5201 20.98C69.3401 25.58 63.4901 81.89 30.5601 71.55V71.54Z" fill="black"/>
</g>
<defs>
<clipPath id="clip0_712_4613">
<rect width="93.27" height="93.27" fill="white"/>
</clipPath>
</defs>
</svg>
