<svg width="150" height="150" viewBox="0 0 150 150" fill="none" xmlns="http://www.w3.org/2000/svg">
<circle cx="75" cy="75" r="75" fill="white"/>
<mask id="mask0_1143_5545" style="mask-type:alpha" maskUnits="userSpaceOnUse" x="40" y="40" width="70" height="70">
<rect x="40" y="40" width="70" height="70" fill="#D9D9D9"/>
</mask>
<g mask="url(#mask0_1143_5545)">
<path d="M54.5833 101.25C52.9792 101.25 51.6059 100.679 50.4635 99.5365C49.3212 98.3941 48.75 97.0208 48.75 95.4167V54.5833C48.75 52.9792 49.3212 51.6059 50.4635 50.4635C51.6059 49.3212 52.9792 48.75 54.5833 48.75H80.6146L74.7813 54.5833H54.5833V95.4167H95.4167V75.1458L101.25 69.3125V95.4167C101.25 97.0208 100.679 98.3941 99.5365 99.5365C98.3941 100.679 97.0208 101.25 95.4167 101.25H54.5833ZM66.25 83.75V71.3542L93.0104 44.5938C93.5938 44.0104 94.25 43.5729 94.9792 43.2813C95.7083 42.9896 96.4375 42.8438 97.1667 42.8438C97.9444 42.8438 98.6858 42.9896 99.3906 43.2813C100.095 43.5729 100.74 44.0104 101.323 44.5938L105.406 48.75C105.941 49.3333 106.354 49.9774 106.646 50.6823C106.938 51.3872 107.083 52.1042 107.083 52.8333C107.083 53.5625 106.95 54.2795 106.682 54.9844C106.415 55.6892 105.99 56.3333 105.406 56.9167L78.6458 83.75H66.25ZM72.0833 77.9167H76.1667L93.0833 61L91.0417 58.9583L88.9271 56.9167L72.0833 73.7604V77.9167Z" fill="#1C1B1F"/>
</g>
</svg>
