<svg width="258" height="219" viewBox="0 0 258 219" fill="none" xmlns="http://www.w3.org/2000/svg">
<g clip-path="url(#clip0_488_2340)">
<path d="M15.9638 182.404C13.2529 182.404 11.1445 183.425 9.65159 185.468C8.15867 187.51 7.41221 190.352 7.41221 193.992C7.41221 201.573 10.254 205.37 15.9507 205.37C18.3341 205.37 21.2283 204.767 24.6332 203.576V209.625C21.8438 210.79 18.727 211.366 15.2828 211.366C10.3326 211.366 6.54789 209.861 3.92873 206.862C1.30958 203.864 0 199.556 0 193.939C0 190.404 0.641693 187.301 1.93818 184.643C3.23466 181.985 5.08116 179.942 7.49079 178.528C9.90041 177.114 12.7291 176.394 15.9769 176.394C19.2246 176.394 22.6033 177.193 25.9427 178.79L23.6117 184.656C22.3414 184.054 21.058 183.53 19.7746 183.072C18.4912 182.613 17.221 182.391 15.9769 182.391L15.9638 182.404Z" fill="black"/>
<path d="M47.852 210.908L46.477 207.373H46.2936C45.1019 208.879 43.8709 209.926 42.6006 210.502C41.3303 211.079 39.6934 211.38 37.6504 211.38C35.1491 211.38 33.1848 210.673 31.7573 209.245C30.3299 207.818 29.6096 205.789 29.6096 203.144C29.6096 200.499 30.5787 198.352 32.5038 197.042C34.4289 195.733 37.3492 195.013 41.2387 194.869L45.7567 194.725V193.586C45.7567 190.954 44.4079 189.632 41.7101 189.632C39.6279 189.632 37.1921 190.26 34.3765 191.517L32.0323 186.725C35.0313 185.154 38.3445 184.381 41.9982 184.381C45.652 184.381 48.1663 185.141 50.0259 186.659C51.8855 188.178 52.8153 190.496 52.8153 193.599V210.934H47.852V210.908ZM45.7567 198.849L43.0066 198.941C40.9375 199.006 39.4053 199.373 38.3969 200.054C37.3885 200.735 36.8778 201.782 36.8778 203.17C36.8778 205.173 38.0302 206.169 40.322 206.169C41.972 206.169 43.2816 205.697 44.2638 204.754C45.246 203.812 45.7436 202.555 45.7436 200.984V198.849H45.7567Z" fill="black"/>
<path d="M67.2075 210.908H60.1096V174.705H67.2075V210.908Z" fill="black"/>
<path d="M97.9565 210.908H90.8585V195.72C90.8585 193.848 90.5442 192.433 89.9157 191.491C89.2871 190.548 88.2918 190.077 86.9429 190.077C85.1226 190.077 83.813 190.744 82.988 192.08C82.1629 193.415 81.757 195.615 81.757 198.666V210.908H74.6591V184.892H80.0807L81.0367 188.217H81.4296C82.1237 187.026 83.132 186.083 84.4547 185.415C85.7774 184.748 87.2834 184.407 88.9989 184.407C92.8884 184.407 95.5337 185.677 96.9088 188.217H97.5374C98.2315 187.013 99.266 186.07 100.615 185.402C101.964 184.735 103.509 184.407 105.212 184.407C108.158 184.407 110.384 185.167 111.903 186.672C113.423 188.178 114.169 190.613 114.169 193.939V210.908H107.045V195.72C107.045 193.848 106.731 192.433 106.102 191.491C105.473 190.548 104.478 190.077 103.129 190.077C101.388 190.077 100.091 190.692 99.2267 191.936C98.3624 193.18 97.9303 195.144 97.9303 197.841V210.895L97.9565 210.908Z" fill="black"/>
<path d="M152.906 193.848C152.906 197.854 152.199 201.206 150.772 203.916C149.344 206.627 147.275 208.604 144.525 209.861L152.723 219H143.477L137.244 211.367H136.707C131.495 211.367 127.487 209.848 124.698 206.823C121.909 203.799 120.507 199.452 120.507 193.795C120.507 188.139 121.909 183.805 124.711 180.82C127.514 177.834 131.521 176.342 136.759 176.342C141.998 176.342 145.992 177.848 148.755 180.859C151.518 183.871 152.906 188.191 152.906 193.848ZM128.064 193.848C128.064 197.645 128.784 200.512 130.224 202.437C131.665 204.362 133.826 205.317 136.694 205.317C142.456 205.317 145.324 201.494 145.324 193.848C145.324 186.201 142.456 182.352 136.733 182.352C133.865 182.352 131.704 183.321 130.237 185.245C128.771 187.17 128.05 190.037 128.05 193.848H128.064Z" fill="black"/>
<path d="M177.828 210.908L176.872 207.583H176.505C175.745 208.787 174.672 209.73 173.27 210.385C171.869 211.039 170.284 211.38 168.503 211.38C165.452 211.38 163.147 210.568 161.589 208.931C160.03 207.294 159.258 204.938 159.258 201.874V184.905H166.356V200.093C166.356 201.965 166.683 203.38 167.351 204.322C168.019 205.265 169.08 205.736 170.533 205.736C172.524 205.736 173.951 205.069 174.842 203.746C175.732 202.424 176.164 200.224 176.164 197.147V184.905H183.262V210.921H177.815L177.828 210.908Z" fill="black"/>
<path d="M202.5 211.367C198.309 211.367 195.035 210.214 192.678 207.897C190.321 205.579 189.142 202.306 189.142 198.077C189.142 193.848 190.229 190.352 192.416 187.969C194.603 185.586 197.615 184.394 201.452 184.394C205.289 184.394 207.987 185.442 210.043 187.537C212.099 189.632 213.121 192.525 213.121 196.218V199.661H196.345C196.424 201.678 197.026 203.249 198.139 204.388C199.252 205.527 200.824 206.09 202.841 206.09C204.412 206.09 205.892 205.933 207.28 205.606C208.668 205.278 210.135 204.754 211.654 204.047V209.534C210.41 210.149 209.087 210.62 207.673 210.921C206.259 211.223 204.543 211.38 202.5 211.38V211.367ZM201.492 189.448C199.986 189.448 198.807 189.92 197.956 190.876C197.105 191.831 196.62 193.18 196.489 194.934H206.455C206.429 193.18 205.97 191.831 205.08 190.876C204.189 189.92 202.998 189.448 201.492 189.448Z" fill="black"/>
<path d="M237.034 203.183C237.034 205.854 236.104 207.884 234.257 209.285C232.411 210.686 229.635 211.38 225.942 211.38C224.043 211.38 222.432 211.249 221.096 211C219.76 210.751 218.516 210.371 217.351 209.874V204.008C218.673 204.623 220.153 205.147 221.803 205.566C223.453 205.985 224.907 206.195 226.164 206.195C228.744 206.195 230.027 205.448 230.027 203.956C230.027 203.393 229.857 202.947 229.517 202.594C229.176 202.24 228.587 201.848 227.749 201.402C226.911 200.957 225.798 200.447 224.396 199.857C222.393 199.019 220.926 198.247 219.983 197.527C219.04 196.807 218.359 195.995 217.94 195.078C217.521 194.162 217.298 193.023 217.298 191.674C217.298 189.357 218.189 187.576 219.983 186.306C221.777 185.036 224.318 184.407 227.605 184.407C230.892 184.407 233.786 185.088 236.746 186.45L234.611 191.569C233.301 191.006 232.083 190.548 230.957 190.195C229.831 189.841 228.665 189.658 227.487 189.658C225.392 189.658 224.344 190.221 224.344 191.36C224.344 192.001 224.684 192.551 225.352 193.01C226.02 193.468 227.5 194.162 229.792 195.078C231.822 195.903 233.314 196.663 234.257 197.383C235.2 198.103 235.907 198.915 236.353 199.844C236.798 200.774 237.034 201.887 237.034 203.17V203.183Z" fill="black"/>
<path d="M253.534 205.71C254.778 205.71 256.271 205.435 258 204.899V210.175C256.232 210.961 254.058 211.367 251.478 211.367C248.637 211.367 246.567 210.647 245.271 209.219C243.974 207.792 243.333 205.632 243.333 202.764V190.221H239.941V187.222L243.857 184.853L245.9 179.366H250.444V184.905H257.725V190.234H250.444V202.777C250.444 203.786 250.732 204.532 251.295 205.016C251.858 205.501 252.605 205.737 253.534 205.737V205.71Z" fill="black"/>
<path d="M141.068 125.945C141.068 113.546 136.353 102.495 128.993 95.2805C121.634 102.495 116.919 113.546 116.919 125.945C116.919 138.345 121.634 149.395 128.993 156.61C136.353 149.395 141.068 138.345 141.068 125.945Z" stroke="#FAE033" stroke-width="6.55" stroke-miterlimit="10"/>
<path d="M112.532 124.518C119.826 114.488 122.498 102.77 120.795 92.6094C110.607 94.1282 100.287 100.282 93.0062 110.325C85.7249 120.367 83.0403 132.073 84.7427 142.233C94.9313 140.714 105.251 134.561 112.532 124.518Z" stroke="#FAE033" stroke-width="6.55" stroke-miterlimit="10"/>
<path d="M90.2692 106.58C102.068 102.744 111.118 94.8484 115.701 85.6306C106.56 80.8646 94.6039 79.791 82.8046 83.6273C71.0053 87.4637 61.9561 95.359 57.3726 104.577C66.5134 109.343 78.4699 110.416 90.2692 106.58Z" stroke="#FAE033" stroke-width="6.55" stroke-miterlimit="10"/>
<path d="M82.8176 78.9924C94.6169 82.8288 106.586 81.7551 115.714 76.9891C111.131 67.7714 102.068 59.863 90.2822 56.0397C78.496 52.2164 66.5134 53.277 57.3856 58.043C61.9691 67.2608 71.0314 75.1692 82.8176 78.9924Z" stroke="#FAE033" stroke-width="6.55" stroke-miterlimit="10"/>
<path d="M92.993 52.2948C100.287 62.3243 110.594 68.4913 120.782 70.0102C122.498 59.8497 119.813 48.1442 112.519 38.1016C105.224 28.059 94.9181 21.9051 84.7296 20.3862C83.014 30.5467 85.6987 42.2522 92.993 52.2948Z" stroke="#FAE033" stroke-width="6.55" stroke-miterlimit="10"/>
<path d="M116.932 36.6745C116.932 49.0739 121.647 60.1247 129.006 67.3392C136.366 60.1247 141.081 49.0739 141.081 36.6745C141.081 24.275 136.366 13.2242 129.006 6.00977C121.647 13.2242 116.932 24.275 116.932 36.6745Z" stroke="#FAE033" stroke-width="6.55" stroke-miterlimit="10"/>
<path d="M145.481 38.1016C138.187 48.1311 135.515 59.8497 137.218 70.0102C147.406 68.4913 157.726 62.3374 165.007 52.2948C172.288 42.2522 174.973 30.5467 173.27 20.3862C163.082 21.9051 152.762 28.059 145.481 38.1016Z" stroke="#FAE033" stroke-width="6.55" stroke-miterlimit="10"/>
<path d="M167.731 56.0397C155.931 59.8761 146.882 67.7714 142.299 76.9891C151.44 81.7551 163.396 82.8288 175.195 78.9924C186.995 75.156 196.044 67.2607 200.627 58.043C191.486 53.277 179.53 52.2033 167.731 56.0397Z" stroke="#FAE033" stroke-width="6.55" stroke-miterlimit="10"/>
<path d="M175.195 83.6273C163.396 79.791 151.426 80.8646 142.299 85.6306C146.882 94.8484 155.945 102.757 167.731 106.58C179.517 110.403 191.5 109.343 200.627 104.577C196.044 95.359 186.982 87.4506 175.195 83.6273Z" stroke="#FAE033" stroke-width="6.55" stroke-miterlimit="10"/>
<path d="M165.007 110.325C157.712 100.295 147.406 94.1282 137.218 92.6094C135.502 102.77 138.187 114.475 145.481 124.518C152.775 134.561 163.082 140.714 173.27 142.233C174.986 132.073 172.301 120.367 165.007 110.325Z" stroke="#FAE033" stroke-width="6.55" stroke-miterlimit="10"/>
<path d="M104.779 147.314C104.046 149.566 104.452 151.923 105.683 153.769C107.752 152.983 109.455 151.307 110.175 149.055C110.895 146.803 110.502 144.446 109.271 142.6C107.202 143.386 105.5 145.062 104.779 147.314Z" fill="#FAE033"/>
<path d="M70.5993 120.472C68.6873 121.873 67.6266 124.008 67.5349 126.22C69.6695 126.796 72.0268 126.443 73.9387 125.042C75.8507 123.641 76.9115 121.507 77.0032 119.294C74.8685 118.718 72.5113 119.071 70.5993 120.472Z" fill="#FAE033"/>
<path d="M58.7345 78.6649C56.3642 78.6649 54.2558 79.7778 52.8807 81.5193C54.2689 83.2476 56.3773 84.3474 58.7607 84.3343C61.1442 84.3213 63.2395 83.2214 64.6146 81.48C63.2264 79.7517 61.118 78.6518 58.7345 78.6649Z" fill="#FAE033"/>
<path d="M73.7031 37.8792C71.778 36.4913 69.4207 36.1509 67.2861 36.7401C67.3909 38.9528 68.4648 41.0871 70.3767 42.475C72.2887 43.8629 74.6591 44.2033 76.7937 43.6141C76.6889 41.4013 75.615 39.2671 73.7031 37.8792Z" fill="#FAE033"/>
<path d="M109.795 13.6694C109.062 11.4173 107.346 9.75444 105.277 8.98193C104.072 10.8281 103.679 13.1849 104.413 15.437C105.146 17.689 106.862 19.3519 108.931 20.1244C110.136 18.2782 110.528 15.9214 109.795 13.6694Z" fill="#FAE033"/>
<path d="M153.234 15.3061C153.967 13.0541 153.561 10.6972 152.33 8.85107C150.261 9.63668 148.558 11.3126 147.838 13.5647C147.118 15.8168 147.511 18.1736 148.742 20.0197C150.811 19.2341 152.513 17.5582 153.234 15.3061Z" fill="#FAE033"/>
<path d="M187.401 42.1476C189.313 40.7466 190.373 38.6124 190.465 36.3996C188.33 35.8235 185.973 36.177 184.061 37.578C182.149 38.979 181.088 41.1132 180.997 43.326C183.131 43.9021 185.489 43.5486 187.401 42.1476Z" fill="#FAE033"/>
<path d="M199.265 83.9547C201.636 83.9547 203.744 82.8418 205.119 81.1003C203.731 79.372 201.623 78.2722 199.239 78.2853C196.856 78.2984 194.76 79.3982 193.385 81.1396C194.774 82.868 196.882 83.9678 199.265 83.9547Z" fill="#FAE033"/>
<path d="M184.297 124.741C186.222 126.128 188.579 126.469 190.714 125.88C190.609 123.667 189.535 121.533 187.623 120.145C185.711 118.757 183.341 118.416 181.206 119.006C181.311 121.218 182.385 123.353 184.297 124.741Z" fill="#FAE033"/>
<path d="M148.205 148.95C148.938 151.202 150.654 152.865 152.723 153.638C153.928 151.792 154.321 149.435 153.587 147.183C152.854 144.931 151.138 143.268 149.069 142.495C147.864 144.342 147.472 146.698 148.205 148.95Z" fill="#FAE033"/>
</g>
<defs>
<clipPath id="clip0_488_2340">
<rect width="258" height="219" fill="white"/>
</clipPath>
</defs>
</svg>
