<svg width="113" height="113" viewBox="0 0 113 113" fill="none" xmlns="http://www.w3.org/2000/svg">
<g clip-path="url(#clip0_712_4829)">
<path d="M56.16 111.82C25.47 111.82 0.5 86.85 0.5 56.16C0.5 25.47 25.47 0.5 56.16 0.5C86.85 0.5 111.82 25.47 111.82 56.16C111.82 86.85 86.85 111.82 56.16 111.82Z" fill="url(#paint0_linear_712_4829)"/>
<path d="M56.16 1C86.58 1 111.32 25.74 111.32 56.16C111.32 86.58 86.58 111.32 56.16 111.32C25.74 111.32 1 86.57 1 56.16C1 25.75 25.74 1 56.16 1ZM56.16 0C25.19 0 0 25.19 0 56.16C0 87.13 25.19 112.32 56.16 112.32C87.13 112.32 112.32 87.13 112.32 56.16C112.32 25.19 87.13 0 56.16 0Z" fill="#A23DC5"/>
<path d="M56.16 102.96C82.0069 102.96 102.96 82.0069 102.96 56.16C102.96 30.3131 82.0069 9.35999 56.16 9.35999C30.3131 9.35999 9.35999 30.3131 9.35999 56.16C9.35999 82.0069 30.3131 102.96 56.16 102.96Z" fill="white"/>
</g>
<defs>
<linearGradient id="paint0_linear_712_4829" x1="56.16" y1="-7.12" x2="56.16" y2="134.88" gradientUnits="userSpaceOnUse">
<stop offset="0.14" stop-color="#F8E2FF"/>
<stop offset="0.25" stop-color="#F1D5FA"/>
<stop offset="0.45" stop-color="#DFB2EE"/>
<stop offset="0.73" stop-color="#C27BDA"/>
<stop offset="1" stop-color="#A23DC5"/>
</linearGradient>
<clipPath id="clip0_712_4829">
<rect width="112.32" height="112.32" fill="white"/>
</clipPath>
</defs>
</svg>
