<svg width="66" height="85" viewBox="0 0 66 85" fill="none" xmlns="http://www.w3.org/2000/svg">
<path d="M1.344 79.128C1.088 79.128 0.88 79.0693 0.72 78.952C0.570667 78.8347 0.48 78.68 0.448 78.488C0.416 78.2853 0.453333 78.0613 0.56 77.816L4.784 68.456C4.92267 68.1467 5.088 67.928 5.28 67.8C5.48267 67.6613 5.712 67.592 5.968 67.592C6.21333 67.592 6.432 67.6613 6.624 67.8C6.82667 67.928 6.99733 68.1467 7.136 68.456L11.376 77.816C11.4933 78.0613 11.536 78.2853 11.504 78.488C11.472 78.6907 11.3813 78.8507 11.232 78.968C11.0827 79.0747 10.8853 79.128 10.64 79.128C10.3413 79.128 10.1067 79.0587 9.936 78.92C9.776 78.7707 9.632 78.5467 9.504 78.248L8.464 75.832L9.328 76.392H2.576L3.44 75.832L2.416 78.248C2.27733 78.5573 2.13333 78.7813 1.984 78.92C1.83467 79.0587 1.62133 79.128 1.344 79.128ZM5.936 69.944L3.696 75.272L3.28 74.76H8.624L8.224 75.272L5.968 69.944H5.936ZM13.9703 79.128C13.6503 79.128 13.4049 79.0427 13.2343 78.872C13.0636 78.6907 12.9783 78.4347 12.9783 78.104V72.056C12.9783 71.7253 13.0636 71.4747 13.2343 71.304C13.4049 71.1333 13.6449 71.048 13.9543 71.048C14.2636 71.048 14.5036 71.1333 14.6743 71.304C14.8449 71.4747 14.9303 71.7253 14.9303 72.056V73.224L14.7543 72.744C14.9676 72.2107 15.2983 71.7893 15.7463 71.48C16.1943 71.1707 16.7276 71.016 17.3463 71.016C17.9756 71.016 18.4929 71.1653 18.8983 71.464C19.3036 71.7627 19.5863 72.2213 19.7463 72.84H19.5223C19.7356 72.2747 20.0876 71.832 20.5783 71.512C21.0689 71.1813 21.6343 71.016 22.2743 71.016C22.8716 71.016 23.3623 71.1333 23.7463 71.368C24.1409 71.6027 24.4343 71.96 24.6263 72.44C24.8183 72.9093 24.9143 73.5067 24.9143 74.232V78.104C24.9143 78.4347 24.8236 78.6907 24.6423 78.872C24.4716 79.0427 24.2263 79.128 23.9063 79.128C23.5863 79.128 23.3409 79.0427 23.1703 78.872C22.9996 78.6907 22.9143 78.4347 22.9143 78.104V74.312C22.9143 73.7147 22.8129 73.2773 22.6103 73C22.4183 72.7227 22.0876 72.584 21.6183 72.584C21.0956 72.584 20.6849 72.7707 20.3863 73.144C20.0876 73.5067 19.9383 74.0133 19.9383 74.664V78.104C19.9383 78.4347 19.8529 78.6907 19.6823 78.872C19.5116 79.0427 19.2663 79.128 18.9463 79.128C18.6263 79.128 18.3756 79.0427 18.1943 78.872C18.0236 78.6907 17.9383 78.4347 17.9383 78.104V74.312C17.9383 73.7147 17.8369 73.2773 17.6343 73C17.4423 72.7227 17.1169 72.584 16.6583 72.584C16.1356 72.584 15.7249 72.7707 15.4263 73.144C15.1276 73.5067 14.9783 74.0133 14.9783 74.664V78.104C14.9783 78.7867 14.6423 79.128 13.9703 79.128ZM29.5535 79.16C28.9882 79.16 28.4815 79.0533 28.0335 78.84C27.5962 78.616 27.2495 78.3173 26.9935 77.944C26.7482 77.5707 26.6255 77.1493 26.6255 76.68C26.6255 76.104 26.7748 75.6507 27.0735 75.32C27.3722 74.9787 27.8575 74.7333 28.5295 74.584C29.2015 74.4347 30.1028 74.36 31.2335 74.36H32.0335V75.512H31.2495C30.5882 75.512 30.0602 75.544 29.6655 75.608C29.2708 75.672 28.9882 75.784 28.8175 75.944C28.6575 76.0933 28.5775 76.3067 28.5775 76.584C28.5775 76.936 28.7002 77.224 28.9455 77.448C29.1908 77.672 29.5322 77.784 29.9695 77.784C30.3215 77.784 30.6308 77.704 30.8975 77.544C31.1748 77.3733 31.3935 77.144 31.5535 76.856C31.7135 76.568 31.7935 76.2373 31.7935 75.864V74.024C31.7935 73.4907 31.6762 73.1067 31.4415 72.872C31.2068 72.6373 30.8122 72.52 30.2575 72.52C29.9482 72.52 29.6122 72.5573 29.2495 72.632C28.8975 72.7067 28.5242 72.8347 28.1295 73.016C27.9268 73.112 27.7455 73.1387 27.5855 73.096C27.4362 73.0533 27.3188 72.968 27.2335 72.84C27.1482 72.7013 27.1055 72.552 27.1055 72.392C27.1055 72.232 27.1482 72.0773 27.2335 71.928C27.3188 71.768 27.4628 71.6507 27.6655 71.576C28.1562 71.3733 28.6255 71.2293 29.0735 71.144C29.5322 71.0587 29.9482 71.016 30.3215 71.016C31.0895 71.016 31.7188 71.1333 32.2095 71.368C32.7108 71.6027 33.0842 71.96 33.3295 72.44C33.5748 72.9093 33.6975 73.5173 33.6975 74.264V78.104C33.6975 78.4347 33.6175 78.6907 33.4575 78.872C33.2975 79.0427 33.0682 79.128 32.7695 79.128C32.4708 79.128 32.2362 79.0427 32.0655 78.872C31.9055 78.6907 31.8255 78.4347 31.8255 78.104V77.336H31.9535C31.8788 77.7093 31.7295 78.0347 31.5055 78.312C31.2922 78.5787 31.0202 78.7867 30.6895 78.936C30.3588 79.0853 29.9802 79.16 29.5535 79.16ZM36.2075 79C36.0048 79 35.8342 78.952 35.6955 78.856C35.5675 78.7493 35.4822 78.616 35.4395 78.456C35.3968 78.296 35.3968 78.1253 35.4395 77.944C35.4928 77.752 35.5942 77.5707 35.7435 77.4L39.8875 72.2V72.68H36.1115C35.8662 72.68 35.6742 72.616 35.5355 72.488C35.4075 72.3493 35.3435 72.1627 35.3435 71.928C35.3435 71.6827 35.4075 71.496 35.5355 71.368C35.6742 71.24 35.8662 71.176 36.1115 71.176H40.8475C41.0822 71.176 41.2742 71.2293 41.4235 71.336C41.5728 71.432 41.6688 71.56 41.7115 71.72C41.7648 71.88 41.7702 72.0507 41.7275 72.232C41.6848 72.4133 41.5888 72.584 41.4395 72.744L37.2155 78.024V77.496H41.2155C41.7275 77.496 41.9835 77.7467 41.9835 78.248C41.9835 78.4827 41.9142 78.6693 41.7755 78.808C41.6475 78.936 41.4608 79 41.2155 79H36.2075ZM44.2976 79.112C43.9776 79.112 43.7323 79.016 43.5616 78.824C43.391 78.632 43.3056 78.3653 43.3056 78.024V72.152C43.3056 71.8 43.391 71.5333 43.5616 71.352C43.7323 71.16 43.9776 71.064 44.2976 71.064C44.6176 71.064 44.863 71.16 45.0336 71.352C45.215 71.5333 45.3056 71.8 45.3056 72.152V78.024C45.3056 78.3653 45.2203 78.632 45.0496 78.824C44.879 79.016 44.6283 79.112 44.2976 79.112ZM44.2976 69.576C43.9243 69.576 43.631 69.4853 43.4176 69.304C43.215 69.112 43.1136 68.8507 43.1136 68.52C43.1136 68.1787 43.215 67.9173 43.4176 67.736C43.631 67.5547 43.9243 67.464 44.2976 67.464C44.6816 67.464 44.975 67.5547 45.1776 67.736C45.3803 67.9173 45.4816 68.1787 45.4816 68.52C45.4816 68.8507 45.3803 69.112 45.1776 69.304C44.975 69.4853 44.6816 69.576 44.2976 69.576ZM48.3758 79.128C48.0558 79.128 47.8104 79.0427 47.6398 78.872C47.4691 78.6907 47.3838 78.4347 47.3838 78.104V72.056C47.3838 71.7253 47.4691 71.4747 47.6398 71.304C47.8104 71.1333 48.0504 71.048 48.3598 71.048C48.6691 71.048 48.9091 71.1333 49.0798 71.304C49.2504 71.4747 49.3358 71.7253 49.3358 72.056V73.144L49.1598 72.744C49.3944 72.1787 49.7571 71.752 50.2478 71.464C50.7491 71.1653 51.3144 71.016 51.9438 71.016C52.5731 71.016 53.0904 71.1333 53.4958 71.368C53.9011 71.6027 54.2051 71.96 54.4078 72.44C54.6104 72.9093 54.7118 73.5067 54.7118 74.232V78.104C54.7118 78.4347 54.6264 78.6907 54.4558 78.872C54.2851 79.0427 54.0398 79.128 53.7198 79.128C53.3998 79.128 53.1491 79.0427 52.9678 78.872C52.7971 78.6907 52.7118 78.4347 52.7118 78.104V74.328C52.7118 73.72 52.5944 73.2773 52.3598 73C52.1358 72.7227 51.7838 72.584 51.3038 72.584C50.7171 72.584 50.2478 72.7707 49.8958 73.144C49.5544 73.5067 49.3838 73.992 49.3838 74.6V78.104C49.3838 78.7867 49.0478 79.128 48.3758 79.128ZM60.3911 82.04C59.8151 82.04 59.2551 81.9867 58.7111 81.88C58.1778 81.7733 57.6925 81.608 57.2551 81.384C57.0525 81.2773 56.9138 81.1493 56.8391 81C56.7751 80.8507 56.7538 80.696 56.7751 80.536C56.8071 80.3867 56.8711 80.2533 56.9671 80.136C57.0738 80.0187 57.2018 79.9387 57.3511 79.896C57.5005 79.8533 57.6551 79.8747 57.8151 79.96C58.2845 80.1947 58.7271 80.344 59.1431 80.408C59.5698 80.4827 59.9325 80.52 60.2311 80.52C60.9458 80.52 61.4791 80.344 61.8311 79.992C62.1938 79.6507 62.3751 79.1387 62.3751 78.456V77.016H62.5191C62.3591 77.56 62.0231 77.9973 61.5111 78.328C61.0098 78.648 60.4391 78.808 59.7991 78.808C59.0951 78.808 58.4818 78.648 57.9591 78.328C57.4365 77.9973 57.0311 77.5387 56.7431 76.952C56.4551 76.3653 56.3111 75.6827 56.3111 74.904C56.3111 74.3173 56.3911 73.7893 56.5511 73.32C56.7218 72.84 56.9565 72.4293 57.2551 72.088C57.5645 71.7467 57.9325 71.4853 58.3591 71.304C58.7965 71.112 59.2765 71.016 59.7991 71.016C60.4605 71.016 61.0365 71.1813 61.5271 71.512C62.0285 71.832 62.3538 72.2587 62.5031 72.792L62.3431 73.192V72.056C62.3431 71.7253 62.4285 71.4747 62.5991 71.304C62.7805 71.1333 63.0258 71.048 63.3351 71.048C63.6551 71.048 63.9005 71.1333 64.0711 71.304C64.2418 71.4747 64.3271 71.7253 64.3271 72.056V78.216C64.3271 79.4853 63.9911 80.44 63.3191 81.08C62.6471 81.72 61.6711 82.04 60.3911 82.04ZM60.3431 77.288C60.7591 77.288 61.1165 77.192 61.4151 77C61.7138 76.808 61.9431 76.536 62.1031 76.184C62.2738 75.8213 62.3591 75.3947 62.3591 74.904C62.3591 74.168 62.1778 73.592 61.8151 73.176C61.4525 72.7493 60.9618 72.536 60.3431 72.536C59.9271 72.536 59.5698 72.632 59.2711 72.824C58.9725 73.016 58.7378 73.288 58.5671 73.64C58.4071 73.992 58.3271 74.4133 58.3271 74.904C58.3271 75.64 58.5085 76.2213 58.8711 76.648C59.2338 77.0747 59.7245 77.288 60.3431 77.288Z" fill="black"/>
<mask id="mask0_896_6052" style="mask-type:alpha" maskUnits="userSpaceOnUse" x="2" y="0" width="60" height="60">
<rect x="2" width="60" height="60" fill="#D9D9D9"/>
</mask>
<g mask="url(#mask0_896_6052)">
<path d="M22 30V35C22 37.75 22.9792 40.1042 24.9375 42.0625C26.8958 44.0208 29.25 45 32 45C34.75 45 37.1042 44.0208 39.0625 42.0625C41.0208 40.1042 42 37.75 42 35V30H22ZM32 41.25C30.25 41.25 28.7708 40.6458 27.5625 39.4375C26.3542 38.2292 25.75 36.75 25.75 35V33.75H38.25V35C38.25 36.75 37.6458 38.2292 36.4375 39.4375C35.2292 40.6458 33.75 41.25 32 41.25ZM23.25 17.5C21.6667 17.5 20.2604 18.0729 19.0312 19.2188C17.8021 20.3646 16.9375 21.9375 16.4375 23.9375L20.0625 24.8125C20.3125 23.7292 20.7292 22.8646 21.3125 22.2188C21.8958 21.5729 22.5417 21.25 23.25 21.25C23.9583 21.25 24.6042 21.5729 25.1875 22.2188C25.7708 22.8646 26.1875 23.7292 26.4375 24.8125L30.0625 23.9375C29.5625 21.9375 28.6979 20.3646 27.4688 19.2188C26.2396 18.0729 24.8333 17.5 23.25 17.5ZM40.75 17.5C39.1667 17.5 37.7604 18.0729 36.5312 19.2188C35.3021 20.3646 34.4375 21.9375 33.9375 23.9375L37.5625 24.8125C37.8125 23.7292 38.2292 22.8646 38.8125 22.2188C39.3958 21.5729 40.0417 21.25 40.75 21.25C41.4583 21.25 42.1042 21.5729 42.6875 22.2188C43.2708 22.8646 43.6875 23.7292 43.9375 24.8125L47.5625 23.9375C47.0625 21.9375 46.1979 20.3646 44.9688 19.2188C43.7396 18.0729 42.3333 17.5 40.75 17.5ZM32 55C28.5417 55 25.2917 54.3437 22.25 53.0312C19.2083 51.7187 16.5625 49.9375 14.3125 47.6875C12.0625 45.4375 10.2813 42.7917 8.96875 39.75C7.65625 36.7083 7 33.4583 7 30C7 26.5417 7.65625 23.2917 8.96875 20.25C10.2813 17.2083 12.0625 14.5625 14.3125 12.3125C16.5625 10.0625 19.2083 8.28125 22.25 6.96875C25.2917 5.65625 28.5417 5 32 5C35.4583 5 38.7083 5.65625 41.75 6.96875C44.7917 8.28125 47.4375 10.0625 49.6875 12.3125C51.9375 14.5625 53.7187 17.2083 55.0312 20.25C56.3437 23.2917 57 26.5417 57 30C57 33.4583 56.3437 36.7083 55.0312 39.75C53.7187 42.7917 51.9375 45.4375 49.6875 47.6875C47.4375 49.9375 44.7917 51.7187 41.75 53.0312C38.7083 54.3437 35.4583 55 32 55ZM32 50C37.5833 50 42.3125 48.0625 46.1875 44.1875C50.0625 40.3125 52 35.5833 52 30C52 24.4167 50.0625 19.6875 46.1875 15.8125C42.3125 11.9375 37.5833 10 32 10C26.4167 10 21.6875 11.9375 17.8125 15.8125C13.9375 19.6875 12 24.4167 12 30C12 35.5833 13.9375 40.3125 17.8125 44.1875C21.6875 48.0625 26.4167 50 32 50Z" fill="#339967"/>
</g>
</svg>
