<svg width="60" height="85" viewBox="0 0 60 85" fill="none" xmlns="http://www.w3.org/2000/svg">
<path d="M9.344 79.128C9.088 79.128 8.88 79.0693 8.72 78.952C8.57067 78.8347 8.48 78.68 8.448 78.488C8.416 78.2853 8.45333 78.0613 8.56 77.816L12.784 68.456C12.9227 68.1467 13.088 67.928 13.28 67.8C13.4827 67.6613 13.712 67.592 13.968 67.592C14.2133 67.592 14.432 67.6613 14.624 67.8C14.8267 67.928 14.9973 68.1467 15.136 68.456L19.376 77.816C19.4933 78.0613 19.536 78.2853 19.504 78.488C19.472 78.6907 19.3813 78.8507 19.232 78.968C19.0827 79.0747 18.8853 79.128 18.64 79.128C18.3413 79.128 18.1067 79.0587 17.936 78.92C17.776 78.7707 17.632 78.5467 17.504 78.248L16.464 75.832L17.328 76.392H10.576L11.44 75.832L10.416 78.248C10.2773 78.5573 10.1333 78.7813 9.984 78.92C9.83467 79.0587 9.62133 79.128 9.344 79.128ZM13.936 69.944L11.696 75.272L11.28 74.76H16.624L16.224 75.272L13.968 69.944H13.936ZM23.5171 79.128C23.2505 79.128 23.0211 79.064 22.8291 78.936C22.6371 78.7973 22.4825 78.584 22.3651 78.296L20.0451 72.376C19.9491 72.12 19.9171 71.896 19.9491 71.704C19.9918 71.5013 20.0931 71.3413 20.2531 71.224C20.4131 71.1067 20.6265 71.048 20.8931 71.048C21.1278 71.048 21.3198 71.1067 21.4691 71.224C21.6185 71.3307 21.7465 71.5387 21.8531 71.848L23.7891 77.176H23.4211L25.4211 71.72C25.5065 71.4853 25.6185 71.3147 25.7571 71.208C25.9065 71.1013 26.0985 71.048 26.3331 71.048C26.5678 71.048 26.7598 71.1067 26.9091 71.224C27.0585 71.3307 27.1705 71.496 27.2451 71.72L29.2131 77.176H28.8771L30.8291 71.8C30.9358 71.512 31.0691 71.3147 31.2291 71.208C31.3998 71.1013 31.5865 71.048 31.7891 71.048C32.0451 71.048 32.2425 71.112 32.3811 71.24C32.5198 71.368 32.5998 71.5333 32.6211 71.736C32.6425 71.928 32.6051 72.1413 32.5091 72.376L30.2051 78.296C30.0985 78.5733 29.9438 78.7813 29.7411 78.92C29.5491 79.0587 29.3198 79.128 29.0531 79.128C28.7865 79.128 28.5518 79.0587 28.3491 78.92C28.1571 78.7813 28.0078 78.5733 27.9011 78.296L25.8051 72.744H26.7171L24.6691 78.28C24.5625 78.568 24.4131 78.7813 24.2211 78.92C24.0291 79.0587 23.7945 79.128 23.5171 79.128ZM35.7948 79.128C35.4748 79.128 35.2241 79.0427 35.0428 78.872C34.8721 78.6907 34.7868 78.4347 34.7868 78.104V72.68H34.0508C33.7948 72.68 33.5974 72.616 33.4588 72.488C33.3201 72.3493 33.2508 72.1627 33.2508 71.928C33.2508 71.6827 33.3201 71.496 33.4588 71.368C33.5974 71.24 33.7948 71.176 34.0508 71.176H35.3628L34.7868 71.704V71.16C34.7868 70.0613 35.0641 69.24 35.6188 68.696C36.1734 68.1413 36.9734 67.816 38.0188 67.72L38.5628 67.672C38.7761 67.6507 38.9468 67.688 39.0748 67.784C39.2028 67.8693 39.2881 67.9867 39.3308 68.136C39.3734 68.2747 39.3788 68.4187 39.3468 68.568C39.3148 68.7173 39.2454 68.8507 39.1388 68.968C39.0428 69.0747 38.9148 69.1333 38.7548 69.144L38.5308 69.16C37.9228 69.2027 37.4801 69.3573 37.2028 69.624C36.9254 69.8907 36.7868 70.296 36.7868 70.84V71.432L36.5308 71.176H38.1468C38.4028 71.176 38.6001 71.24 38.7388 71.368C38.8774 71.496 38.9468 71.6827 38.9468 71.928C38.9468 72.1627 38.8774 72.3493 38.7388 72.488C38.6001 72.616 38.4028 72.68 38.1468 72.68H36.7868V78.104C36.7868 78.7867 36.4561 79.128 35.7948 79.128ZM42.9189 79.16C42.2682 79.16 41.7295 79.0427 41.3029 78.808C40.8762 78.5627 40.5562 78.2 40.3429 77.72C40.1402 77.24 40.0389 76.6427 40.0389 75.928V72.056C40.0389 71.7147 40.1242 71.464 40.2949 71.304C40.4655 71.1333 40.7109 71.048 41.0309 71.048C41.3509 71.048 41.5962 71.1333 41.7669 71.304C41.9482 71.464 42.0389 71.7147 42.0389 72.056V75.96C42.0389 76.5147 42.1509 76.9253 42.3749 77.192C42.5989 77.4587 42.9562 77.592 43.4469 77.592C43.9802 77.592 44.4175 77.4107 44.7589 77.048C45.1002 76.6747 45.2709 76.184 45.2709 75.576V72.056C45.2709 71.7147 45.3562 71.464 45.5269 71.304C45.6975 71.1333 45.9429 71.048 46.2629 71.048C46.5829 71.048 46.8282 71.1333 46.9989 71.304C47.1802 71.464 47.2709 71.7147 47.2709 72.056V78.104C47.2709 78.7867 46.9455 79.128 46.2949 79.128C45.9855 79.128 45.7455 79.0427 45.5749 78.872C45.4042 78.6907 45.3189 78.4347 45.3189 78.104V76.888L45.5429 77.368C45.3189 77.944 44.9775 78.3867 44.5189 78.696C44.0709 79.0053 43.5375 79.16 42.9189 79.16ZM52.0245 79.16C51.1392 79.16 50.4725 78.9093 50.0245 78.408C49.5765 77.896 49.3525 77.1493 49.3525 76.168V68.6C49.3525 68.2693 49.4378 68.0187 49.6085 67.848C49.7792 67.6773 50.0245 67.592 50.3445 67.592C50.6645 67.592 50.9098 67.6773 51.0805 67.848C51.2618 68.0187 51.3525 68.2693 51.3525 68.6V76.072C51.3525 76.5627 51.4538 76.9253 51.6565 77.16C51.8698 77.3947 52.1685 77.512 52.5525 77.512C52.6378 77.512 52.7178 77.512 52.7925 77.512C52.8672 77.5013 52.9418 77.4907 53.0165 77.48C53.1658 77.4587 53.2672 77.5013 53.3205 77.608C53.3738 77.704 53.4005 77.9067 53.4005 78.216C53.4005 78.4827 53.3472 78.6907 53.2405 78.84C53.1338 78.9893 52.9578 79.08 52.7125 79.112C52.6058 79.1227 52.4938 79.1333 52.3765 79.144C52.2592 79.1547 52.1418 79.16 52.0245 79.16Z" fill="black"/>
<mask id="mask0_896_6058" style="mask-type:alpha" maskUnits="userSpaceOnUse" x="0" y="0" width="60" height="60">
<rect width="60" height="60" fill="#D9D9D9"/>
</mask>
<g mask="url(#mask0_896_6058)">
<path d="M18.625 31.5L27.5625 25L18.625 18.5L16.375 21.5L21.1875 25L16.375 28.5L18.625 31.5ZM41.375 31.5L43.625 28.5L38.8125 25L43.625 21.5L41.375 18.5L32.4375 25L41.375 31.5ZM26.25 42.625L30 38.875L33.75 42.625L37.5 38.875L39.9375 41.3125L42.5625 38.6875L37.5 33.625L33.75 37.375L30 33.625L26.25 37.375L22.5 33.625L17.4375 38.6875L20.0625 41.3125L22.5 38.875L26.25 42.625ZM30 55C26.5417 55 23.2917 54.3437 20.25 53.0312C17.2083 51.7187 14.5625 49.9375 12.3125 47.6875C10.0625 45.4375 8.28125 42.7917 6.96875 39.75C5.65625 36.7083 5 33.4583 5 30C5 26.5417 5.65625 23.2917 6.96875 20.25C8.28125 17.2083 10.0625 14.5625 12.3125 12.3125C14.5625 10.0625 17.2083 8.28125 20.25 6.96875C23.2917 5.65625 26.5417 5 30 5C33.4583 5 36.7083 5.65625 39.75 6.96875C42.7917 8.28125 45.4375 10.0625 47.6875 12.3125C49.9375 14.5625 51.7187 17.2083 53.0312 20.25C54.3437 23.2917 55 26.5417 55 30C55 33.4583 54.3437 36.7083 53.0312 39.75C51.7187 42.7917 49.9375 45.4375 47.6875 47.6875C45.4375 49.9375 42.7917 51.7187 39.75 53.0312C36.7083 54.3437 33.4583 55 30 55ZM30 50C35.5833 50 40.3125 48.0625 44.1875 44.1875C48.0625 40.3125 50 35.5833 50 30C50 24.4167 48.0625 19.6875 44.1875 15.8125C40.3125 11.9375 35.5833 10 30 10C24.4167 10 19.6875 11.9375 15.8125 15.8125C11.9375 19.6875 10 24.4167 10 30C10 35.5833 11.9375 40.3125 15.8125 44.1875C19.6875 48.0625 24.4167 50 30 50Z" fill="#FF493B"/>
</g>
</svg>
