<svg width="60" height="85" viewBox="0 0 60 85" fill="none" xmlns="http://www.w3.org/2000/svg">
<path d="M18.32 79C17.968 79 17.696 78.9093 17.504 78.728C17.3227 78.536 17.232 78.264 17.232 77.912V68.808C17.232 68.456 17.3227 68.1893 17.504 68.008C17.696 67.816 17.968 67.72 18.32 67.72H22.16C22.9493 67.72 23.6213 67.8373 24.176 68.072C24.7307 68.3067 25.152 68.6427 25.44 69.08C25.7387 69.5173 25.888 70.04 25.888 70.648C25.888 71.3307 25.6907 71.9067 25.296 72.376C24.9013 72.8453 24.3627 73.16 23.68 73.32V73.08C24.4693 73.1973 25.0827 73.496 25.52 73.976C25.9573 74.456 26.176 75.08 26.176 75.848C26.176 76.8507 25.8347 77.6293 25.152 78.184C24.48 78.728 23.5413 79 22.336 79H18.32ZM19.2 77.448H22.08C22.8053 77.448 23.3387 77.3093 23.68 77.032C24.0213 76.744 24.192 76.3173 24.192 75.752C24.192 75.176 24.0213 74.7493 23.68 74.472C23.3387 74.1947 22.8053 74.056 22.08 74.056H19.2V77.448ZM19.2 72.504H21.808C22.512 72.504 23.0347 72.3707 23.376 72.104C23.728 71.8267 23.904 71.4213 23.904 70.888C23.904 70.3547 23.728 69.9547 23.376 69.688C23.0347 69.4107 22.512 69.272 21.808 69.272H19.2V72.504ZM30.6316 79.16C30.0663 79.16 29.5596 79.0533 29.1116 78.84C28.6743 78.616 28.3276 78.3173 28.0716 77.944C27.8263 77.5707 27.7036 77.1493 27.7036 76.68C27.7036 76.104 27.853 75.6507 28.1516 75.32C28.4503 74.9787 28.9356 74.7333 29.6076 74.584C30.2796 74.4347 31.181 74.36 32.3116 74.36H33.1116V75.512H32.3276C31.6663 75.512 31.1383 75.544 30.7436 75.608C30.349 75.672 30.0663 75.784 29.8956 75.944C29.7356 76.0933 29.6556 76.3067 29.6556 76.584C29.6556 76.936 29.7783 77.224 30.0236 77.448C30.269 77.672 30.6103 77.784 31.0476 77.784C31.3996 77.784 31.709 77.704 31.9756 77.544C32.253 77.3733 32.4716 77.144 32.6316 76.856C32.7916 76.568 32.8716 76.2373 32.8716 75.864V74.024C32.8716 73.4907 32.7543 73.1067 32.5196 72.872C32.285 72.6373 31.8903 72.52 31.3356 72.52C31.0263 72.52 30.6903 72.5573 30.3276 72.632C29.9756 72.7067 29.6023 72.8347 29.2076 73.016C29.005 73.112 28.8236 73.1387 28.6636 73.096C28.5143 73.0533 28.397 72.968 28.3116 72.84C28.2263 72.7013 28.1836 72.552 28.1836 72.392C28.1836 72.232 28.2263 72.0773 28.3116 71.928C28.397 71.768 28.541 71.6507 28.7436 71.576C29.2343 71.3733 29.7036 71.2293 30.1516 71.144C30.6103 71.0587 31.0263 71.016 31.3996 71.016C32.1676 71.016 32.797 71.1333 33.2876 71.368C33.789 71.6027 34.1623 71.96 34.4076 72.44C34.653 72.9093 34.7756 73.5173 34.7756 74.264V78.104C34.7756 78.4347 34.6956 78.6907 34.5356 78.872C34.3756 79.0427 34.1463 79.128 33.8476 79.128C33.549 79.128 33.3143 79.0427 33.1436 78.872C32.9836 78.6907 32.9036 78.4347 32.9036 78.104V77.336H33.0316C32.957 77.7093 32.8076 78.0347 32.5836 78.312C32.3703 78.5787 32.0983 78.7867 31.7676 78.936C31.437 79.0853 31.0583 79.16 30.6316 79.16ZM39.8136 79.16C39.131 79.16 38.5283 78.9947 38.0056 78.664C37.4936 78.3333 37.0936 77.864 36.8056 77.256C36.5176 76.6373 36.3736 75.912 36.3736 75.08C36.3736 74.2373 36.5176 73.5173 36.8056 72.92C37.0936 72.312 37.4936 71.8427 38.0056 71.512C38.5283 71.1813 39.131 71.016 39.8136 71.016C40.4643 71.016 41.0296 71.176 41.5096 71.496C42.0003 71.816 42.331 72.2373 42.5016 72.76H42.3256V68.6C42.3256 68.2693 42.411 68.0187 42.5816 67.848C42.7523 67.6773 42.9976 67.592 43.3176 67.592C43.6376 67.592 43.883 67.6773 44.0536 67.848C44.235 68.0187 44.3256 68.2693 44.3256 68.6V78.104C44.3256 78.4347 44.2403 78.6907 44.0696 78.872C43.899 79.0427 43.6536 79.128 43.3336 79.128C43.0136 79.128 42.7683 79.0427 42.5976 78.872C42.427 78.6907 42.3416 78.4347 42.3416 78.104V76.856L42.5176 77.336C42.3576 77.8907 42.0323 78.3333 41.5416 78.664C41.051 78.9947 40.475 79.16 39.8136 79.16ZM40.3736 77.64C40.7683 77.64 41.115 77.544 41.4136 77.352C41.7123 77.16 41.9416 76.8773 42.1016 76.504C42.2723 76.12 42.3576 75.6453 42.3576 75.08C42.3576 74.2267 42.1763 73.592 41.8136 73.176C41.451 72.7493 40.971 72.536 40.3736 72.536C39.979 72.536 39.6323 72.632 39.3336 72.824C39.035 73.0053 38.8003 73.288 38.6296 73.672C38.4696 74.0453 38.3896 74.5147 38.3896 75.08C38.3896 75.9227 38.571 76.5627 38.9336 77C39.2963 77.4267 39.7763 77.64 40.3736 77.64Z" fill="black"/>
<mask id="mask0_896_6055" style="mask-type:alpha" maskUnits="userSpaceOnUse" x="0" y="0" width="60" height="60">
<rect width="60" height="60" fill="#D9D9D9"/>
</mask>
<g mask="url(#mask0_896_6055)">
<path d="M38.75 27.5C39.7917 27.5 40.6771 27.1354 41.4062 26.4062C42.1354 25.6771 42.5 24.7917 42.5 23.75C42.5 22.7083 42.1354 21.8229 41.4062 21.0938C40.6771 20.3646 39.7917 20 38.75 20C37.7083 20 36.8229 20.3646 36.0938 21.0938C35.3646 21.8229 35 22.7083 35 23.75C35 24.7917 35.3646 25.6771 36.0938 26.4062C36.8229 27.1354 37.7083 27.5 38.75 27.5ZM21.25 27.5C22.2917 27.5 23.1771 27.1354 23.9062 26.4062C24.6354 25.6771 25 24.7917 25 23.75C25 22.7083 24.6354 21.8229 23.9062 21.0938C23.1771 20.3646 22.2917 20 21.25 20C20.2083 20 19.3229 20.3646 18.5938 21.0938C17.8646 21.8229 17.5 22.7083 17.5 23.75C17.5 24.7917 17.8646 25.6771 18.5938 26.4062C19.3229 27.1354 20.2083 27.5 21.25 27.5ZM30 33.75C27.1667 33.75 24.5937 34.5521 22.2812 36.1563C19.9687 37.7604 18.2917 39.875 17.25 42.5H21.375C22.2917 40.9583 23.5104 39.7396 25.0312 38.8438C26.5521 37.9479 28.2083 37.5 30 37.5C31.7917 37.5 33.4479 37.9479 34.9688 38.8438C36.4896 39.7396 37.7083 40.9583 38.625 42.5H42.75C41.7083 39.875 40.0313 37.7604 37.7188 36.1563C35.4063 34.5521 32.8333 33.75 30 33.75ZM30 55C26.5417 55 23.2917 54.3437 20.25 53.0312C17.2083 51.7187 14.5625 49.9375 12.3125 47.6875C10.0625 45.4375 8.28125 42.7917 6.96875 39.75C5.65625 36.7083 5 33.4583 5 30C5 26.5417 5.65625 23.2917 6.96875 20.25C8.28125 17.2083 10.0625 14.5625 12.3125 12.3125C14.5625 10.0625 17.2083 8.28125 20.25 6.96875C23.2917 5.65625 26.5417 5 30 5C33.4583 5 36.7083 5.65625 39.75 6.96875C42.7917 8.28125 45.4375 10.0625 47.6875 12.3125C49.9375 14.5625 51.7187 17.2083 53.0312 20.25C54.3437 23.2917 55 26.5417 55 30C55 33.4583 54.3437 36.7083 53.0312 39.75C51.7187 42.7917 49.9375 45.4375 47.6875 47.6875C45.4375 49.9375 42.7917 51.7187 39.75 53.0312C36.7083 54.3437 33.4583 55 30 55ZM30 50C35.5833 50 40.3125 48.0625 44.1875 44.1875C48.0625 40.3125 50 35.5833 50 30C50 24.4167 48.0625 19.6875 44.1875 15.8125C40.3125 11.9375 35.5833 10 30 10C24.4167 10 19.6875 11.9375 15.8125 15.8125C11.9375 19.6875 10 24.4167 10 30C10 35.5833 11.9375 40.3125 15.8125 44.1875C19.6875 48.0625 24.4167 50 30 50Z" fill="#FF7105"/>
</g>
</svg>
