<svg width="60" height="85" viewBox="0 0 60 85" fill="none" xmlns="http://www.w3.org/2000/svg">
<path d="M7.32 79C6.968 79 6.696 78.9093 6.504 78.728C6.32267 78.536 6.232 78.264 6.232 77.912V68.808C6.232 68.456 6.32267 68.1893 6.504 68.008C6.696 67.816 6.968 67.72 7.32 67.72H10.424C12.312 67.72 13.768 68.2053 14.792 69.176C15.8267 70.1467 16.344 71.5387 16.344 73.352C16.344 74.2587 16.2107 75.064 15.944 75.768C15.688 76.4613 15.304 77.048 14.792 77.528C14.2907 78.008 13.672 78.376 12.936 78.632C12.2107 78.8773 11.3733 79 10.424 79H7.32ZM8.28 77.304H10.296C10.9573 77.304 11.528 77.224 12.008 77.064C12.4987 76.8933 12.904 76.648 13.224 76.328C13.5547 75.9973 13.8 75.5867 13.96 75.096C14.12 74.5947 14.2 74.0133 14.2 73.352C14.2 72.0293 13.8747 71.0427 13.224 70.392C12.5733 69.7413 11.5973 69.416 10.296 69.416H8.28V77.304ZM22.0835 79.16C21.1982 79.16 20.4355 78.9947 19.7955 78.664C19.1555 78.3333 18.6595 77.864 18.3075 77.256C17.9662 76.648 17.7955 75.928 17.7955 75.096C17.7955 74.2853 17.9608 73.576 18.2915 72.968C18.6328 72.36 19.0968 71.8853 19.6835 71.544C20.2808 71.192 20.9582 71.016 21.7155 71.016C22.2702 71.016 22.7662 71.1067 23.2035 71.288C23.6515 71.4693 24.0302 71.7307 24.3395 72.072C24.6595 72.4133 24.8995 72.8293 25.0595 73.32C25.2302 73.8 25.3155 74.344 25.3155 74.952C25.3155 75.144 25.2462 75.2933 25.1075 75.4C24.9795 75.496 24.7928 75.544 24.5475 75.544H19.4115V74.392H23.9075L23.6515 74.632C23.6515 74.1413 23.5768 73.7307 23.4275 73.4C23.2888 73.0693 23.0808 72.8187 22.8035 72.648C22.5368 72.4667 22.2008 72.376 21.7955 72.376C21.3475 72.376 20.9635 72.4827 20.6435 72.696C20.3342 72.8987 20.0942 73.192 19.9235 73.576C19.7635 73.9493 19.6835 74.3973 19.6835 74.92V75.032C19.6835 75.9067 19.8862 76.5627 20.2915 77C20.7075 77.4267 21.3155 77.64 22.1155 77.64C22.3928 77.64 22.7022 77.608 23.0435 77.544C23.3955 77.4693 23.7262 77.3467 24.0355 77.176C24.2595 77.048 24.4568 76.9947 24.6275 77.016C24.7982 77.0267 24.9315 77.0853 25.0275 77.192C25.1342 77.2987 25.1982 77.432 25.2195 77.592C25.2408 77.7413 25.2088 77.896 25.1235 78.056C25.0488 78.216 24.9155 78.3547 24.7235 78.472C24.3502 78.7067 23.9182 78.8827 23.4275 79C22.9475 79.1067 22.4995 79.16 22.0835 79.16ZM30.5154 79.16C29.694 79.16 28.9794 78.9947 28.3714 78.664C27.7634 78.3227 27.294 77.8427 26.9634 77.224C26.6327 76.6053 26.4674 75.88 26.4674 75.048C26.4674 74.4187 26.558 73.8587 26.7394 73.368C26.9314 72.8667 27.2034 72.4453 27.5554 72.104C27.9074 71.752 28.334 71.4853 28.8354 71.304C29.3367 71.112 29.8967 71.016 30.5154 71.016C30.8674 71.016 31.246 71.064 31.6514 71.16C32.0674 71.256 32.4567 71.416 32.8194 71.64C32.99 71.7467 33.102 71.8747 33.1554 72.024C33.2087 72.1733 33.2194 72.328 33.1874 72.488C33.1554 72.6373 33.086 72.7707 32.9794 72.888C32.8834 72.9947 32.7607 73.064 32.6114 73.096C32.462 73.1173 32.2967 73.08 32.1154 72.984C31.8807 72.8453 31.6407 72.744 31.3954 72.68C31.15 72.6053 30.9154 72.568 30.6914 72.568C30.3394 72.568 30.03 72.6267 29.7634 72.744C29.4967 72.8507 29.2674 73.0107 29.0754 73.224C28.894 73.4267 28.7554 73.6827 28.6594 73.992C28.5634 74.3013 28.5154 74.6587 28.5154 75.064C28.5154 75.8533 28.702 76.4773 29.0754 76.936C29.4594 77.384 29.998 77.608 30.6914 77.608C30.9154 77.608 31.1447 77.576 31.3794 77.512C31.6247 77.448 31.87 77.3467 32.1154 77.208C32.2967 77.112 32.4567 77.08 32.5954 77.112C32.7447 77.144 32.8674 77.2187 32.9634 77.336C33.0594 77.4427 33.118 77.576 33.1394 77.736C33.1607 77.8853 33.1394 78.0347 33.0754 78.184C33.022 78.3333 32.9154 78.456 32.7554 78.552C32.4034 78.7653 32.03 78.92 31.6354 79.016C31.2407 79.112 30.8674 79.16 30.5154 79.16ZM38.146 79.16C37.2607 79.16 36.498 78.9947 35.858 78.664C35.218 78.3333 34.722 77.864 34.37 77.256C34.0287 76.648 33.858 75.928 33.858 75.096C33.858 74.2853 34.0233 73.576 34.354 72.968C34.6953 72.36 35.1593 71.8853 35.746 71.544C36.3433 71.192 37.0207 71.016 37.778 71.016C38.3327 71.016 38.8287 71.1067 39.266 71.288C39.714 71.4693 40.0927 71.7307 40.402 72.072C40.722 72.4133 40.962 72.8293 41.122 73.32C41.2927 73.8 41.378 74.344 41.378 74.952C41.378 75.144 41.3087 75.2933 41.17 75.4C41.042 75.496 40.8553 75.544 40.61 75.544H35.474V74.392H39.97L39.714 74.632C39.714 74.1413 39.6393 73.7307 39.49 73.4C39.3513 73.0693 39.1433 72.8187 38.866 72.648C38.5993 72.4667 38.2633 72.376 37.858 72.376C37.41 72.376 37.026 72.4827 36.706 72.696C36.3967 72.8987 36.1567 73.192 35.986 73.576C35.826 73.9493 35.746 74.3973 35.746 74.92V75.032C35.746 75.9067 35.9487 76.5627 36.354 77C36.77 77.4267 37.378 77.64 38.178 77.64C38.4553 77.64 38.7647 77.608 39.106 77.544C39.458 77.4693 39.7887 77.3467 40.098 77.176C40.322 77.048 40.5193 76.9947 40.69 77.016C40.8607 77.0267 40.994 77.0853 41.09 77.192C41.1967 77.2987 41.2607 77.432 41.282 77.592C41.3033 77.7413 41.2713 77.896 41.186 78.056C41.1113 78.216 40.978 78.3547 40.786 78.472C40.4127 78.7067 39.9807 78.8827 39.49 79C39.01 79.1067 38.562 79.16 38.146 79.16ZM43.9539 79.128C43.6339 79.128 43.3885 79.0427 43.2179 78.872C43.0472 78.6907 42.9619 78.4347 42.9619 78.104V72.056C42.9619 71.7253 43.0472 71.4747 43.2179 71.304C43.3885 71.1333 43.6285 71.048 43.9379 71.048C44.2472 71.048 44.4872 71.1333 44.6579 71.304C44.8285 71.4747 44.9139 71.7253 44.9139 72.056V73.144L44.7379 72.744C44.9725 72.1787 45.3352 71.752 45.8259 71.464C46.3272 71.1653 46.8925 71.016 47.5219 71.016C48.1512 71.016 48.6685 71.1333 49.0739 71.368C49.4792 71.6027 49.7832 71.96 49.9859 72.44C50.1885 72.9093 50.2899 73.5067 50.2899 74.232V78.104C50.2899 78.4347 50.2045 78.6907 50.0339 78.872C49.8632 79.0427 49.6179 79.128 49.2979 79.128C48.9779 79.128 48.7272 79.0427 48.5459 78.872C48.3752 78.6907 48.2899 78.4347 48.2899 78.104V74.328C48.2899 73.72 48.1725 73.2773 47.9379 73C47.7139 72.7227 47.3619 72.584 46.8819 72.584C46.2952 72.584 45.8259 72.7707 45.4739 73.144C45.1325 73.5067 44.9619 73.992 44.9619 74.6V78.104C44.9619 78.7867 44.6259 79.128 43.9539 79.128ZM55.9053 79.16C55.2119 79.16 54.6306 79.0427 54.1613 78.808C53.7026 78.5733 53.3613 78.232 53.1373 77.784C52.9133 77.3253 52.8013 76.76 52.8013 76.088V72.68H51.9693C51.7133 72.68 51.5159 72.616 51.3773 72.488C51.2386 72.3493 51.1692 72.1627 51.1692 71.928C51.1692 71.6827 51.2386 71.496 51.3773 71.368C51.5159 71.24 51.7133 71.176 51.9693 71.176H52.8013V69.72C52.8013 69.3893 52.8866 69.1387 53.0573 68.968C53.2386 68.7973 53.4893 68.712 53.8093 68.712C54.1293 68.712 54.3746 68.7973 54.5453 68.968C54.7159 69.1387 54.8013 69.3893 54.8013 69.72V71.176H56.4973C56.7533 71.176 56.9506 71.24 57.0893 71.368C57.2279 71.496 57.2973 71.6827 57.2973 71.928C57.2973 72.1627 57.2279 72.3493 57.0893 72.488C56.9506 72.616 56.7533 72.68 56.4973 72.68H54.8013V75.976C54.8013 76.488 54.9133 76.872 55.1373 77.128C55.3613 77.384 55.7239 77.512 56.2253 77.512C56.4066 77.512 56.5666 77.496 56.7053 77.464C56.8439 77.432 56.9666 77.4107 57.0733 77.4C57.2013 77.3893 57.3079 77.432 57.3933 77.528C57.4786 77.6133 57.5213 77.7947 57.5213 78.072C57.5213 78.2853 57.4839 78.4773 57.4093 78.648C57.3453 78.808 57.2226 78.92 57.0413 78.984C56.9026 79.0267 56.7213 79.064 56.4973 79.096C56.2733 79.1387 56.0759 79.16 55.9053 79.16Z" fill="black"/>
<mask id="mask0_896_6061" style="mask-type:alpha" maskUnits="userSpaceOnUse" x="0" y="0" width="60" height="60">
<rect width="60" height="60" fill="#D9D9D9"/>
</mask>
<g mask="url(#mask0_896_6061)">
<path d="M38.75 27.5C39.7917 27.5 40.6771 27.1354 41.4062 26.4062C42.1354 25.6771 42.5 24.7917 42.5 23.75C42.5 22.7083 42.1354 21.8229 41.4062 21.0938C40.6771 20.3646 39.7917 20 38.75 20C37.7083 20 36.8229 20.3646 36.0938 21.0938C35.3646 21.8229 35 22.7083 35 23.75C35 24.7917 35.3646 25.6771 36.0938 26.4062C36.8229 27.1354 37.7083 27.5 38.75 27.5ZM21.25 27.5C22.2917 27.5 23.1771 27.1354 23.9062 26.4062C24.6354 25.6771 25 24.7917 25 23.75C25 22.7083 24.6354 21.8229 23.9062 21.0938C23.1771 20.3646 22.2917 20 21.25 20C20.2083 20 19.3229 20.3646 18.5938 21.0938C17.8646 21.8229 17.5 22.7083 17.5 23.75C17.5 24.7917 17.8646 25.6771 18.5938 26.4062C19.3229 27.1354 20.2083 27.5 21.25 27.5ZM22.5 38.75H37.5V35H22.5V38.75ZM30 55C26.5417 55 23.2917 54.3437 20.25 53.0312C17.2083 51.7187 14.5625 49.9375 12.3125 47.6875C10.0625 45.4375 8.28125 42.7917 6.96875 39.75C5.65625 36.7083 5 33.4583 5 30C5 26.5417 5.65625 23.2917 6.96875 20.25C8.28125 17.2083 10.0625 14.5625 12.3125 12.3125C14.5625 10.0625 17.2083 8.28125 20.25 6.96875C23.2917 5.65625 26.5417 5 30 5C33.4583 5 36.7083 5.65625 39.75 6.96875C42.7917 8.28125 45.4375 10.0625 47.6875 12.3125C49.9375 14.5625 51.7187 17.2083 53.0312 20.25C54.3437 23.2917 55 26.5417 55 30C55 33.4583 54.3437 36.7083 53.0312 39.75C51.7187 42.7917 49.9375 45.4375 47.6875 47.6875C45.4375 49.9375 42.7917 51.7187 39.75 53.0312C36.7083 54.3437 33.4583 55 30 55ZM30 50C35.5833 50 40.3125 48.0625 44.1875 44.1875C48.0625 40.3125 50 35.5833 50 30C50 24.4167 48.0625 19.6875 44.1875 15.8125C40.3125 11.9375 35.5833 10 30 10C24.4167 10 19.6875 11.9375 15.8125 15.8125C11.9375 19.6875 10 24.4167 10 30C10 35.5833 11.9375 40.3125 15.8125 44.1875C19.6875 48.0625 24.4167 50 30 50Z" fill="#FFB023"/>
</g>
</svg>
