<svg width="60" height="85" viewBox="0 0 60 85" fill="none" xmlns="http://www.w3.org/2000/svg">
<path d="M17.656 79.16C16.408 79.16 15.352 78.9253 14.488 78.456C13.6347 77.9867 12.984 77.32 12.536 76.456C12.088 75.592 11.864 74.568 11.864 73.384C11.864 72.488 11.992 71.6827 12.248 70.968C12.5147 70.2533 12.8933 69.6453 13.384 69.144C13.8853 68.632 14.4933 68.2427 15.208 67.976C15.9227 67.6987 16.7333 67.56 17.64 67.56C18.2373 67.56 18.8347 67.6347 19.432 67.784C20.04 67.9227 20.6107 68.1627 21.144 68.504C21.3253 68.6213 21.4427 68.7653 21.496 68.936C21.56 69.1067 21.5707 69.2827 21.528 69.464C21.4853 69.6347 21.4053 69.784 21.288 69.912C21.1707 70.04 21.0213 70.12 20.84 70.152C20.6693 70.184 20.4773 70.1413 20.264 70.024C19.8587 69.7893 19.448 69.6187 19.032 69.512C18.616 69.4053 18.152 69.352 17.64 69.352C16.8507 69.352 16.184 69.512 15.64 69.832C15.096 70.1413 14.6853 70.5947 14.408 71.192C14.1413 71.7893 14.008 72.52 14.008 73.384C14.008 74.696 14.3227 75.6933 14.952 76.376C15.5813 77.0587 16.5147 77.4 17.752 77.4C18.1787 77.4 18.6107 77.3573 19.048 77.272C19.4853 77.1867 19.912 77.0693 20.328 76.92L19.928 77.832V74.424H18.168C17.9013 74.424 17.6933 74.3547 17.544 74.216C17.4053 74.0773 17.336 73.8907 17.336 73.656C17.336 73.4107 17.4053 73.224 17.544 73.096C17.6933 72.968 17.9013 72.904 18.168 72.904H20.808C21.0747 72.904 21.2773 72.9787 21.416 73.128C21.5653 73.2667 21.64 73.4693 21.64 73.736V77.624C21.64 77.8587 21.592 78.056 21.496 78.216C21.4107 78.376 21.2667 78.4933 21.064 78.568C20.5947 78.7387 20.056 78.8827 19.448 79C18.84 79.1067 18.2427 79.16 17.656 79.16ZM27.3893 79.16C26.5786 79.16 25.8746 78.9947 25.2773 78.664C24.6799 78.3333 24.2159 77.864 23.8853 77.256C23.5546 76.6373 23.3893 75.912 23.3893 75.08C23.3893 74.4507 23.4799 73.8907 23.6613 73.4C23.8533 72.8987 24.1253 72.472 24.4773 72.12C24.8293 71.7573 25.2506 71.4853 25.7413 71.304C26.2319 71.112 26.7813 71.016 27.3893 71.016C28.1999 71.016 28.9039 71.1813 29.5013 71.512C30.0986 71.8427 30.5626 72.312 30.8933 72.92C31.2239 73.528 31.3893 74.248 31.3893 75.08C31.3893 75.7093 31.2933 76.2747 31.1013 76.776C30.9199 77.2773 30.6533 77.7093 30.3013 78.072C29.9493 78.424 29.5279 78.696 29.0373 78.888C28.5466 79.0693 27.9973 79.16 27.3893 79.16ZM27.3893 77.64C27.7839 77.64 28.1306 77.544 28.4293 77.352C28.7279 77.16 28.9573 76.8773 29.1173 76.504C29.2879 76.12 29.3733 75.6453 29.3733 75.08C29.3733 74.2267 29.1919 73.592 28.8293 73.176C28.4666 72.7493 27.9866 72.536 27.3893 72.536C26.9946 72.536 26.6479 72.632 26.3493 72.824C26.0506 73.0053 25.8159 73.288 25.6453 73.672C25.4853 74.0453 25.4053 74.5147 25.4053 75.08C25.4053 75.9227 25.5866 76.5627 25.9493 77C26.3119 77.4267 26.7919 77.64 27.3893 77.64ZM36.608 79.16C35.7973 79.16 35.0933 78.9947 34.496 78.664C33.8987 78.3333 33.4347 77.864 33.104 77.256C32.7733 76.6373 32.608 75.912 32.608 75.08C32.608 74.4507 32.6987 73.8907 32.88 73.4C33.072 72.8987 33.344 72.472 33.696 72.12C34.048 71.7573 34.4693 71.4853 34.96 71.304C35.4507 71.112 36 71.016 36.608 71.016C37.4187 71.016 38.1227 71.1813 38.72 71.512C39.3173 71.8427 39.7813 72.312 40.112 72.92C40.4427 73.528 40.608 74.248 40.608 75.08C40.608 75.7093 40.512 76.2747 40.32 76.776C40.1387 77.2773 39.872 77.7093 39.52 78.072C39.168 78.424 38.7467 78.696 38.256 78.888C37.7653 79.0693 37.216 79.16 36.608 79.16ZM36.608 77.64C37.0027 77.64 37.3493 77.544 37.648 77.352C37.9467 77.16 38.176 76.8773 38.336 76.504C38.5067 76.12 38.592 75.6453 38.592 75.08C38.592 74.2267 38.4107 73.592 38.048 73.176C37.6853 72.7493 37.2053 72.536 36.608 72.536C36.2133 72.536 35.8667 72.632 35.568 72.824C35.2693 73.0053 35.0347 73.288 34.864 73.672C34.704 74.0453 34.624 74.5147 34.624 75.08C34.624 75.9227 34.8053 76.5627 35.168 77C35.5307 77.4267 36.0107 77.64 36.608 77.64ZM45.2668 79.16C44.5841 79.16 43.9814 78.9947 43.4588 78.664C42.9468 78.3333 42.5468 77.864 42.2588 77.256C41.9708 76.6373 41.8268 75.912 41.8268 75.08C41.8268 74.2373 41.9708 73.5173 42.2588 72.92C42.5468 72.312 42.9468 71.8427 43.4588 71.512C43.9814 71.1813 44.5841 71.016 45.2668 71.016C45.9174 71.016 46.4828 71.176 46.9628 71.496C47.4534 71.816 47.7841 72.2373 47.9548 72.76H47.7788V68.6C47.7788 68.2693 47.8641 68.0187 48.0348 67.848C48.2054 67.6773 48.4508 67.592 48.7708 67.592C49.0908 67.592 49.3361 67.6773 49.5068 67.848C49.6881 68.0187 49.7788 68.2693 49.7788 68.6V78.104C49.7788 78.4347 49.6934 78.6907 49.5228 78.872C49.3521 79.0427 49.1068 79.128 48.7868 79.128C48.4668 79.128 48.2214 79.0427 48.0508 78.872C47.8801 78.6907 47.7948 78.4347 47.7948 78.104V76.856L47.9708 77.336C47.8108 77.8907 47.4854 78.3333 46.9948 78.664C46.5041 78.9947 45.9281 79.16 45.2668 79.16ZM45.8268 77.64C46.2214 77.64 46.5681 77.544 46.8668 77.352C47.1654 77.16 47.3948 76.8773 47.5548 76.504C47.7254 76.12 47.8108 75.6453 47.8108 75.08C47.8108 74.2267 47.6294 73.592 47.2668 73.176C46.9041 72.7493 46.4241 72.536 45.8268 72.536C45.4321 72.536 45.0854 72.632 44.7868 72.824C44.4881 73.0053 44.2534 73.288 44.0828 73.672C43.9228 74.0453 43.8428 74.5147 43.8428 75.08C43.8428 75.9227 44.0241 76.5627 44.3868 77C44.7494 77.4267 45.2294 77.64 45.8268 77.64Z" fill="black"/>
<mask id="mask0_896_6049" style="mask-type:alpha" maskUnits="userSpaceOnUse" x="0" y="0" width="60" height="60">
<rect width="60" height="60" fill="#D9D9D9"/>
</mask>
<g mask="url(#mask0_896_6049)">
<path d="M38.75 27.5C39.7917 27.5 40.6771 27.1354 41.4062 26.4062C42.1354 25.6771 42.5 24.7917 42.5 23.75C42.5 22.7083 42.1354 21.8229 41.4062 21.0938C40.6771 20.3646 39.7917 20 38.75 20C37.7083 20 36.8229 20.3646 36.0938 21.0938C35.3646 21.8229 35 22.7083 35 23.75C35 24.7917 35.3646 25.6771 36.0938 26.4062C36.8229 27.1354 37.7083 27.5 38.75 27.5ZM21.25 27.5C22.2917 27.5 23.1771 27.1354 23.9062 26.4062C24.6354 25.6771 25 24.7917 25 23.75C25 22.7083 24.6354 21.8229 23.9062 21.0938C23.1771 20.3646 22.2917 20 21.25 20C20.2083 20 19.3229 20.3646 18.5938 21.0938C17.8646 21.8229 17.5 22.7083 17.5 23.75C17.5 24.7917 17.8646 25.6771 18.5938 26.4062C19.3229 27.1354 20.2083 27.5 21.25 27.5ZM30 43.75C32.8333 43.75 35.4063 42.9479 37.7188 41.3438C40.0313 39.7396 41.7083 37.625 42.75 35H38.625C37.7083 36.5417 36.4896 37.7604 34.9688 38.6563C33.4479 39.5521 31.7917 40 30 40C28.2083 40 26.5521 39.5521 25.0312 38.6563C23.5104 37.7604 22.2917 36.5417 21.375 35H17.25C18.2917 37.625 19.9687 39.7396 22.2812 41.3438C24.5937 42.9479 27.1667 43.75 30 43.75ZM30 55C26.5417 55 23.2917 54.3437 20.25 53.0312C17.2083 51.7187 14.5625 49.9375 12.3125 47.6875C10.0625 45.4375 8.28125 42.7917 6.96875 39.75C5.65625 36.7083 5 33.4583 5 30C5 26.5417 5.65625 23.2917 6.96875 20.25C8.28125 17.2083 10.0625 14.5625 12.3125 12.3125C14.5625 10.0625 17.2083 8.28125 20.25 6.96875C23.2917 5.65625 26.5417 5 30 5C33.4583 5 36.7083 5.65625 39.75 6.96875C42.7917 8.28125 45.4375 10.0625 47.6875 12.3125C49.9375 14.5625 51.7187 17.2083 53.0312 20.25C54.3437 23.2917 55 26.5417 55 30C55 33.4583 54.3437 36.7083 53.0312 39.75C51.7187 42.7917 49.9375 45.4375 47.6875 47.6875C45.4375 49.9375 42.7917 51.7187 39.75 53.0312C36.7083 54.3437 33.4583 55 30 55ZM30 50C35.5833 50 40.3125 48.0625 44.1875 44.1875C48.0625 40.3125 50 35.5833 50 30C50 24.4167 48.0625 19.6875 44.1875 15.8125C40.3125 11.9375 35.5833 10 30 10C24.4167 10 19.6875 11.9375 15.8125 15.8125C11.9375 19.6875 10 24.4167 10 30C10 35.5833 11.9375 40.3125 15.8125 44.1875C19.6875 48.0625 24.4167 50 30 50Z" fill="#3EC276"/>
</g>
</svg>
