<svg width="16" height="30" viewBox="0 0 16 30" fill="none" xmlns="http://www.w3.org/2000/svg">
<path d="M0.672153 26.7767C0.544345 26.912 0.444427 27.0711 0.378105 27.2449C0.311784 27.4188 0.280355 27.604 0.285618 27.79C0.290879 27.9761 0.332728 28.1592 0.408772 28.329C0.484817 28.4989 0.59357 28.6521 0.728821 28.7799C0.864071 28.9077 1.02317 29.0076 1.19704 29.0739C1.3709 29.1403 1.55613 29.1717 1.74214 29.1664C1.92815 29.1612 2.11131 29.1193 2.28114 29.0433C2.45098 28.9672 2.60418 28.8585 2.73199 28.7232L14.7737 15.9732C15.0223 15.7102 15.1609 15.3619 15.1609 15C15.1609 14.638 15.0223 14.2898 14.7737 14.0267L2.73199 1.27531C2.60502 1.1371 2.45186 1.02549 2.28139 0.946969C2.11093 0.868451 1.92657 0.824588 1.73901 0.817924C1.55145 0.81126 1.36443 0.841932 1.18883 0.908155C1.01322 0.974378 0.852526 1.07483 0.716072 1.20368C0.579618 1.33254 0.470127 1.48722 0.393958 1.65874C0.317789 1.83027 0.276461 2.01522 0.272375 2.20285C0.268289 2.39049 0.301525 2.57706 0.370154 2.75174C0.438783 2.92642 0.541437 3.08572 0.672151 3.22039L11.7958 15L0.672153 26.7767Z" fill="black"/>
</svg>
