<svg width="16" height="30" viewBox="0 0 16 30" fill="none" xmlns="http://www.w3.org/2000/svg">
<path d="M15.0299 3.22325C15.1577 3.088 15.2576 2.9289 15.324 2.75503C15.3903 2.58116 15.4217 2.39594 15.4164 2.20993C15.4112 2.02392 15.3693 1.84076 15.2933 1.67092C15.2172 1.50109 15.1085 1.34789 14.9732 1.22008C14.838 1.09227 14.6789 0.992353 14.505 0.926031C14.3312 0.859709 14.1459 0.828282 13.9599 0.833544C13.7739 0.838806 13.5908 0.880654 13.4209 0.956699C13.2511 1.03274 13.0979 1.1415 12.9701 1.27675L0.928404 14.0267C0.679727 14.2898 0.541168 14.638 0.541168 15C0.541168 15.362 0.679727 15.7102 0.928404 15.9732L12.9701 28.7247C13.097 28.8629 13.2502 28.9745 13.4207 29.053C13.5911 29.1315 13.7755 29.1754 13.963 29.182C14.1506 29.1887 14.3376 29.158 14.5132 29.0918C14.6888 29.0256 14.8495 28.9251 14.986 28.7963C15.1224 28.6674 15.2319 28.5128 15.3081 28.3412C15.3843 28.1697 15.4256 27.9848 15.4297 27.7971C15.4338 27.6095 15.4005 27.4229 15.3319 27.2482C15.2633 27.0736 15.1606 26.9143 15.0299 26.7796L3.90624 15L15.0299 3.22325Z" fill="black"/>
</svg>
