<svg width="50" height="50" viewBox="0 0 50 50" fill="none" xmlns="http://www.w3.org/2000/svg">
<path d="M12.5 45.8333C11.3542 45.8333 10.3736 45.4257 9.55834 44.6104C8.74307 43.7951 8.33473 42.8139 8.33334 41.6667V16.6667C8.33334 15.5208 8.74168 14.5403 9.55834 13.725C10.375 12.9097 11.3556 12.5014 12.5 12.5H16.6667C16.6667 10.2083 17.4826 8.24653 19.1146 6.61459C20.7465 4.98264 22.7083 4.16667 25 4.16667C27.2917 4.16667 29.2535 4.98264 30.8854 6.61459C32.5174 8.24653 33.3333 10.2083 33.3333 12.5H37.5C38.6458 12.5 39.6271 12.9083 40.4438 13.725C41.2604 14.5417 41.6681 15.5222 41.6667 16.6667V41.6667C41.6667 42.8125 41.259 43.7938 40.4438 44.6104C39.6285 45.4271 38.6472 45.8347 37.5 45.8333H12.5ZM20.8333 12.5H29.1667C29.1667 11.3542 28.759 10.3736 27.9438 9.55834C27.1285 8.74306 26.1472 8.33473 25 8.33334C23.8542 8.33334 22.8736 8.74167 22.0583 9.55834C21.2431 10.375 20.8347 11.3556 20.8333 12.5ZM31.25 22.9167C31.8403 22.9167 32.3354 22.7167 32.7354 22.3167C33.1354 21.9167 33.3347 21.4222 33.3333 20.8333V16.6667H29.1667V20.8333C29.1667 21.4236 29.3667 21.9188 29.7667 22.3188C30.1667 22.7188 30.6611 22.9181 31.25 22.9167ZM18.75 22.9167C19.3403 22.9167 19.8354 22.7167 20.2354 22.3167C20.6354 21.9167 20.8347 21.4222 20.8333 20.8333V16.6667H16.6667V20.8333C16.6667 21.4236 16.8667 21.9188 17.2667 22.3188C17.6667 22.7188 18.1611 22.9181 18.75 22.9167Z" fill="black"/>
</svg>
