<svg width="94" height="94" viewBox="0 0 94 94" fill="none" xmlns="http://www.w3.org/2000/svg">
<g clip-path="url(#clip0_704_4160)">
<path d="M46.64 93.28C72.3986 93.28 93.28 72.3986 93.28 46.64C93.28 20.8814 72.3986 0 46.64 0C20.8814 0 0 20.8814 0 46.64C0 72.3986 20.8814 93.28 46.64 93.28Z" fill="#71BCFF"/>
<path d="M54.9 33.44C54.71 33.12 54.51 32.68 54.22 32.29C53.25 30.97 52.26 29.67 51.26 28.37C50.37 27.21 49.6 26 49.54 24.47C49.48 22.55 50.47 20.96 52.11 20.41C53.78 19.85 55.47 20.48 56.58 22.09C56.64 22.18 56.7 22.27 56.74 22.34C57.33 22.02 57.87 21.63 58.47 21.42C59.92 20.92 61.57 21.45 62.53 22.64C63.53 23.88 63.67 25.62 62.79 27.09C62.39 27.76 61.89 28.43 61.28 28.89C59.21 30.44 57.07 31.89 54.89 33.43L54.9 33.44Z" fill="#E52033"/>
<path d="M51.57 57.98C42.74 67.48 45.72 42.33 45.72 42.33C47.5 34.52 53.84 42.49 53.84 42.49M45.44 44.3C45.44 44.3 42.5 46.58 42.69 29.99C42.88 13.4 34.78 16.68 36.52 29.99C38.26 43.3 37.77 54.3 36.28 55.65C34.9 56.9 24.36 46.72 19.21 50.44C19.02 50.57 18.86 50.76 18.8 50.98C18.02 53.99 19.77 53.9 23.58 57.11C24.82 58.15 26.14 59.09 27.59 59.82C29.66 60.88 32.83 62.86 35.66 66.11C38.05 68.85 41.11 70.95 44.5 72.27C50.82 74.72 59.96 76.69 63.76 69.73C63.76 69.73 66.28 63.95 65.48 57.61C65.4 56.95 65.32 56.29 65.31 55.62C65.29 54.29 65.34 52.03 65.83 50.08C65.83 50.08 73.84 32.08 69.21 31.98C64.58 31.88 63.04 43.36 60.72 46.55C60.72 46.55 58.55 49.78 57.34 54.61C56.37 58.5 55.24 60.07 52.96 59.44C51.87 59.14 51.15 58.09 51.25 56.96C51.56 53.11 52.45 43.77 53.73 42.42C55.3 40.77 59.79 41.92 60.51 46.88" stroke="black" stroke-width="1.1" stroke-miterlimit="10"/>
</g>
<defs>
<clipPath id="clip0_704_4160">
<rect width="93.27" height="93.27" fill="white"/>
</clipPath>
</defs>
</svg>
