<svg width="94" height="94" viewBox="0 0 94 94" fill="none" xmlns="http://www.w3.org/2000/svg">
<g clip-path="url(#clip0_701_4168)">
<path d="M46.64 93.28C72.3986 93.28 93.28 72.3986 93.28 46.64C93.28 20.8814 72.3986 0 46.64 0C20.8814 0 0 20.8814 0 46.64C0 72.3986 20.8814 93.28 46.64 93.28Z" fill="#FCA719"/>
<path d="M46.54 48.15L33.75 60.94C30.61 64.08 30.61 69.17 33.75 72.31C36.89 75.45 41.98 75.45 45.12 72.31L46.54 70.89L47.72 72.07C50.86 75.21 55.95 75.21 59.09 72.07C62.23 68.93 62.23 63.84 59.09 60.7L46.53 48.14L46.54 48.15Z" fill="#009345"/>
<path d="M46.54 45.12L33.75 32.33C30.61 29.19 30.61 24.1 33.75 20.96C36.89 17.82 41.98 17.82 45.12 20.96L46.54 22.38L47.72 21.2C50.86 18.06 55.95 18.06 59.09 21.2C62.23 24.34 62.23 29.43 59.09 32.57L46.53 45.13L46.54 45.12Z" fill="#009345"/>
<path d="M45.08 46.5L32.29 33.71C29.15 30.57 24.06 30.57 20.92 33.71C17.78 36.85 17.78 41.94 20.92 45.08L22.34 46.5L21.16 47.68C18.02 50.82 18.02 55.91 21.16 59.05C24.3 62.19 29.39 62.19 32.53 59.05L45.09 46.49L45.08 46.5Z" fill="#009345"/>
<path d="M48.19 46.5L60.98 33.71C64.12 30.57 69.21 30.57 72.35 33.71C75.49 36.85 75.49 41.94 72.35 45.08L70.93 46.5L72.11 47.68C75.25 50.82 75.25 55.91 72.11 59.05C68.97 62.19 63.88 62.19 60.74 59.05L48.18 46.49L48.19 46.5Z" fill="#009345"/>
</g>
<defs>
<clipPath id="clip0_701_4168">
<rect width="93.27" height="93.27" fill="white"/>
</clipPath>
</defs>
</svg>
