<svg width="94" height="94" viewBox="0 0 94 94" fill="none" xmlns="http://www.w3.org/2000/svg">
<g clip-path="url(#clip0_704_4159)">
<path d="M46.64 93.28C72.3986 93.28 93.28 72.3986 93.28 46.64C93.28 20.8814 72.3986 0 46.64 0C20.8814 0 0 20.8814 0 46.64C0 72.3986 20.8814 93.28 46.64 93.28Z" fill="#1BE08B"/>
<path d="M72.05 38.77C71.35 38.33 70.58 38.04 69.78 37.84C68.08 37.42 66.36 37.36 64.63 37.44C62.28 37.54 59.93 37.67 57.63 38.23C56.3 38.55 55.02 39 53.91 39.83C52.63 40.79 52.01 42.06 52.11 43.66C52.14 44.12 52.19 44.59 52.33 45.03C53.01 47.2 53.75 49.36 54.77 51.4C55.73 53.3 57.22 54.59 59.22 55.31C60.96 55.93 62.75 56.22 64.59 56.29C65.47 56.2 66.36 56.14 67.23 56C70.21 55.53 72.27 53.95 73.21 51.01C74.09 48.25 74.35 45.41 74.32 42.54C74.3 40.9 73.46 39.64 72.07 38.76L72.05 38.77Z" fill="white"/>
<path d="M38.58 39.31C37.28 38.59 35.86 38.22 34.42 37.96C32.39 37.6 30.33 37.49 28.46 37.43C26.31 37.31 24.23 37.55 22.72 38.07C20.03 38.98 18.81 40.79 18.97 43.62C19.02 44.47 19.07 45.33 19.15 46.18C19.32 47.96 19.62 49.71 20.24 51.4C21.08 53.7 22.65 55.17 25.02 55.77C28.26 56.59 31.44 56.35 34.55 55.12C36.15 54.49 37.39 53.43 38.23 51.93C39.5 49.66 40.38 47.22 41.03 44.72C41.65 42.3 40.77 40.53 38.6 39.31H38.58Z" fill="white"/>
<path d="M78.52 36.61C78.4 36.27 78.15 36.08 77.79 35.99C76.3 35.61 74.78 35.48 73.25 35.37C72.54 35.32 71.82 35.28 71.11 35.24H66.11C65.95 35.26 65.8 35.29 65.64 35.29C62.77 35.39 59.9 35.47 57.08 36.09C54.93 36.56 52.8 37.14 50.67 37.7C49.14 38.1 47.62 38.45 46.02 38.35C44.68 38.27 43.4 37.93 42.12 37.57C39.75 36.9 37.39 36.24 34.95 35.87C32.65 35.51 30.33 35.41 28.01 35.32C27.71 35.31 27.4 35.28 27.1 35.26H22.16C21.49 35.3 20.82 35.34 20.14 35.39C18.65 35.49 17.16 35.63 15.69 35.95C15.11 36.08 14.76 36.38 14.62 36.93C14.44 37.62 14.29 38.32 14.13 39.02C14.11 39.12 14.08 39.22 14.06 39.32V40.21C14.2 40.56 14.47 40.78 14.8 40.95C15.61 41.39 16.04 42.06 16.17 42.98C16.54 45.57 16.9 48.16 17.61 50.68C17.75 51.18 17.92 51.67 18.08 52.16C18.87 54.56 20.54 56.11 22.84 57.04C24.26 57.61 25.75 57.88 27.27 58C27.43 58.01 27.58 58.04 27.74 58.07H30.27C30.92 58 31.57 57.96 32.22 57.87C33.27 57.71 34.34 57.6 35.37 57.33C37.54 56.78 39.05 55.35 40.19 53.49C40.96 52.23 41.5 50.87 42.03 49.5C42.43 48.47 42.82 47.43 43.26 46.42C43.48 45.92 43.76 45.44 44.1 45.01C45.4 43.38 47.92 43.38 49.19 45.04C49.64 45.64 49.99 46.33 50.28 47.03C50.94 48.59 51.51 50.2 52.19 51.75C52.55 52.58 53.01 53.37 53.52 54.12C54.88 56.14 56.79 57.31 59.21 57.62C60.38 57.77 61.56 57.89 62.73 58.02C62.82 58.03 62.91 58.05 63.01 58.07H65.54C66.25 57.98 66.96 57.92 67.67 57.8C69.39 57.52 71 56.98 72.44 55.97C73.83 54.99 74.7 53.65 75.25 52.06C75.94 50.05 76.34 47.97 76.68 45.87C76.84 44.87 77 43.87 77.14 42.87C77.26 41.99 77.73 41.37 78.49 40.96C78.81 40.78 79.09 40.57 79.23 40.22V39.33C79.15 38.89 79.08 38.44 78.97 38C78.85 37.54 78.7 37.09 78.54 36.65L78.52 36.61ZM41.02 44.72C40.38 47.22 39.49 49.66 38.22 51.93C37.38 53.43 36.13 54.49 34.54 55.12C31.44 56.35 28.26 56.59 25.01 55.77C22.64 55.17 21.06 53.7 20.23 51.4C19.61 49.71 19.31 47.96 19.14 46.18C19.06 45.33 19.01 44.48 18.96 43.62C18.8 40.79 20.03 38.99 22.71 38.07C24.22 37.55 26.3 37.31 28.45 37.43C30.33 37.5 32.38 37.6 34.41 37.96C35.86 38.22 37.28 38.58 38.57 39.31C40.75 40.53 41.63 42.3 41 44.72H41.02ZM73.19 51.01C72.25 53.96 70.19 55.53 67.21 56C66.34 56.14 65.45 56.19 64.57 56.29C62.72 56.22 60.93 55.93 59.2 55.31C57.2 54.59 55.71 53.3 54.75 51.4C53.72 49.36 52.99 47.2 52.31 45.03C52.17 44.59 52.12 44.12 52.09 43.66C51.99 42.06 52.61 40.78 53.89 39.83C55 39 56.28 38.55 57.61 38.23C59.91 37.68 62.26 37.55 64.61 37.44C66.35 37.36 68.07 37.42 69.76 37.84C70.56 38.04 71.33 38.33 72.03 38.77C73.43 39.64 74.27 40.9 74.28 42.55C74.31 45.42 74.04 48.26 73.17 51.02L73.19 51.01Z" fill="black"/>
</g>
<defs>
<clipPath id="clip0_704_4159">
<rect width="93.27" height="93.27" fill="white"/>
</clipPath>
</defs>
</svg>
