<svg width="94" height="94" viewBox="0 0 94 94" fill="none" xmlns="http://www.w3.org/2000/svg">
<g clip-path="url(#clip0_685_4178)">
<path d="M46.64 93.28C72.3986 93.28 93.28 72.3986 93.28 46.64C93.28 20.8814 72.3986 0 46.64 0C20.8814 0 0 20.8814 0 46.64C0 72.3986 20.8814 93.28 46.64 93.28Z" fill="#FAE033"/>
<path d="M27.88 65.65C27.88 65.65 27.01 73.97 35.29 71.33C43.57 68.69 64.28 57.15 66.9 20.47C66.9 20.47 26.03 35.89 27.88 65.65Z" fill="white"/>
<path d="M29.73 71.06C22.85 68.53 18.2 34.62 66.34 20.48C66.37 20.48 66.4 20.51 66.37 20.53C63.41 22.24 29.55 42.12 29.73 71.06Z" fill="black"/>
<path d="M48.38 46.24L65.38 23.11C65.38 23.11 50.83 62.24 30.06 71.29" fill="black"/>
<path d="M64.34 22.97C64.29 23.01 64.23 23.05 64.18 23.1C33.83 47.01 29.93 71.2 29.93 71.2" fill="black"/>
<path d="M30.56 71.54C30.56 71.54 56.72 65.95 67.47 20.98C67.47 20.96 67.51 20.95 67.52 20.98C69.34 25.58 63.49 81.89 30.56 71.55V71.54Z" fill="black"/>
</g>
<defs>
<clipPath id="clip0_685_4178">
<rect width="93.27" height="93.27" fill="white"/>
</clipPath>
</defs>
</svg>
