<svg width="94" height="94" viewBox="0 0 94 94" fill="none" xmlns="http://www.w3.org/2000/svg">
<g clip-path="url(#clip0_701_4169)">
<path d="M46.64 93.28C72.3986 93.28 93.28 72.3986 93.28 46.64C93.28 20.8814 72.3986 0 46.64 0C20.8814 0 0 20.8814 0 46.64C0 72.3986 20.8814 93.28 46.64 93.28Z" fill="#8CE3FF"/>
<path d="M45.95 37.85C45.95 37.85 51.69 22.3 67.58 20.19C67.58 20.19 62.8 40.71 47.34 42.54C47.34 42.54 47.83 53.44 44.11 61.44H41.58C41.58 61.44 46.36 52.1 45.09 42.68C45.09 42.68 26.39 42.4 25.69 23.63C25.69 23.63 41.29 29.74 45.95 37.84V37.85Z" fill="#5FAC44"/>
<path d="M46.64 56.3C33.77 56.3 23.32 63.78 23.07 73.08H70.21C69.96 63.78 59.51 56.3 46.64 56.3Z" fill="#B37F4D"/>
</g>
<defs>
<clipPath id="clip0_701_4169">
<rect width="93.27" height="93.27" fill="white"/>
</clipPath>
</defs>
</svg>
