<svg width="94" height="94" viewBox="0 0 94 94" fill="none" xmlns="http://www.w3.org/2000/svg">
<g clip-path="url(#clip0_701_4166)">
<path d="M46.64 93.28C72.3986 93.28 93.28 72.3986 93.28 46.64C93.28 20.8814 72.3986 0 46.64 0C20.8814 0 0 20.8814 0 46.64C0 72.3986 20.8814 93.28 46.64 93.28Z" fill="#001296"/>
<path d="M54.9 20.89L61.5 27.77L70.92 26.28L66.42 34.69L70.74 43.18L61.36 41.5L54.61 48.24L53.31 38.79L44.82 34.46L53.4 30.31L54.9 20.89Z" fill="#FAE033"/>
<path d="M26.44 72.38C26.44 72.38 23.75 54.44 51.56 48.95" stroke="#FAE033" stroke-width="1.17" stroke-miterlimit="10" stroke-linecap="round"/>
<path d="M24.45 72.38C24.45 72.38 21.02 50.01 45.08 38.29" stroke="#FAE033" stroke-width="1.17" stroke-miterlimit="10" stroke-linecap="round"/>
<path d="M22.85 72.38C22.85 72.38 16.27 39.58 51.06 22.84" stroke="#FAE033" stroke-width="1.17" stroke-miterlimit="10" stroke-linecap="round"/>
</g>
<defs>
<clipPath id="clip0_701_4166">
<rect width="93.27" height="93.27" fill="white"/>
</clipPath>
</defs>
</svg>
