<svg width="94" height="94" viewBox="0 0 94 94" fill="none" xmlns="http://www.w3.org/2000/svg">
<g clip-path="url(#clip0_685_4180)">
<path d="M46.64 93.28C72.3986 93.28 93.28 72.3986 93.28 46.64C93.28 20.8814 72.3986 0 46.64 0C20.8814 0 0 20.8814 0 46.64C0 72.3986 20.8814 93.28 46.64 93.28Z" fill="#9E2ECC"/>
<path d="M50.82 62.11C50.82 57.81 49.18 53.98 46.63 51.48C44.08 53.98 42.44 57.81 42.44 62.11C42.44 66.41 44.08 70.24 46.63 72.74C49.18 70.24 50.82 66.41 50.82 62.11Z" stroke="#FAE033" stroke-width="2.98" stroke-miterlimit="10"/>
<path d="M40.92 61.6201C43.45 58.1401 44.38 54.0801 43.78 50.5601C40.25 51.0901 36.67 53.2201 34.14 56.7001C31.61 60.1801 30.68 64.2401 31.28 67.7601C34.81 67.2301 38.39 65.1001 40.92 61.6201Z" stroke="#FAE033" stroke-width="2.98" stroke-miterlimit="10"/>
<path d="M33.21 55.4C37.3 54.07 40.44 51.33 42.03 48.13C38.86 46.48 34.71 46.11 30.62 47.44C26.53 48.77 23.39 51.51 21.8 54.71C24.97 56.36 29.12 56.73 33.21 55.4Z" stroke="#FAE033" stroke-width="2.98" stroke-miterlimit="10"/>
<path d="M30.62 45.8301C34.71 47.1601 38.86 46.7901 42.03 45.1401C40.44 41.9401 37.3 39.2001 33.21 37.8701C29.12 36.5401 24.97 36.9101 21.8 38.5601C23.39 41.7601 26.53 44.5001 30.62 45.8301Z" stroke="#FAE033" stroke-width="2.98" stroke-miterlimit="10"/>
<path d="M34.15 36.57C36.68 40.05 40.25 42.19 43.79 42.71C44.38 39.19 43.45 35.13 40.93 31.65C38.41 28.17 34.83 26.03 31.29 25.51C30.7 29.03 31.63 33.09 34.15 36.57Z" stroke="#FAE033" stroke-width="2.98" stroke-miterlimit="10"/>
<path d="M42.45 31.16C42.45 35.46 44.09 39.29 46.64 41.79C49.19 39.29 50.83 35.46 50.83 31.16C50.83 26.86 49.19 23.03 46.64 20.53C44.09 23.03 42.45 26.86 42.45 31.16Z" stroke="#FAE033" stroke-width="2.98" stroke-miterlimit="10"/>
<path d="M52.35 31.65C49.82 35.13 48.89 39.19 49.49 42.71C53.02 42.18 56.6 40.05 59.13 36.57C61.66 33.09 62.59 29.03 61.99 25.51C58.46 26.04 54.88 28.17 52.35 31.65Z" stroke="#FAE033" stroke-width="2.98" stroke-miterlimit="10"/>
<path d="M60.06 37.8701C55.97 39.2001 52.83 41.9401 51.24 45.1401C54.41 46.7901 58.56 47.1601 62.65 45.8301C66.74 44.5001 69.88 41.7601 71.47 38.5601C68.3 36.9101 64.15 36.5401 60.06 37.8701Z" stroke="#FAE033" stroke-width="2.98" stroke-miterlimit="10"/>
<path d="M62.65 47.44C58.56 46.11 54.41 46.48 51.24 48.13C52.83 51.33 55.97 54.07 60.06 55.4C64.15 56.73 68.3 56.36 71.47 54.71C69.88 51.51 66.74 48.77 62.65 47.44Z" stroke="#FAE033" stroke-width="2.98" stroke-miterlimit="10"/>
<path d="M59.12 56.7001C56.59 53.2201 53.02 51.0801 49.48 50.5601C48.89 54.0801 49.82 58.1401 52.34 61.6201C54.86 65.1001 58.44 67.2401 61.98 67.7601C62.57 64.2401 61.64 60.1801 59.12 56.7001Z" stroke="#FAE033" stroke-width="2.98" stroke-miterlimit="10"/>
<path d="M38.23 69.52C37.98 70.3 38.12 71.12 38.54 71.76C39.26 71.49 39.85 70.91 40.1 70.12C40.35 69.33 40.21 68.52 39.79 67.88C39.07 68.15 38.48 68.73 38.23 69.52Z" fill="#FAE033"/>
<path d="M26.38 60.22C25.72 60.71 25.35 61.45 25.32 62.21C26.06 62.41 26.88 62.29 27.54 61.8C28.2 61.31 28.57 60.57 28.6 59.81C27.86 59.61 27.04 59.73 26.38 60.22Z" fill="#FAE033"/>
<path d="M22.27 45.72C21.45 45.72 20.72 46.11 20.24 46.71C20.72 47.31 21.45 47.69 22.28 47.69C23.11 47.69 23.83 47.3 24.31 46.7C23.83 46.1 23.1 45.72 22.27 45.72Z" fill="#FAE033"/>
<path d="M27.46 31.57C26.79 31.09 25.97 30.97 25.24 31.18C25.28 31.95 25.65 32.69 26.31 33.17C26.97 33.65 27.8 33.77 28.53 33.56C28.49 32.79 28.12 32.05 27.46 31.57Z" fill="#FAE033"/>
<path d="M39.98 23.18C39.72 22.4 39.13 21.82 38.41 21.55C37.99 22.19 37.85 23.01 38.11 23.79C38.37 24.57 38.96 25.15 39.68 25.42C40.1 24.78 40.24 23.96 39.98 23.18Z" fill="#FAE033"/>
<path d="M55.04 23.75C55.29 22.97 55.15 22.15 54.73 21.51C54.01 21.78 53.42 22.36 53.17 23.15C52.92 23.94 53.06 24.75 53.48 25.39C54.2 25.12 54.79 24.54 55.04 23.75Z" fill="#FAE033"/>
<path d="M66.89 33.05C67.55 32.56 67.92 31.82 67.95 31.06C67.21 30.86 66.39 30.98 65.73 31.47C65.07 31.96 64.7 32.7 64.67 33.46C65.41 33.66 66.23 33.54 66.89 33.05Z" fill="#FAE033"/>
<path d="M71 47.55C71.82 47.55 72.55 47.16 73.03 46.56C72.55 45.96 71.82 45.58 70.99 45.58C70.16 45.58 69.44 45.97 68.96 46.57C69.44 47.17 70.17 47.55 71 47.55Z" fill="#FAE033"/>
<path d="M65.81 61.7C66.48 62.18 67.3 62.3 68.03 62.09C67.99 61.32 67.62 60.58 66.96 60.1C66.3 59.62 65.47 59.5 64.74 59.71C64.78 60.48 65.15 61.22 65.81 61.7Z" fill="#FAE033"/>
<path d="M53.29 70.09C53.55 70.87 54.14 71.45 54.86 71.72C55.28 71.08 55.42 70.26 55.16 69.48C54.9 68.7 54.31 68.12 53.59 67.85C53.17 68.49 53.03 69.31 53.29 70.09Z" fill="#FAE033"/>
</g>
<defs>
<clipPath id="clip0_685_4180">
<rect width="93.27" height="93.27" fill="white"/>
</clipPath>
</defs>
</svg>
