<svg width="94" height="94" viewBox="0 0 94 94" fill="none" xmlns="http://www.w3.org/2000/svg">
<g clip-path="url(#clip0_704_4161)">
<path d="M46.64 93.28C72.3986 93.28 93.28 72.3986 93.28 46.64C93.28 20.8814 72.3986 0 46.64 0C20.8814 0 0 20.8814 0 46.64C0 72.3986 20.8814 93.28 46.64 93.28Z" fill="#EAEAEA"/>
<path d="M46.64 72.31C46.64 72.31 48.98 64.28 59.8 59.04C70.61 53.8 68.09 50.22 68.09 50.22C69.62 52.27 74.16 69.8 46.64 78.86V72.31Z" fill="#009345"/>
<path d="M46.64 72.31C46.64 72.31 44.3 64.28 33.48 59.04C22.66 53.8 25.19 50.22 25.19 50.22C23.66 52.27 19.12 69.8 46.64 78.86V72.31Z" fill="#009345"/>
<path d="M46.64 78.49V44.15" stroke="#009345" stroke-width="1.82" stroke-miterlimit="10"/>
<path d="M41.1 19.7599L46.4 24.4199L52.46 20.5399L51.81 19.7599" fill="#D9003A"/>
<path d="M41.1 19.7599L46.4 24.4199L52.46 20.5399L51.81 19.7599" stroke="black" stroke-width="0.46" stroke-miterlimit="10"/>
<path d="M41.1 19.76L46.45 14.41L52.05 20.01M52.31 34.11C51.94 22.82 35.29 17.05 35.29 17.05V34.11C35.29 34.11 35.06 44.18 46.39 44.18H46.66C46.77 44.04 57.8 44.99 57.98 34.47V17.05C57.98 17.05 49.6 20.53 46.63 23.66" fill="#D9003A"/>
<path d="M41.1 19.76L46.45 14.41L52.05 20.01M52.31 34.11C51.94 22.82 35.29 17.05 35.29 17.05V34.11C35.29 34.11 35.06 44.18 46.39 44.18H46.66C46.77 44.04 57.8 44.99 57.98 34.47V17.05C57.98 17.05 49.6 20.53 46.63 23.66" stroke="#770529" stroke-width="0.46" stroke-miterlimit="10"/>
</g>
<defs>
<clipPath id="clip0_704_4161">
<rect width="93.27" height="93.27" fill="white"/>
</clipPath>
</defs>
</svg>
