<svg width="32" height="48" viewBox="0 0 32 48" fill="none" xmlns="http://www.w3.org/2000/svg">
<path d="M20 6.00016C20 4.89391 19.1875 3.88141 17.8875 3.35641C16.5875 2.83141 15.0125 2.88766 13.7875 3.50641L1.7875 9.50642C-0.0625 10.4252 -0.55 12.2814 0.675 13.6689C1.9 15.0564 4.3875 15.422 6.225 14.5033L12 11.6064V39.0002H4C1.7875 39.0002 0 40.3408 0 42.0002C0 43.6595 1.7875 45.0002 4 45.0002H28C30.2125 45.0002 32 43.6595 32 42.0002C32 40.3408 30.2125 39.0002 28 39.0002H20V6.00016Z" fill="black"/>
</svg>
