<svg width="32" height="48" viewBox="0 0 32 48" fill="none" xmlns="http://www.w3.org/2000/svg">
<path d="M14.29 9C12.14 9 10.07 9.79688 8.54999 11.2313L5.45999 14.1188C4.20999 15.2906 2.17999 15.2906 0.929993 14.1188C-0.320007 12.9469 -0.320007 11.0438 0.929993 9.87188L4.01999 6.98438C6.74999 4.43437 10.44 3 14.29 3C22.3 3 28.8 9.09375 28.8 16.6031C28.8 20.2125 27.27 23.6719 24.55 26.2219L10.93 39H28.8C30.57 39 32 40.3406 32 42C32 43.6594 30.57 45 28.8 45H3.19999C1.90999 45 0.739993 44.2688 0.239993 43.1438C-0.260007 42.0188 0.0199926 40.7344 0.929993 39.8719L20.02 21.9844C21.54 20.5594 22.4 18.6188 22.4 16.6031C22.4 12.4031 18.77 9 14.29 9Z" fill="black"/>
</svg>
