<svg width="32" height="48" viewBox="0 0 32 48" fill="none" xmlns="http://www.w3.org/2000/svg">
<path d="M0 6C0 4.34062 1.43 3 3.2 3H27.2C28.52 3 29.7 3.75938 30.18 4.9125C30.66 6.06563 30.33 7.37812 29.36 8.2125L16.23 19.5H18.4C25.91 19.5 32 25.2094 32 32.25C32 39.2906 25.91 45 18.4 45H10.54C6.3 45 2.42 42.75 0.53 39.1969L0.34 38.8406C-0.45 37.3594 0.19 35.5594 1.77 34.8187C3.35 34.0781 5.27 34.6781 6.06 36.1594L6.25 36.5156C7.06 38.0438 8.73 39 10.54 39H18.4C22.38 39 25.6 35.9813 25.6 32.25C25.6 28.5187 22.38 25.5 18.4 25.5H8C6.68 25.5 5.5 24.7406 5.02 23.5875C4.54 22.4344 4.87 21.1219 5.84 20.2875L18.97 9H3.2C1.43 9 0 7.65938 0 6Z" fill="black"/>
</svg>
