<svg width="32" height="48" viewBox="0 0 32 48" fill="none" xmlns="http://www.w3.org/2000/svg">
<path d="M15.75 7.27523C16.375 5.77523 15.8083 3.9846 14.475 3.28148C13.1417 2.57835 11.55 3.21585 10.925 4.71585L0.250007 30.2252C-0.141659 31.1534 -0.0749926 32.2409 0.408341 33.1127C0.891674 33.9846 1.75001 34.5002 2.66667 34.5002H21.3333V42.0002C21.3333 43.6596 22.525 45.0002 24 45.0002C25.475 45.0002 26.6667 43.6596 26.6667 42.0002V34.5002H29.3333C30.8083 34.5002 32 33.1596 32 31.5002C32 29.8409 30.8083 28.5002 29.3333 28.5002H26.6667V15.0002C26.6667 13.3408 25.475 12.0002 24 12.0002C22.525 12.0002 21.3333 13.3408 21.3333 15.0002V28.5002H6.86667L15.75 7.27523Z" fill="black"/>
</svg>
