<svg width="50" height="50" viewBox="0 0 50 50" fill="none" xmlns="http://www.w3.org/2000/svg">
<path d="M20.8333 43.75H29.1667C29.1667 46.0417 27.2917 47.9167 25 47.9167C22.7083 47.9167 20.8333 46.0417 20.8333 43.75ZM43.75 39.5833V41.6667H6.25V39.5833L10.4167 35.4167V22.9167C10.4167 16.4583 14.5833 10.8333 20.8333 8.95834V8.33334C20.8333 6.04167 22.7083 4.16667 25 4.16667C27.2917 4.16667 29.1667 6.04167 29.1667 8.33334V8.95834C35.4167 10.8333 39.5833 16.4583 39.5833 22.9167V35.4167L43.75 39.5833ZM35.4167 22.9167C35.4167 17.0833 30.8333 12.5 25 12.5C19.1667 12.5 14.5833 17.0833 14.5833 22.9167V37.5H35.4167V22.9167Z" fill="#FAE033"/>
<path d="M20.8333 43.75H29.1667C29.1667 46.0417 27.2917 47.9167 25 47.9167C22.7083 47.9167 20.8333 46.0417 20.8333 43.75ZM43.75 39.5833V41.6667H6.25V39.5833L10.4167 35.4167V22.9167C10.4167 16.4583 14.5833 10.8333 20.8333 8.95834V8.33334C20.8333 6.04167 22.7083 4.16667 25 4.16667C27.2917 4.16667 29.1667 6.04167 29.1667 8.33334V8.95834C35.4167 10.8333 39.5833 16.4583 39.5833 22.9167V35.4167L43.75 39.5833ZM35.4167 22.9167C35.4167 17.0833 30.8333 12.5 25 12.5C19.1667 12.5 14.5833 17.0833 14.5833 22.9167V37.5H35.4167V22.9167Z" fill="#FAE033"/>
</svg>
