<svg width="48" height="48" viewBox="0 0 48 48" fill="none" xmlns="http://www.w3.org/2000/svg">
<path d="M23.8794 1.5C14.8313 1.5 7.46228 8.90625 7.46228 18V37.3659C7.46052 39.7678 8.39863 42.0741 10.0741 43.7869C10.8958 44.6442 11.881 45.3262 12.9708 45.7924C14.0606 46.2585 15.2327 46.4992 16.4171 46.5C19.8553 46.5 22.6835 45.0356 24.8234 42.1481C25.2412 41.5856 25.7142 40.7663 26.2617 39.8184C27.6907 37.3463 29.6468 33.9619 32.1541 32.2491C34.5579 30.6075 36.5597 28.5422 37.9374 26.2753C39.5045 23.7131 40.2965 20.9287 40.2965 18C40.2965 8.90625 32.9321 1.5 23.8794 1.5ZM32.8341 18.75C32.4383 18.75 32.0587 18.592 31.7788 18.3107C31.4989 18.0294 31.3417 17.6478 31.3417 17.25C31.3417 13.5281 27.9939 10.5 23.8794 10.5C19.7648 10.5 16.4171 13.5281 16.4171 17.25V20.1019C18.9533 19.3669 21.8645 19.4719 22.413 19.5C23.2321 19.5078 24.0333 19.7413 24.7294 20.1751C25.4256 20.6088 25.99 21.2261 26.3613 21.9599C26.7326 22.6937 26.8965 23.5157 26.8352 24.3366C26.7739 25.1575 26.4897 25.9458 26.0136 26.6156C25.9856 26.6541 25.9567 26.6916 25.925 26.7281C24.3812 28.5094 22.5669 30.9919 22.3375 31.8844C22.2302 32.2616 21.9801 32.5816 21.6409 32.7757C21.3017 32.9698 20.9003 33.0226 20.5227 32.9228C20.1452 32.823 19.8216 32.5785 19.6214 32.2417C19.4211 31.9049 19.3601 31.5027 19.4514 31.1212C19.9654 29.1581 22.8962 25.665 23.6173 24.8259C23.7657 24.5997 23.8504 24.3373 23.8624 24.0666C23.8744 23.7959 23.8132 23.527 23.6853 23.2884C23.5573 23.0499 23.3675 22.8506 23.136 22.7118C22.9044 22.5729 22.6397 22.4998 22.3701 22.5H22.288C20.7396 22.4166 18.0075 22.575 16.4171 23.2791V28.5C16.4171 28.8978 16.2598 29.2794 15.9799 29.5607C15.7 29.842 15.3204 30 14.9246 30C14.5288 30 14.1492 29.842 13.8693 29.5607C13.5894 29.2794 13.4321 28.8978 13.4321 28.5V17.25C13.4321 11.8734 18.1185 7.5 23.8794 7.5C29.6403 7.5 34.3266 11.8734 34.3266 17.25C34.3266 17.6478 34.1694 18.0294 33.8895 18.3107C33.6096 18.592 33.23 18.75 32.8341 18.75Z" fill="#A23DC5"/>
</svg>
