<svg width="48" height="48" viewBox="0 0 48 48" fill="none" xmlns="http://www.w3.org/2000/svg">
<path d="M23.8794 18C25.4627 18 26.9811 18.6321 28.1007 19.7574C29.2203 20.8826 29.8492 22.4087 29.8492 24C29.8492 25.5913 29.2203 27.1174 28.1007 28.2426C26.9811 29.3679 25.4627 30 23.8794 30C22.2961 30 20.7776 29.3679 19.6581 28.2426C18.5385 27.1174 17.9095 25.5913 17.9095 24C17.9095 22.4087 18.5385 20.8826 19.6581 19.7574C20.7776 18.6321 22.2961 18 23.8794 18ZM23.8794 9C33.8291 9 42.3262 15.22 45.7688 24C42.3262 32.78 33.8291 39 23.8794 39C13.9296 39 5.43254 32.78 1.98993 24C5.43254 15.22 13.9296 9 23.8794 9ZM6.32802 24C7.9364 27.3006 10.4339 30.0815 13.5366 32.0265C16.6392 33.9715 20.2226 35.0026 23.8794 35.0026C27.5361 35.0026 31.1195 33.9715 34.2222 32.0265C37.3249 30.0815 39.8223 27.3006 41.4307 24C39.8223 20.6994 37.3249 17.9185 34.2222 15.9735C31.1195 14.0285 27.5361 12.9974 23.8794 12.9974C20.2226 12.9974 16.6392 14.0285 13.5366 15.9735C10.4339 17.9185 7.9364 20.6994 6.32802 24Z" fill="#F2D303"/>
</svg>
