<svg width="48" height="48" viewBox="0 0 48 48" fill="none" xmlns="http://www.w3.org/2000/svg">
<path d="M26.8641 3C26.8641 1.34062 25.5302 0 23.8792 0C22.2281 0 20.8943 1.34062 20.8943 3V22.5C20.8943 23.325 20.2226 24 19.4018 24C18.5809 24 17.9093 23.325 17.9093 22.5V6C17.9093 4.34062 16.5754 3 14.9244 3C13.2734 3 11.9395 4.34062 11.9395 6V31.5C11.9395 31.6406 11.9395 31.7906 11.9488 31.9313L6.30544 26.5312C4.81298 25.1063 2.45302 25.1625 1.02585 26.6625C-0.401313 28.1625 -0.336018 30.5344 1.15644 31.9688L11.641 42C15.6613 45.8531 21.0062 48 26.5656 48H28.3566C37.4233 48 44.7737 40.6125 44.7737 31.5V12C44.7737 10.3406 43.4398 9 41.7887 9C40.1377 9 38.8038 10.3406 38.8038 12V22.5C38.8038 23.325 38.1322 24 37.3113 24C36.4905 24 35.8189 23.325 35.8189 22.5V6C35.8189 4.34062 34.485 3 32.834 3C31.1829 3 29.849 4.34062 29.849 6V22.5C29.849 23.325 29.1774 24 28.3566 24C27.5357 24 26.8641 23.325 26.8641 22.5V3Z" fill="#339967"/>
</svg>
