<svg width="60" height="60" viewBox="0 0 60 60" fill="none" xmlns="http://www.w3.org/2000/svg">
<path fill-rule="evenodd" clip-rule="evenodd" d="M30.0003 7.5C28.3427 7.5 26.753 8.02678 25.5809 8.96447C24.4088 9.90215 23.7504 11.1739 23.7504 12.5C23.7504 13.8261 24.4088 15.0979 25.5809 16.0355C26.753 16.9732 28.3427 17.5 30.0003 17.5C31.6579 17.5 33.2476 16.9732 34.4197 16.0355C35.5918 15.0979 36.2502 13.8261 36.2502 12.5C36.2502 11.1739 35.5918 9.90215 34.4197 8.96447C33.2476 8.02678 31.6579 7.5 30.0003 7.5ZM20.6254 12.5C20.6254 10.5109 21.6131 8.60322 23.3712 7.1967C25.1294 5.79018 27.5139 5 30.0003 5C32.4867 5 34.8712 5.79018 36.6294 7.1967C38.3875 8.60322 39.3752 10.5109 39.3752 12.5C39.3752 14.4891 38.3875 16.3968 36.6294 17.8033C34.8712 19.2098 32.4867 20 30.0003 20C27.5139 20 25.1294 19.2098 23.3712 17.8033C21.6131 16.3968 20.6254 14.4891 20.6254 12.5ZM16.4192 24.3275C16.8936 23.4163 17.6946 22.6378 18.7212 22.0901C19.7477 21.5424 20.954 21.2501 22.1879 21.25H37.8127C39.0466 21.2501 40.2528 21.5424 41.2794 22.0901C42.306 22.6378 43.107 23.4163 43.5814 24.3275L47.4876 31.8275C49.1017 34.9237 46.522 38.3187 42.5002 38.7125V39.865C42.5002 40.077 42.5676 40.2855 42.696 40.471C42.8245 40.6564 43.0098 40.8126 43.2345 40.925L51.9032 45.2588C53.1164 45.8654 54.0499 46.7715 54.5625 47.8401C55.0752 48.9087 55.1391 50.0817 54.7447 51.1819C54.3502 52.2822 53.5189 53.2498 52.3762 53.9386C51.2336 54.6274 49.8418 55 48.411 55H11.5833C10.1523 55.0001 8.76018 54.6271 7.61785 53.9376C6.47551 53.248 5.64517 52.2794 5.25257 51.1785C4.85998 50.0776 4.92651 48.9043 5.44209 47.8364C5.95767 46.7684 6.89422 45.864 8.10991 45.26L16.8411 40.9225C17.0668 40.8102 17.253 40.6537 17.3821 40.4678C17.5111 40.2819 17.5788 40.0727 17.5786 39.86V38.7188C13.5114 38.3625 10.8896 34.9438 12.513 31.8263L16.4192 24.3275ZM20.7035 38.75V39.86C20.7034 40.4977 20.5001 41.1248 20.1127 41.6821C19.7252 42.2394 19.1666 42.7085 18.4895 43.045L9.75989 47.3825C9.12064 47.6995 8.62799 48.1745 8.35664 48.7357C8.08529 49.2968 8.05003 49.9134 8.2562 50.4921C8.46236 51.0707 8.89872 51.5798 9.49913 51.9421C10.0995 52.3045 10.8312 52.5003 11.5833 52.5H39.3752C39.7896 52.5 40.187 52.3683 40.48 52.1339C40.7731 51.8995 40.9377 51.5815 40.9377 51.25V51.0875C40.9374 50.7706 40.7867 50.4657 40.5161 50.2343C40.2454 50.003 39.8751 49.8625 39.4799 49.8413L19.0364 48.7475C18.6228 48.7253 18.2372 48.5726 17.9644 48.3229C17.6916 48.0732 17.5539 47.7471 17.5817 47.4162C17.6094 47.0854 17.8004 46.7769 18.1124 46.5587C18.4245 46.3404 18.8322 46.2303 19.2457 46.2525L39.6877 47.3462C40.8743 47.4097 41.9865 47.8316 42.7988 48.5265C43.6111 49.2214 44.0629 50.1373 44.0626 51.0887V51.25C44.0626 51.6875 43.9689 52.1087 43.797 52.5H48.411C49.1632 52.5 49.8949 52.3041 50.4957 51.942C51.0964 51.5799 51.5334 51.0712 51.7408 50.4927C51.9481 49.9143 51.9145 49.2976 51.645 48.7358C51.3755 48.174 50.8848 47.6977 50.247 47.3787L41.5783 43.0438C40.9041 42.7067 40.3482 42.2379 39.9628 41.6816C39.5774 41.1253 39.3752 40.4998 39.3752 39.8638V38.75H35.0674C34.2465 38.75 33.4336 38.6207 32.6751 38.3693C31.9167 38.1179 31.2276 37.7495 30.6472 37.285L30.0003 36.7675L29.3534 37.285C28.773 37.7495 28.0839 38.1179 27.3255 38.3693C26.567 38.6207 25.7541 38.75 24.9332 38.75H20.7035ZM31.5628 34.4825L32.8565 35.5175C33.1468 35.7498 33.4915 35.9341 33.8709 36.0598C34.2502 36.1854 34.6568 36.2501 35.0674 36.25H41.7189C42.2335 36.25 42.7401 36.1484 43.1938 35.9541C43.6475 35.7599 44.0342 35.479 44.3196 35.1364C44.605 34.7938 44.7802 34.4002 44.8297 33.9904C44.8792 33.5806 44.8014 33.1674 44.6033 32.7875L40.6971 25.2875C40.4596 24.8321 40.059 24.4431 39.5457 24.1695C39.0325 23.8959 38.4295 23.75 37.8127 23.75H22.1879C21.5711 23.75 20.9681 23.8959 20.4549 24.1695C19.9416 24.4431 19.541 24.8321 19.3035 25.2875L15.3973 32.7875C15.1992 33.1674 15.1214 33.5806 15.1709 33.9904C15.2204 34.4002 15.3956 34.7938 15.681 35.1364C15.9664 35.479 16.3531 35.7599 16.8068 35.9541C17.2604 36.1484 17.7671 36.25 18.2817 36.25H24.9332C25.3438 36.2501 25.7504 36.1854 26.1297 36.0598C26.5091 35.9341 26.8538 35.7498 27.1441 35.5175L28.4378 34.4825V31.5825C28.0847 31.745 27.7659 31.9675 27.5003 32.25L26.5628 33.25C26.4173 33.4052 26.2286 33.5312 26.0116 33.618C25.7947 33.7048 25.5554 33.75 25.3128 33.75H20.6254C20.3592 33.7499 20.0974 33.6954 19.8649 33.5916C19.6324 33.4878 19.4369 33.3382 19.297 33.157C19.1571 32.9758 19.0773 32.769 19.0653 32.5562C19.0534 32.3435 19.1095 32.1318 19.2285 31.9412L20.791 29.4412C20.8788 29.2893 21.0038 29.153 21.1586 29.0404C21.3135 28.9278 21.4951 28.8412 21.6925 28.7858C21.89 28.7305 22.0994 28.7074 22.3082 28.7179C22.517 28.7285 22.7211 28.7726 22.9082 28.8474C23.0954 28.9223 23.2619 29.0265 23.3977 29.1538C23.5336 29.2811 23.6361 29.4289 23.6992 29.5885C23.7623 29.7481 23.7847 29.9163 23.765 30.0829C23.7454 30.2496 23.6841 30.4114 23.5847 30.5588L23.1535 31.25H24.5316L25.0004 30.75C27.5003 28.0837 32.5003 28.0837 35.0002 30.75L35.469 31.25H36.8471L36.4159 30.5588C36.3165 30.4114 36.2552 30.2496 36.2356 30.0829C36.2159 29.9163 36.2383 29.7481 36.3014 29.5885C36.3645 29.4289 36.467 29.2811 36.6029 29.1538C36.7387 29.0265 36.9052 28.9223 37.0924 28.8474C37.2795 28.7726 37.4836 28.7285 37.6924 28.7179C37.9012 28.7074 38.1106 28.7305 38.3081 28.7858C38.5055 28.8412 38.6871 28.9278 38.8419 29.0404C38.9968 29.153 39.1218 29.2893 39.2096 29.4412L40.7721 31.9412C40.8911 32.1318 40.9472 32.3435 40.9353 32.5562C40.9233 32.769 40.8435 32.9758 40.7036 33.157C40.5637 33.3382 40.3682 33.4878 40.1357 33.5916C39.9032 33.6954 39.6414 33.7499 39.3752 33.75H34.6877C34.4452 33.75 34.2059 33.7048 33.989 33.618C33.772 33.5312 33.5833 33.4052 33.4378 33.25L32.5003 32.25C32.2476 31.9789 31.9286 31.7518 31.5628 31.5825V34.4825Z" fill="black"/>
</svg>
