<svg width="50" height="50" viewBox="0 0 50 50" fill="none" xmlns="http://www.w3.org/2000/svg">
<path d="M14.9 6.275C16.6334 4.925 18.9 4.17917 21.1521 4.17917C22.5 4.17917 23.5896 4.64167 24.4167 5.37709C24.6396 5.575 24.8375 5.78959 25.0146 6.01042C25.1917 5.78959 25.3896 5.575 25.6125 5.37709C26.4396 4.64167 27.5292 4.17917 28.8771 4.17917C31.1292 4.17917 33.3979 4.925 35.1271 6.275C36.4771 7.32292 37.5334 8.77083 37.9479 10.5188C38.8229 10.6646 39.6 11.1104 40.2292 11.7C41.2292 12.6396 41.9438 13.9979 42.3917 15.3958C42.8479 16.8146 43.075 18.4083 43.0063 19.9396C42.9709 20.7229 42.8563 21.5229 42.6375 22.2875L42.7729 22.35C43.5438 22.7125 44.1688 23.2812 44.6375 24.0375C45.5229 25.4646 45.8354 27.5187 45.8354 30.1375C45.8354 33.1479 44.6834 35.1917 43.2042 36.4604C42.4337 37.1212 41.532 37.6111 40.5584 37.8979C40.2051 39.5259 39.4791 41.0499 38.4375 42.35C36.9313 44.2333 34.5896 45.825 31.4438 45.825C28.9229 45.825 26.9375 44.4292 25.6625 43.0958C25.4364 42.8575 25.2209 42.6094 25.0167 42.3521C24.8117 42.6087 24.5956 42.8562 24.3688 43.0938C23.0938 44.4312 21.1084 45.825 18.5875 45.825C15.4396 45.825 13.0979 44.2333 11.5938 42.35C10.5506 41.0503 9.82321 39.5263 9.46878 37.8979C8.49587 37.6109 7.59483 37.121 6.82503 36.4604C5.34586 35.1896 4.19586 33.1479 4.19586 30.1375C4.19586 27.5187 4.50836 25.4646 5.3917 24.0375C5.86035 23.2605 6.5594 22.6489 7.3917 22.2875C7.17765 21.5219 7.05389 20.7339 7.02295 19.9396C6.9542 18.4083 7.18128 16.8146 7.63753 15.3958C8.08544 14 8.79795 12.6396 9.80003 11.7C10.4268 11.0891 11.2207 10.678 12.0813 10.5188C12.4979 8.76875 13.5521 7.32292 14.9 6.275ZM16.8209 8.73959C15.6834 9.625 15.0167 10.8042 15.0167 12.1625C15.0165 12.41 14.9576 12.6538 14.8447 12.874C14.7318 13.0942 14.5683 13.2845 14.3675 13.4291C14.1667 13.5738 13.9344 13.6686 13.6898 13.7059C13.4452 13.7433 13.1952 13.7219 12.9604 13.6438C12.675 13.5479 12.3729 13.5708 11.9396 13.9792C11.4563 14.4313 10.9667 15.25 10.6125 16.35C10.2582 17.4643 10.1003 18.6316 10.1459 19.8C10.1979 20.9583 10.4729 21.9208 10.9063 22.5708C10.978 22.6785 11.0361 22.7947 11.0792 22.9167H13.3334C14.8333 22.9164 16.2778 23.4837 17.3765 24.5048C18.4752 25.5258 19.1468 26.9249 19.2563 28.4208C20.1537 28.7789 20.8988 29.4378 21.3641 30.2847C21.8293 31.1316 21.9857 32.1139 21.8065 33.0634C21.6273 34.0129 21.1237 34.8707 20.3818 35.4898C19.64 36.1089 18.706 36.451 17.7397 36.4574C16.7735 36.4638 15.8351 36.1342 15.085 35.5249C14.335 34.9157 13.8201 34.0648 13.6283 33.1177C13.4365 32.1706 13.5799 31.1864 14.0338 30.3334C14.4878 29.4804 15.2241 28.8116 16.1167 28.4417C16.0177 27.7743 15.6822 27.1647 15.1713 26.7242C14.6603 26.2836 14.008 26.0414 13.3334 26.0417H7.86461C7.55211 26.7667 7.32086 28.0187 7.32086 30.1375C7.32086 32.2646 8.09378 33.4313 8.86044 34.0896C9.70003 34.8083 10.6229 34.9958 10.8896 34.9958C11.304 34.9958 11.7014 35.1605 11.9945 35.4535C12.2875 35.7465 12.4521 36.1439 12.4521 36.5583C12.4521 37.4333 12.9354 39.0229 14.0354 40.3979C15.0938 41.725 16.6021 42.7 18.5875 42.7C19.9146 42.7 21.1354 41.9542 22.1084 40.9375C22.5792 40.4417 22.9459 39.9271 23.1875 39.5104C23.279 39.3546 23.359 39.1924 23.4271 39.025L23.4396 38.9958V19.2708H21.5729C21.2103 20.1672 20.5473 20.9096 19.6973 21.3707C18.8474 21.8318 17.8636 21.983 16.9144 21.7983C15.9653 21.6136 15.1099 21.1045 14.495 20.3583C13.88 19.6121 13.5437 18.6753 13.5437 17.7083C13.5437 16.7414 13.88 15.8045 14.495 15.0584C15.1099 14.3122 15.9653 13.8031 16.9144 13.6184C17.8636 13.4337 18.8474 13.5848 19.6973 14.046C20.5473 14.5071 21.2103 15.2494 21.5729 16.1458H23.4396V10.8583L23.4334 10.7396C23.3977 10.098 23.2715 9.46459 23.0584 8.85834C22.8709 8.35834 22.6271 7.96875 22.3396 7.7125C22.0834 7.48334 21.7292 7.30417 21.1521 7.30417C19.5563 7.30417 17.975 7.84167 16.8188 8.74167M26.5917 35.4167V38.9958L26.6021 39.025C26.6438 39.1354 26.7229 39.3 26.8438 39.5104C27.0834 39.9271 27.45 40.4417 27.9229 40.9375C28.8938 41.9542 30.1167 42.7 31.4438 42.7C33.4271 42.7 34.9354 41.725 35.9959 40.3979C37.0938 39.0229 37.5792 37.4313 37.5792 36.5583C37.5792 36.1439 37.7438 35.7465 38.0368 35.4535C38.3299 35.1605 38.7273 34.9958 39.1417 34.9958C39.4084 34.9958 40.3292 34.8083 41.1709 34.0896C41.9354 33.4313 42.7084 32.2646 42.7084 30.1375C42.7084 27.6208 42.3792 26.325 41.9813 25.6854C41.8567 25.4642 41.6678 25.2862 41.4396 25.175C41.2292 25.075 40.9125 25 40.4229 25C40.1401 25 39.8627 24.9232 39.6201 24.7779C39.3775 24.6325 39.1789 24.4241 39.0454 24.1748C38.912 23.9254 38.8487 23.6445 38.8624 23.3621C38.876 23.0796 38.9661 22.8061 39.1229 22.5708C39.5563 21.9208 39.8313 20.9583 39.8854 19.8C39.9303 18.6315 39.7716 17.4642 39.4167 16.35C39.0625 15.25 38.5729 14.4333 38.0917 13.9792C37.6563 13.5708 37.3542 13.5479 37.0709 13.6438C36.836 13.7224 36.5858 13.744 36.3409 13.7069C36.096 13.6697 35.8634 13.5749 35.6624 13.4303C35.4613 13.2856 35.2975 13.0952 35.1846 12.8747C35.0716 12.6543 35.0126 12.4102 35.0125 12.1625C35.0125 10.8042 34.3459 9.625 33.2084 8.73959C32.0563 7.84167 30.4729 7.30209 28.875 7.30209C28.3 7.30209 27.9479 7.48334 27.6896 7.71042C27.3634 8.03029 27.1178 8.42299 26.9729 8.85625C26.7393 9.49885 26.6106 10.1748 26.5917 10.8583V32.2917H27.9167C28.6626 32.2917 29.378 31.9954 29.9054 31.4679C30.4329 30.9405 30.7292 30.2251 30.7292 29.4792V25.7396C29.8328 25.377 29.0904 24.7139 28.6293 23.864C28.1682 23.0141 28.017 22.0302 28.2018 21.0811C28.3865 20.1319 28.8955 19.2766 29.6417 18.6616C30.3879 18.0466 31.3247 17.7103 32.2917 17.7103C33.2586 17.7103 34.1955 18.0466 34.9417 18.6616C35.6879 19.2766 36.1969 20.1319 36.3816 21.0811C36.5663 22.0302 36.4152 23.0141 35.9541 23.864C35.4929 24.7139 34.7506 25.377 33.8542 25.7396V29.4792C33.8542 31.0539 33.2286 32.5641 32.1151 33.6776C31.0016 34.7911 29.4914 35.4167 27.9167 35.4167H26.5917ZM17.7084 16.6667C17.4321 16.6667 17.1671 16.7764 16.9718 16.9718C16.7764 17.1671 16.6667 17.4321 16.6667 17.7083C16.6667 17.9846 16.7764 18.2496 16.9718 18.4449C17.1671 18.6403 17.4321 18.75 17.7084 18.75C17.9846 18.75 18.2496 18.6403 18.4449 18.4449C18.6403 18.2496 18.75 17.9846 18.75 17.7083C18.75 17.4321 18.6403 17.1671 18.4449 16.9718C18.2496 16.7764 17.9846 16.6667 17.7084 16.6667ZM16.6667 32.2917C16.6667 32.5679 16.7764 32.8329 16.9718 33.0282C17.1671 33.2236 17.4321 33.3333 17.7084 33.3333C17.9846 33.3333 18.2496 33.2236 18.4449 33.0282C18.6403 32.8329 18.75 32.5679 18.75 32.2917C18.75 32.0154 18.6403 31.7504 18.4449 31.5551C18.2496 31.3597 17.9846 31.25 17.7084 31.25C17.4321 31.25 17.1671 31.3597 16.9718 31.5551C16.7764 31.7504 16.6667 32.0154 16.6667 32.2917ZM31.25 21.875C31.25 22.1513 31.3598 22.4162 31.5551 22.6116C31.7505 22.8069 32.0154 22.9167 32.2917 22.9167C32.568 22.9167 32.8329 22.8069 33.0283 22.6116C33.2236 22.4162 33.3334 22.1513 33.3334 21.875C33.3334 21.5987 33.2236 21.3338 33.0283 21.1384C32.8329 20.9431 32.568 20.8333 32.2917 20.8333C32.0154 20.8333 31.7505 20.9431 31.5551 21.1384C31.3598 21.3338 31.25 21.5987 31.25 21.875Z" fill="black"/>
</svg>
