<svg width="50" height="50" viewBox="0 0 50 50" fill="none" xmlns="http://www.w3.org/2000/svg">
<path d="M21.125 4.17917C22.5979 4.17917 23.4375 5.64584 23.4375 7.11875V16.1458H21.5729C21.2103 15.2494 20.5472 14.5071 19.6973 14.046C18.8474 13.5848 17.8636 13.4337 16.9144 13.6184C15.9653 13.8031 15.1099 14.3122 14.4949 15.0584C13.88 15.8045 13.5437 16.7414 13.5437 17.7083C13.5437 18.6753 13.88 19.6121 14.4949 20.3583C15.1099 21.1045 15.9653 21.6136 16.9144 21.7983C17.8636 21.983 18.8474 21.8318 19.6973 21.3707C20.5472 20.9096 21.2103 20.1672 21.5729 19.2708H23.4375V41.975C23.4375 43.2167 22.9125 44.4521 21.8063 45.0167C20.8032 45.5421 19.6887 45.8193 18.5563 45.825C15.4104 45.825 13.0709 44.2333 11.5646 42.35C10.5214 41.0503 9.79404 39.5263 9.4396 37.8979C8.46672 37.6108 7.56569 37.1209 6.79585 36.4604C5.31669 35.1875 4.16669 33.1458 4.16669 30.1375C4.16669 28.5646 4.27919 27.1938 4.56252 26.0417H13.3334C14.7459 26.0417 15.9167 27.0833 16.1146 28.4396C15.2217 28.809 14.485 29.4772 14.0305 30.3299C13.576 31.1826 13.432 32.1668 13.6231 33.114C13.8142 34.0611 14.3286 34.9124 15.0782 35.5222C15.8279 36.1319 16.7661 36.4621 17.7323 36.4564C18.6986 36.4506 19.6328 36.1092 20.3751 35.4905C21.1173 34.8719 21.6215 34.0145 21.8013 33.0651C21.9811 32.1157 21.8254 31.1334 21.3607 30.2861C20.8961 29.4389 20.1514 28.7795 19.2542 28.4208C19.1447 26.9253 18.4735 25.5265 17.3752 24.5055C16.2769 23.4845 14.8329 22.9169 13.3334 22.9167H6.33335C6.64533 22.6588 6.9926 22.4469 7.3646 22.2875C7.14985 21.522 7.0254 20.734 6.99377 19.9396C6.92502 18.4083 7.15419 16.8146 7.60835 15.3958C8.05835 14 8.77085 12.6396 9.77085 11.7C10.3981 11.0888 11.1929 10.6776 12.0542 10.5188C12.4688 8.76875 13.525 7.32292 14.8729 6.275C16.6042 4.925 18.8729 4.17917 21.1229 4.17917M26.5625 35.4167H30C31.5747 35.4167 33.085 34.7911 34.1985 33.6776C35.312 32.5641 35.9375 31.0539 35.9375 29.4792V25.7396C36.8339 25.377 37.5763 24.7139 38.0374 23.864C38.4985 23.0141 38.6497 22.0302 38.465 21.0811C38.2803 20.1319 37.7712 19.2766 37.025 18.6616C36.2788 18.0466 35.342 17.7103 34.375 17.7103C33.4081 17.7103 32.4712 18.0466 31.725 18.6616C30.9788 19.2766 30.4698 20.1319 30.2851 21.0811C30.1004 22.0302 30.2515 23.0141 30.7127 23.864C31.1738 24.7139 31.9161 25.377 32.8125 25.7396V29.4792C32.8125 30.2251 32.5162 30.9405 31.9888 31.4679C31.4613 31.9954 30.7459 32.2917 30 32.2917H26.5625V7.11875C26.5625 5.64584 27.4021 4.17917 28.875 4.17917C31.1292 4.17917 33.3959 4.925 35.1271 6.275C36.475 7.32292 37.5313 8.77083 37.9459 10.5188C38.8209 10.6646 39.6 11.1104 40.2292 11.7C41.2292 12.6396 41.9417 13.9979 42.3917 15.3958C42.8459 16.8146 43.075 18.4083 43.0063 19.9396C42.9709 20.7229 42.8563 21.5229 42.6354 22.2875L42.7729 22.35C43.5438 22.7125 44.1688 23.2812 44.6354 24.0375C45.5209 25.4646 45.8334 27.5187 45.8334 30.1375C45.8334 33.1479 44.6834 35.1917 43.2042 36.4604C42.4337 37.1212 41.532 37.6111 40.5584 37.8979C40.2045 39.5261 39.4778 41.0501 38.4354 42.35C36.9292 44.2333 34.5896 45.825 31.4417 45.825C30.3095 45.8199 29.195 45.5435 28.1917 45.0187C27.0875 44.4521 26.5625 43.2167 26.5625 41.975V35.4167ZM16.6667 17.7083C16.6667 17.4321 16.7764 17.1671 16.9718 16.9718C17.1671 16.7764 17.4321 16.6667 17.7084 16.6667C17.9846 16.6667 18.2496 16.7764 18.4449 16.9718C18.6403 17.1671 18.75 17.4321 18.75 17.7083C18.75 17.9846 18.6403 18.2496 18.4449 18.4449C18.2496 18.6403 17.9846 18.75 17.7084 18.75C17.4321 18.75 17.1671 18.6403 16.9718 18.4449C16.7764 18.2496 16.6667 17.9846 16.6667 17.7083ZM17.7084 31.25C17.4321 31.25 17.1671 31.3597 16.9718 31.5551C16.7764 31.7504 16.6667 32.0154 16.6667 32.2917C16.6667 32.5679 16.7764 32.8329 16.9718 33.0282C17.1671 33.2236 17.4321 33.3333 17.7084 33.3333C17.9846 33.3333 18.2496 33.2236 18.4449 33.0282C18.6403 32.8329 18.75 32.5679 18.75 32.2917C18.75 32.0154 18.6403 31.7504 18.4449 31.5551C18.2496 31.3597 17.9846 31.25 17.7084 31.25ZM33.3334 21.875C33.3334 22.1513 33.4431 22.4162 33.6384 22.6116C33.8338 22.8069 34.0988 22.9167 34.375 22.9167C34.6513 22.9167 34.9162 22.8069 35.1116 22.6116C35.3069 22.4162 35.4167 22.1513 35.4167 21.875C35.4167 21.5987 35.3069 21.3338 35.1116 21.1384C34.9162 20.9431 34.6513 20.8333 34.375 20.8333C34.0988 20.8333 33.8338 20.9431 33.6384 21.1384C33.4431 21.3338 33.3334 21.5987 33.3334 21.875Z" fill="black"/>
</svg>
