<svg width="48" height="48" viewBox="0 0 48 48" fill="none" xmlns="http://www.w3.org/2000/svg">
<path fill-rule="evenodd" clip-rule="evenodd" d="M40.4238 16.076C37.624 14.146 33.7137 12.156 29.704 12.004C28.1001 11.944 26.7549 12.614 25.3918 13.294C25.0097 13.486 24.6256 13.676 24.2356 13.854C23.9272 13.992 23.8316 13.992 23.5232 13.854C23.1349 13.675 22.7501 13.4883 22.369 13.294C21.0059 12.614 19.6587 11.942 18.0548 12.004C14.0451 12.156 10.1348 14.146 7.33496 16.076C5.49824 17.34 1.98996 19.368 1.98996 22C1.98996 24.902 5.84449 28.232 7.78867 29.896C11.4024 32.992 16.8171 36 23.8794 36C30.9417 36 36.3564 32.992 39.9701 29.9C41.9919 28.166 45.7689 25.024 45.7689 22C45.7689 19.446 42.1989 17.3 40.4238 16.076ZM23.8794 26C30.1537 26 36.1813 25.02 41.789 23.218C38.7825 22.4061 35.6826 21.9966 32.5695 22C29.5607 22 26.6454 22.376 23.8794 23.08C21.0383 22.3603 18.1193 21.9975 15.1893 22C11.9875 22 8.8931 22.426 5.96986 23.218C11.7606 25.0709 17.8023 26.0094 23.8794 26Z" fill="#FF493B"/>
</svg>
