<svg width="48" height="48" viewBox="0 0 48 48" fill="none" xmlns="http://www.w3.org/2000/svg">
<path d="M14.4669 14.534C15.4122 10.192 19.8995 4 23.8794 4C27.8593 4 32.3466 10.192 33.2919 14.534C33.7893 16.814 34.5694 19.016 35.6082 21.106C37.624 25.154 41.7889 28.086 41.7889 33C41.7889 34.8565 41.0552 36.637 39.749 37.9497C38.4428 39.2625 36.6713 40 34.8241 40C33.6779 40 31.7994 39.256 30.7388 39.788C29.9527 40.184 29.4214 41.122 28.8344 41.748C27.7996 42.848 26.3191 44 23.8794 44C21.4397 44 19.9592 42.848 18.9244 41.748C18.3374 41.122 17.8061 40.184 17.02 39.788C15.9594 39.256 14.0809 40 12.9347 40C11.0875 40 9.31596 39.2625 8.0098 37.9497C6.70364 36.637 5.96985 34.8565 5.96985 33C5.96985 28.086 10.1348 25.156 12.1506 21.106C13.1911 19.0204 13.9692 16.8128 14.4669 14.534Z" fill="#C4996C"/>
</svg>
