<svg width="134" height="134" viewBox="0 0 134 134" fill="none" xmlns="http://www.w3.org/2000/svg">
<path d="M85.2742 37.5591L61.8819 60.9514L38.4896 84.3437L78.5594 101.021L118.627 117.697L101.952 77.6288L85.2742 37.5591Z" fill="#F1B31C"/>
<path d="M59.5556 65.1389L86.1843 38.4673L103.495 79.1698L120.805 119.872L59.5556 65.1389Z" fill="#FCEA2B"/>
<path d="M105.666 84.2803L85.0788 104.868L95.3726 109.057L109.884 94.5462L105.666 84.2803Z" fill="#EA5A47"/>
<path d="M101.723 102.822L95.3726 109.057L85.0788 104.868L94.014 95.9326L101.723 102.822Z" fill="#D22F27"/>
<path d="M95.2796 59.8589L82.8176 72.3209L61.0444 94.094L72.7192 99.4243L87.9263 84.2153L100.221 71.9226L95.2796 59.8589Z" fill="#EA5A47"/>
<path d="M84.6117 87.5301L72.7192 99.4244L61.0444 94.0942L75.6318 79.5068L84.6117 87.5301Z" fill="#D22F27"/>
<path d="M77.6176 30.5762C75.5619 30.5762 73.8954 28.9339 73.8954 26.908C73.8954 24.8821 75.5619 23.2397 77.6176 23.2397C79.6734 23.2397 81.3399 24.8821 81.3399 26.908C81.3399 28.9339 79.6734 30.5762 77.6176 30.5762Z" fill="#8967AA"/>
<path d="M21.7843 38.0206C19.7286 38.0206 18.0621 36.3783 18.0621 34.3523C18.0621 32.3264 19.7286 30.6841 21.7843 30.6841C23.84 30.6841 25.5065 32.3264 25.5065 34.3523C25.5065 36.3783 23.84 38.0206 21.7843 38.0206Z" fill="#F1B31C"/>
<path d="M27.3677 77.1041C25.3119 77.1041 23.6454 75.4617 23.6454 73.4358C23.6454 71.4099 25.3119 69.7676 27.3677 69.7676C29.4234 69.7676 31.0899 71.4099 31.0899 73.4358C31.0899 75.4617 29.4234 77.1041 27.3677 77.1041Z" fill="#D22F27"/>
<path d="M39.7105 84.9392L39.3979 85.2537L80.1004 102.564L120.805 119.874L103.495 79.1698L86.1843 38.4673" stroke="black" stroke-width="1.38889" stroke-miterlimit="10" stroke-linecap="round" stroke-linejoin="round"/>
<path d="M39.7105 84.9394L62.7902 61.8597L85.9815 38.6703L86.1843 38.4674M47.4769 13.7109C47.0396 14.5466 46.7269 15.466 46.565 16.4524C45.7256 21.5648 49.258 26.5284 54.4542 27.539" stroke="black" stroke-width="1.38889" stroke-miterlimit="10" stroke-linecap="round" stroke-linejoin="round"/>
<path d="M54.0969 27.5C55.0639 27.5742 56.0127 27.8029 56.9072 28.1774C61.6884 30.1726 64.0297 35.795 62.1369 40.7399M18.9964 49.7235C19.1866 50.6737 19.5277 51.5873 20.0069 52.4296C22.5604 56.9391 28.4248 58.5899 33.1036 56.1146" stroke="black" stroke-width="1.38889" stroke-miterlimit="10" stroke-linecap="round" stroke-linejoin="round"/>
<path d="M32.8021 56.3101C33.6016 55.7618 34.4838 55.3452 35.4151 55.0761C40.3898 53.6282 45.7424 56.5408 47.3671 61.577" stroke="black" stroke-width="1.38889" stroke-miterlimit="10" stroke-linecap="round" stroke-linejoin="round"/>
</svg>
