<svg width="49" height="48" viewBox="0 0 49 48" fill="none" xmlns="http://www.w3.org/2000/svg">
<path d="M46.6411 20.803L41.0065 17.0062L42.2973 10.3499C42.5423 9.1124 42.1466 7.8374 41.2515 6.9374C40.3469 6.04678 39.0655 5.65303 37.8406 5.89678L31.1601 7.18115L27.3535 1.56553C25.9307 -0.525098 22.4633 -0.525098 21.0405 1.56553L17.2339 7.18115L10.5629 5.89678C9.30971 5.6624 8.03769 6.04678 7.14257 6.94678C6.24744 7.84678 5.85171 9.1124 6.09669 10.3499L7.38755 17.0062L1.75298 20.803C0.697681 21.5155 0.0758057 22.6874 0.0758057 23.953C0.0758057 25.2187 0.707103 26.3905 1.75298 27.0937L7.38755 30.8905L6.09669 37.5468C5.85171 38.7843 6.24744 40.0593 7.14257 40.9499C8.03769 41.8405 9.30029 42.2343 10.5629 41.9905L17.2339 40.7062L21.0405 46.3218C21.7472 47.3718 22.9344 47.9999 24.197 47.9999C25.4596 47.9999 26.6468 47.3718 27.3535 46.3312L31.1601 40.7155L37.8406 41.9999C39.1032 42.253 40.3658 41.8499 41.2609 40.9593C42.156 40.0686 42.5423 38.7937 42.3068 37.5562L41.0159 30.8999L46.6505 27.103C47.6964 26.3999 48.3276 25.2187 48.3276 23.9624C48.3182 22.6874 47.6964 21.5155 46.6411 20.803ZM36.0032 28.828L37.6616 37.378L29.0872 35.728L24.197 42.9374L19.3068 35.7187L10.7419 37.3687L12.4002 28.8187L5.16387 23.9437L12.4002 19.0687L10.7419 10.5187L19.3162 12.1687L24.197 4.96865L29.0872 12.178L37.6616 10.528L36.0032 19.0687L43.2396 23.9437L36.0032 28.828ZM24.197 14.2499C18.798 14.2499 14.3978 18.628 14.3978 23.9999C14.3978 29.3718 18.798 33.7499 24.197 33.7499C29.596 33.7499 33.9963 29.3718 33.9963 23.9999C33.9963 18.628 29.596 14.2499 24.197 14.2499ZM24.197 29.2499C21.2855 29.2499 18.9205 26.8968 18.9205 23.9999C18.9205 21.103 21.2855 18.7499 24.197 18.7499C27.1085 18.7499 29.4735 21.103 29.4735 23.9999C29.4735 26.8968 27.1085 29.2499 24.197 29.2499Z" fill="black"/>
</svg>
