<svg width="50" height="50" viewBox="0 0 50 50" fill="none" xmlns="http://www.w3.org/2000/svg">
<path d="M25 15.625C19.834 15.625 15.625 19.834 15.625 25C15.625 30.166 19.834 34.375 25 34.375C30.166 34.375 34.375 30.166 34.375 25C34.375 19.834 30.166 15.625 25 15.625ZM49.0625 23.4863L39.8145 18.8672L43.0859 9.0625C43.5254 7.73438 42.2656 6.47461 40.9473 6.92383L31.1426 10.1953L26.5137 0.9375C25.8887 -0.3125 24.1113 -0.3125 23.4863 0.9375L18.8672 10.1855L9.05273 6.91406C7.72461 6.47461 6.46484 7.73437 6.91406 9.05273L10.1855 18.8574L0.9375 23.4863C-0.3125 24.1113 -0.3125 25.8887 0.9375 26.5137L10.1855 31.1328L6.91406 40.9473C6.47461 42.2754 7.73437 43.5352 9.05273 43.0859L18.8574 39.8145L23.4766 49.0625C24.1016 50.3125 25.8789 50.3125 26.5039 49.0625L31.123 39.8145L40.9277 43.0859C42.2559 43.5254 43.5156 42.2656 43.0664 40.9473L39.7949 31.1426L49.043 26.5234C50.3125 25.8887 50.3125 24.1113 49.0625 23.4863ZM33.8379 33.8379C28.9648 38.7109 21.0352 38.7109 16.1621 33.8379C11.2891 28.9648 11.2891 21.0352 16.1621 16.1621C21.0352 11.2891 28.9648 11.2891 33.8379 16.1621C38.7109 21.0352 38.7109 28.9648 33.8379 33.8379Z" fill="#FFB023"/>
</svg>
