<svg width="60" height="87" viewBox="0 0 60 87" fill="none" xmlns="http://www.w3.org/2000/svg">
<path d="M13.118 80.14C12.838 80.14 12.618 80.0667 12.458 79.92C12.3114 79.76 12.238 79.5333 12.238 79.24V66.8C12.238 66.5067 12.3114 66.2867 12.458 66.14C12.618 65.98 12.8447 65.9 13.138 65.9H20.398C20.6247 65.9 20.798 65.96 20.918 66.08C21.038 66.2 21.098 66.3667 21.098 66.58C21.098 66.8067 21.038 66.98 20.918 67.1C20.798 67.22 20.6247 67.28 20.398 67.28H13.878V72.2H19.978C20.2047 72.2 20.378 72.26 20.498 72.38C20.6314 72.5 20.698 72.6667 20.698 72.88C20.698 73.1067 20.6314 73.28 20.498 73.4C20.378 73.52 20.2047 73.58 19.978 73.58H13.878V79.24C13.878 79.84 13.6247 80.14 13.118 80.14ZM26.984 80.18C25.9573 80.18 25.0707 79.98 24.324 79.58C23.5907 79.1667 23.0173 78.5867 22.604 77.84C22.204 77.0933 22.004 76.2 22.004 75.16C22.004 74.1467 22.204 73.2667 22.604 72.52C23.004 71.76 23.5507 71.1667 24.244 70.74C24.9507 70.3133 25.764 70.1 26.684 70.1C27.3373 70.1 27.924 70.2133 28.444 70.44C28.964 70.6533 29.404 70.9667 29.764 71.38C30.1373 71.7933 30.4173 72.2933 30.604 72.88C30.804 73.4667 30.904 74.1267 30.904 74.86C30.904 75.0733 30.844 75.2333 30.724 75.34C30.604 75.4333 30.4307 75.48 30.204 75.48H23.244V74.42H29.824L29.504 74.68C29.504 73.96 29.3973 73.3533 29.184 72.86C28.9707 72.3533 28.6573 71.9667 28.244 71.7C27.844 71.4333 27.3373 71.3 26.724 71.3C26.044 71.3 25.464 71.46 24.984 71.78C24.5173 72.0867 24.164 72.52 23.924 73.08C23.684 73.6267 23.564 74.2667 23.564 75V75.12C23.564 76.3467 23.8573 77.28 24.444 77.92C25.044 78.56 25.8907 78.88 26.984 78.88C27.4373 78.88 27.884 78.82 28.324 78.7C28.7773 78.58 29.2173 78.38 29.644 78.1C29.8307 77.98 29.9973 77.9267 30.144 77.94C30.304 77.94 30.4307 77.9867 30.524 78.08C30.6173 78.16 30.6773 78.2667 30.704 78.4C30.744 78.52 30.7307 78.6533 30.664 78.8C30.6107 78.9467 30.4973 79.0733 30.324 79.18C29.884 79.5 29.364 79.7467 28.764 79.92C28.164 80.0933 27.5707 80.18 26.984 80.18ZM36.3085 80.18C35.6418 80.18 35.0418 80.0533 34.5085 79.8C33.9885 79.5333 33.5752 79.1733 33.2685 78.72C32.9618 78.2667 32.8085 77.76 32.8085 77.2C32.8085 76.48 32.9885 75.9133 33.3485 75.5C33.7218 75.0867 34.3285 74.7933 35.1685 74.62C36.0218 74.4467 37.1818 74.36 38.6485 74.36H39.5485V75.42H38.6685C37.5885 75.42 36.7352 75.4733 36.1085 75.58C35.4952 75.6733 35.0618 75.84 34.8085 76.08C34.5685 76.32 34.4485 76.66 34.4485 77.1C34.4485 77.6467 34.6352 78.0933 35.0085 78.44C35.3952 78.7867 35.9152 78.96 36.5685 78.96C37.1018 78.96 37.5685 78.8333 37.9685 78.58C38.3818 78.3267 38.7018 77.98 38.9285 77.54C39.1685 77.1 39.2885 76.5933 39.2885 76.02V73.74C39.2885 72.9133 39.1218 72.32 38.7885 71.96C38.4552 71.5867 37.9085 71.4 37.1485 71.4C36.6818 71.4 36.2152 71.46 35.7485 71.58C35.2818 71.7 34.7885 71.8933 34.2685 72.16C34.0818 72.2533 33.9218 72.2867 33.7885 72.26C33.6552 72.22 33.5485 72.1467 33.4685 72.04C33.3885 71.9333 33.3418 71.8133 33.3285 71.68C33.3152 71.5333 33.3418 71.3933 33.4085 71.26C33.4885 71.1267 33.6085 71.02 33.7685 70.94C34.3552 70.6467 34.9352 70.4333 35.5085 70.3C36.0818 70.1667 36.6285 70.1 37.1485 70.1C37.9885 70.1 38.6818 70.24 39.2285 70.52C39.7752 70.7867 40.1818 71.2 40.4485 71.76C40.7152 72.3067 40.8485 73.0133 40.8485 73.88V79.3C40.8485 79.5667 40.7818 79.7733 40.6485 79.92C40.5285 80.0667 40.3485 80.14 40.1085 80.14C39.8552 80.14 39.6618 80.0667 39.5285 79.92C39.3952 79.7733 39.3285 79.5667 39.3285 79.3V77.74H39.5085C39.4018 78.2467 39.1952 78.68 38.8885 79.04C38.5952 79.4 38.2285 79.68 37.7885 79.88C37.3485 80.08 36.8552 80.18 36.3085 80.18ZM44.674 80.14C44.4073 80.14 44.2007 80.0667 44.054 79.92C43.9207 79.7733 43.854 79.5667 43.854 79.3V70.96C43.854 70.6933 43.9207 70.4933 44.054 70.36C44.1873 70.2133 44.3807 70.14 44.634 70.14C44.8873 70.14 45.0807 70.2133 45.214 70.36C45.3607 70.4933 45.434 70.6933 45.434 70.96V72.58H45.234C45.4473 71.7933 45.854 71.1867 46.454 70.76C47.054 70.3333 47.794 70.1067 48.674 70.08C48.874 70.0667 49.034 70.1133 49.154 70.22C49.274 70.3133 49.3407 70.48 49.354 70.72C49.3673 70.9467 49.314 71.1267 49.194 71.26C49.074 71.3933 48.8873 71.4733 48.634 71.5L48.314 71.54C47.4073 71.62 46.7073 71.9133 46.214 72.42C45.734 72.9133 45.494 73.5933 45.494 74.46V79.3C45.494 79.5667 45.4207 79.7733 45.274 79.92C45.1407 80.0667 44.9407 80.14 44.674 80.14Z" fill="black"/>
<mask id="mask0_904_6111" style="mask-type:alpha" maskUnits="userSpaceOnUse" x="0" y="0" width="60" height="60">
<rect width="60" height="60" fill="#D9D9D9"/>
</mask>
<g mask="url(#mask0_904_6111)">
<path d="M18.625 31.5L27.5625 25L18.625 18.5L16.375 21.5L21.1875 25L16.375 28.5L18.625 31.5ZM41.375 31.5L43.625 28.5L38.8125 25L43.625 21.5L41.375 18.5L32.4375 25L41.375 31.5ZM26.25 42.625L30 38.875L33.75 42.625L37.5 38.875L39.9375 41.3125L42.5625 38.6875L37.5 33.625L33.75 37.375L30 33.625L26.25 37.375L22.5 33.625L17.4375 38.6875L20.0625 41.3125L22.5 38.875L26.25 42.625ZM30 55C26.5417 55 23.2917 54.3438 20.25 53.0312C17.2083 51.7188 14.5625 49.9375 12.3125 47.6875C10.0625 45.4375 8.28125 42.7917 6.96875 39.75C5.65625 36.7083 5 33.4583 5 30C5 26.5417 5.65625 23.2917 6.96875 20.25C8.28125 17.2083 10.0625 14.5625 12.3125 12.3125C14.5625 10.0625 17.2083 8.28125 20.25 6.96875C23.2917 5.65625 26.5417 5 30 5C33.4583 5 36.7083 5.65625 39.75 6.96875C42.7917 8.28125 45.4375 10.0625 47.6875 12.3125C49.9375 14.5625 51.7188 17.2083 53.0312 20.25C54.3438 23.2917 55 26.5417 55 30C55 33.4583 54.3438 36.7083 53.0312 39.75C51.7188 42.7917 49.9375 45.4375 47.6875 47.6875C45.4375 49.9375 42.7917 51.7188 39.75 53.0312C36.7083 54.3438 33.4583 55 30 55ZM30 50C35.5833 50 40.3125 48.0625 44.1875 44.1875C48.0625 40.3125 50 35.5833 50 30C50 24.4167 48.0625 19.6875 44.1875 15.8125C40.3125 11.9375 35.5833 10 30 10C24.4167 10 19.6875 11.9375 15.8125 15.8125C11.9375 19.6875 10 24.4167 10 30C10 35.5833 11.9375 40.3125 15.8125 44.1875C19.6875 48.0625 24.4167 50 30 50Z" fill="#A23DC5"/>
</g>
</svg>
