<svg width="168" height="65" viewBox="0 0 168 65" fill="none" xmlns="http://www.w3.org/2000/svg">
<path d="M76.864 48.384C75.872 48.384 75.088 48.112 74.512 47.568C73.968 46.992 73.696 46.176 73.696 45.12V17.424C73.696 16.368 73.968 15.568 74.512 15.024C75.088 14.448 75.904 14.16 76.96 14.16H93.712C94.544 14.16 95.168 14.368 95.584 14.784C96 15.2 96.208 15.792 96.208 16.56C96.208 17.36 96 17.984 95.584 18.432C95.168 18.848 94.544 19.056 93.712 19.056H79.84V28.608H92.704C93.504 28.608 94.112 28.816 94.528 29.232C94.976 29.648 95.2 30.24 95.2 31.008C95.2 31.808 94.976 32.432 94.528 32.88C94.112 33.296 93.504 33.504 92.704 33.504H79.84V45.12C79.84 47.296 78.848 48.384 76.864 48.384ZM110.797 48.48C108.141 48.48 105.853 47.984 103.933 46.992C102.013 46 100.525 44.592 99.4694 42.768C98.4454 40.944 97.9334 38.784 97.9334 36.288C97.9334 33.856 98.4294 31.728 99.4214 29.904C100.445 28.08 101.837 26.656 103.597 25.632C105.389 24.576 107.421 24.048 109.693 24.048C111.357 24.048 112.845 24.32 114.157 24.864C115.501 25.408 116.637 26.192 117.565 27.216C118.525 28.24 119.245 29.488 119.725 30.96C120.237 32.4 120.493 34.032 120.493 35.856C120.493 36.432 120.285 36.88 119.869 37.2C119.485 37.488 118.925 37.632 118.189 37.632H102.781V34.176H116.269L115.501 34.896C115.501 33.424 115.277 32.192 114.829 31.2C114.413 30.208 113.789 29.456 112.957 28.944C112.157 28.4 111.149 28.128 109.933 28.128C108.589 28.128 107.437 28.448 106.477 29.088C105.549 29.696 104.829 30.576 104.317 31.728C103.837 32.848 103.597 34.192 103.597 35.76V36.096C103.597 38.72 104.205 40.688 105.421 42C106.669 43.28 108.493 43.92 110.893 43.92C111.725 43.92 112.653 43.824 113.677 43.632C114.733 43.408 115.725 43.04 116.653 42.528C117.325 42.144 117.917 41.984 118.429 42.048C118.941 42.08 119.341 42.256 119.629 42.576C119.949 42.896 120.141 43.296 120.205 43.776C120.269 44.224 120.173 44.688 119.917 45.168C119.693 45.648 119.293 46.064 118.717 46.416C117.597 47.12 116.301 47.648 114.829 48C113.389 48.32 112.045 48.48 110.797 48.48ZM132.973 48.48C131.277 48.48 129.757 48.16 128.413 47.52C127.101 46.848 126.061 45.952 125.293 44.832C124.557 43.712 124.189 42.448 124.189 41.04C124.189 39.312 124.637 37.952 125.533 36.96C126.429 35.936 127.885 35.2 129.901 34.752C131.917 34.304 134.621 34.08 138.013 34.08H140.413V37.536H138.061C136.077 37.536 134.493 37.632 133.309 37.824C132.125 38.016 131.277 38.352 130.765 38.832C130.285 39.28 130.045 39.92 130.045 40.752C130.045 41.808 130.413 42.672 131.149 43.344C131.885 44.016 132.909 44.352 134.221 44.352C135.277 44.352 136.205 44.112 137.005 43.632C137.837 43.12 138.493 42.432 138.973 41.568C139.453 40.704 139.693 39.712 139.693 38.592V33.072C139.693 31.472 139.341 30.32 138.637 29.616C137.933 28.912 136.749 28.56 135.085 28.56C134.157 28.56 133.149 28.672 132.061 28.896C131.005 29.12 129.885 29.504 128.701 30.048C128.093 30.336 127.549 30.416 127.069 30.288C126.621 30.16 126.269 29.904 126.013 29.52C125.757 29.104 125.629 28.656 125.629 28.176C125.629 27.696 125.757 27.232 126.013 26.784C126.269 26.304 126.701 25.952 127.309 25.728C128.781 25.12 130.189 24.688 131.533 24.432C132.909 24.176 134.157 24.048 135.277 24.048C137.581 24.048 139.469 24.4 140.941 25.104C142.445 25.808 143.565 26.88 144.301 28.32C145.037 29.728 145.405 31.552 145.405 33.792V45.312C145.405 46.304 145.165 47.072 144.685 47.616C144.205 48.128 143.517 48.384 142.621 48.384C141.725 48.384 141.021 48.128 140.509 47.616C140.029 47.072 139.789 46.304 139.789 45.312V43.008H140.173C139.949 44.128 139.501 45.104 138.829 45.936C138.189 46.736 137.373 47.36 136.381 47.808C135.389 48.256 134.253 48.48 132.973 48.48ZM154.567 48.384C153.575 48.384 152.807 48.128 152.263 47.616C151.751 47.072 151.495 46.304 151.495 45.312V27.168C151.495 26.176 151.751 25.424 152.263 24.912C152.775 24.4 153.495 24.144 154.423 24.144C155.351 24.144 156.071 24.4 156.583 24.912C157.095 25.424 157.351 26.176 157.351 27.168V30.192H156.871C157.319 28.272 158.199 26.816 159.511 25.824C160.823 24.832 162.567 24.24 164.743 24.048C165.415 23.984 165.943 24.16 166.327 24.576C166.743 24.96 166.983 25.568 167.047 26.4C167.111 27.2 166.919 27.856 166.471 28.368C166.055 28.848 165.415 29.136 164.551 29.232L163.495 29.328C161.543 29.52 160.071 30.128 159.079 31.152C158.087 32.144 157.591 33.552 157.591 35.376V45.312C157.591 46.304 157.335 47.072 156.823 47.616C156.311 48.128 155.559 48.384 154.567 48.384Z" fill="#A23DC5"/>
<mask id="mask0_642_5032" style="mask-type:alpha" maskUnits="userSpaceOnUse" x="0" y="3" width="60" height="60">
<rect y="3" width="60" height="60" fill="#D9D9D9"/>
</mask>
<g mask="url(#mask0_642_5032)">
<path d="M18.625 34.5L27.5625 28L18.625 21.5L16.375 24.5L21.1875 28L16.375 31.5L18.625 34.5ZM41.375 34.5L43.625 31.5L38.8125 28L43.625 24.5L41.375 21.5L32.4375 28L41.375 34.5ZM26.25 45.625L30 41.875L33.75 45.625L37.5 41.875L39.9375 44.3125L42.5625 41.6875L37.5 36.625L33.75 40.375L30 36.625L26.25 40.375L22.5 36.625L17.4375 41.6875L20.0625 44.3125L22.5 41.875L26.25 45.625ZM30 58C26.5417 58 23.2917 57.3438 20.25 56.0312C17.2083 54.7188 14.5625 52.9375 12.3125 50.6875C10.0625 48.4375 8.28125 45.7917 6.96875 42.75C5.65625 39.7083 5 36.4583 5 33C5 29.5417 5.65625 26.2917 6.96875 23.25C8.28125 20.2083 10.0625 17.5625 12.3125 15.3125C14.5625 13.0625 17.2083 11.2813 20.25 9.96875C23.2917 8.65625 26.5417 8 30 8C33.4583 8 36.7083 8.65625 39.75 9.96875C42.7917 11.2813 45.4375 13.0625 47.6875 15.3125C49.9375 17.5625 51.7188 20.2083 53.0312 23.25C54.3438 26.2917 55 29.5417 55 33C55 36.4583 54.3438 39.7083 53.0312 42.75C51.7188 45.7917 49.9375 48.4375 47.6875 50.6875C45.4375 52.9375 42.7917 54.7188 39.75 56.0312C36.7083 57.3438 33.4583 58 30 58ZM30 53C35.5833 53 40.3125 51.0625 44.1875 47.1875C48.0625 43.3125 50 38.5833 50 33C50 27.4167 48.0625 22.6875 44.1875 18.8125C40.3125 14.9375 35.5833 13 30 13C24.4167 13 19.6875 14.9375 15.8125 18.8125C11.9375 22.6875 10 27.4167 10 33C10 38.5833 11.9375 43.3125 15.8125 47.1875C19.6875 51.0625 24.4167 53 30 53Z" fill="#A23DC5"/>
</g>
</svg>
