<svg width="140" height="65" viewBox="0 0 140 65" fill="none" xmlns="http://www.w3.org/2000/svg">
<path d="M72.208 48.336C71.312 48.368 70.608 48.128 70.096 47.616C69.584 47.104 69.328 46.448 69.328 45.648C69.328 45.04 69.52 44.512 69.904 44.064C70.256 43.584 70.784 43.328 71.488 43.296L72.928 43.2C74.336 43.104 75.392 42.672 76.096 41.904C76.832 41.104 77.2 39.968 77.2 38.496V16.896C77.2 15.872 77.456 15.104 77.968 14.592C78.512 14.048 79.28 13.776 80.272 13.776C81.264 13.776 82.016 14.048 82.528 14.592C83.072 15.104 83.344 15.872 83.344 16.896V38.448C83.344 40.464 82.976 42.176 82.24 43.584C81.536 44.992 80.48 46.096 79.072 46.896C77.664 47.664 75.92 48.112 73.84 48.24L72.208 48.336ZM100.793 48.48C98.3608 48.48 96.2488 47.984 94.4568 46.992C92.6648 46 91.2728 44.592 90.2808 42.768C89.2888 40.912 88.7928 38.736 88.7928 36.24C88.7928 34.352 89.0648 32.672 89.6088 31.2C90.1848 29.696 91.0008 28.416 92.0568 27.36C93.1128 26.272 94.3768 25.456 95.8488 24.912C97.3208 24.336 98.9688 24.048 100.793 24.048C103.225 24.048 105.337 24.544 107.129 25.536C108.921 26.528 110.313 27.936 111.305 29.76C112.297 31.584 112.793 33.744 112.793 36.24C112.793 38.128 112.505 39.824 111.929 41.328C111.385 42.832 110.585 44.128 109.529 45.216C108.473 46.272 107.209 47.088 105.737 47.664C104.265 48.208 102.617 48.48 100.793 48.48ZM100.793 43.92C101.977 43.92 103.017 43.632 103.913 43.056C104.809 42.48 105.497 41.632 105.977 40.512C106.489 39.36 106.745 37.936 106.745 36.24C106.745 33.68 106.201 31.776 105.113 30.528C104.025 29.248 102.585 28.608 100.793 28.608C99.6088 28.608 98.5688 28.896 97.6728 29.472C96.7768 30.016 96.0728 30.864 95.5608 32.016C95.0808 33.136 94.8408 34.544 94.8408 36.24C94.8408 38.768 95.3848 40.688 96.4728 42C97.5608 43.28 99.0008 43.92 100.793 43.92ZM123.228 57.024C122.524 57.024 121.948 56.832 121.5 56.448C121.052 56.096 120.78 55.616 120.684 55.008C120.62 54.4 120.732 53.76 121.02 53.088L124.284 45.84V48.336L115.548 28.128C115.26 27.424 115.164 26.768 115.26 26.16C115.356 25.552 115.644 25.072 116.124 24.72C116.636 24.336 117.324 24.144 118.188 24.144C118.924 24.144 119.516 24.32 119.964 24.672C120.412 24.992 120.812 25.616 121.164 26.544L127.644 42.72H126.204L132.828 26.496C133.18 25.6 133.596 24.992 134.076 24.672C134.556 24.32 135.196 24.144 135.996 24.144C136.7 24.144 137.26 24.336 137.676 24.72C138.092 25.072 138.348 25.552 138.444 26.16C138.54 26.736 138.428 27.376 138.108 28.08L126.444 54.72C126.028 55.616 125.58 56.224 125.1 56.544C124.62 56.864 123.996 57.024 123.228 57.024Z" fill="#339967"/>
<mask id="mask0_650_4269" style="mask-type:alpha" maskUnits="userSpaceOnUse" x="0" y="3" width="60" height="60">
<rect y="3" width="60" height="60" fill="#D9D9D9"/>
</mask>
<g mask="url(#mask0_650_4269)">
<path d="M20 33V38C20 40.75 20.9792 43.1042 22.9375 45.0625C24.8958 47.0208 27.25 48 30 48C32.75 48 35.1042 47.0208 37.0625 45.0625C39.0208 43.1042 40 40.75 40 38V33H20ZM30 44.25C28.25 44.25 26.7708 43.6458 25.5625 42.4375C24.3542 41.2292 23.75 39.75 23.75 38V36.75H36.25V38C36.25 39.75 35.6458 41.2292 34.4375 42.4375C33.2292 43.6458 31.75 44.25 30 44.25ZM21.25 20.5C19.6667 20.5 18.2604 21.0729 17.0312 22.2188C15.8021 23.3646 14.9375 24.9375 14.4375 26.9375L18.0625 27.8125C18.3125 26.7292 18.7292 25.8646 19.3125 25.2188C19.8958 24.5729 20.5417 24.25 21.25 24.25C21.9583 24.25 22.6042 24.5729 23.1875 25.2188C23.7708 25.8646 24.1875 26.7292 24.4375 27.8125L28.0625 26.9375C27.5625 24.9375 26.6979 23.3646 25.4688 22.2188C24.2396 21.0729 22.8333 20.5 21.25 20.5ZM38.75 20.5C37.1667 20.5 35.7604 21.0729 34.5312 22.2188C33.3021 23.3646 32.4375 24.9375 31.9375 26.9375L35.5625 27.8125C35.8125 26.7292 36.2292 25.8646 36.8125 25.2188C37.3958 24.5729 38.0417 24.25 38.75 24.25C39.4583 24.25 40.1042 24.5729 40.6875 25.2188C41.2708 25.8646 41.6875 26.7292 41.9375 27.8125L45.5625 26.9375C45.0625 24.9375 44.1979 23.3646 42.9688 22.2188C41.7396 21.0729 40.3333 20.5 38.75 20.5ZM30 58C26.5417 58 23.2917 57.3438 20.25 56.0312C17.2083 54.7188 14.5625 52.9375 12.3125 50.6875C10.0625 48.4375 8.28125 45.7917 6.96875 42.75C5.65625 39.7083 5 36.4583 5 33C5 29.5417 5.65625 26.2917 6.96875 23.25C8.28125 20.2083 10.0625 17.5625 12.3125 15.3125C14.5625 13.0625 17.2083 11.2813 20.25 9.96875C23.2917 8.65625 26.5417 8 30 8C33.4583 8 36.7083 8.65625 39.75 9.96875C42.7917 11.2813 45.4375 13.0625 47.6875 15.3125C49.9375 17.5625 51.7188 20.2083 53.0312 23.25C54.3438 26.2917 55 29.5417 55 33C55 36.4583 54.3438 39.7083 53.0312 42.75C51.7188 45.7917 49.9375 48.4375 47.6875 50.6875C45.4375 52.9375 42.7917 54.7188 39.75 56.0312C36.7083 57.3438 33.4583 58 30 58ZM30 53C35.5833 53 40.3125 51.0625 44.1875 47.1875C48.0625 43.3125 50 38.5833 50 33C50 27.4167 48.0625 22.6875 44.1875 18.8125C40.3125 14.9375 35.5833 13 30 13C24.4167 13 19.6875 14.9375 15.8125 18.8125C11.9375 22.6875 10 27.4167 10 33C10 38.5833 11.9375 43.3125 15.8125 47.1875C19.6875 51.0625 24.4167 53 30 53Z" fill="#339967"/>
</g>
</svg>
