<svg width="208" height="65" viewBox="0 0 208 65" fill="none" xmlns="http://www.w3.org/2000/svg">
<path d="M74.032 48.384C73.264 48.384 72.64 48.208 72.16 47.856C71.712 47.504 71.44 47.04 71.344 46.464C71.248 45.856 71.36 45.184 71.68 44.448L84.352 16.368C84.768 15.44 85.264 14.784 85.84 14.4C86.448 13.984 87.136 13.776 87.904 13.776C88.64 13.776 89.296 13.984 89.872 14.4C90.48 14.784 90.992 15.44 91.408 16.368L104.128 44.448C104.48 45.184 104.608 45.856 104.512 46.464C104.416 47.072 104.144 47.552 103.696 47.904C103.248 48.224 102.656 48.384 101.92 48.384C101.024 48.384 100.32 48.176 99.808 47.76C99.328 47.312 98.896 46.64 98.512 45.744L95.392 38.496L97.984 40.176H77.728L80.32 38.496L77.248 45.744C76.832 46.672 76.4 47.344 75.952 47.76C75.504 48.176 74.864 48.384 74.032 48.384ZM87.808 20.832L81.088 36.816L79.84 35.28H95.872L94.672 36.816L87.904 20.832H87.808ZM111.815 48.384C110.855 48.384 110.119 48.128 109.607 47.616C109.095 47.072 108.839 46.304 108.839 45.312V27.168C108.839 26.176 109.095 25.424 109.607 24.912C110.119 24.4 110.839 24.144 111.767 24.144C112.695 24.144 113.415 24.4 113.927 24.912C114.439 25.424 114.695 26.176 114.695 27.168V30.432L114.167 29.232C114.871 27.536 115.959 26.256 117.431 25.392C118.935 24.496 120.631 24.048 122.519 24.048C124.407 24.048 125.959 24.4 127.175 25.104C128.391 25.808 129.303 26.88 129.911 28.32C130.519 29.728 130.823 31.52 130.823 33.696V45.312C130.823 46.304 130.567 47.072 130.055 47.616C129.543 48.128 128.807 48.384 127.847 48.384C126.887 48.384 126.135 48.128 125.591 47.616C125.079 47.072 124.823 46.304 124.823 45.312V33.984C124.823 32.16 124.471 30.832 123.767 30C123.095 29.168 122.039 28.752 120.599 28.752C118.839 28.752 117.431 29.312 116.375 30.432C115.351 31.52 114.839 32.976 114.839 34.8V45.312C114.839 47.36 113.831 48.384 111.815 48.384ZM147.861 57.12C146.133 57.12 144.453 56.96 142.821 56.64C141.221 56.32 139.765 55.824 138.453 55.152C137.845 54.832 137.429 54.448 137.205 54C137.013 53.552 136.949 53.088 137.013 52.608C137.109 52.16 137.301 51.76 137.589 51.408C137.909 51.056 138.293 50.816 138.741 50.688C139.189 50.56 139.653 50.624 140.133 50.88C141.541 51.584 142.869 52.032 144.117 52.224C145.397 52.448 146.485 52.56 147.381 52.56C149.525 52.56 151.125 52.032 152.181 50.976C153.269 49.952 153.813 48.416 153.813 46.368V42.048H154.245C153.765 43.68 152.757 44.992 151.221 45.984C149.717 46.944 148.005 47.424 146.085 47.424C143.973 47.424 142.133 46.944 140.565 45.984C138.997 44.992 137.781 43.616 136.917 41.856C136.053 40.096 135.621 38.048 135.621 35.712C135.621 33.952 135.861 32.368 136.341 30.96C136.853 29.52 137.557 28.288 138.453 27.264C139.381 26.24 140.485 25.456 141.765 24.912C143.077 24.336 144.517 24.048 146.085 24.048C148.069 24.048 149.797 24.544 151.269 25.536C152.773 26.496 153.749 27.776 154.197 29.376L153.717 30.576V27.168C153.717 26.176 153.973 25.424 154.485 24.912C155.029 24.4 155.765 24.144 156.693 24.144C157.653 24.144 158.389 24.4 158.901 24.912C159.413 25.424 159.669 26.176 159.669 27.168V45.648C159.669 49.456 158.661 52.32 156.645 54.24C154.629 56.16 151.701 57.12 147.861 57.12ZM147.717 42.864C148.965 42.864 150.037 42.576 150.933 42C151.829 41.424 152.517 40.608 152.997 39.552C153.509 38.464 153.765 37.184 153.765 35.712C153.765 33.504 153.221 31.776 152.133 30.528C151.045 29.248 149.573 28.608 147.717 28.608C146.469 28.608 145.397 28.896 144.501 29.472C143.605 30.048 142.901 30.864 142.389 31.92C141.909 32.976 141.669 34.24 141.669 35.712C141.669 37.92 142.213 39.664 143.301 40.944C144.389 42.224 145.861 42.864 147.717 42.864ZM177.454 48.48C174.798 48.48 172.51 47.984 170.59 46.992C168.67 46 167.182 44.592 166.126 42.768C165.102 40.944 164.59 38.784 164.59 36.288C164.59 33.856 165.086 31.728 166.078 29.904C167.102 28.08 168.494 26.656 170.254 25.632C172.046 24.576 174.078 24.048 176.35 24.048C178.014 24.048 179.502 24.32 180.814 24.864C182.158 25.408 183.294 26.192 184.222 27.216C185.182 28.24 185.902 29.488 186.382 30.96C186.894 32.4 187.15 34.032 187.15 35.856C187.15 36.432 186.942 36.88 186.526 37.2C186.142 37.488 185.582 37.632 184.846 37.632H169.438V34.176H182.926L182.158 34.896C182.158 33.424 181.934 32.192 181.486 31.2C181.07 30.208 180.446 29.456 179.614 28.944C178.814 28.4 177.806 28.128 176.59 28.128C175.246 28.128 174.094 28.448 173.134 29.088C172.206 29.696 171.486 30.576 170.974 31.728C170.494 32.848 170.254 34.192 170.254 35.76V36.096C170.254 38.72 170.862 40.688 172.078 42C173.326 43.28 175.15 43.92 177.55 43.92C178.382 43.92 179.31 43.824 180.334 43.632C181.39 43.408 182.382 43.04 183.31 42.528C183.982 42.144 184.574 41.984 185.086 42.048C185.598 42.08 185.998 42.256 186.286 42.576C186.606 42.896 186.798 43.296 186.862 43.776C186.926 44.224 186.83 44.688 186.574 45.168C186.35 45.648 185.95 46.064 185.374 46.416C184.254 47.12 182.958 47.648 181.486 48C180.046 48.32 178.702 48.48 177.454 48.48ZM194.973 48.384C193.981 48.384 193.213 48.128 192.669 47.616C192.157 47.072 191.901 46.304 191.901 45.312V27.168C191.901 26.176 192.157 25.424 192.669 24.912C193.181 24.4 193.901 24.144 194.829 24.144C195.757 24.144 196.477 24.4 196.989 24.912C197.501 25.424 197.757 26.176 197.757 27.168V30.192H197.277C197.725 28.272 198.605 26.816 199.917 25.824C201.229 24.832 202.973 24.24 205.149 24.048C205.821 23.984 206.349 24.16 206.733 24.576C207.149 24.96 207.389 25.568 207.453 26.4C207.517 27.2 207.325 27.856 206.877 28.368C206.461 28.848 205.821 29.136 204.957 29.232L203.901 29.328C201.949 29.52 200.477 30.128 199.485 31.152C198.493 32.144 197.997 33.552 197.997 35.376V45.312C197.997 46.304 197.741 47.072 197.229 47.616C196.717 48.128 195.965 48.384 194.973 48.384Z" fill="#FF493B"/>
<mask id="mask0_642_5036" style="mask-type:alpha" maskUnits="userSpaceOnUse" x="0" y="3" width="60" height="60">
<rect y="3" width="60" height="60" fill="#D9D9D9"/>
</mask>
<g mask="url(#mask0_642_5036)">
<path d="M30 58C26.5417 58 23.2917 57.3438 20.25 56.0312C17.2083 54.7188 14.5625 52.9375 12.3125 50.6875C10.0625 48.4375 8.28125 45.7917 6.96875 42.75C5.65625 39.7083 5 36.4583 5 33C5 29.5417 5.65625 26.2917 6.96875 23.25C8.28125 20.2083 10.0625 17.5625 12.3125 15.3125C14.5625 13.0625 17.2083 11.2813 20.25 9.96875C23.2917 8.65625 26.5417 8 30 8C33.4583 8 36.7083 8.65625 39.75 9.96875C42.7917 11.2813 45.4375 13.0625 47.6875 15.3125C49.9375 17.5625 51.7188 20.2083 53.0312 23.25C54.3438 26.2917 55 29.5417 55 33C55 36.4583 54.3438 39.7083 53.0312 42.75C51.7188 45.7917 49.9375 48.4375 47.6875 50.6875C45.4375 52.9375 42.7917 54.7188 39.75 56.0312C36.7083 57.3438 33.4583 58 30 58ZM30 53C35.5417 53 40.2604 51.0521 44.1562 47.1562C48.0521 43.2604 50 38.5417 50 33C50 27.4583 48.0521 22.7396 44.1562 18.8438C40.2604 14.9479 35.5417 13 30 13C24.4583 13 19.7396 14.9479 15.8438 18.8438C11.9479 22.7396 10 27.4583 10 33C10 38.5417 11.9479 43.2604 15.8438 47.1562C19.7396 51.0521 24.4583 53 30 53ZM33.75 30.25L35 29.5C35.0833 30.5 35.4792 31.3333 36.1875 32C36.8958 32.6667 37.75 33 38.75 33C39.7917 33 40.6771 32.6354 41.4062 31.9062C42.1354 31.1771 42.5 30.2917 42.5 29.25C42.5 28.625 42.3542 28.0312 42.0625 27.4688C41.7708 26.9062 41.375 26.4583 40.875 26.125L42.5 25.1875L41.25 23L32.5 28L33.75 30.25ZM26.25 30.25L27.5 28L18.75 23L17.5 25.1875L19.125 26.125C18.625 26.4583 18.2292 26.9062 17.9375 27.4688C17.6458 28.0312 17.5 28.625 17.5 29.25C17.5 30.2917 17.8646 31.1771 18.5938 31.9062C19.3229 32.6354 20.2083 33 21.25 33C22.25 33 23.1042 32.6667 23.8125 32C24.5208 31.3333 24.9167 30.5 25 29.5L26.25 30.25ZM30 35.5C27.0417 35.5 24.4375 36.4479 22.1875 38.3438C19.9375 40.2396 18.3542 42.625 17.4375 45.5H42.5625C41.6458 42.625 40.0625 40.2396 37.8125 38.3438C35.5625 36.4479 32.9583 35.5 30 35.5Z" fill="#FF493B"/>
</g>
</svg>
