<svg width="257" height="65" viewBox="0 0 257 65" fill="none" xmlns="http://www.w3.org/2000/svg">
<path d="M85.36 48.48C83.952 48.48 82.544 48.368 81.136 48.144C79.728 47.952 78.4 47.648 77.152 47.232C75.904 46.784 74.784 46.24 73.792 45.6C73.216 45.216 72.816 44.752 72.592 44.208C72.368 43.664 72.288 43.136 72.352 42.624C72.448 42.08 72.656 41.616 72.976 41.232C73.328 40.816 73.76 40.56 74.272 40.464C74.784 40.368 75.344 40.512 75.952 40.896C77.36 41.728 78.848 42.336 80.416 42.72C81.984 43.104 83.632 43.296 85.36 43.296C87.888 43.296 89.728 42.88 90.88 42.048C92.032 41.184 92.608 40.08 92.608 38.736C92.608 37.616 92.192 36.736 91.36 36.096C90.56 35.456 89.168 34.928 87.184 34.512L81.904 33.408C78.864 32.768 76.592 31.696 75.088 30.192C73.616 28.656 72.88 26.64 72.88 24.144C72.88 22.576 73.2 21.152 73.84 19.872C74.48 18.592 75.376 17.488 76.528 16.56C77.712 15.632 79.104 14.928 80.704 14.448C82.336 13.936 84.128 13.68 86.08 13.68C88 13.68 89.824 13.92 91.552 14.4C93.28 14.88 94.832 15.584 96.208 16.512C96.72 16.864 97.056 17.296 97.216 17.808C97.408 18.32 97.456 18.832 97.36 19.344C97.264 19.824 97.04 20.24 96.688 20.592C96.336 20.944 95.888 21.152 95.344 21.216C94.832 21.28 94.24 21.12 93.568 20.736C92.384 20.064 91.184 19.584 89.968 19.296C88.752 19.008 87.44 18.864 86.032 18.864C84.56 18.864 83.296 19.072 82.24 19.488C81.184 19.904 80.368 20.496 79.792 21.264C79.248 22 78.976 22.88 78.976 23.904C78.976 25.056 79.36 25.984 80.128 26.688C80.896 27.36 82.208 27.888 84.064 28.272L89.296 29.376C92.464 30.048 94.816 31.104 96.352 32.544C97.92 33.984 98.704 35.904 98.704 38.304C98.704 39.84 98.384 41.232 97.744 42.48C97.136 43.728 96.24 44.8 95.056 45.696C93.904 46.592 92.512 47.28 90.88 47.76C89.248 48.24 87.408 48.48 85.36 48.48ZM111.129 48.48C109.433 48.48 107.913 48.16 106.569 47.52C105.257 46.848 104.217 45.952 103.449 44.832C102.713 43.712 102.345 42.448 102.345 41.04C102.345 39.312 102.793 37.952 103.689 36.96C104.585 35.936 106.041 35.2 108.057 34.752C110.073 34.304 112.777 34.08 116.169 34.08H118.569V37.536H116.217C114.233 37.536 112.649 37.632 111.465 37.824C110.281 38.016 109.433 38.352 108.921 38.832C108.441 39.28 108.201 39.92 108.201 40.752C108.201 41.808 108.569 42.672 109.305 43.344C110.041 44.016 111.065 44.352 112.377 44.352C113.433 44.352 114.361 44.112 115.161 43.632C115.993 43.12 116.649 42.432 117.129 41.568C117.609 40.704 117.849 39.712 117.849 38.592V33.072C117.849 31.472 117.497 30.32 116.793 29.616C116.089 28.912 114.905 28.56 113.241 28.56C112.313 28.56 111.305 28.672 110.217 28.896C109.161 29.12 108.041 29.504 106.857 30.048C106.249 30.336 105.705 30.416 105.225 30.288C104.777 30.16 104.425 29.904 104.169 29.52C103.913 29.104 103.785 28.656 103.785 28.176C103.785 27.696 103.913 27.232 104.169 26.784C104.425 26.304 104.857 25.952 105.465 25.728C106.937 25.12 108.345 24.688 109.689 24.432C111.065 24.176 112.313 24.048 113.433 24.048C115.737 24.048 117.625 24.4 119.097 25.104C120.601 25.808 121.721 26.88 122.457 28.32C123.193 29.728 123.561 31.552 123.561 33.792V45.312C123.561 46.304 123.321 47.072 122.841 47.616C122.361 48.128 121.673 48.384 120.777 48.384C119.881 48.384 119.177 48.128 118.665 47.616C118.185 47.072 117.945 46.304 117.945 45.312V43.008H118.329C118.105 44.128 117.657 45.104 116.985 45.936C116.345 46.736 115.529 47.36 114.537 47.808C113.545 48.256 112.409 48.48 111.129 48.48ZM138.675 48.48C136.627 48.48 134.819 47.984 133.251 46.992C131.715 46 130.515 44.592 129.651 42.768C128.787 40.912 128.355 38.736 128.355 36.24C128.355 33.712 128.787 31.552 129.651 29.76C130.515 27.936 131.715 26.528 133.251 25.536C134.819 24.544 136.627 24.048 138.675 24.048C140.627 24.048 142.323 24.528 143.763 25.488C145.235 26.448 146.227 27.712 146.739 29.28H146.211V16.8C146.211 15.808 146.467 15.056 146.979 14.544C147.491 14.032 148.227 13.776 149.187 13.776C150.147 13.776 150.883 14.032 151.395 14.544C151.939 15.056 152.211 15.808 152.211 16.8V45.312C152.211 46.304 151.955 47.072 151.443 47.616C150.931 48.128 150.195 48.384 149.235 48.384C148.275 48.384 147.539 48.128 147.027 47.616C146.515 47.072 146.259 46.304 146.259 45.312V41.568L146.787 43.008C146.307 44.672 145.331 46 143.859 46.992C142.387 47.984 140.659 48.48 138.675 48.48ZM140.355 43.92C141.539 43.92 142.579 43.632 143.475 43.056C144.371 42.48 145.059 41.632 145.539 40.512C146.051 39.36 146.307 37.936 146.307 36.24C146.307 33.68 145.763 31.776 144.675 30.528C143.587 29.248 142.147 28.608 140.355 28.608C139.171 28.608 138.131 28.896 137.235 29.472C136.339 30.016 135.635 30.864 135.123 32.016C134.643 33.136 134.403 34.544 134.403 36.24C134.403 38.768 134.947 40.688 136.035 42C137.123 43.28 138.563 43.92 140.355 43.92ZM161.409 48.384C160.449 48.384 159.713 48.128 159.201 47.616C158.689 47.072 158.433 46.304 158.433 45.312V27.168C158.433 26.176 158.689 25.424 159.201 24.912C159.713 24.4 160.433 24.144 161.361 24.144C162.289 24.144 163.009 24.4 163.521 24.912C164.033 25.424 164.289 26.176 164.289 27.168V30.432L163.761 29.232C164.465 27.536 165.553 26.256 167.025 25.392C168.529 24.496 170.225 24.048 172.113 24.048C174.001 24.048 175.553 24.4 176.769 25.104C177.985 25.808 178.897 26.88 179.505 28.32C180.113 29.728 180.417 31.52 180.417 33.696V45.312C180.417 46.304 180.161 47.072 179.649 47.616C179.137 48.128 178.401 48.384 177.441 48.384C176.481 48.384 175.729 48.128 175.185 47.616C174.673 47.072 174.417 46.304 174.417 45.312V33.984C174.417 32.16 174.065 30.832 173.361 30C172.689 29.168 171.633 28.752 170.193 28.752C168.433 28.752 167.025 29.312 165.969 30.432C164.945 31.52 164.433 32.976 164.433 34.8V45.312C164.433 47.36 163.425 48.384 161.409 48.384ZM198.079 48.48C195.423 48.48 193.135 47.984 191.215 46.992C189.295 46 187.807 44.592 186.751 42.768C185.727 40.944 185.215 38.784 185.215 36.288C185.215 33.856 185.711 31.728 186.703 29.904C187.727 28.08 189.119 26.656 190.879 25.632C192.671 24.576 194.703 24.048 196.975 24.048C198.639 24.048 200.127 24.32 201.439 24.864C202.783 25.408 203.919 26.192 204.847 27.216C205.807 28.24 206.527 29.488 207.007 30.96C207.519 32.4 207.775 34.032 207.775 35.856C207.775 36.432 207.567 36.88 207.151 37.2C206.767 37.488 206.207 37.632 205.471 37.632H190.063V34.176H203.551L202.783 34.896C202.783 33.424 202.559 32.192 202.111 31.2C201.695 30.208 201.071 29.456 200.239 28.944C199.439 28.4 198.431 28.128 197.215 28.128C195.871 28.128 194.719 28.448 193.759 29.088C192.831 29.696 192.111 30.576 191.599 31.728C191.119 32.848 190.879 34.192 190.879 35.76V36.096C190.879 38.72 191.487 40.688 192.703 42C193.951 43.28 195.775 43.92 198.175 43.92C199.007 43.92 199.935 43.824 200.959 43.632C202.015 43.408 203.007 43.04 203.935 42.528C204.607 42.144 205.199 41.984 205.711 42.048C206.223 42.08 206.623 42.256 206.911 42.576C207.231 42.896 207.423 43.296 207.487 43.776C207.551 44.224 207.455 44.688 207.199 45.168C206.975 45.648 206.575 46.064 205.999 46.416C204.879 47.12 203.583 47.648 202.111 48C200.671 48.32 199.327 48.48 198.079 48.48ZM221.118 48.48C219.742 48.48 218.286 48.336 216.75 48.048C215.214 47.76 213.838 47.264 212.622 46.56C212.11 46.24 211.742 45.872 211.518 45.456C211.326 45.008 211.246 44.576 211.278 44.16C211.342 43.712 211.502 43.328 211.758 43.008C212.046 42.688 212.398 42.48 212.814 42.384C213.262 42.288 213.742 42.368 214.254 42.624C215.534 43.232 216.734 43.664 217.854 43.92C218.974 44.144 220.078 44.256 221.166 44.256C222.702 44.256 223.838 44 224.574 43.488C225.342 42.944 225.726 42.24 225.726 41.376C225.726 40.64 225.47 40.08 224.958 39.696C224.478 39.28 223.742 38.976 222.75 38.784L217.95 37.872C215.966 37.488 214.446 36.768 213.39 35.712C212.366 34.624 211.854 33.232 211.854 31.536C211.854 30 212.27 28.672 213.102 27.552C213.966 26.432 215.15 25.568 216.654 24.96C218.158 24.352 219.886 24.048 221.838 24.048C223.246 24.048 224.558 24.208 225.774 24.528C227.022 24.816 228.222 25.28 229.374 25.92C229.854 26.176 230.174 26.512 230.334 26.928C230.526 27.344 230.574 27.776 230.478 28.224C230.382 28.64 230.19 29.024 229.902 29.376C229.614 29.696 229.246 29.904 228.798 30C228.382 30.064 227.902 29.968 227.358 29.712C226.366 29.2 225.406 28.832 224.478 28.608C223.582 28.384 222.718 28.272 221.886 28.272C220.318 28.272 219.15 28.544 218.382 29.088C217.646 29.632 217.278 30.352 217.278 31.248C217.278 31.92 217.502 32.48 217.95 32.928C218.398 33.376 219.086 33.68 220.014 33.84L224.814 34.752C226.894 35.136 228.462 35.84 229.518 36.864C230.606 37.888 231.15 39.264 231.15 40.992C231.15 43.328 230.238 45.168 228.414 46.512C226.59 47.824 224.158 48.48 221.118 48.48ZM244.556 48.48C243.18 48.48 241.724 48.336 240.188 48.048C238.652 47.76 237.276 47.264 236.06 46.56C235.548 46.24 235.18 45.872 234.956 45.456C234.764 45.008 234.684 44.576 234.716 44.16C234.78 43.712 234.94 43.328 235.196 43.008C235.484 42.688 235.836 42.48 236.252 42.384C236.7 42.288 237.18 42.368 237.692 42.624C238.972 43.232 240.172 43.664 241.292 43.92C242.412 44.144 243.516 44.256 244.604 44.256C246.14 44.256 247.276 44 248.012 43.488C248.78 42.944 249.164 42.24 249.164 41.376C249.164 40.64 248.908 40.08 248.396 39.696C247.916 39.28 247.18 38.976 246.188 38.784L241.388 37.872C239.404 37.488 237.884 36.768 236.828 35.712C235.804 34.624 235.292 33.232 235.292 31.536C235.292 30 235.708 28.672 236.54 27.552C237.404 26.432 238.588 25.568 240.092 24.96C241.596 24.352 243.324 24.048 245.276 24.048C246.684 24.048 247.996 24.208 249.212 24.528C250.46 24.816 251.66 25.28 252.812 25.92C253.292 26.176 253.612 26.512 253.772 26.928C253.964 27.344 254.012 27.776 253.916 28.224C253.82 28.64 253.628 29.024 253.34 29.376C253.052 29.696 252.684 29.904 252.236 30C251.82 30.064 251.34 29.968 250.796 29.712C249.804 29.2 248.844 28.832 247.916 28.608C247.02 28.384 246.156 28.272 245.324 28.272C243.756 28.272 242.588 28.544 241.82 29.088C241.084 29.632 240.716 30.352 240.716 31.248C240.716 31.92 240.94 32.48 241.388 32.928C241.836 33.376 242.524 33.68 243.452 33.84L248.252 34.752C250.332 35.136 251.9 35.84 252.956 36.864C254.044 37.888 254.588 39.264 254.588 40.992C254.588 43.328 253.676 45.168 251.852 46.512C250.028 47.824 247.596 48.48 244.556 48.48Z" fill="#006075"/>
<mask id="mask0_642_5028" style="mask-type:alpha" maskUnits="userSpaceOnUse" x="0" y="2" width="60" height="60">
<rect y="2" width="60" height="60" fill="#D9D9D9"/>
</mask>
<g mask="url(#mask0_642_5028)">
<path d="M15.625 42H19.375V41.375C19.375 38.4167 20.4063 35.9062 22.4688 33.8438C24.5312 31.7812 27.0417 30.75 30 30.75C32.9583 30.75 35.4688 31.7812 37.5312 33.8438C39.5938 35.9062 40.625 38.4167 40.625 41.375V42H44.375V41.375C44.375 37.375 42.9792 33.9792 40.1875 31.1875C37.3958 28.3958 34 27 30 27C26 27 22.6042 28.3958 19.8125 31.1875C17.0208 33.9792 15.625 37.375 15.625 41.375V42ZM17.75 25.125C19.4583 24.875 21.2604 24.2083 23.1562 23.125C25.0521 22.0417 26.5625 20.8125 27.6875 19.4375L24.8125 17.0625C23.9792 18.0625 22.8229 18.9792 21.3438 19.8125C19.8646 20.6458 18.5 21.1667 17.25 21.375L17.75 25.125ZM42.25 25.125L42.75 21.375C41.5 21.1667 40.1354 20.6458 38.6562 19.8125C37.1771 18.9792 36.0208 18.0625 35.1875 17.0625L32.3125 19.4375C33.4375 20.8125 34.9479 22.0417 36.8438 23.125C38.7396 24.2083 40.5417 24.875 42.25 25.125ZM30 57C26.5417 57 23.2917 56.3438 20.25 55.0312C17.2083 53.7188 14.5625 51.9375 12.3125 49.6875C10.0625 47.4375 8.28125 44.7917 6.96875 41.75C5.65625 38.7083 5 35.4583 5 32C5 28.5417 5.65625 25.2917 6.96875 22.25C8.28125 19.2083 10.0625 16.5625 12.3125 14.3125C14.5625 12.0625 17.2083 10.2813 20.25 8.96875C23.2917 7.65625 26.5417 7 30 7C33.4583 7 36.7083 7.65625 39.75 8.96875C42.7917 10.2813 45.4375 12.0625 47.6875 14.3125C49.9375 16.5625 51.7188 19.2083 53.0312 22.25C54.3438 25.2917 55 28.5417 55 32C55 35.4583 54.3438 38.7083 53.0312 41.75C51.7188 44.7917 49.9375 47.4375 47.6875 49.6875C45.4375 51.9375 42.7917 53.7188 39.75 55.0312C36.7083 56.3438 33.4583 57 30 57ZM30 52C35.5833 52 40.3125 50.0625 44.1875 46.1875C48.0625 42.3125 50 37.5833 50 32C50 26.4167 48.0625 21.6875 44.1875 17.8125C40.3125 13.9375 35.5833 12 30 12C24.4167 12 19.6875 13.9375 15.8125 17.8125C11.9375 21.6875 10 26.4167 10 32C10 37.5833 11.9375 42.3125 15.8125 46.1875C19.6875 50.0625 24.4167 52 30 52Z" fill="#006075"/>
</g>
</svg>
