<svg width="64" height="85" viewBox="0 0 64 85" fill="none" xmlns="http://www.w3.org/2000/svg">
<path d="M1.152 79.112C0.981333 79.112 0.842667 79.0747 0.736 79C0.64 78.9147 0.581333 78.808 0.56 78.68C0.549333 78.5413 0.581333 78.3867 0.656 78.216L5.056 68.2C5.152 67.9867 5.264 67.8373 5.392 67.752C5.53067 67.656 5.68 67.608 5.84 67.608C6 67.608 6.144 67.656 6.272 67.752C6.41067 67.8373 6.52267 67.9867 6.608 68.2L11.024 78.216C11.1093 78.3867 11.1413 78.5413 11.12 78.68C11.1093 78.8187 11.056 78.9253 10.96 79C10.864 79.0747 10.7307 79.112 10.56 79.112C10.368 79.112 10.2133 79.064 10.096 78.968C9.97867 78.8613 9.88267 78.712 9.808 78.52L8.624 75.784L9.264 76.12H2.384L3.04 75.784L1.872 78.52C1.776 78.7227 1.67467 78.872 1.568 78.968C1.46133 79.064 1.32267 79.112 1.152 79.112ZM5.824 69.256L3.248 75.32L2.864 75.016H8.784L8.432 75.32L5.856 69.256H5.824ZM13.5443 79.112C13.3309 79.112 13.1709 79.0533 13.0643 78.936C12.9576 78.8187 12.9043 78.6533 12.9043 78.44V71.768C12.9043 71.5547 12.9576 71.3947 13.0643 71.288C13.1709 71.1707 13.3256 71.112 13.5283 71.112C13.7309 71.112 13.8856 71.1707 13.9923 71.288C14.1096 71.3947 14.1683 71.5547 14.1683 71.768V73.176L13.9923 72.952C14.1949 72.3547 14.5203 71.896 14.9683 71.576C15.4269 71.2453 15.9709 71.08 16.6003 71.08C17.2616 71.08 17.7949 71.24 18.2003 71.56C18.6163 71.8693 18.8936 72.3547 19.0323 73.016H18.7923C18.9843 72.4187 19.3256 71.9493 19.8163 71.608C20.3176 71.256 20.8989 71.08 21.5603 71.08C22.1469 71.08 22.6269 71.192 23.0003 71.416C23.3843 71.64 23.6723 71.9813 23.8643 72.44C24.0563 72.888 24.1523 73.4587 24.1523 74.152V78.44C24.1523 78.6533 24.0936 78.8187 23.9763 78.936C23.8696 79.0533 23.7096 79.112 23.4963 79.112C23.2936 79.112 23.1336 79.0533 23.0163 78.936C22.9096 78.8187 22.8563 78.6533 22.8563 78.44V74.216C22.8563 73.5013 22.7336 72.9787 22.4883 72.648C22.2429 72.3067 21.8269 72.136 21.2403 72.136C20.6003 72.136 20.0936 72.36 19.7203 72.808C19.3576 73.2453 19.1763 73.8427 19.1763 74.6V78.44C19.1763 78.6533 19.1176 78.8187 19.0003 78.936C18.8936 79.0533 18.7336 79.112 18.5203 79.112C18.3176 79.112 18.1576 79.0533 18.0403 78.936C17.9336 78.8187 17.8803 78.6533 17.8803 78.44V74.216C17.8803 73.5013 17.7523 72.9787 17.4963 72.648C17.2509 72.3067 16.8403 72.136 16.2643 72.136C15.6243 72.136 15.1176 72.36 14.7443 72.808C14.3816 73.2453 14.2003 73.8427 14.2003 74.6V78.44C14.2003 78.888 13.9816 79.112 13.5443 79.112ZM29.0234 79.144C28.49 79.144 28.01 79.0427 27.5834 78.84C27.1674 78.6267 26.8367 78.3387 26.5914 77.976C26.346 77.6133 26.2234 77.208 26.2234 76.76C26.2234 76.184 26.3674 75.7307 26.6554 75.4C26.954 75.0693 27.4394 74.8347 28.1114 74.696C28.794 74.5573 29.722 74.488 30.8954 74.488H31.6154V75.336H30.9114C30.0474 75.336 29.3647 75.3787 28.8634 75.464C28.3727 75.5387 28.026 75.672 27.8234 75.864C27.6314 76.056 27.5354 76.328 27.5354 76.68C27.5354 77.1173 27.6847 77.4747 27.9834 77.752C28.2927 78.0293 28.7087 78.168 29.2314 78.168C29.658 78.168 30.0314 78.0667 30.3514 77.864C30.682 77.6613 30.938 77.384 31.1194 77.032C31.3114 76.68 31.4074 76.2747 31.4074 75.816V73.992C31.4074 73.3307 31.274 72.856 31.0074 72.568C30.7407 72.2693 30.3034 72.12 29.6954 72.12C29.322 72.12 28.9487 72.168 28.5754 72.264C28.202 72.36 27.8074 72.5147 27.3914 72.728C27.242 72.8027 27.114 72.8293 27.0074 72.808C26.9007 72.776 26.8154 72.7173 26.7514 72.632C26.6874 72.5467 26.65 72.4507 26.6394 72.344C26.6287 72.2267 26.65 72.1147 26.7034 72.008C26.7674 71.9013 26.8634 71.816 26.9914 71.752C27.4607 71.5173 27.9247 71.3467 28.3834 71.24C28.842 71.1333 29.2794 71.08 29.6954 71.08C30.3674 71.08 30.922 71.192 31.3594 71.416C31.7967 71.6293 32.122 71.96 32.3354 72.408C32.5487 72.8453 32.6554 73.4107 32.6554 74.104V78.44C32.6554 78.6533 32.602 78.8187 32.4954 78.936C32.3994 79.0533 32.2554 79.112 32.0634 79.112C31.8607 79.112 31.706 79.0533 31.5994 78.936C31.4927 78.8187 31.4394 78.6533 31.4394 78.44V77.192H31.5834C31.498 77.5973 31.3327 77.944 31.0874 78.232C30.8527 78.52 30.5594 78.744 30.2074 78.904C29.8554 79.064 29.4607 79.144 29.0234 79.144ZM35.2038 79C35.0651 79 34.9531 78.968 34.8678 78.904C34.7824 78.84 34.7238 78.7547 34.6918 78.648C34.6598 78.5413 34.6598 78.424 34.6918 78.296C34.7238 78.168 34.7931 78.0453 34.8997 77.928L39.4118 71.896V72.232H35.1398C34.9691 72.232 34.8358 72.1893 34.7398 72.104C34.6544 72.008 34.6118 71.88 34.6118 71.72C34.6118 71.56 34.6544 71.4373 34.7398 71.352C34.8358 71.2667 34.9691 71.224 35.1398 71.224H40.0518C40.2118 71.224 40.3398 71.256 40.4358 71.32C40.5424 71.384 40.6118 71.4693 40.6438 71.576C40.6758 71.672 40.6758 71.784 40.6438 71.912C40.6224 72.0293 40.5638 72.1467 40.4678 72.264L35.8758 78.36V77.992H40.3718C40.7238 77.992 40.8998 78.1573 40.8998 78.488C40.8998 78.648 40.8518 78.776 40.7558 78.872C40.6704 78.9573 40.5424 79 40.3718 79H35.2038ZM43.106 79.08C42.8927 79.08 42.7327 79.0213 42.626 78.904C42.5193 78.776 42.466 78.6 42.466 78.376V71.832C42.466 71.608 42.5193 71.4373 42.626 71.32C42.7327 71.2027 42.8927 71.144 43.106 71.144C43.3087 71.144 43.4687 71.2027 43.586 71.32C43.7033 71.4373 43.762 71.608 43.762 71.832V78.376C43.762 78.6 43.7033 78.776 43.586 78.904C43.4793 79.0213 43.3193 79.08 43.106 79.08ZM43.106 69.352C42.8393 69.352 42.6313 69.2827 42.482 69.144C42.3327 68.9947 42.258 68.7973 42.258 68.552C42.258 68.296 42.3327 68.104 42.482 67.976C42.6313 67.8373 42.8393 67.768 43.106 67.768C43.3833 67.768 43.5913 67.8373 43.73 67.976C43.8793 68.104 43.954 68.296 43.954 68.552C43.954 68.7973 43.8793 68.9947 43.73 69.144C43.5913 69.2827 43.3833 69.352 43.106 69.352ZM46.8248 79.112C46.6114 79.112 46.4514 79.0533 46.3448 78.936C46.2381 78.8187 46.1848 78.6533 46.1848 78.44V71.768C46.1848 71.5547 46.2381 71.3947 46.3448 71.288C46.4514 71.1707 46.6061 71.112 46.8088 71.112C47.0114 71.112 47.1661 71.1707 47.2728 71.288C47.3901 71.3947 47.4488 71.5547 47.4488 71.768V73.144L47.2728 72.952C47.4968 72.3333 47.8594 71.8693 48.3608 71.56C48.8728 71.24 49.4594 71.08 50.1208 71.08C50.7394 71.08 51.2514 71.192 51.6568 71.416C52.0728 71.64 52.3821 71.9813 52.5848 72.44C52.7874 72.888 52.8888 73.4587 52.8888 74.152V78.44C52.8888 78.6533 52.8301 78.8187 52.7128 78.936C52.6061 79.0533 52.4514 79.112 52.2488 79.112C52.0354 79.112 51.8701 79.0533 51.7528 78.936C51.6461 78.8187 51.5928 78.6533 51.5928 78.44V74.232C51.5928 73.5067 51.4488 72.9787 51.1608 72.648C50.8834 72.3067 50.4354 72.136 49.8168 72.136C49.1021 72.136 48.5314 72.36 48.1048 72.808C47.6888 73.2453 47.4808 73.832 47.4808 74.568V78.44C47.4808 78.888 47.2621 79.112 46.8248 79.112ZM58.7185 82.024C58.1532 82.024 57.5985 81.9547 57.0545 81.816C56.5212 81.688 56.0358 81.48 55.5985 81.192C55.4705 81.1173 55.3852 81.0267 55.3425 80.92C55.3105 80.8133 55.3052 80.7067 55.3265 80.6C55.3478 80.504 55.3958 80.4133 55.4705 80.328C55.5452 80.2533 55.6305 80.2053 55.7265 80.184C55.8332 80.1627 55.9398 80.1787 56.0465 80.232C56.5158 80.52 56.9638 80.7173 57.3905 80.824C57.8172 80.9307 58.2385 80.984 58.6545 80.984C59.4118 80.984 59.9825 80.7813 60.3665 80.376C60.7612 79.9707 60.9585 79.384 60.9585 78.616V76.808H61.1185C60.9585 77.4267 60.6172 77.9173 60.0945 78.28C59.5825 78.6427 58.9798 78.824 58.2865 78.824C57.5718 78.824 56.9532 78.664 56.4305 78.344C55.9078 78.0133 55.5025 77.5547 55.2145 76.968C54.9372 76.3813 54.7985 75.704 54.7985 74.936C54.7985 74.36 54.8785 73.8373 55.0385 73.368C55.1985 72.888 55.4278 72.4827 55.7265 72.152C56.0358 71.8107 56.4038 71.5493 56.8305 71.368C57.2678 71.176 57.7532 71.08 58.2865 71.08C58.9905 71.08 59.5985 71.2613 60.1105 71.624C60.6225 71.976 60.9532 72.456 61.1025 73.064L60.9425 73.256V71.768C60.9425 71.5547 60.9958 71.3947 61.1025 71.288C61.2198 71.1707 61.3798 71.112 61.5825 71.112C61.7958 71.112 61.9558 71.1707 62.0625 71.288C62.1692 71.3947 62.2225 71.5547 62.2225 71.768V78.44C62.2225 79.624 61.9238 80.5147 61.3265 81.112C60.7398 81.72 59.8705 82.024 58.7185 82.024ZM58.5265 77.768C59.0278 77.768 59.4598 77.656 59.8225 77.432C60.1852 77.1973 60.4625 76.8667 60.6545 76.44C60.8572 76.0133 60.9585 75.512 60.9585 74.936C60.9585 74.072 60.7398 73.3893 60.3025 72.888C59.8652 72.376 59.2732 72.12 58.5265 72.12C58.0358 72.12 57.6092 72.2373 57.2465 72.472C56.8838 72.696 56.6012 73.0213 56.3985 73.448C56.2065 73.864 56.1105 74.36 56.1105 74.936C56.1105 75.8 56.3292 76.488 56.7665 77C57.2038 77.512 57.7905 77.768 58.5265 77.768Z" fill="black"/>
<mask id="mask0_523_1852" style="mask-type:alpha" maskUnits="userSpaceOnUse" x="2" y="0" width="60" height="60">
<rect x="2" width="60" height="60" fill="#D9D9D9"/>
</mask>
<g mask="url(#mask0_523_1852)">
<path d="M22 30V35C22 37.75 22.9792 40.1042 24.9375 42.0625C26.8958 44.0208 29.25 45 32 45C34.75 45 37.1042 44.0208 39.0625 42.0625C41.0208 40.1042 42 37.75 42 35V30H22ZM32 41.25C30.25 41.25 28.7708 40.6458 27.5625 39.4375C26.3542 38.2292 25.75 36.75 25.75 35V33.75H38.25V35C38.25 36.75 37.6458 38.2292 36.4375 39.4375C35.2292 40.6458 33.75 41.25 32 41.25ZM23.25 17.5C21.6667 17.5 20.2604 18.0729 19.0312 19.2188C17.8021 20.3646 16.9375 21.9375 16.4375 23.9375L20.0625 24.8125C20.3125 23.7292 20.7292 22.8646 21.3125 22.2188C21.8958 21.5729 22.5417 21.25 23.25 21.25C23.9583 21.25 24.6042 21.5729 25.1875 22.2188C25.7708 22.8646 26.1875 23.7292 26.4375 24.8125L30.0625 23.9375C29.5625 21.9375 28.6979 20.3646 27.4688 19.2188C26.2396 18.0729 24.8333 17.5 23.25 17.5ZM40.75 17.5C39.1667 17.5 37.7604 18.0729 36.5312 19.2188C35.3021 20.3646 34.4375 21.9375 33.9375 23.9375L37.5625 24.8125C37.8125 23.7292 38.2292 22.8646 38.8125 22.2188C39.3958 21.5729 40.0417 21.25 40.75 21.25C41.4583 21.25 42.1042 21.5729 42.6875 22.2188C43.2708 22.8646 43.6875 23.7292 43.9375 24.8125L47.5625 23.9375C47.0625 21.9375 46.1979 20.3646 44.9688 19.2188C43.7396 18.0729 42.3333 17.5 40.75 17.5ZM32 55C28.5417 55 25.2917 54.3438 22.25 53.0312C19.2083 51.7188 16.5625 49.9375 14.3125 47.6875C12.0625 45.4375 10.2813 42.7917 8.96875 39.75C7.65625 36.7083 7 33.4583 7 30C7 26.5417 7.65625 23.2917 8.96875 20.25C10.2813 17.2083 12.0625 14.5625 14.3125 12.3125C16.5625 10.0625 19.2083 8.28125 22.25 6.96875C25.2917 5.65625 28.5417 5 32 5C35.4583 5 38.7083 5.65625 41.75 6.96875C44.7917 8.28125 47.4375 10.0625 49.6875 12.3125C51.9375 14.5625 53.7188 17.2083 55.0312 20.25C56.3438 23.2917 57 26.5417 57 30C57 33.4583 56.3438 36.7083 55.0312 39.75C53.7188 42.7917 51.9375 45.4375 49.6875 47.6875C47.4375 49.9375 44.7917 51.7188 41.75 53.0312C38.7083 54.3438 35.4583 55 32 55ZM32 50C37.5833 50 42.3125 48.0625 46.1875 44.1875C50.0625 40.3125 52 35.5833 52 30C52 24.4167 50.0625 19.6875 46.1875 15.8125C42.3125 11.9375 37.5833 10 32 10C26.4167 10 21.6875 11.9375 17.8125 15.8125C13.9375 19.6875 12 24.4167 12 30C12 35.5833 13.9375 40.3125 17.8125 44.1875C21.6875 48.0625 26.4167 50 32 50Z" fill="#339967"/>
</g>
</svg>
