<svg width="60" height="87" viewBox="0 0 60 87" fill="none" xmlns="http://www.w3.org/2000/svg">
<path d="M3.70563 80.14C3.49229 80.14 3.31896 80.0933 3.18563 80C3.06563 79.8933 2.99229 79.76 2.96563 79.6C2.95229 79.4267 2.99229 79.2333 3.08563 79.02L8.58563 66.5C8.70563 66.2333 8.84563 66.0467 9.00563 65.94C9.17896 65.82 9.36563 65.76 9.56563 65.76C9.76563 65.76 9.94563 65.82 10.1056 65.94C10.279 66.0467 10.419 66.2333 10.5256 66.5L16.0456 79.02C16.1523 79.2333 16.1923 79.4267 16.1656 79.6C16.1523 79.7733 16.0856 79.9067 15.9656 80C15.8456 80.0933 15.679 80.14 15.4656 80.14C15.2256 80.14 15.0323 80.08 14.8856 79.96C14.739 79.8267 14.619 79.64 14.5256 79.4L13.0456 75.98L13.8456 76.4H5.24563L6.06563 75.98L4.60563 79.4C4.48563 79.6533 4.35896 79.84 4.22563 79.96C4.09229 80.08 3.91896 80.14 3.70563 80.14ZM9.54563 67.82L6.32563 75.4L5.84563 75.02H13.2456L12.8056 75.4L9.58563 67.82H9.54563ZM19.1559 80.14C18.8893 80.14 18.6893 80.0667 18.5559 79.92C18.4226 79.7733 18.3559 79.5667 18.3559 79.3V70.96C18.3559 70.6933 18.4226 70.4933 18.5559 70.36C18.6893 70.2133 18.8826 70.14 19.1359 70.14C19.3893 70.14 19.5826 70.2133 19.7159 70.36C19.8626 70.4933 19.9359 70.6933 19.9359 70.96V72.68L19.7159 72.44C19.9959 71.6667 20.4493 71.0867 21.0759 70.7C21.7159 70.3 22.4493 70.1 23.2759 70.1C24.0493 70.1 24.6893 70.24 25.1959 70.52C25.7159 70.8 26.1026 71.2267 26.3559 71.8C26.6093 72.36 26.7359 73.0733 26.7359 73.94V79.3C26.7359 79.5667 26.6626 79.7733 26.5159 79.92C26.3826 80.0667 26.1893 80.14 25.9359 80.14C25.6693 80.14 25.4626 80.0667 25.3159 79.92C25.1826 79.7733 25.1159 79.5667 25.1159 79.3V74.04C25.1159 73.1333 24.9359 72.4733 24.5759 72.06C24.2293 71.6333 23.6693 71.42 22.8959 71.42C22.0026 71.42 21.2893 71.7 20.7559 72.26C20.2359 72.8067 19.9759 73.54 19.9759 74.46V79.3C19.9759 79.86 19.7026 80.14 19.1559 80.14ZM34.0231 83.78C33.3165 83.78 32.6231 83.6933 31.9431 83.52C31.2765 83.36 30.6698 83.1 30.1231 82.74C29.9631 82.6467 29.8565 82.5333 29.8031 82.4C29.7631 82.2667 29.7565 82.1333 29.7831 82C29.8098 81.88 29.8698 81.7667 29.9631 81.66C30.0565 81.5667 30.1631 81.5067 30.2831 81.48C30.4165 81.4533 30.5498 81.4733 30.6831 81.54C31.2698 81.9 31.8298 82.1467 32.3631 82.28C32.8965 82.4133 33.4231 82.48 33.9431 82.48C34.8898 82.48 35.6031 82.2267 36.0831 81.72C36.5765 81.2133 36.8231 80.48 36.8231 79.52V77.26H37.0231C36.8231 78.0333 36.3965 78.6467 35.7431 79.1C35.1031 79.5533 34.3498 79.78 33.4831 79.78C32.5898 79.78 31.8165 79.58 31.1631 79.18C30.5098 78.7667 30.0031 78.1933 29.6431 77.46C29.2965 76.7267 29.1231 75.88 29.1231 74.92C29.1231 74.2 29.2231 73.5467 29.4231 72.96C29.6231 72.36 29.9098 71.8533 30.2831 71.44C30.6698 71.0133 31.1298 70.6867 31.6631 70.46C32.2098 70.22 32.8165 70.1 33.4831 70.1C34.3631 70.1 35.1231 70.3267 35.7631 70.78C36.4031 71.22 36.8165 71.82 37.0031 72.58L36.8031 72.82V70.96C36.8031 70.6933 36.8698 70.4933 37.0031 70.36C37.1498 70.2133 37.3498 70.14 37.6031 70.14C37.8698 70.14 38.0698 70.2133 38.2031 70.36C38.3365 70.4933 38.4031 70.6933 38.4031 70.96V79.3C38.4031 80.78 38.0298 81.8933 37.2831 82.64C36.5498 83.4 35.4631 83.78 34.0231 83.78ZM33.7831 78.46C34.4098 78.46 34.9498 78.32 35.4031 78.04C35.8565 77.7467 36.2031 77.3333 36.4431 76.8C36.6965 76.2667 36.8231 75.64 36.8231 74.92C36.8231 73.84 36.5498 72.9867 36.0031 72.36C35.4565 71.72 34.7165 71.4 33.7831 71.4C33.1698 71.4 32.6365 71.5467 32.1831 71.84C31.7298 72.12 31.3765 72.5267 31.1231 73.06C30.8831 73.58 30.7631 74.2 30.7631 74.92C30.7631 76 31.0365 76.86 31.5831 77.5C32.1298 78.14 32.8631 78.46 33.7831 78.46ZM45.8219 80.18C44.7952 80.18 43.9085 79.98 43.1619 79.58C42.4285 79.1667 41.8552 78.5867 41.4419 77.84C41.0419 77.0933 40.8419 76.2 40.8419 75.16C40.8419 74.1467 41.0419 73.2667 41.4419 72.52C41.8419 71.76 42.3885 71.1667 43.0819 70.74C43.7885 70.3133 44.6019 70.1 45.5219 70.1C46.1752 70.1 46.7619 70.2133 47.2819 70.44C47.8019 70.6533 48.2419 70.9667 48.6019 71.38C48.9752 71.7933 49.2552 72.2933 49.4419 72.88C49.6419 73.4667 49.7419 74.1267 49.7419 74.86C49.7419 75.0733 49.6819 75.2333 49.5619 75.34C49.4419 75.4333 49.2685 75.48 49.0419 75.48H42.0819V74.42H48.6619L48.3419 74.68C48.3419 73.96 48.2352 73.3533 48.0219 72.86C47.8085 72.3533 47.4952 71.9667 47.0819 71.7C46.6819 71.4333 46.1752 71.3 45.5619 71.3C44.8819 71.3 44.3019 71.46 43.8219 71.78C43.3552 72.0867 43.0019 72.52 42.7619 73.08C42.5219 73.6267 42.4019 74.2667 42.4019 75V75.12C42.4019 76.3467 42.6952 77.28 43.2819 77.92C43.8819 78.56 44.7285 78.88 45.8219 78.88C46.2752 78.88 46.7219 78.82 47.1619 78.7C47.6152 78.58 48.0552 78.38 48.4819 78.1C48.6685 77.98 48.8352 77.9267 48.9819 77.94C49.1419 77.94 49.2685 77.9867 49.3619 78.08C49.4552 78.16 49.5152 78.2667 49.5419 78.4C49.5819 78.52 49.5685 78.6533 49.5019 78.8C49.4485 78.9467 49.3352 79.0733 49.1619 79.18C48.7219 79.5 48.2019 79.7467 47.6019 79.92C47.0019 80.0933 46.4085 80.18 45.8219 80.18ZM52.9064 80.14C52.6397 80.14 52.4331 80.0667 52.2864 79.92C52.1531 79.7733 52.0864 79.5667 52.0864 79.3V70.96C52.0864 70.6933 52.1531 70.4933 52.2864 70.36C52.4197 70.2133 52.6131 70.14 52.8664 70.14C53.1197 70.14 53.3131 70.2133 53.4464 70.36C53.5931 70.4933 53.6664 70.6933 53.6664 70.96V72.58H53.4664C53.6797 71.7933 54.0864 71.1867 54.6864 70.76C55.2864 70.3333 56.0264 70.1067 56.9064 70.08C57.1064 70.0667 57.2664 70.1133 57.3864 70.22C57.5064 70.3133 57.5731 70.48 57.5864 70.72C57.5997 70.9467 57.5464 71.1267 57.4264 71.26C57.3064 71.3933 57.1197 71.4733 56.8664 71.5L56.5464 71.54C55.6397 71.62 54.9397 71.9133 54.4464 72.42C53.9664 72.9133 53.7264 73.5933 53.7264 74.46V79.3C53.7264 79.5667 53.6531 79.7733 53.5064 79.92C53.3731 80.0667 53.1731 80.14 52.9064 80.14Z" fill="black"/>
<mask id="mask0_904_6110" style="mask-type:alpha" maskUnits="userSpaceOnUse" x="0" y="0" width="60" height="60">
<rect width="60" height="60" fill="#D9D9D9"/>
</mask>
<g mask="url(#mask0_904_6110)">
<path d="M30 55C26.5417 55 23.2917 54.3438 20.25 53.0312C17.2083 51.7188 14.5625 49.9375 12.3125 47.6875C10.0625 45.4375 8.28125 42.7917 6.96875 39.75C5.65625 36.7083 5 33.4583 5 30C5 26.5417 5.65625 23.2917 6.96875 20.25C8.28125 17.2083 10.0625 14.5625 12.3125 12.3125C14.5625 10.0625 17.2083 8.28125 20.25 6.96875C23.2917 5.65625 26.5417 5 30 5C33.4583 5 36.7083 5.65625 39.75 6.96875C42.7917 8.28125 45.4375 10.0625 47.6875 12.3125C49.9375 14.5625 51.7188 17.2083 53.0312 20.25C54.3438 23.2917 55 26.5417 55 30C55 33.4583 54.3438 36.7083 53.0312 39.75C51.7188 42.7917 49.9375 45.4375 47.6875 47.6875C45.4375 49.9375 42.7917 51.7188 39.75 53.0312C36.7083 54.3438 33.4583 55 30 55ZM30 50C35.5417 50 40.2604 48.0521 44.1562 44.1562C48.0521 40.2604 50 35.5417 50 30C50 24.4583 48.0521 19.7396 44.1562 15.8438C40.2604 11.9479 35.5417 10 30 10C24.4583 10 19.7396 11.9479 15.8438 15.8438C11.9479 19.7396 10 24.4583 10 30C10 35.5417 11.9479 40.2604 15.8438 44.1562C19.7396 48.0521 24.4583 50 30 50ZM33.75 27.25L35 26.5C35.0833 27.5 35.4792 28.3333 36.1875 29C36.8958 29.6667 37.75 30 38.75 30C39.7917 30 40.6771 29.6354 41.4062 28.9062C42.1354 28.1771 42.5 27.2917 42.5 26.25C42.5 25.625 42.3542 25.0312 42.0625 24.4688C41.7708 23.9062 41.375 23.4583 40.875 23.125L42.5 22.1875L41.25 20L32.5 25L33.75 27.25ZM26.25 27.25L27.5 25L18.75 20L17.5 22.1875L19.125 23.125C18.625 23.4583 18.2292 23.9062 17.9375 24.4688C17.6458 25.0312 17.5 25.625 17.5 26.25C17.5 27.2917 17.8646 28.1771 18.5938 28.9062C19.3229 29.6354 20.2083 30 21.25 30C22.25 30 23.1042 29.6667 23.8125 29C24.5208 28.3333 24.9167 27.5 25 26.5L26.25 27.25ZM30 32.5C27.0417 32.5 24.4375 33.4479 22.1875 35.3438C19.9375 37.2396 18.3542 39.625 17.4375 42.5H42.5625C41.6458 39.625 40.0625 37.2396 37.8125 35.3438C35.5625 33.4479 32.9583 32.5 30 32.5Z" fill="#FF493B"/>
</g>
</svg>
