<svg width="60" height="85" viewBox="0 0 60 85" fill="none" xmlns="http://www.w3.org/2000/svg">
<path d="M9.152 79.112C8.98133 79.112 8.84267 79.0747 8.736 79C8.64 78.9147 8.58133 78.808 8.56 78.68C8.54933 78.5413 8.58133 78.3867 8.656 78.216L13.056 68.2C13.152 67.9867 13.264 67.8373 13.392 67.752C13.5307 67.656 13.68 67.608 13.84 67.608C14 67.608 14.144 67.656 14.272 67.752C14.4107 67.8373 14.5227 67.9867 14.608 68.2L19.024 78.216C19.1093 78.3867 19.1413 78.5413 19.12 78.68C19.1093 78.8187 19.056 78.9253 18.96 79C18.864 79.0747 18.7307 79.112 18.56 79.112C18.368 79.112 18.2133 79.064 18.096 78.968C17.9787 78.8613 17.8827 78.712 17.808 78.52L16.624 75.784L17.264 76.12H10.384L11.04 75.784L9.872 78.52C9.776 78.7227 9.67467 78.872 9.568 78.968C9.46133 79.064 9.32267 79.112 9.152 79.112ZM13.824 69.256L11.248 75.32L10.864 75.016H16.784L16.432 75.32L13.856 69.256H13.824ZM23.1384 79.112C22.957 79.112 22.797 79.064 22.6584 78.968C22.5197 78.872 22.4077 78.7173 22.3224 78.504L19.9384 72.024C19.8744 71.8427 19.853 71.6827 19.8744 71.544C19.9064 71.4053 19.9757 71.2987 20.0824 71.224C20.189 71.1493 20.3224 71.112 20.4824 71.112C20.6424 71.112 20.7704 71.1493 20.8664 71.224C20.973 71.2987 21.0584 71.4373 21.1224 71.64L23.3624 78.04H22.9784L25.2824 71.64C25.357 71.448 25.4477 71.3147 25.5544 71.24C25.6717 71.1547 25.821 71.112 26.0024 71.112C26.173 71.112 26.317 71.1547 26.4344 71.24C26.5517 71.3253 26.6424 71.4587 26.7064 71.64L28.9624 78.04H28.5944L30.8664 71.608C30.941 71.416 31.0317 71.288 31.1384 71.224C31.245 71.1493 31.373 71.112 31.5224 71.112C31.693 71.112 31.821 71.1547 31.9064 71.24C32.0024 71.3253 32.0557 71.4373 32.0664 71.576C32.077 71.7147 32.0504 71.864 31.9864 72.024L29.6024 78.504C29.5277 78.7067 29.4157 78.8613 29.2664 78.968C29.1277 79.064 28.9677 79.112 28.7864 79.112C28.605 79.112 28.445 79.064 28.3064 78.968C28.1677 78.8613 28.061 78.7067 27.9864 78.504L25.6184 72.008H26.3064L23.9544 78.504C23.8797 78.7067 23.773 78.8613 23.6344 78.968C23.4957 79.064 23.3304 79.112 23.1384 79.112ZM35.0533 79.112C34.8506 79.112 34.6906 79.0533 34.5733 78.936C34.4666 78.8187 34.4133 78.6533 34.4133 78.44V72.232H33.3893C33.2186 72.232 33.0799 72.1893 32.9733 72.104C32.8773 72.008 32.8293 71.88 32.8293 71.72C32.8293 71.56 32.8773 71.4373 32.9733 71.352C33.0799 71.2667 33.2186 71.224 33.3893 71.224H34.7653L34.4133 71.56V70.952C34.4133 69.9387 34.6586 69.1653 35.1493 68.632C35.6506 68.0987 36.3813 67.7893 37.3413 67.704L37.8053 67.656C37.9546 67.6453 38.0719 67.672 38.1573 67.736C38.2533 67.8 38.3119 67.88 38.3333 67.976C38.3653 68.072 38.3706 68.1733 38.3493 68.28C38.3279 68.376 38.2799 68.4613 38.2053 68.536C38.1306 68.6107 38.0399 68.6533 37.9333 68.664L37.5653 68.696C36.9146 68.7493 36.4399 68.9467 36.1413 69.288C35.8533 69.6293 35.7093 70.1307 35.7093 70.792V71.464L35.5173 71.224H37.4373C37.6186 71.224 37.7573 71.2667 37.8533 71.352C37.9493 71.4373 37.9973 71.56 37.9973 71.72C37.9973 71.88 37.9493 72.008 37.8533 72.104C37.7573 72.1893 37.6186 72.232 37.4373 72.232H35.7093V78.44C35.7093 78.888 35.4906 79.112 35.0533 79.112ZM42.0774 79.144C41.448 79.144 40.9254 79.032 40.5094 78.808C40.104 78.5733 39.7947 78.2267 39.5814 77.768C39.3787 77.3093 39.2774 76.7387 39.2774 76.056V71.768C39.2774 71.544 39.3307 71.3787 39.4374 71.272C39.5547 71.1653 39.7147 71.112 39.9174 71.112C40.1307 71.112 40.2907 71.1653 40.3974 71.272C40.5147 71.3787 40.5734 71.544 40.5734 71.768V76.04C40.5734 76.7227 40.712 77.2347 40.9894 77.576C41.2774 77.9067 41.7254 78.072 42.3334 78.072C42.9947 78.072 43.5334 77.848 43.9494 77.4C44.3654 76.952 44.5734 76.3653 44.5734 75.64V71.768C44.5734 71.544 44.6267 71.3787 44.7334 71.272C44.8507 71.1653 45.016 71.112 45.2294 71.112C45.432 71.112 45.5867 71.1653 45.6934 71.272C45.8107 71.3787 45.8694 71.544 45.8694 71.768V78.44C45.8694 78.888 45.6614 79.112 45.2454 79.112C45.0427 79.112 44.8827 79.0533 44.7654 78.936C44.6587 78.8187 44.6054 78.6533 44.6054 78.44V76.984L44.8134 77.208C44.6 77.8373 44.248 78.3173 43.7574 78.648C43.2774 78.9787 42.7174 79.144 42.0774 79.144ZM50.6621 79.144C49.8941 79.144 49.3075 78.9093 48.9021 78.44C48.4968 77.9707 48.2941 77.2987 48.2941 76.424V68.264C48.2941 68.0507 48.3475 67.8907 48.4541 67.784C48.5608 67.6667 48.7208 67.608 48.9341 67.608C49.1368 67.608 49.2968 67.6667 49.4141 67.784C49.5315 67.8907 49.5901 68.0507 49.5901 68.264V76.328C49.5901 76.904 49.7021 77.336 49.9261 77.624C50.1608 77.9013 50.5021 78.04 50.9501 78.04C51.0461 78.04 51.1315 78.0347 51.2061 78.024C51.2808 78.0133 51.3555 78.008 51.4301 78.008C51.5475 77.9973 51.6275 78.024 51.6701 78.088C51.7235 78.152 51.7501 78.28 51.7501 78.472C51.7501 78.664 51.7075 78.808 51.6221 78.904C51.5368 79 51.3981 79.064 51.2061 79.096C51.1208 79.1067 51.0301 79.1173 50.9341 79.128C50.8381 79.1387 50.7475 79.144 50.6621 79.144Z" fill="black"/>
<mask id="mask0_523_1848" style="mask-type:alpha" maskUnits="userSpaceOnUse" x="0" y="0" width="60" height="60">
<rect width="60" height="60" fill="#D9D9D9"/>
</mask>
<g mask="url(#mask0_523_1848)">
<path d="M18.625 31.5L27.5625 25L18.625 18.5L16.375 21.5L21.1875 25L16.375 28.5L18.625 31.5ZM41.375 31.5L43.625 28.5L38.8125 25L43.625 21.5L41.375 18.5L32.4375 25L41.375 31.5ZM26.25 42.625L30 38.875L33.75 42.625L37.5 38.875L39.9375 41.3125L42.5625 38.6875L37.5 33.625L33.75 37.375L30 33.625L26.25 37.375L22.5 33.625L17.4375 38.6875L20.0625 41.3125L22.5 38.875L26.25 42.625ZM30 55C26.5417 55 23.2917 54.3438 20.25 53.0312C17.2083 51.7188 14.5625 49.9375 12.3125 47.6875C10.0625 45.4375 8.28125 42.7917 6.96875 39.75C5.65625 36.7083 5 33.4583 5 30C5 26.5417 5.65625 23.2917 6.96875 20.25C8.28125 17.2083 10.0625 14.5625 12.3125 12.3125C14.5625 10.0625 17.2083 8.28125 20.25 6.96875C23.2917 5.65625 26.5417 5 30 5C33.4583 5 36.7083 5.65625 39.75 6.96875C42.7917 8.28125 45.4375 10.0625 47.6875 12.3125C49.9375 14.5625 51.7188 17.2083 53.0312 20.25C54.3438 23.2917 55 26.5417 55 30C55 33.4583 54.3438 36.7083 53.0312 39.75C51.7188 42.7917 49.9375 45.4375 47.6875 47.6875C45.4375 49.9375 42.7917 51.7188 39.75 53.0312C36.7083 54.3438 33.4583 55 30 55ZM30 50C35.5833 50 40.3125 48.0625 44.1875 44.1875C48.0625 40.3125 50 35.5833 50 30C50 24.4167 48.0625 19.6875 44.1875 15.8125C40.3125 11.9375 35.5833 10 30 10C24.4167 10 19.6875 11.9375 15.8125 15.8125C11.9375 19.6875 10 24.4167 10 30C10 35.5833 11.9375 40.3125 15.8125 44.1875C19.6875 48.0625 24.4167 50 30 50Z" fill="#FF493B"/>
</g>
</svg>
