<svg width="60" height="85" viewBox="0 0 60 85" fill="none" xmlns="http://www.w3.org/2000/svg">
<path d="M18.112 79C17.8773 79 17.696 78.9413 17.568 78.824C17.4507 78.696 17.392 78.5147 17.392 78.28V68.44C17.392 68.2053 17.4507 68.0293 17.568 67.912C17.696 67.784 17.8773 67.72 18.112 67.72H21.904C22.6827 67.72 23.3387 67.8373 23.872 68.072C24.416 68.296 24.832 68.6267 25.12 69.064C25.408 69.5013 25.552 70.0347 25.552 70.664C25.552 71.368 25.344 71.9547 24.928 72.424C24.5227 72.8933 23.968 73.2027 23.264 73.352V73.128C24.064 73.224 24.688 73.512 25.136 73.992C25.5947 74.472 25.824 75.1067 25.824 75.896C25.824 76.8987 25.4987 77.6667 24.848 78.2C24.1973 78.7333 23.28 79 22.096 79H18.112ZM18.672 77.944H21.968C22.8213 77.944 23.4613 77.7733 23.888 77.432C24.3147 77.0907 24.528 76.5733 24.528 75.88C24.528 75.176 24.3147 74.6587 23.888 74.328C23.4613 73.9867 22.8213 73.816 21.968 73.816H18.672V77.944ZM18.672 72.76H21.712C22.544 72.76 23.1733 72.5893 23.6 72.248C24.0373 71.9067 24.256 71.416 24.256 70.776C24.256 70.1147 24.0373 69.6187 23.6 69.288C23.1733 68.9467 22.544 68.776 21.712 68.776H18.672V72.76ZM30.4765 79.144C29.9432 79.144 29.4632 79.0427 29.0365 78.84C28.6205 78.6267 28.2898 78.3387 28.0445 77.976C27.7992 77.6133 27.6765 77.208 27.6765 76.76C27.6765 76.184 27.8205 75.7307 28.1085 75.4C28.4072 75.0693 28.8925 74.8347 29.5645 74.696C30.2472 74.5573 31.1752 74.488 32.3485 74.488H33.0685V75.336H32.3645C31.5005 75.336 30.8178 75.3787 30.3165 75.464C29.8258 75.5387 29.4792 75.672 29.2765 75.864C29.0845 76.056 28.9885 76.328 28.9885 76.68C28.9885 77.1173 29.1378 77.4747 29.4365 77.752C29.7458 78.0293 30.1618 78.168 30.6845 78.168C31.1112 78.168 31.4845 78.0667 31.8045 77.864C32.1352 77.6613 32.3912 77.384 32.5725 77.032C32.7645 76.68 32.8605 76.2747 32.8605 75.816V73.992C32.8605 73.3307 32.7272 72.856 32.4605 72.568C32.1938 72.2693 31.7565 72.12 31.1485 72.12C30.7752 72.12 30.4018 72.168 30.0285 72.264C29.6552 72.36 29.2605 72.5147 28.8445 72.728C28.6952 72.8027 28.5672 72.8293 28.4605 72.808C28.3538 72.776 28.2685 72.7173 28.2045 72.632C28.1405 72.5467 28.1032 72.4507 28.0925 72.344C28.0818 72.2267 28.1032 72.1147 28.1565 72.008C28.2205 71.9013 28.3165 71.816 28.4445 71.752C28.9138 71.5173 29.3778 71.3467 29.8365 71.24C30.2952 71.1333 30.7325 71.08 31.1485 71.08C31.8205 71.08 32.3752 71.192 32.8125 71.416C33.2498 71.6293 33.5752 71.96 33.7885 72.408C34.0018 72.8453 34.1085 73.4107 34.1085 74.104V78.44C34.1085 78.6533 34.0552 78.8187 33.9485 78.936C33.8525 79.0533 33.7085 79.112 33.5165 79.112C33.3138 79.112 33.1592 79.0533 33.0525 78.936C32.9458 78.8187 32.8925 78.6533 32.8925 78.44V77.192H33.0365C32.9512 77.5973 32.7858 77.944 32.5405 78.232C32.3058 78.52 32.0125 78.744 31.6605 78.904C31.3085 79.064 30.9138 79.144 30.4765 79.144ZM39.4729 79.144C38.7795 79.144 38.1715 78.9787 37.6489 78.648C37.1369 78.3173 36.7369 77.8533 36.4489 77.256C36.1715 76.648 36.0329 75.9333 36.0329 75.112C36.0329 74.28 36.1715 73.5653 36.4489 72.968C36.7369 72.36 37.1369 71.896 37.6489 71.576C38.1715 71.2453 38.7795 71.08 39.4729 71.08C40.1769 71.08 40.7795 71.256 41.2809 71.608C41.7822 71.96 42.1182 72.4347 42.2889 73.032H42.1129V68.264C42.1129 68.0507 42.1662 67.8907 42.2729 67.784C42.3902 67.6667 42.5555 67.608 42.7689 67.608C42.9715 67.608 43.1262 67.6667 43.2329 67.784C43.3502 67.8907 43.4089 68.0507 43.4089 68.264V78.44C43.4089 78.6533 43.3555 78.8187 43.2489 78.936C43.1422 79.0533 42.9822 79.112 42.7689 79.112C42.5662 79.112 42.4062 79.0533 42.2889 78.936C42.1822 78.8187 42.1289 78.6533 42.1289 78.44V76.92L42.3049 77.144C42.1342 77.752 41.7929 78.2373 41.2809 78.6C40.7795 78.9627 40.1769 79.144 39.4729 79.144ZM39.7449 78.104C40.2249 78.104 40.6462 77.9867 41.0089 77.752C41.3715 77.5173 41.6489 77.176 41.8409 76.728C42.0435 76.28 42.1449 75.7413 42.1449 75.112C42.1449 74.1413 41.9262 73.4 41.4889 72.888C41.0622 72.376 40.4809 72.12 39.7449 72.12C39.2542 72.12 38.8275 72.2373 38.4649 72.472C38.1129 72.696 37.8355 73.032 37.6329 73.48C37.4409 73.9173 37.3449 74.4613 37.3449 75.112C37.3449 76.072 37.5635 76.8133 38.0009 77.336C38.4382 77.848 39.0195 78.104 39.7449 78.104Z" fill="black"/>
<mask id="mask0_523_1849" style="mask-type:alpha" maskUnits="userSpaceOnUse" x="0" y="0" width="60" height="60">
<rect width="60" height="60" fill="#D9D9D9"/>
</mask>
<g mask="url(#mask0_523_1849)">
<path d="M38.75 27.5C39.7917 27.5 40.6771 27.1354 41.4062 26.4062C42.1354 25.6771 42.5 24.7917 42.5 23.75C42.5 22.7083 42.1354 21.8229 41.4062 21.0938C40.6771 20.3646 39.7917 20 38.75 20C37.7083 20 36.8229 20.3646 36.0938 21.0938C35.3646 21.8229 35 22.7083 35 23.75C35 24.7917 35.3646 25.6771 36.0938 26.4062C36.8229 27.1354 37.7083 27.5 38.75 27.5ZM21.25 27.5C22.2917 27.5 23.1771 27.1354 23.9062 26.4062C24.6354 25.6771 25 24.7917 25 23.75C25 22.7083 24.6354 21.8229 23.9062 21.0938C23.1771 20.3646 22.2917 20 21.25 20C20.2083 20 19.3229 20.3646 18.5938 21.0938C17.8646 21.8229 17.5 22.7083 17.5 23.75C17.5 24.7917 17.8646 25.6771 18.5938 26.4062C19.3229 27.1354 20.2083 27.5 21.25 27.5ZM30 33.75C27.1667 33.75 24.5938 34.5521 22.2812 36.1563C19.9688 37.7604 18.2917 39.875 17.25 42.5H21.375C22.2917 40.9583 23.5104 39.7396 25.0312 38.8438C26.5521 37.9479 28.2083 37.5 30 37.5C31.7917 37.5 33.4479 37.9479 34.9688 38.8438C36.4896 39.7396 37.7083 40.9583 38.625 42.5H42.75C41.7083 39.875 40.0312 37.7604 37.7188 36.1563C35.4063 34.5521 32.8333 33.75 30 33.75ZM30 55C26.5417 55 23.2917 54.3438 20.25 53.0312C17.2083 51.7188 14.5625 49.9375 12.3125 47.6875C10.0625 45.4375 8.28125 42.7917 6.96875 39.75C5.65625 36.7083 5 33.4583 5 30C5 26.5417 5.65625 23.2917 6.96875 20.25C8.28125 17.2083 10.0625 14.5625 12.3125 12.3125C14.5625 10.0625 17.2083 8.28125 20.25 6.96875C23.2917 5.65625 26.5417 5 30 5C33.4583 5 36.7083 5.65625 39.75 6.96875C42.7917 8.28125 45.4375 10.0625 47.6875 12.3125C49.9375 14.5625 51.7188 17.2083 53.0312 20.25C54.3438 23.2917 55 26.5417 55 30C55 33.4583 54.3438 36.7083 53.0312 39.75C51.7188 42.7917 49.9375 45.4375 47.6875 47.6875C45.4375 49.9375 42.7917 51.7188 39.75 53.0312C36.7083 54.3438 33.4583 55 30 55ZM30 50C35.5833 50 40.3125 48.0625 44.1875 44.1875C48.0625 40.3125 50 35.5833 50 30C50 24.4167 48.0625 19.6875 44.1875 15.8125C40.3125 11.9375 35.5833 10 30 10C24.4167 10 19.6875 11.9375 15.8125 15.8125C11.9375 19.6875 10 24.4167 10 30C10 35.5833 11.9375 40.3125 15.8125 44.1875C19.6875 48.0625 24.4167 50 30 50Z" fill="#FF7105"/>
</g>
</svg>
