<svg width="60" height="85" viewBox="0 0 60 85" fill="none" xmlns="http://www.w3.org/2000/svg">
<path d="M7.112 79C6.87733 79 6.696 78.9413 6.568 78.824C6.45067 78.696 6.392 78.5147 6.392 78.28V68.44C6.392 68.2053 6.45067 68.0293 6.568 67.912C6.696 67.784 6.87733 67.72 7.112 67.72H10.2C12.024 67.72 13.432 68.2 14.424 69.16C15.416 70.12 15.912 71.5173 15.912 73.352C15.912 74.2693 15.784 75.08 15.528 75.784C15.2827 76.4773 14.9147 77.064 14.424 77.544C13.9333 78.024 13.336 78.3867 12.632 78.632C11.928 78.8773 11.1173 79 10.2 79H7.112ZM7.704 77.88H10.104C10.8507 77.88 11.496 77.784 12.04 77.592C12.5947 77.4 13.0533 77.1173 13.416 76.744C13.7893 76.3707 14.0667 75.9013 14.248 75.336C14.4293 74.76 14.52 74.0987 14.52 73.352C14.52 71.848 14.152 70.7227 13.416 69.976C12.68 69.2187 11.576 68.84 10.104 68.84H7.704V77.88ZM21.595 79.144C20.7737 79.144 20.0643 78.984 19.467 78.664C18.8803 78.3333 18.4217 77.8693 18.091 77.272C17.771 76.6747 17.611 75.96 17.611 75.128C17.611 74.3173 17.771 73.6133 18.091 73.016C18.411 72.408 18.8483 71.9333 19.403 71.592C19.9683 71.2507 20.619 71.08 21.355 71.08C21.8777 71.08 22.347 71.1707 22.763 71.352C23.179 71.5227 23.531 71.7733 23.819 72.104C24.1177 72.4347 24.3417 72.8347 24.491 73.304C24.651 73.7733 24.731 74.3013 24.731 74.888C24.731 75.0587 24.683 75.1867 24.587 75.272C24.491 75.3467 24.3523 75.384 24.171 75.384H18.603V74.536H23.867L23.611 74.744C23.611 74.168 23.5257 73.6827 23.355 73.288C23.1843 72.8827 22.9337 72.5733 22.603 72.36C22.283 72.1467 21.8777 72.04 21.387 72.04C20.843 72.04 20.379 72.168 19.995 72.424C19.6217 72.6693 19.339 73.016 19.147 73.464C18.955 73.9013 18.859 74.4133 18.859 75V75.096C18.859 76.0773 19.0937 76.824 19.563 77.336C20.043 77.848 20.7203 78.104 21.595 78.104C21.9577 78.104 22.315 78.056 22.667 77.96C23.0297 77.864 23.3817 77.704 23.723 77.48C23.8723 77.384 24.0057 77.3413 24.123 77.352C24.251 77.352 24.3523 77.3893 24.427 77.464C24.5017 77.528 24.5497 77.6133 24.571 77.72C24.603 77.816 24.5923 77.9227 24.539 78.04C24.4963 78.1573 24.4057 78.2587 24.267 78.344C23.915 78.6 23.499 78.7973 23.019 78.936C22.539 79.0747 22.0643 79.144 21.595 79.144ZM29.9026 79.144C29.124 79.144 28.452 78.9733 27.8866 78.632C27.3213 78.2907 26.884 77.816 26.5746 77.208C26.276 76.5893 26.1266 75.8747 26.1266 75.064C26.1266 74.4453 26.212 73.8907 26.3826 73.4C26.5533 72.9093 26.804 72.4933 27.1346 72.152C27.4653 71.8 27.86 71.5333 28.3186 71.352C28.788 71.1707 29.316 71.08 29.9026 71.08C30.2866 71.08 30.6866 71.1387 31.1026 71.256C31.5186 71.3733 31.8973 71.576 32.2386 71.864C32.3453 71.9387 32.4146 72.0293 32.4466 72.136C32.4786 72.2427 32.4786 72.3493 32.4466 72.456C32.4146 72.552 32.3613 72.6373 32.2866 72.712C32.212 72.776 32.116 72.8133 31.9986 72.824C31.892 72.8347 31.78 72.7973 31.6626 72.712C31.3853 72.4987 31.1026 72.3493 30.8146 72.264C30.5266 72.1787 30.2493 72.136 29.9826 72.136C29.5666 72.136 29.204 72.2053 28.8946 72.344C28.5853 72.472 28.324 72.6587 28.1106 72.904C27.8973 73.1493 27.732 73.4533 27.6146 73.816C27.508 74.1787 27.4546 74.6 27.4546 75.08C27.4546 76.008 27.6733 76.744 28.1106 77.288C28.548 77.8213 29.172 78.088 29.9826 78.088C30.2493 78.088 30.5213 78.0453 30.7986 77.96C31.0866 77.8747 31.3746 77.7253 31.6626 77.512C31.78 77.4267 31.892 77.3893 31.9986 77.4C32.1053 77.4107 32.196 77.4533 32.2706 77.528C32.3453 77.592 32.3933 77.6773 32.4146 77.784C32.4466 77.8907 32.4466 77.9973 32.4146 78.104C32.3826 78.2 32.3133 78.2853 32.2066 78.36C31.8653 78.6373 31.492 78.84 31.0866 78.968C30.6813 79.0853 30.2866 79.144 29.9026 79.144ZM37.3606 79.144C36.5393 79.144 35.83 78.984 35.2326 78.664C34.646 78.3333 34.1873 77.8693 33.8566 77.272C33.5366 76.6747 33.3766 75.96 33.3766 75.128C33.3766 74.3173 33.5366 73.6133 33.8566 73.016C34.1766 72.408 34.614 71.9333 35.1686 71.592C35.734 71.2507 36.3846 71.08 37.1206 71.08C37.6433 71.08 38.1126 71.1707 38.5286 71.352C38.9446 71.5227 39.2966 71.7733 39.5846 72.104C39.8833 72.4347 40.1073 72.8347 40.2566 73.304C40.4166 73.7733 40.4966 74.3013 40.4966 74.888C40.4966 75.0587 40.4486 75.1867 40.3526 75.272C40.2566 75.3467 40.118 75.384 39.9366 75.384H34.3686V74.536H39.6326L39.3766 74.744C39.3766 74.168 39.2913 73.6827 39.1206 73.288C38.95 72.8827 38.6993 72.5733 38.3686 72.36C38.0486 72.1467 37.6433 72.04 37.1526 72.04C36.6086 72.04 36.1446 72.168 35.7606 72.424C35.3873 72.6693 35.1046 73.016 34.9126 73.464C34.7206 73.9013 34.6246 74.4133 34.6246 75V75.096C34.6246 76.0773 34.8593 76.824 35.3286 77.336C35.8086 77.848 36.486 78.104 37.3606 78.104C37.7233 78.104 38.0806 78.056 38.4326 77.96C38.7953 77.864 39.1473 77.704 39.4886 77.48C39.638 77.384 39.7713 77.3413 39.8886 77.352C40.0166 77.352 40.118 77.3893 40.1926 77.464C40.2673 77.528 40.3153 77.6133 40.3366 77.72C40.3686 77.816 40.358 77.9227 40.3046 78.04C40.262 78.1573 40.1713 78.2587 40.0326 78.344C39.6806 78.6 39.2646 78.7973 38.7846 78.936C38.3046 79.0747 37.83 79.144 37.3606 79.144ZM43.0123 79.112C42.7989 79.112 42.6389 79.0533 42.5323 78.936C42.4256 78.8187 42.3723 78.6533 42.3723 78.44V71.768C42.3723 71.5547 42.4256 71.3947 42.5323 71.288C42.6389 71.1707 42.7936 71.112 42.9963 71.112C43.1989 71.112 43.3536 71.1707 43.4603 71.288C43.5776 71.3947 43.6363 71.5547 43.6363 71.768V73.144L43.4603 72.952C43.6843 72.3333 44.0469 71.8693 44.5483 71.56C45.0603 71.24 45.6469 71.08 46.3083 71.08C46.9269 71.08 47.4389 71.192 47.8443 71.416C48.2603 71.64 48.5696 71.9813 48.7723 72.44C48.9749 72.888 49.0763 73.4587 49.0763 74.152V78.44C49.0763 78.6533 49.0176 78.8187 48.9003 78.936C48.7936 79.0533 48.6389 79.112 48.4363 79.112C48.2229 79.112 48.0576 79.0533 47.9403 78.936C47.8336 78.8187 47.7803 78.6533 47.7803 78.44V74.232C47.7803 73.5067 47.6363 72.9787 47.3483 72.648C47.0709 72.3067 46.6229 72.136 46.0043 72.136C45.2896 72.136 44.7189 72.36 44.2923 72.808C43.8763 73.2453 43.6683 73.832 43.6683 74.568V78.44C43.6683 78.888 43.4496 79.112 43.0123 79.112ZM54.586 79.144C53.978 79.144 53.466 79.0373 53.05 78.824C52.6447 78.6 52.3407 78.28 52.138 77.864C51.9353 77.4373 51.834 76.92 51.834 76.312V72.232H50.762C50.5807 72.232 50.442 72.1893 50.346 72.104C50.25 72.008 50.202 71.88 50.202 71.72C50.202 71.56 50.25 71.4373 50.346 71.352C50.442 71.2667 50.5807 71.224 50.762 71.224H51.834V69.384C51.834 69.1707 51.8927 69.0107 52.01 68.904C52.1273 68.7867 52.2873 68.728 52.49 68.728C52.6927 68.728 52.8473 68.7867 52.954 68.904C53.0713 69.0107 53.13 69.1707 53.13 69.384V71.224H55.146C55.3273 71.224 55.466 71.2667 55.562 71.352C55.658 71.4373 55.706 71.56 55.706 71.72C55.706 71.88 55.658 72.008 55.562 72.104C55.466 72.1893 55.3273 72.232 55.146 72.232H53.13V76.184C53.13 76.792 53.258 77.256 53.514 77.576C53.77 77.8853 54.186 78.04 54.762 78.04C54.9647 78.04 55.1353 78.0187 55.274 77.976C55.4233 77.9333 55.546 77.912 55.642 77.912C55.738 77.9013 55.818 77.9333 55.882 78.008C55.946 78.0827 55.978 78.2107 55.978 78.392C55.978 78.52 55.9513 78.6373 55.898 78.744C55.8553 78.8507 55.7753 78.9253 55.658 78.968C55.53 79.0107 55.3593 79.048 55.146 79.08C54.9433 79.1227 54.7567 79.144 54.586 79.144Z" fill="black"/>
<mask id="mask0_523_1850" style="mask-type:alpha" maskUnits="userSpaceOnUse" x="0" y="0" width="60" height="60">
<rect width="60" height="60" fill="#D9D9D9"/>
</mask>
<g mask="url(#mask0_523_1850)">
<path d="M38.75 27.5C39.7917 27.5 40.6771 27.1354 41.4062 26.4062C42.1354 25.6771 42.5 24.7917 42.5 23.75C42.5 22.7083 42.1354 21.8229 41.4062 21.0938C40.6771 20.3646 39.7917 20 38.75 20C37.7083 20 36.8229 20.3646 36.0938 21.0938C35.3646 21.8229 35 22.7083 35 23.75C35 24.7917 35.3646 25.6771 36.0938 26.4062C36.8229 27.1354 37.7083 27.5 38.75 27.5ZM21.25 27.5C22.2917 27.5 23.1771 27.1354 23.9062 26.4062C24.6354 25.6771 25 24.7917 25 23.75C25 22.7083 24.6354 21.8229 23.9062 21.0938C23.1771 20.3646 22.2917 20 21.25 20C20.2083 20 19.3229 20.3646 18.5938 21.0938C17.8646 21.8229 17.5 22.7083 17.5 23.75C17.5 24.7917 17.8646 25.6771 18.5938 26.4062C19.3229 27.1354 20.2083 27.5 21.25 27.5ZM22.5 38.75H37.5V35H22.5V38.75ZM30 55C26.5417 55 23.2917 54.3438 20.25 53.0312C17.2083 51.7188 14.5625 49.9375 12.3125 47.6875C10.0625 45.4375 8.28125 42.7917 6.96875 39.75C5.65625 36.7083 5 33.4583 5 30C5 26.5417 5.65625 23.2917 6.96875 20.25C8.28125 17.2083 10.0625 14.5625 12.3125 12.3125C14.5625 10.0625 17.2083 8.28125 20.25 6.96875C23.2917 5.65625 26.5417 5 30 5C33.4583 5 36.7083 5.65625 39.75 6.96875C42.7917 8.28125 45.4375 10.0625 47.6875 12.3125C49.9375 14.5625 51.7188 17.2083 53.0312 20.25C54.3438 23.2917 55 26.5417 55 30C55 33.4583 54.3438 36.7083 53.0312 39.75C51.7188 42.7917 49.9375 45.4375 47.6875 47.6875C45.4375 49.9375 42.7917 51.7188 39.75 53.0312C36.7083 54.3438 33.4583 55 30 55ZM30 50C35.5833 50 40.3125 48.0625 44.1875 44.1875C48.0625 40.3125 50 35.5833 50 30C50 24.4167 48.0625 19.6875 44.1875 15.8125C40.3125 11.9375 35.5833 10 30 10C24.4167 10 19.6875 11.9375 15.8125 15.8125C11.9375 19.6875 10 24.4167 10 30C10 35.5833 11.9375 40.3125 15.8125 44.1875C19.6875 48.0625 24.4167 50 30 50Z" fill="#FFB023"/>
</g>
</svg>
