<svg width="60" height="60" viewBox="0 0 60 60" fill="none" xmlns="http://www.w3.org/2000/svg">
<mask id="mask0_642_3866" style="mask-type:alpha" maskUnits="userSpaceOnUse" x="0" y="0" width="60" height="60">
<rect width="60" height="60" fill="#D9D9D9"/>
</mask>
<g mask="url(#mask0_642_3866)">
<path d="M20 30V35C20 37.75 20.9792 40.1042 22.9375 42.0625C24.8958 44.0208 27.25 45 30 45C32.75 45 35.1042 44.0208 37.0625 42.0625C39.0208 40.1042 40 37.75 40 35V30H20ZM30 41.25C28.25 41.25 26.7708 40.6458 25.5625 39.4375C24.3542 38.2292 23.75 36.75 23.75 35V33.75H36.25V35C36.25 36.75 35.6458 38.2292 34.4375 39.4375C33.2292 40.6458 31.75 41.25 30 41.25ZM21.25 17.5C19.6667 17.5 18.2604 18.0729 17.0312 19.2188C15.8021 20.3646 14.9375 21.9375 14.4375 23.9375L18.0625 24.8125C18.3125 23.7292 18.7292 22.8646 19.3125 22.2188C19.8958 21.5729 20.5417 21.25 21.25 21.25C21.9583 21.25 22.6042 21.5729 23.1875 22.2188C23.7708 22.8646 24.1875 23.7292 24.4375 24.8125L28.0625 23.9375C27.5625 21.9375 26.6979 20.3646 25.4688 19.2188C24.2396 18.0729 22.8333 17.5 21.25 17.5ZM38.75 17.5C37.1667 17.5 35.7604 18.0729 34.5312 19.2188C33.3021 20.3646 32.4375 21.9375 31.9375 23.9375L35.5625 24.8125C35.8125 23.7292 36.2292 22.8646 36.8125 22.2188C37.3958 21.5729 38.0417 21.25 38.75 21.25C39.4583 21.25 40.1042 21.5729 40.6875 22.2188C41.2708 22.8646 41.6875 23.7292 41.9375 24.8125L45.5625 23.9375C45.0625 21.9375 44.1979 20.3646 42.9688 19.2188C41.7396 18.0729 40.3333 17.5 38.75 17.5ZM30 55C26.5417 55 23.2917 54.3438 20.25 53.0312C17.2083 51.7188 14.5625 49.9375 12.3125 47.6875C10.0625 45.4375 8.28125 42.7917 6.96875 39.75C5.65625 36.7083 5 33.4583 5 30C5 26.5417 5.65625 23.2917 6.96875 20.25C8.28125 17.2083 10.0625 14.5625 12.3125 12.3125C14.5625 10.0625 17.2083 8.28125 20.25 6.96875C23.2917 5.65625 26.5417 5 30 5C33.4583 5 36.7083 5.65625 39.75 6.96875C42.7917 8.28125 45.4375 10.0625 47.6875 12.3125C49.9375 14.5625 51.7188 17.2083 53.0312 20.25C54.3438 23.2917 55 26.5417 55 30C55 33.4583 54.3438 36.7083 53.0312 39.75C51.7188 42.7917 49.9375 45.4375 47.6875 47.6875C45.4375 49.9375 42.7917 51.7188 39.75 53.0312C36.7083 54.3438 33.4583 55 30 55ZM30 50C35.5833 50 40.3125 48.0625 44.1875 44.1875C48.0625 40.3125 50 35.5833 50 30C50 24.4167 48.0625 19.6875 44.1875 15.8125C40.3125 11.9375 35.5833 10 30 10C24.4167 10 19.6875 11.9375 15.8125 15.8125C11.9375 19.6875 10 24.4167 10 30C10 35.5833 11.9375 40.3125 15.8125 44.1875C19.6875 48.0625 24.4167 50 30 50Z" fill="#339967"/>
</g>
</svg>
