<svg width="60" height="85" viewBox="0 0 60 85" fill="none" xmlns="http://www.w3.org/2000/svg">
<path d="M17.544 79.144C16.3387 79.144 15.32 78.9147 14.488 78.456C13.6667 77.9973 13.0427 77.336 12.616 76.472C12.1893 75.608 11.976 74.5733 11.976 73.368C11.976 72.472 12.0933 71.6667 12.328 70.952C12.5733 70.2373 12.9253 69.6347 13.384 69.144C13.8533 68.6427 14.4187 68.2587 15.08 67.992C15.752 67.7147 16.5093 67.576 17.352 67.576C18.024 67.576 18.6747 67.672 19.304 67.864C19.9333 68.0453 20.4933 68.3387 20.984 68.744C21.112 68.84 21.192 68.9467 21.224 69.064C21.256 69.1813 21.2507 69.2987 21.208 69.416C21.176 69.5333 21.1173 69.6347 21.032 69.72C20.9573 69.7947 20.856 69.8373 20.728 69.848C20.6107 69.8587 20.488 69.8213 20.36 69.736C19.9227 69.3947 19.4587 69.1493 18.968 69C18.4773 68.84 17.9333 68.76 17.336 68.76C16.4827 68.76 15.7573 68.9413 15.16 69.304C14.5733 69.6667 14.1253 70.1893 13.816 70.872C13.5173 71.5547 13.368 72.3867 13.368 73.368C13.368 74.8613 13.7147 76.0027 14.408 76.792C15.112 77.5813 16.168 77.976 17.576 77.976C18.088 77.976 18.5893 77.928 19.08 77.832C19.5707 77.7253 20.0347 77.5813 20.472 77.4L20.184 78.152V74.168H17.896C17.704 74.168 17.56 74.12 17.464 74.024C17.368 73.928 17.32 73.8 17.32 73.64C17.32 73.4693 17.368 73.3413 17.464 73.256C17.56 73.1707 17.704 73.128 17.896 73.128H20.76C20.9413 73.128 21.08 73.176 21.176 73.272C21.272 73.368 21.32 73.5067 21.32 73.688V77.864C21.32 78.024 21.2933 78.1573 21.24 78.264C21.1867 78.3707 21.096 78.4507 20.968 78.504C20.52 78.6853 19.9813 78.84 19.352 78.968C18.7333 79.0853 18.1307 79.144 17.544 79.144ZM27.0574 79.144C26.3 79.144 25.644 78.9787 25.0894 78.648C24.5347 78.3173 24.1027 77.8533 23.7934 77.256C23.4947 76.648 23.3454 75.9333 23.3454 75.112C23.3454 74.4933 23.4307 73.9387 23.6014 73.448C23.772 72.9467 24.0227 72.52 24.3534 72.168C24.684 71.816 25.0734 71.5493 25.5214 71.368C25.98 71.176 26.492 71.08 27.0574 71.08C27.8147 71.08 28.4707 71.2453 29.0254 71.576C29.58 71.9067 30.0067 72.376 30.3054 72.984C30.6147 73.5813 30.7694 74.2907 30.7694 75.112C30.7694 75.7307 30.684 76.2853 30.5134 76.776C30.3427 77.2667 30.092 77.6933 29.7614 78.056C29.4307 78.408 29.036 78.68 28.5774 78.872C28.1294 79.0533 27.6227 79.144 27.0574 79.144ZM27.0574 78.104C27.5374 78.104 27.9587 77.9867 28.3214 77.752C28.684 77.5173 28.9614 77.176 29.1534 76.728C29.356 76.28 29.4574 75.7413 29.4574 75.112C29.4574 74.1413 29.2387 73.4 28.8014 72.888C28.3747 72.376 27.7934 72.12 27.0574 72.12C26.5667 72.12 26.14 72.2373 25.7774 72.472C25.4254 72.696 25.148 73.032 24.9454 73.48C24.7534 73.9173 24.6574 74.4613 24.6574 75.112C24.6574 76.072 24.876 76.8133 25.3134 77.336C25.7507 77.848 26.332 78.104 27.0574 78.104ZM35.948 79.144C35.1907 79.144 34.5347 78.9787 33.98 78.648C33.4253 78.3173 32.9933 77.8533 32.684 77.256C32.3853 76.648 32.236 75.9333 32.236 75.112C32.236 74.4933 32.3213 73.9387 32.492 73.448C32.6627 72.9467 32.9133 72.52 33.244 72.168C33.5747 71.816 33.964 71.5493 34.412 71.368C34.8707 71.176 35.3827 71.08 35.948 71.08C36.7053 71.08 37.3613 71.2453 37.916 71.576C38.4707 71.9067 38.8973 72.376 39.196 72.984C39.5053 73.5813 39.66 74.2907 39.66 75.112C39.66 75.7307 39.5747 76.2853 39.404 76.776C39.2333 77.2667 38.9827 77.6933 38.652 78.056C38.3213 78.408 37.9267 78.68 37.468 78.872C37.02 79.0533 36.5133 79.144 35.948 79.144ZM35.948 78.104C36.428 78.104 36.8493 77.9867 37.212 77.752C37.5747 77.5173 37.852 77.176 38.044 76.728C38.2467 76.28 38.348 75.7413 38.348 75.112C38.348 74.1413 38.1293 73.4 37.692 72.888C37.2653 72.376 36.684 72.12 35.948 72.12C35.4573 72.12 35.0307 72.2373 34.668 72.472C34.316 72.696 34.0387 73.032 33.836 73.48C33.644 73.9173 33.548 74.4613 33.548 75.112C33.548 76.072 33.7667 76.8133 34.204 77.336C34.6413 77.848 35.2227 78.104 35.948 78.104ZM44.5666 79.144C43.8733 79.144 43.2653 78.9787 42.7426 78.648C42.2306 78.3173 41.8306 77.8533 41.5426 77.256C41.2653 76.648 41.1266 75.9333 41.1266 75.112C41.1266 74.28 41.2653 73.5653 41.5426 72.968C41.8306 72.36 42.2306 71.896 42.7426 71.576C43.2653 71.2453 43.8733 71.08 44.5666 71.08C45.2706 71.08 45.8733 71.256 46.3746 71.608C46.876 71.96 47.212 72.4347 47.3826 73.032H47.2066V68.264C47.2066 68.0507 47.26 67.8907 47.3666 67.784C47.484 67.6667 47.6493 67.608 47.8626 67.608C48.0653 67.608 48.22 67.6667 48.3266 67.784C48.444 67.8907 48.5026 68.0507 48.5026 68.264V78.44C48.5026 78.6533 48.4493 78.8187 48.3426 78.936C48.236 79.0533 48.076 79.112 47.8626 79.112C47.66 79.112 47.5 79.0533 47.3826 78.936C47.276 78.8187 47.2226 78.6533 47.2226 78.44V76.92L47.3986 77.144C47.228 77.752 46.8866 78.2373 46.3746 78.6C45.8733 78.9627 45.2706 79.144 44.5666 79.144ZM44.8386 78.104C45.3186 78.104 45.74 77.9867 46.1026 77.752C46.4653 77.5173 46.7426 77.176 46.9346 76.728C47.1373 76.28 47.2386 75.7413 47.2386 75.112C47.2386 74.1413 47.02 73.4 46.5826 72.888C46.156 72.376 45.5746 72.12 44.8386 72.12C44.348 72.12 43.9213 72.2373 43.5586 72.472C43.2066 72.696 42.9293 73.032 42.7266 73.48C42.5346 73.9173 42.4386 74.4613 42.4386 75.112C42.4386 76.072 42.6573 76.8133 43.0946 77.336C43.532 77.848 44.1133 78.104 44.8386 78.104Z" fill="black"/>
<mask id="mask0_523_1851" style="mask-type:alpha" maskUnits="userSpaceOnUse" x="0" y="0" width="60" height="60">
<rect width="60" height="60" fill="#D9D9D9"/>
</mask>
<g mask="url(#mask0_523_1851)">
<path d="M38.75 27.5C39.7917 27.5 40.6771 27.1354 41.4062 26.4062C42.1354 25.6771 42.5 24.7917 42.5 23.75C42.5 22.7083 42.1354 21.8229 41.4062 21.0938C40.6771 20.3646 39.7917 20 38.75 20C37.7083 20 36.8229 20.3646 36.0938 21.0938C35.3646 21.8229 35 22.7083 35 23.75C35 24.7917 35.3646 25.6771 36.0938 26.4062C36.8229 27.1354 37.7083 27.5 38.75 27.5ZM21.25 27.5C22.2917 27.5 23.1771 27.1354 23.9062 26.4062C24.6354 25.6771 25 24.7917 25 23.75C25 22.7083 24.6354 21.8229 23.9062 21.0938C23.1771 20.3646 22.2917 20 21.25 20C20.2083 20 19.3229 20.3646 18.5938 21.0938C17.8646 21.8229 17.5 22.7083 17.5 23.75C17.5 24.7917 17.8646 25.6771 18.5938 26.4062C19.3229 27.1354 20.2083 27.5 21.25 27.5ZM30 43.75C32.8333 43.75 35.4063 42.9479 37.7188 41.3438C40.0312 39.7396 41.7083 37.625 42.75 35H38.625C37.7083 36.5417 36.4896 37.7604 34.9688 38.6562C33.4479 39.5521 31.7917 40 30 40C28.2083 40 26.5521 39.5521 25.0312 38.6562C23.5104 37.7604 22.2917 36.5417 21.375 35H17.25C18.2917 37.625 19.9688 39.7396 22.2812 41.3438C24.5938 42.9479 27.1667 43.75 30 43.75ZM30 55C26.5417 55 23.2917 54.3438 20.25 53.0312C17.2083 51.7188 14.5625 49.9375 12.3125 47.6875C10.0625 45.4375 8.28125 42.7917 6.96875 39.75C5.65625 36.7083 5 33.4583 5 30C5 26.5417 5.65625 23.2917 6.96875 20.25C8.28125 17.2083 10.0625 14.5625 12.3125 12.3125C14.5625 10.0625 17.2083 8.28125 20.25 6.96875C23.2917 5.65625 26.5417 5 30 5C33.4583 5 36.7083 5.65625 39.75 6.96875C42.7917 8.28125 45.4375 10.0625 47.6875 12.3125C49.9375 14.5625 51.7188 17.2083 53.0312 20.25C54.3438 23.2917 55 26.5417 55 30C55 33.4583 54.3438 36.7083 53.0312 39.75C51.7188 42.7917 49.9375 45.4375 47.6875 47.6875C45.4375 49.9375 42.7917 51.7188 39.75 53.0312C36.7083 54.3438 33.4583 55 30 55ZM30 50C35.5833 50 40.3125 48.0625 44.1875 44.1875C48.0625 40.3125 50 35.5833 50 30C50 24.4167 48.0625 19.6875 44.1875 15.8125C40.3125 11.9375 35.5833 10 30 10C24.4167 10 19.6875 11.9375 15.8125 15.8125C11.9375 19.6875 10 24.4167 10 30C10 35.5833 11.9375 40.3125 15.8125 44.1875C19.6875 48.0625 24.4167 50 30 50Z" fill="#3EC276"/>
</g>
</svg>
