<svg width="60" height="87" viewBox="0 0 60 87" fill="none" xmlns="http://www.w3.org/2000/svg">
<path d="M16.6928 80.12C16.4395 80.1333 16.2461 80.0667 16.1128 79.92C15.9661 79.7733 15.8928 79.5933 15.8928 79.38C15.8928 79.22 15.9461 79.0733 16.0528 78.94C16.1461 78.8067 16.2995 78.7333 16.5128 78.72L17.1328 78.68C17.8128 78.6267 18.3328 78.3933 18.6928 77.98C19.0528 77.5533 19.2328 76.9733 19.2328 76.24V66.6C19.2328 66.32 19.2995 66.1133 19.4328 65.98C19.5795 65.8333 19.7861 65.76 20.0528 65.76C20.3195 65.76 20.5195 65.8333 20.6528 65.98C20.7995 66.1133 20.8728 66.32 20.8728 66.6V76.26C20.8728 77.02 20.7395 77.68 20.4728 78.24C20.2061 78.7867 19.8061 79.2133 19.2728 79.52C18.7528 79.8267 18.1128 80.0067 17.3528 80.06L16.6928 80.12ZM28.1772 80.18C27.2305 80.18 26.4105 79.9733 25.7172 79.56C25.0239 79.1467 24.4839 78.5667 24.0972 77.82C23.7239 77.06 23.5372 76.1667 23.5372 75.14C23.5372 74.3667 23.6439 73.6733 23.8572 73.06C24.0705 72.4333 24.3839 71.9 24.7972 71.46C25.2105 71.02 25.6972 70.6867 26.2572 70.46C26.8305 70.22 27.4705 70.1 28.1772 70.1C29.1239 70.1 29.9439 70.3067 30.6372 70.72C31.3305 71.1333 31.8639 71.72 32.2372 72.48C32.6239 73.2267 32.8172 74.1133 32.8172 75.14C32.8172 75.9133 32.7105 76.6067 32.4972 77.22C32.2839 77.8333 31.9705 78.3667 31.5572 78.82C31.1439 79.26 30.6505 79.6 30.0772 79.84C29.5172 80.0667 28.8839 80.18 28.1772 80.18ZM28.1772 78.88C28.7772 78.88 29.3039 78.7333 29.7572 78.44C30.2105 78.1467 30.5572 77.72 30.7972 77.16C31.0505 76.6 31.1772 75.9267 31.1772 75.14C31.1772 73.9267 30.9039 73 30.3572 72.36C29.8239 71.72 29.0972 71.4 28.1772 71.4C27.5639 71.4 27.0305 71.5467 26.5772 71.84C26.1372 72.12 25.7905 72.54 25.5372 73.1C25.2972 73.6467 25.1772 74.3267 25.1772 75.14C25.1772 76.34 25.4505 77.2667 25.9972 77.92C26.5439 78.56 27.2705 78.88 28.1772 78.88ZM37.2738 83.74C37.0738 83.74 36.9138 83.6867 36.7938 83.58C36.6738 83.4733 36.6004 83.3267 36.5738 83.14C36.5604 82.9667 36.5938 82.7867 36.6738 82.6L38.0538 79.5V80.2L34.2138 71.28C34.1338 71.08 34.1071 70.8933 34.1338 70.72C34.1604 70.5467 34.2404 70.4067 34.3738 70.3C34.5071 70.1933 34.6938 70.14 34.9338 70.14C35.1471 70.14 35.3138 70.1867 35.4338 70.28C35.5538 70.3733 35.6604 70.54 35.7538 70.78L39.0338 78.82H38.4938L41.8138 70.78C41.9204 70.54 42.0338 70.3733 42.1538 70.28C42.2738 70.1867 42.4471 70.14 42.6738 70.14C42.8871 70.14 43.0471 70.1933 43.1538 70.3C43.2738 70.4067 43.3404 70.5467 43.3538 70.72C43.3804 70.88 43.3538 71.06 43.2738 71.26L38.1538 83.1C38.0471 83.34 37.9271 83.5067 37.7938 83.6C37.6738 83.6933 37.5004 83.74 37.2738 83.74Z" fill="black"/>
<mask id="mask0_904_6108" style="mask-type:alpha" maskUnits="userSpaceOnUse" x="0" y="0" width="60" height="60">
<rect width="60" height="60" fill="#D9D9D9"/>
</mask>
<g mask="url(#mask0_904_6108)">
<path d="M20 30V35C20 37.75 20.9792 40.1042 22.9375 42.0625C24.8958 44.0208 27.25 45 30 45C32.75 45 35.1042 44.0208 37.0625 42.0625C39.0208 40.1042 40 37.75 40 35V30H20ZM30 41.25C28.25 41.25 26.7708 40.6458 25.5625 39.4375C24.3542 38.2292 23.75 36.75 23.75 35V33.75H36.25V35C36.25 36.75 35.6458 38.2292 34.4375 39.4375C33.2292 40.6458 31.75 41.25 30 41.25ZM21.25 17.5C19.6667 17.5 18.2604 18.0729 17.0312 19.2188C15.8021 20.3646 14.9375 21.9375 14.4375 23.9375L18.0625 24.8125C18.3125 23.7292 18.7292 22.8646 19.3125 22.2188C19.8958 21.5729 20.5417 21.25 21.25 21.25C21.9583 21.25 22.6042 21.5729 23.1875 22.2188C23.7708 22.8646 24.1875 23.7292 24.4375 24.8125L28.0625 23.9375C27.5625 21.9375 26.6979 20.3646 25.4688 19.2188C24.2396 18.0729 22.8333 17.5 21.25 17.5ZM38.75 17.5C37.1667 17.5 35.7604 18.0729 34.5312 19.2188C33.3021 20.3646 32.4375 21.9375 31.9375 23.9375L35.5625 24.8125C35.8125 23.7292 36.2292 22.8646 36.8125 22.2188C37.3958 21.5729 38.0417 21.25 38.75 21.25C39.4583 21.25 40.1042 21.5729 40.6875 22.2188C41.2708 22.8646 41.6875 23.7292 41.9375 24.8125L45.5625 23.9375C45.0625 21.9375 44.1979 20.3646 42.9688 19.2188C41.7396 18.0729 40.3333 17.5 38.75 17.5ZM30 55C26.5417 55 23.2917 54.3438 20.25 53.0312C17.2083 51.7188 14.5625 49.9375 12.3125 47.6875C10.0625 45.4375 8.28125 42.7917 6.96875 39.75C5.65625 36.7083 5 33.4583 5 30C5 26.5417 5.65625 23.2917 6.96875 20.25C8.28125 17.2083 10.0625 14.5625 12.3125 12.3125C14.5625 10.0625 17.2083 8.28125 20.25 6.96875C23.2917 5.65625 26.5417 5 30 5C33.4583 5 36.7083 5.65625 39.75 6.96875C42.7917 8.28125 45.4375 10.0625 47.6875 12.3125C49.9375 14.5625 51.7188 17.2083 53.0312 20.25C54.3438 23.2917 55 26.5417 55 30C55 33.4583 54.3438 36.7083 53.0312 39.75C51.7188 42.7917 49.9375 45.4375 47.6875 47.6875C45.4375 49.9375 42.7917 51.7188 39.75 53.0312C36.7083 54.3438 33.4583 55 30 55ZM30 50C35.5833 50 40.3125 48.0625 44.1875 44.1875C48.0625 40.3125 50 35.5833 50 30C50 24.4167 48.0625 19.6875 44.1875 15.8125C40.3125 11.9375 35.5833 10 30 10C24.4167 10 19.6875 11.9375 15.8125 15.8125C11.9375 19.6875 10 24.4167 10 30C10 35.5833 11.9375 40.3125 15.8125 44.1875C19.6875 48.0625 24.4167 50 30 50Z" fill="#339967"/>
</g>
</svg>
