<svg width="60" height="60" viewBox="0 0 60 60" fill="none" xmlns="http://www.w3.org/2000/svg">
<mask id="mask0_642_4920" style="mask-type:alpha" maskUnits="userSpaceOnUse" x="0" y="0" width="60" height="60">
<rect width="60" height="60" fill="#D9D9D9"/>
</mask>
<g mask="url(#mask0_642_4920)">
<path d="M15.6251 40H19.3751V39.375C19.3751 36.4167 20.4063 33.9062 22.4688 31.8438C24.5313 29.7812 27.0417 28.75 30.0001 28.75C32.9584 28.75 35.4688 29.7812 37.5313 31.8438C39.5938 33.9062 40.6251 36.4167 40.6251 39.375V40H44.3751V39.375C44.3751 35.375 42.9792 31.9792 40.1876 29.1875C37.3959 26.3958 34.0001 25 30.0001 25C26.0001 25 22.6042 26.3958 19.8126 29.1875C17.0209 31.9792 15.6251 35.375 15.6251 39.375V40ZM17.7501 23.125C19.4584 22.875 21.2605 22.2083 23.1563 21.125C25.0521 20.0417 26.5626 18.8125 27.6876 17.4375L24.8126 15.0625C23.9792 16.0625 22.823 16.9792 21.3438 17.8125C19.8646 18.6458 18.5001 19.1667 17.2501 19.375L17.7501 23.125ZM42.2501 23.125L42.7501 19.375C41.5001 19.1667 40.1355 18.6458 38.6563 17.8125C37.1771 16.9792 36.0209 16.0625 35.1876 15.0625L32.3126 17.4375C33.4376 18.8125 34.948 20.0417 36.8438 21.125C38.7396 22.2083 40.5417 22.875 42.2501 23.125ZM30.0001 55C26.5417 55 23.2917 54.3438 20.2501 53.0312C17.2084 51.7188 14.5626 49.9375 12.3126 47.6875C10.0626 45.4375 8.28131 42.7917 6.96881 39.75C5.65631 36.7083 5.00006 33.4583 5.00006 30C5.00006 26.5417 5.65631 23.2917 6.96881 20.25C8.28131 17.2083 10.0626 14.5625 12.3126 12.3125C14.5626 10.0625 17.2084 8.28125 20.2501 6.96875C23.2917 5.65625 26.5417 5 30.0001 5C33.4584 5 36.7084 5.65625 39.7501 6.96875C42.7917 8.28125 45.4376 10.0625 47.6876 12.3125C49.9376 14.5625 51.7188 17.2083 53.0313 20.25C54.3438 23.2917 55.0001 26.5417 55.0001 30C55.0001 33.4583 54.3438 36.7083 53.0313 39.75C51.7188 42.7917 49.9376 45.4375 47.6876 47.6875C45.4376 49.9375 42.7917 51.7188 39.7501 53.0312C36.7084 54.3438 33.4584 55 30.0001 55ZM30.0001 50C35.5834 50 40.3126 48.0625 44.1876 44.1875C48.0626 40.3125 50.0001 35.5833 50.0001 30C50.0001 24.4167 48.0626 19.6875 44.1876 15.8125C40.3126 11.9375 35.5834 10 30.0001 10C24.4167 10 19.6876 11.9375 15.8126 15.8125C11.9376 19.6875 10.0001 24.4167 10.0001 30C10.0001 35.5833 11.9376 40.3125 15.8126 44.1875C19.6876 48.0625 24.4167 50 30.0001 50Z" fill="#006075"/>
</g>
</svg>
