<svg width="76" height="87" viewBox="0 0 76 87" fill="none" xmlns="http://www.w3.org/2000/svg">
<path d="M6.38008 80.18C5.75341 80.18 5.14008 80.1267 4.54008 80.02C3.94008 79.9133 3.38008 79.76 2.86008 79.56C2.35341 79.36 1.89341 79.1067 1.48008 78.8C1.32008 78.68 1.20674 78.5467 1.14008 78.4C1.08674 78.24 1.07341 78.0867 1.10008 77.94C1.14008 77.78 1.20674 77.6467 1.30008 77.54C1.40674 77.4333 1.53341 77.3733 1.68008 77.36C1.82674 77.3467 1.98674 77.3933 2.16008 77.5C2.76008 77.9267 3.40008 78.24 4.08008 78.44C4.76008 78.6267 5.52675 78.72 6.38008 78.72C7.58008 78.72 8.46675 78.5 9.04008 78.06C9.62675 77.6067 9.92008 77.0133 9.92008 76.28C9.92008 75.68 9.70675 75.2133 9.28008 74.88C8.86675 74.5333 8.16675 74.26 7.18008 74.06L5.10008 73.64C3.84674 73.3733 2.90674 72.94 2.28008 72.34C1.66674 71.7267 1.36008 70.9133 1.36008 69.9C1.36008 69.2733 1.48674 68.7067 1.74008 68.2C1.99341 67.68 2.34674 67.24 2.80008 66.88C3.25341 66.5067 3.79341 66.22 4.42008 66.02C5.04674 65.82 5.74008 65.72 6.50008 65.72C7.34008 65.72 8.12008 65.84 8.84008 66.08C9.57341 66.3067 10.2334 66.6533 10.8201 67.12C10.9667 67.24 11.0667 67.38 11.1201 67.54C11.1734 67.6867 11.1801 67.8333 11.1401 67.98C11.1001 68.1133 11.0267 68.2267 10.9201 68.32C10.8267 68.4133 10.7001 68.4667 10.5401 68.48C10.3934 68.4933 10.2267 68.44 10.0401 68.32C9.50675 67.92 8.95341 67.6333 8.38008 67.46C7.80675 67.2733 7.17341 67.18 6.48008 67.18C5.77341 67.18 5.16008 67.2867 4.64008 67.5C4.13341 67.7133 3.73341 68.0267 3.44008 68.44C3.16008 68.84 3.02008 69.3067 3.02008 69.84C3.02008 70.48 3.21341 70.9867 3.60008 71.36C4.00008 71.7333 4.64675 72.0067 5.54008 72.18L7.62008 72.62C8.96675 72.9 9.96008 73.3267 10.6001 73.9C11.2534 74.46 11.5801 75.2267 11.5801 76.2C11.5801 76.7867 11.4601 77.3267 11.2201 77.82C10.9801 78.3133 10.6334 78.74 10.1801 79.1C9.72674 79.4467 9.18008 79.7133 8.54008 79.9C7.90008 80.0867 7.18008 80.18 6.38008 80.18ZM16.9648 80.18C16.2981 80.18 15.6981 80.0533 15.1648 79.8C14.6448 79.5333 14.2314 79.1733 13.9248 78.72C13.6181 78.2667 13.4648 77.76 13.4648 77.2C13.4648 76.48 13.6448 75.9133 14.0048 75.5C14.3781 75.0867 14.9848 74.7933 15.8248 74.62C16.6781 74.4467 17.8381 74.36 19.3048 74.36H20.2048V75.42H19.3248C18.2448 75.42 17.3914 75.4733 16.7648 75.58C16.1514 75.6733 15.7181 75.84 15.4648 76.08C15.2248 76.32 15.1048 76.66 15.1048 77.1C15.1048 77.6467 15.2914 78.0933 15.6648 78.44C16.0514 78.7867 16.5714 78.96 17.2248 78.96C17.7581 78.96 18.2248 78.8333 18.6248 78.58C19.0381 78.3267 19.3581 77.98 19.5848 77.54C19.8248 77.1 19.9448 76.5933 19.9448 76.02V73.74C19.9448 72.9133 19.7781 72.32 19.4448 71.96C19.1114 71.5867 18.5648 71.4 17.8048 71.4C17.3381 71.4 16.8714 71.46 16.4048 71.58C15.9381 71.7 15.4448 71.8933 14.9248 72.16C14.7381 72.2533 14.5781 72.2867 14.4448 72.26C14.3114 72.22 14.2048 72.1467 14.1248 72.04C14.0448 71.9333 13.9981 71.8133 13.9848 71.68C13.9714 71.5333 13.9981 71.3933 14.0648 71.26C14.1448 71.1267 14.2648 71.02 14.4248 70.94C15.0114 70.6467 15.5914 70.4333 16.1648 70.3C16.7381 70.1667 17.2848 70.1 17.8048 70.1C18.6448 70.1 19.3381 70.24 19.8848 70.52C20.4314 70.7867 20.8381 71.2 21.1048 71.76C21.3714 72.3067 21.5048 73.0133 21.5048 73.88V79.3C21.5048 79.5667 21.4381 79.7733 21.3048 79.92C21.1848 80.0667 21.0048 80.14 20.7648 80.14C20.5114 80.14 20.3181 80.0667 20.1848 79.92C20.0514 79.7733 19.9848 79.5667 19.9848 79.3V77.74H20.1648C20.0581 78.2467 19.8514 78.68 19.5448 79.04C19.2514 79.4 18.8848 79.68 18.4448 79.88C18.0048 80.08 17.5114 80.18 16.9648 80.18ZM28.2102 80.18C27.3436 80.18 26.5836 79.9733 25.9302 79.56C25.2902 79.1467 24.7902 78.5667 24.4302 77.82C24.0836 77.06 23.9102 76.1667 23.9102 75.14C23.9102 74.1 24.0836 73.2067 24.4302 72.46C24.7902 71.7 25.2902 71.12 25.9302 70.72C26.5836 70.3067 27.3436 70.1 28.2102 70.1C29.0902 70.1 29.8436 70.32 30.4702 70.76C31.0969 71.2 31.5169 71.7933 31.7302 72.54H31.5102V66.58C31.5102 66.3133 31.5769 66.1133 31.7102 65.98C31.8569 65.8333 32.0636 65.76 32.3302 65.76C32.5836 65.76 32.7769 65.8333 32.9102 65.98C33.0569 66.1133 33.1302 66.3133 33.1302 66.58V79.3C33.1302 79.5667 33.0636 79.7733 32.9302 79.92C32.7969 80.0667 32.5969 80.14 32.3302 80.14C32.0769 80.14 31.8769 80.0667 31.7302 79.92C31.5969 79.7733 31.5302 79.5667 31.5302 79.3V77.4L31.7502 77.68C31.5369 78.44 31.1102 79.0467 30.4702 79.5C29.8436 79.9533 29.0902 80.18 28.2102 80.18ZM28.5502 78.88C29.1502 78.88 29.6769 78.7333 30.1302 78.44C30.5836 78.1467 30.9302 77.72 31.1702 77.16C31.4236 76.6 31.5502 75.9267 31.5502 75.14C31.5502 73.9267 31.2769 73 30.7302 72.36C30.1969 71.72 29.4702 71.4 28.5502 71.4C27.9369 71.4 27.4036 71.5467 26.9502 71.84C26.5102 72.12 26.1636 72.54 25.9102 73.1C25.6702 73.6467 25.5502 74.3267 25.5502 75.14C25.5502 76.34 25.8236 77.2667 26.3702 77.92C26.9169 78.56 27.6436 78.88 28.5502 78.88ZM36.9704 80.14C36.7037 80.14 36.5037 80.0667 36.3704 79.92C36.2371 79.7733 36.1704 79.5667 36.1704 79.3V70.96C36.1704 70.6933 36.2371 70.4933 36.3704 70.36C36.5037 70.2133 36.6971 70.14 36.9504 70.14C37.2037 70.14 37.3971 70.2133 37.5304 70.36C37.6771 70.4933 37.7504 70.6933 37.7504 70.96V72.68L37.5304 72.44C37.8104 71.6667 38.2637 71.0867 38.8904 70.7C39.5304 70.3 40.2637 70.1 41.0904 70.1C41.8637 70.1 42.5037 70.24 43.0104 70.52C43.5304 70.8 43.9171 71.2267 44.1704 71.8C44.4237 72.36 44.5504 73.0733 44.5504 73.94V79.3C44.5504 79.5667 44.4771 79.7733 44.3304 79.92C44.1971 80.0667 44.0037 80.14 43.7504 80.14C43.4837 80.14 43.2771 80.0667 43.1304 79.92C42.9971 79.7733 42.9304 79.5667 42.9304 79.3V74.04C42.9304 73.1333 42.7504 72.4733 42.3904 72.06C42.0437 71.6333 41.4837 71.42 40.7104 71.42C39.8171 71.42 39.1037 71.7 38.5704 72.26C38.0504 72.8067 37.7904 73.54 37.7904 74.46V79.3C37.7904 79.86 37.5171 80.14 36.9704 80.14ZM51.9176 80.18C50.8909 80.18 50.0042 79.98 49.2576 79.58C48.5242 79.1667 47.9509 78.5867 47.5376 77.84C47.1376 77.0933 46.9376 76.2 46.9376 75.16C46.9376 74.1467 47.1376 73.2667 47.5376 72.52C47.9376 71.76 48.4842 71.1667 49.1776 70.74C49.8842 70.3133 50.6976 70.1 51.6176 70.1C52.2709 70.1 52.8576 70.2133 53.3776 70.44C53.8976 70.6533 54.3376 70.9667 54.6976 71.38C55.0709 71.7933 55.3509 72.2933 55.5376 72.88C55.7376 73.4667 55.8376 74.1267 55.8376 74.86C55.8376 75.0733 55.7776 75.2333 55.6576 75.34C55.5376 75.4333 55.3642 75.48 55.1376 75.48H48.1776V74.42H54.7576L54.4376 74.68C54.4376 73.96 54.3309 73.3533 54.1176 72.86C53.9042 72.3533 53.5909 71.9667 53.1776 71.7C52.7776 71.4333 52.2709 71.3 51.6576 71.3C50.9776 71.3 50.3976 71.46 49.9176 71.78C49.4509 72.0867 49.0976 72.52 48.8576 73.08C48.6176 73.6267 48.4976 74.2667 48.4976 75V75.12C48.4976 76.3467 48.7909 77.28 49.3776 77.92C49.9776 78.56 50.8242 78.88 51.9176 78.88C52.3709 78.88 52.8176 78.82 53.2576 78.7C53.7109 78.58 54.1509 78.38 54.5776 78.1C54.7642 77.98 54.9309 77.9267 55.0776 77.94C55.2376 77.94 55.3642 77.9867 55.4576 78.08C55.5509 78.16 55.6109 78.2667 55.6376 78.4C55.6776 78.52 55.6642 78.6533 55.5976 78.8C55.5442 78.9467 55.4309 79.0733 55.2576 79.18C54.8176 79.5 54.2976 79.7467 53.6976 79.92C53.0976 80.0933 52.5042 80.18 51.9176 80.18ZM61.4621 80.18C60.8621 80.18 60.2554 80.1067 59.6421 79.96C59.0421 79.8133 58.4821 79.56 57.9621 79.2C57.8288 79.1067 57.7354 79 57.6821 78.88C57.6288 78.7467 57.6088 78.62 57.6221 78.5C57.6488 78.3667 57.7021 78.2533 57.7821 78.16C57.8754 78.0667 57.9821 78.0133 58.1021 78C58.2354 77.9733 58.3821 78 58.5421 78.08C59.0621 78.4 59.5621 78.6267 60.0421 78.76C60.5354 78.88 61.0221 78.94 61.5021 78.94C62.2621 78.94 62.8354 78.8 63.2221 78.52C63.6088 78.24 63.8021 77.86 63.8021 77.38C63.8021 77.0067 63.6754 76.7133 63.4221 76.5C63.1688 76.2733 62.7688 76.1 62.2221 75.98L60.4021 75.58C59.5621 75.4067 58.9354 75.1067 58.5221 74.68C58.1221 74.2533 57.9221 73.7 57.9221 73.02C57.9221 72.42 58.0754 71.9067 58.3821 71.48C58.7021 71.04 59.1488 70.7 59.7221 70.46C60.2954 70.22 60.9621 70.1 61.7221 70.1C62.3088 70.1 62.8621 70.18 63.3821 70.34C63.9154 70.4867 64.3954 70.7267 64.8221 71.06C64.9554 71.1533 65.0421 71.2667 65.0821 71.4C65.1354 71.52 65.1421 71.6467 65.1021 71.78C65.0754 71.9 65.0154 72.0067 64.9221 72.1C64.8288 72.18 64.7154 72.2267 64.5821 72.24C64.4488 72.2533 64.3088 72.2133 64.1621 72.12C63.7621 71.8533 63.3554 71.66 62.9421 71.54C62.5288 71.4067 62.1221 71.34 61.7221 71.34C60.9754 71.34 60.4088 71.4867 60.0221 71.78C59.6354 72.0733 59.4421 72.46 59.4421 72.94C59.4421 73.3133 59.5621 73.62 59.8021 73.86C60.0421 74.1 60.4154 74.2733 60.9221 74.38L62.7421 74.76C63.6088 74.9467 64.2554 75.2467 64.6821 75.66C65.1221 76.06 65.3421 76.6067 65.3421 77.3C65.3421 78.18 64.9888 78.88 64.2821 79.4C63.5754 79.92 62.6354 80.18 61.4621 80.18ZM71.091 80.18C70.491 80.18 69.8843 80.1067 69.271 79.96C68.671 79.8133 68.111 79.56 67.591 79.2C67.4577 79.1067 67.3643 79 67.311 78.88C67.2577 78.7467 67.2377 78.62 67.251 78.5C67.2777 78.3667 67.331 78.2533 67.411 78.16C67.5043 78.0667 67.611 78.0133 67.731 78C67.8643 77.9733 68.011 78 68.171 78.08C68.691 78.4 69.191 78.6267 69.671 78.76C70.1643 78.88 70.651 78.94 71.131 78.94C71.891 78.94 72.4643 78.8 72.851 78.52C73.2377 78.24 73.431 77.86 73.431 77.38C73.431 77.0067 73.3043 76.7133 73.051 76.5C72.7977 76.2733 72.3977 76.1 71.851 75.98L70.031 75.58C69.191 75.4067 68.5643 75.1067 68.151 74.68C67.751 74.2533 67.551 73.7 67.551 73.02C67.551 72.42 67.7043 71.9067 68.011 71.48C68.331 71.04 68.7777 70.7 69.351 70.46C69.9243 70.22 70.591 70.1 71.351 70.1C71.9377 70.1 72.491 70.18 73.011 70.34C73.5443 70.4867 74.0243 70.7267 74.451 71.06C74.5843 71.1533 74.671 71.2667 74.711 71.4C74.7643 71.52 74.771 71.6467 74.731 71.78C74.7043 71.9 74.6443 72.0067 74.551 72.1C74.4577 72.18 74.3443 72.2267 74.211 72.24C74.0777 72.2533 73.9377 72.2133 73.791 72.12C73.391 71.8533 72.9843 71.66 72.571 71.54C72.1577 71.4067 71.751 71.34 71.351 71.34C70.6043 71.34 70.0377 71.4867 69.651 71.78C69.2643 72.0733 69.071 72.46 69.071 72.94C69.071 73.3133 69.191 73.62 69.431 73.86C69.671 74.1 70.0443 74.2733 70.551 74.38L72.371 74.76C73.2377 74.9467 73.8843 75.2467 74.311 75.66C74.751 76.06 74.971 76.6067 74.971 77.3C74.971 78.18 74.6177 78.88 73.911 79.4C73.2043 79.92 72.2643 80.18 71.091 80.18Z" fill="black"/>
<mask id="mask0_904_6109" style="mask-type:alpha" maskUnits="userSpaceOnUse" x="8" y="0" width="60" height="60">
<rect x="8" width="60" height="60" fill="#D9D9D9"/>
</mask>
<g mask="url(#mask0_904_6109)">
<path d="M23.6251 40H27.3751V39.375C27.3751 36.4167 28.4063 33.9062 30.4688 31.8438C32.5313 29.7812 35.0417 28.75 38.0001 28.75C40.9584 28.75 43.4688 29.7812 45.5313 31.8438C47.5938 33.9062 48.6251 36.4167 48.6251 39.375V40H52.3751V39.375C52.3751 35.375 50.9792 31.9792 48.1876 29.1875C45.3959 26.3958 42.0001 25 38.0001 25C34.0001 25 30.6042 26.3958 27.8126 29.1875C25.0209 31.9792 23.6251 35.375 23.6251 39.375V40ZM25.7501 23.125C27.4584 22.875 29.2605 22.2083 31.1563 21.125C33.0521 20.0417 34.5626 18.8125 35.6876 17.4375L32.8126 15.0625C31.9792 16.0625 30.823 16.9792 29.3438 17.8125C27.8646 18.6458 26.5001 19.1667 25.2501 19.375L25.7501 23.125ZM50.2501 23.125L50.7501 19.375C49.5001 19.1667 48.1355 18.6458 46.6563 17.8125C45.1771 16.9792 44.0209 16.0625 43.1876 15.0625L40.3126 17.4375C41.4376 18.8125 42.948 20.0417 44.8438 21.125C46.7396 22.2083 48.5417 22.875 50.2501 23.125ZM38.0001 55C34.5417 55 31.2917 54.3438 28.2501 53.0312C25.2084 51.7188 22.5626 49.9375 20.3126 47.6875C18.0626 45.4375 16.2813 42.7917 14.9688 39.75C13.6563 36.7083 13.0001 33.4583 13.0001 30C13.0001 26.5417 13.6563 23.2917 14.9688 20.25C16.2813 17.2083 18.0626 14.5625 20.3126 12.3125C22.5626 10.0625 25.2084 8.28125 28.2501 6.96875C31.2917 5.65625 34.5417 5 38.0001 5C41.4584 5 44.7084 5.65625 47.7501 6.96875C50.7917 8.28125 53.4376 10.0625 55.6876 12.3125C57.9376 14.5625 59.7188 17.2083 61.0313 20.25C62.3438 23.2917 63.0001 26.5417 63.0001 30C63.0001 33.4583 62.3438 36.7083 61.0313 39.75C59.7188 42.7917 57.9376 45.4375 55.6876 47.6875C53.4376 49.9375 50.7917 51.7188 47.7501 53.0312C44.7084 54.3438 41.4584 55 38.0001 55ZM38.0001 50C43.5834 50 48.3126 48.0625 52.1876 44.1875C56.0626 40.3125 58.0001 35.5833 58.0001 30C58.0001 24.4167 56.0626 19.6875 52.1876 15.8125C48.3126 11.9375 43.5834 10 38.0001 10C32.4167 10 27.6876 11.9375 23.8126 15.8125C19.9376 19.6875 18.0001 24.4167 18.0001 30C18.0001 35.5833 19.9376 40.3125 23.8126 44.1875C27.6876 48.0625 32.4167 50 38.0001 50Z" fill="#006075"/>
</g>
</svg>
