<svg width="50" height="74" viewBox="0 0 50 74" fill="none" xmlns="http://www.w3.org/2000/svg">
<path d="M3.52569 68.112C3.30169 68.112 3.12569 68.0533 2.99769 67.936C2.88035 67.808 2.82169 67.6267 2.82169 67.392V57.44C2.82169 57.2053 2.88035 57.0293 2.99769 56.912C3.12569 56.784 3.30702 56.72 3.54169 56.72H9.34969C9.53102 56.72 9.66969 56.768 9.76569 56.864C9.86169 56.96 9.90969 57.0933 9.90969 57.264C9.90969 57.4453 9.86169 57.584 9.76569 57.68C9.66969 57.776 9.53102 57.824 9.34969 57.824H4.13369V61.76H9.01369C9.19502 61.76 9.33369 61.808 9.42969 61.904C9.53635 62 9.58969 62.1333 9.58969 62.304C9.58969 62.4853 9.53635 62.624 9.42969 62.72C9.33369 62.816 9.19502 62.864 9.01369 62.864H4.13369V67.392C4.13369 67.872 3.93102 68.112 3.52569 68.112ZM13.5468 68.144C13.0135 68.144 12.5335 68.0427 12.1068 67.84C11.6908 67.6267 11.3601 67.3387 11.1148 66.976C10.8695 66.6133 10.7468 66.208 10.7468 65.76C10.7468 65.184 10.8908 64.7307 11.1788 64.4C11.4775 64.0693 11.9628 63.8347 12.6348 63.696C13.3175 63.5573 14.2455 63.488 15.4188 63.488H16.1388V64.336H15.4348C14.5708 64.336 13.8881 64.3787 13.3868 64.464C12.8961 64.5387 12.5495 64.672 12.3468 64.864C12.1548 65.056 12.0588 65.328 12.0588 65.68C12.0588 66.1173 12.2081 66.4747 12.5068 66.752C12.8161 67.0293 13.2321 67.168 13.7548 67.168C14.1815 67.168 14.5548 67.0667 14.8748 66.864C15.2055 66.6613 15.4615 66.384 15.6428 66.032C15.8348 65.68 15.9308 65.2747 15.9308 64.816V62.992C15.9308 62.3307 15.7975 61.856 15.5308 61.568C15.2641 61.2693 14.8268 61.12 14.2188 61.12C13.8455 61.12 13.4721 61.168 13.0988 61.264C12.7255 61.36 12.3308 61.5147 11.9148 61.728C11.7655 61.8027 11.6375 61.8293 11.5308 61.808C11.4241 61.776 11.3388 61.7173 11.2748 61.632C11.2108 61.5467 11.1735 61.4507 11.1628 61.344C11.1521 61.2267 11.1735 61.1147 11.2268 61.008C11.2908 60.9013 11.3868 60.816 11.5148 60.752C11.9841 60.5173 12.4481 60.3467 12.9068 60.24C13.3655 60.1333 13.8028 60.08 14.2188 60.08C14.8908 60.08 15.4455 60.192 15.8828 60.416C16.3201 60.6293 16.6455 60.96 16.8588 61.408C17.0721 61.8453 17.1788 62.4107 17.1788 63.104V67.44C17.1788 67.6533 17.1255 67.8187 17.0188 67.936C16.9228 68.0533 16.7788 68.112 16.5868 68.112C16.3841 68.112 16.2295 68.0533 16.1228 67.936C16.0161 67.8187 15.9628 67.6533 15.9628 67.44V66.192H16.1068C16.0215 66.5973 15.8561 66.944 15.6108 67.232C15.3761 67.52 15.0828 67.744 14.7308 67.904C14.3788 68.064 13.9841 68.144 13.5468 68.144ZM20.2552 68.112C20.0419 68.112 19.8819 68.0533 19.7752 67.936C19.6685 67.8187 19.6152 67.6533 19.6152 67.44V60.768C19.6152 60.5547 19.6685 60.3947 19.7752 60.288C19.8819 60.1707 20.0365 60.112 20.2392 60.112C20.4419 60.112 20.5965 60.1707 20.7032 60.288C20.8205 60.3947 20.8792 60.5547 20.8792 60.768V62.176L20.7032 61.952C20.9059 61.3547 21.2312 60.896 21.6792 60.576C22.1379 60.2453 22.6819 60.08 23.3112 60.08C23.9725 60.08 24.5059 60.24 24.9112 60.56C25.3272 60.8693 25.6045 61.3547 25.7432 62.016H25.5032C25.6952 61.4187 26.0365 60.9493 26.5272 60.608C27.0285 60.256 27.6099 60.08 28.2712 60.08C28.8579 60.08 29.3379 60.192 29.7112 60.416C30.0952 60.64 30.3832 60.9813 30.5752 61.44C30.7672 61.888 30.8632 62.4587 30.8632 63.152V67.44C30.8632 67.6533 30.8045 67.8187 30.6872 67.936C30.5805 68.0533 30.4205 68.112 30.2072 68.112C30.0045 68.112 29.8445 68.0533 29.7272 67.936C29.6205 67.8187 29.5672 67.6533 29.5672 67.44V63.216C29.5672 62.5013 29.4445 61.9787 29.1992 61.648C28.9539 61.3067 28.5379 61.136 27.9512 61.136C27.3112 61.136 26.8045 61.36 26.4312 61.808C26.0685 62.2453 25.8872 62.8427 25.8872 63.6V67.44C25.8872 67.6533 25.8285 67.8187 25.7112 67.936C25.6045 68.0533 25.4445 68.112 25.2312 68.112C25.0285 68.112 24.8685 68.0533 24.7512 67.936C24.6445 67.8187 24.5912 67.6533 24.5912 67.44V63.216C24.5912 62.5013 24.4632 61.9787 24.2072 61.648C23.9619 61.3067 23.5512 61.136 22.9752 61.136C22.3352 61.136 21.8285 61.36 21.4552 61.808C21.0925 62.2453 20.9112 62.8427 20.9112 63.6V67.44C20.9112 67.888 20.6925 68.112 20.2552 68.112ZM33.9263 68.08C33.713 68.08 33.553 68.0213 33.4463 67.904C33.3396 67.776 33.2863 67.6 33.2863 67.376V60.832C33.2863 60.608 33.3396 60.4373 33.4463 60.32C33.553 60.2027 33.713 60.144 33.9263 60.144C34.129 60.144 34.289 60.2027 34.4063 60.32C34.5236 60.4373 34.5823 60.608 34.5823 60.832V67.376C34.5823 67.6 34.5236 67.776 34.4063 67.904C34.2996 68.0213 34.1396 68.08 33.9263 68.08ZM33.9263 58.352C33.6596 58.352 33.4516 58.2827 33.3023 58.144C33.153 57.9947 33.0783 57.7973 33.0783 57.552C33.0783 57.296 33.153 57.104 33.3023 56.976C33.4516 56.8373 33.6596 56.768 33.9263 56.768C34.2036 56.768 34.4116 56.8373 34.5503 56.976C34.6996 57.104 34.7743 57.296 34.7743 57.552C34.7743 57.7973 34.6996 57.9947 34.5503 58.144C34.4116 58.2827 34.2036 58.352 33.9263 58.352ZM39.3731 68.144C38.6051 68.144 38.0184 67.9093 37.6131 67.44C37.2077 66.9707 37.0051 66.2987 37.0051 65.424V57.264C37.0051 57.0507 37.0584 56.8907 37.1651 56.784C37.2717 56.6667 37.4317 56.608 37.6451 56.608C37.8477 56.608 38.0077 56.6667 38.1251 56.784C38.2424 56.8907 38.3011 57.0507 38.3011 57.264V65.328C38.3011 65.904 38.4131 66.336 38.6371 66.624C38.8717 66.9013 39.2131 67.04 39.6611 67.04C39.7571 67.04 39.8424 67.0347 39.9171 67.024C39.9917 67.0133 40.0664 67.008 40.1411 67.008C40.2584 66.9973 40.3384 67.024 40.3811 67.088C40.4344 67.152 40.4611 67.28 40.4611 67.472C40.4611 67.664 40.4184 67.808 40.3331 67.904C40.2477 68 40.1091 68.064 39.9171 68.096C39.8317 68.1067 39.7411 68.1173 39.6451 68.128C39.5491 68.1387 39.4584 68.144 39.3731 68.144ZM43.2956 70.992C43.1356 70.992 43.0076 70.9493 42.9116 70.864C42.8156 70.7787 42.7569 70.6613 42.7356 70.512C42.7249 70.3733 42.7516 70.2293 42.8156 70.08L43.9196 67.6V68.16L40.8476 61.024C40.7836 60.864 40.7622 60.7147 40.7836 60.576C40.8049 60.4373 40.8689 60.3253 40.9756 60.24C41.0822 60.1547 41.2316 60.112 41.4236 60.112C41.5942 60.112 41.7276 60.1493 41.8236 60.224C41.9196 60.2987 42.0049 60.432 42.0796 60.624L44.7036 67.056H44.2716L46.9276 60.624C47.0129 60.432 47.1036 60.2987 47.1996 60.224C47.2956 60.1493 47.4342 60.112 47.6156 60.112C47.7862 60.112 47.9142 60.1547 47.9996 60.24C48.0956 60.3253 48.1489 60.4373 48.1596 60.576C48.1809 60.704 48.1596 60.848 48.0956 61.008L43.9996 70.48C43.9142 70.672 43.8182 70.8053 43.7116 70.88C43.6156 70.9547 43.4769 70.992 43.2956 70.992Z" fill="black"/>
<mask id="mask0_924_5583" style="mask-type:alpha" maskUnits="userSpaceOnUse" x="0" y="0" width="50" height="50">
<rect width="50" height="50" fill="#D9D9D9"/>
</mask>
<g mask="url(#mask0_924_5583)">
<path d="M10.4166 41.6667V22.6042L4.58325 27.0833L2.08325 23.75L24.9999 6.25L33.3333 12.6042V8.33333H39.5833V17.3958L47.9166 23.75L45.4166 27.0833L39.5833 22.6042V41.6667H27.0833V29.1667H22.9166V41.6667H10.4166ZM14.5833 37.5H18.7499V25H31.2499V37.5H35.4166V19.4271L24.9999 11.5104L14.5833 19.4271V37.5ZM20.8333 20.8854H29.1666C29.1666 19.7743 28.7499 18.8628 27.9166 18.151C27.0833 17.4392 26.111 17.0833 24.9999 17.0833C23.8888 17.0833 22.9166 17.4392 22.0833 18.151C21.2499 18.8628 20.8333 19.7743 20.8333 20.8854Z" fill="#1C1B1F"/>
</g>
</svg>
