<svg width="59" height="77" viewBox="0 0 59 77" fill="none" xmlns="http://www.w3.org/2000/svg">
<path d="M2.65711 70.14C2.37711 70.14 2.15711 70.0667 1.99711 69.92C1.85044 69.76 1.77711 69.5333 1.77711 69.24V56.8C1.77711 56.5067 1.85044 56.2867 1.99711 56.14C2.15711 55.98 2.38378 55.9 2.67711 55.9H9.93711C10.1638 55.9 10.3371 55.96 10.4571 56.08C10.5771 56.2 10.6371 56.3667 10.6371 56.58C10.6371 56.8067 10.5771 56.98 10.4571 57.1C10.3371 57.22 10.1638 57.28 9.93711 57.28H3.41711V62.2H9.51711C9.74378 62.2 9.91711 62.26 10.0371 62.38C10.1704 62.5 10.2371 62.6667 10.2371 62.88C10.2371 63.1067 10.1704 63.28 10.0371 63.4C9.91711 63.52 9.74378 63.58 9.51711 63.58H3.41711V69.24C3.41711 69.84 3.16378 70.14 2.65711 70.14ZM15.1835 70.18C14.5168 70.18 13.9168 70.0533 13.3835 69.8C12.8635 69.5333 12.4502 69.1733 12.1435 68.72C11.8368 68.2667 11.6835 67.76 11.6835 67.2C11.6835 66.48 11.8635 65.9133 12.2235 65.5C12.5968 65.0867 13.2035 64.7933 14.0435 64.62C14.8968 64.4467 16.0568 64.36 17.5235 64.36H18.4235V65.42H17.5435C16.4635 65.42 15.6102 65.4733 14.9835 65.58C14.3702 65.6733 13.9368 65.84 13.6835 66.08C13.4435 66.32 13.3235 66.66 13.3235 67.1C13.3235 67.6467 13.5102 68.0933 13.8835 68.44C14.2702 68.7867 14.7902 68.96 15.4435 68.96C15.9768 68.96 16.4435 68.8333 16.8435 68.58C17.2568 68.3267 17.5768 67.98 17.8035 67.54C18.0435 67.1 18.1635 66.5933 18.1635 66.02V63.74C18.1635 62.9133 17.9968 62.32 17.6635 61.96C17.3302 61.5867 16.7835 61.4 16.0235 61.4C15.5568 61.4 15.0902 61.46 14.6235 61.58C14.1568 61.7 13.6635 61.8933 13.1435 62.16C12.9568 62.2533 12.7968 62.2867 12.6635 62.26C12.5302 62.22 12.4235 62.1467 12.3435 62.04C12.2635 61.9333 12.2168 61.8133 12.2035 61.68C12.1902 61.5333 12.2168 61.3933 12.2835 61.26C12.3635 61.1267 12.4835 61.02 12.6435 60.94C13.2302 60.6467 13.8102 60.4333 14.3835 60.3C14.9568 60.1667 15.5035 60.1 16.0235 60.1C16.8635 60.1 17.5568 60.24 18.1035 60.52C18.6502 60.7867 19.0568 61.2 19.3235 61.76C19.5902 62.3067 19.7235 63.0133 19.7235 63.88V69.3C19.7235 69.5667 19.6568 69.7733 19.5235 69.92C19.4035 70.0667 19.2235 70.14 18.9835 70.14C18.7302 70.14 18.5368 70.0667 18.4035 69.92C18.2702 69.7733 18.2035 69.5667 18.2035 69.3V67.74H18.3835C18.2768 68.2467 18.0702 68.68 17.7635 69.04C17.4702 69.4 17.1035 69.68 16.6635 69.88C16.2235 70.08 15.7302 70.18 15.1835 70.18ZM23.569 70.14C23.3023 70.14 23.1023 70.0667 22.969 69.92C22.8357 69.7733 22.769 69.5667 22.769 69.3V60.96C22.769 60.6933 22.8357 60.4933 22.969 60.36C23.1023 60.2133 23.2957 60.14 23.549 60.14C23.8023 60.14 23.9957 60.2133 24.129 60.36C24.2757 60.4933 24.349 60.6933 24.349 60.96V62.72L24.129 62.44C24.3823 61.6933 24.789 61.12 25.349 60.72C25.9223 60.3067 26.6023 60.1 27.389 60.1C28.2157 60.1 28.8823 60.3 29.389 60.7C29.909 61.0867 30.2557 61.6933 30.429 62.52H30.129C30.369 61.7733 30.7957 61.1867 31.409 60.76C32.0357 60.32 32.7623 60.1 33.589 60.1C34.3223 60.1 34.9223 60.24 35.389 60.52C35.869 60.8 36.229 61.2267 36.469 61.8C36.709 62.36 36.829 63.0733 36.829 63.94V69.3C36.829 69.5667 36.7557 69.7733 36.609 69.92C36.4757 70.0667 36.2757 70.14 36.009 70.14C35.7557 70.14 35.5557 70.0667 35.409 69.92C35.2757 69.7733 35.209 69.5667 35.209 69.3V64.02C35.209 63.1267 35.0557 62.4733 34.749 62.06C34.4423 61.6333 33.9223 61.42 33.189 61.42C32.389 61.42 31.7557 61.7 31.289 62.26C30.8357 62.8067 30.609 63.5533 30.609 64.5V69.3C30.609 69.5667 30.5357 69.7733 30.389 69.92C30.2557 70.0667 30.0557 70.14 29.789 70.14C29.5357 70.14 29.3357 70.0667 29.189 69.92C29.0557 69.7733 28.989 69.5667 28.989 69.3V64.02C28.989 63.1267 28.829 62.4733 28.509 62.06C28.2023 61.6333 27.689 61.42 26.969 61.42C26.169 61.42 25.5357 61.7 25.069 62.26C24.6157 62.8067 24.389 63.5533 24.389 64.5V69.3C24.389 69.86 24.1157 70.14 23.569 70.14ZM40.6579 70.1C40.3912 70.1 40.1912 70.0267 40.0579 69.88C39.9246 69.72 39.8579 69.5 39.8579 69.22V61.04C39.8579 60.76 39.9246 60.5467 40.0579 60.4C40.1912 60.2533 40.3912 60.18 40.6579 60.18C40.9112 60.18 41.1112 60.2533 41.2579 60.4C41.4046 60.5467 41.4779 60.76 41.4779 61.04V69.22C41.4779 69.5 41.4046 69.72 41.2579 69.88C41.1246 70.0267 40.9246 70.1 40.6579 70.1ZM40.6579 57.94C40.3246 57.94 40.0646 57.8533 39.8779 57.68C39.6912 57.4933 39.5979 57.2467 39.5979 56.94C39.5979 56.62 39.6912 56.38 39.8779 56.22C40.0646 56.0467 40.3246 55.96 40.6579 55.96C41.0046 55.96 41.2646 56.0467 41.4379 56.22C41.6246 56.38 41.7179 56.62 41.7179 56.94C41.7179 57.2467 41.6246 57.4933 41.4379 57.68C41.2646 57.8533 41.0046 57.94 40.6579 57.94ZM47.4663 70.18C46.5063 70.18 45.773 69.8867 45.2663 69.3C44.7597 68.7133 44.5063 67.8733 44.5063 66.78V56.58C44.5063 56.3133 44.573 56.1133 44.7063 55.98C44.8397 55.8333 45.0397 55.76 45.3063 55.76C45.5597 55.76 45.7597 55.8333 45.9063 55.98C46.053 56.1133 46.1263 56.3133 46.1263 56.58V66.66C46.1263 67.38 46.2663 67.92 46.5463 68.28C46.8397 68.6267 47.2663 68.8 47.8263 68.8C47.9463 68.8 48.053 68.7933 48.1463 68.78C48.2397 68.7667 48.333 68.76 48.4263 68.76C48.573 68.7467 48.673 68.78 48.7263 68.86C48.793 68.94 48.8263 69.1 48.8263 69.34C48.8263 69.58 48.773 69.76 48.6663 69.88C48.5597 70 48.3863 70.08 48.1463 70.12C48.0397 70.1333 47.9263 70.1467 47.8063 70.16C47.6863 70.1733 47.573 70.18 47.4663 70.18ZM52.3695 73.74C52.1695 73.74 52.0095 73.6867 51.8895 73.58C51.7695 73.4733 51.6961 73.3267 51.6695 73.14C51.6561 72.9667 51.6895 72.7867 51.7695 72.6L53.1495 69.5V70.2L49.3095 61.28C49.2295 61.08 49.2028 60.8933 49.2295 60.72C49.2561 60.5467 49.3361 60.4067 49.4695 60.3C49.6028 60.1933 49.7895 60.14 50.0295 60.14C50.2428 60.14 50.4095 60.1867 50.5295 60.28C50.6495 60.3733 50.7561 60.54 50.8495 60.78L54.1295 68.82H53.5895L56.9095 60.78C57.0161 60.54 57.1295 60.3733 57.2495 60.28C57.3695 60.1867 57.5428 60.14 57.7695 60.14C57.9828 60.14 58.1428 60.1933 58.2495 60.3C58.3695 60.4067 58.4361 60.5467 58.4495 60.72C58.4761 60.88 58.4495 61.06 58.3695 61.26L53.2495 73.1C53.1428 73.34 53.0228 73.5067 52.8895 73.6C52.7695 73.6933 52.5961 73.74 52.3695 73.74Z" fill="black"/>
<mask id="mask0_924_5583" style="mask-type:alpha" maskUnits="userSpaceOnUse" x="4" y="0" width="50" height="50">
<rect x="4" width="50" height="50" fill="#D9D9D9"/>
</mask>
<g mask="url(#mask0_924_5583)">
<path d="M14.4166 41.6667V22.6042L8.58325 27.0833L6.08325 23.75L28.9999 6.25L37.3333 12.6042V8.33333H43.5833V17.3958L51.9166 23.75L49.4166 27.0833L43.5833 22.6042V41.6667H31.0833V29.1667H26.9166V41.6667H14.4166ZM18.5833 37.5H22.7499V25H35.2499V37.5H39.4166V19.4271L28.9999 11.5104L18.5833 19.4271V37.5ZM24.8333 20.8854H33.1666C33.1666 19.7743 32.7499 18.8628 31.9166 18.151C31.0833 17.4392 30.111 17.0833 28.9999 17.0833C27.8888 17.0833 26.9166 17.4392 26.0833 18.151C25.2499 18.8628 24.8333 19.7743 24.8333 20.8854Z" fill="#1C1B1F"/>
</g>
</svg>
