<svg width="122" height="78" viewBox="0 0 122 78" fill="none" xmlns="http://www.w3.org/2000/svg">
<path d="M2.80805 71.14C2.54138 71.14 2.33471 71.0667 2.18805 70.92C2.05471 70.76 1.98805 70.5467 1.98805 70.28V57.74C1.98805 57.46 2.06138 57.2533 2.20805 57.12C2.35471 56.9733 2.56138 56.9 2.82805 56.9H7.56805C9.07471 56.9 10.2347 57.2533 11.048 57.96C11.8614 58.6667 12.268 59.6733 12.268 60.98C12.268 61.8067 12.0814 62.5267 11.708 63.14C11.348 63.74 10.8147 64.2 10.108 64.52C9.40138 64.8267 8.55471 64.98 7.56805 64.98L7.76805 64.72H8.16805C8.68805 64.72 9.14138 64.8533 9.52805 65.12C9.91471 65.3867 10.268 65.8133 10.588 66.4L12.508 69.98C12.6147 70.1667 12.6614 70.3533 12.648 70.54C12.648 70.7133 12.588 70.86 12.468 70.98C12.348 71.0867 12.1747 71.14 11.948 71.14C11.7214 71.14 11.5347 71.0867 11.388 70.98C11.2414 70.8733 11.1147 70.72 11.008 70.52L8.82805 66.48C8.52138 65.9067 8.16805 65.5267 7.76805 65.34C7.36805 65.14 6.84138 65.04 6.18805 65.04H3.62805V70.28C3.62805 70.5467 3.56138 70.76 3.42805 70.92C3.29471 71.0667 3.08805 71.14 2.80805 71.14ZM3.62805 63.74H7.32805C8.42138 63.74 9.24805 63.5133 9.80805 63.06C10.368 62.5933 10.648 61.9 10.648 60.98C10.648 60.0867 10.368 59.4133 9.80805 58.96C9.24805 58.4933 8.42138 58.26 7.32805 58.26H3.62805V63.74ZM19.3121 71.18C18.2854 71.18 17.3988 70.98 16.6521 70.58C15.9188 70.1667 15.3454 69.5867 14.9321 68.84C14.5321 68.0933 14.3321 67.2 14.3321 66.16C14.3321 65.1467 14.5321 64.2667 14.9321 63.52C15.3321 62.76 15.8788 62.1667 16.5721 61.74C17.2788 61.3133 18.0921 61.1 19.0121 61.1C19.6654 61.1 20.2521 61.2133 20.7721 61.44C21.2921 61.6533 21.7321 61.9667 22.0921 62.38C22.4654 62.7933 22.7454 63.2933 22.9321 63.88C23.1321 64.4667 23.2321 65.1267 23.2321 65.86C23.2321 66.0733 23.1721 66.2333 23.0521 66.34C22.9321 66.4333 22.7588 66.48 22.5321 66.48H15.5721V65.42H22.1521L21.8321 65.68C21.8321 64.96 21.7254 64.3533 21.5121 63.86C21.2988 63.3533 20.9854 62.9667 20.5721 62.7C20.1721 62.4333 19.6654 62.3 19.0521 62.3C18.3721 62.3 17.7921 62.46 17.3121 62.78C16.8454 63.0867 16.4921 63.52 16.2521 64.08C16.0121 64.6267 15.8921 65.2667 15.8921 66V66.12C15.8921 67.3467 16.1854 68.28 16.7721 68.92C17.3721 69.56 18.2188 69.88 19.3121 69.88C19.7654 69.88 20.2121 69.82 20.6521 69.7C21.1054 69.58 21.5454 69.38 21.9721 69.1C22.1588 68.98 22.3254 68.9267 22.4721 68.94C22.6321 68.94 22.7588 68.9867 22.8521 69.08C22.9454 69.16 23.0054 69.2667 23.0321 69.4C23.0721 69.52 23.0588 69.6533 22.9921 69.8C22.9388 69.9467 22.8254 70.0733 22.6521 70.18C22.2121 70.5 21.6921 70.7467 21.0921 70.92C20.4921 71.0933 19.8988 71.18 19.3121 71.18ZM28.5366 71.18C27.5766 71.18 26.8433 70.8867 26.3366 70.3C25.83 69.7133 25.5766 68.8733 25.5766 67.78V57.58C25.5766 57.3133 25.6433 57.1133 25.7766 56.98C25.91 56.8333 26.11 56.76 26.3766 56.76C26.63 56.76 26.83 56.8333 26.9766 56.98C27.1233 57.1133 27.1966 57.3133 27.1966 57.58V67.66C27.1966 68.38 27.3366 68.92 27.6166 69.28C27.91 69.6267 28.3366 69.8 28.8966 69.8C29.0166 69.8 29.1233 69.7933 29.2166 69.78C29.31 69.7667 29.4033 69.76 29.4966 69.76C29.6433 69.7467 29.7433 69.78 29.7966 69.86C29.8633 69.94 29.8966 70.1 29.8966 70.34C29.8966 70.58 29.8433 70.76 29.7366 70.88C29.63 71 29.4566 71.08 29.2166 71.12C29.11 71.1333 28.9966 71.1467 28.8766 71.16C28.7566 71.1733 28.6433 71.18 28.5366 71.18ZM34.5546 71.18C33.8879 71.18 33.2879 71.0533 32.7546 70.8C32.2346 70.5333 31.8213 70.1733 31.5146 69.72C31.2079 69.2667 31.0546 68.76 31.0546 68.2C31.0546 67.48 31.2346 66.9133 31.5946 66.5C31.9679 66.0867 32.5746 65.7933 33.4146 65.62C34.2679 65.4467 35.4279 65.36 36.8946 65.36H37.7946V66.42H36.9146C35.8346 66.42 34.9813 66.4733 34.3546 66.58C33.7413 66.6733 33.3079 66.84 33.0546 67.08C32.8146 67.32 32.6946 67.66 32.6946 68.1C32.6946 68.6467 32.8813 69.0933 33.2546 69.44C33.6413 69.7867 34.1613 69.96 34.8146 69.96C35.3479 69.96 35.8146 69.8333 36.2146 69.58C36.6279 69.3267 36.9479 68.98 37.1746 68.54C37.4146 68.1 37.5346 67.5933 37.5346 67.02V64.74C37.5346 63.9133 37.3679 63.32 37.0346 62.96C36.7013 62.5867 36.1546 62.4 35.3946 62.4C34.9279 62.4 34.4613 62.46 33.9946 62.58C33.5279 62.7 33.0346 62.8933 32.5146 63.16C32.3279 63.2533 32.1679 63.2867 32.0346 63.26C31.9013 63.22 31.7946 63.1467 31.7146 63.04C31.6346 62.9333 31.5879 62.8133 31.5746 62.68C31.5613 62.5333 31.5879 62.3933 31.6546 62.26C31.7346 62.1267 31.8546 62.02 32.0146 61.94C32.6013 61.6467 33.1813 61.4333 33.7546 61.3C34.3279 61.1667 34.8746 61.1 35.3946 61.1C36.2346 61.1 36.9279 61.24 37.4746 61.52C38.0213 61.7867 38.4279 62.2 38.6946 62.76C38.9613 63.3067 39.0946 64.0133 39.0946 64.88V70.3C39.0946 70.5667 39.0279 70.7733 38.8946 70.92C38.7746 71.0667 38.5946 71.14 38.3546 71.14C38.1013 71.14 37.9079 71.0667 37.7746 70.92C37.6413 70.7733 37.5746 70.5667 37.5746 70.3V68.74H37.7546C37.6479 69.2467 37.4413 69.68 37.1346 70.04C36.8413 70.4 36.4746 70.68 36.0346 70.88C35.5946 71.08 35.1013 71.18 34.5546 71.18ZM46.0001 71.18C45.2401 71.18 44.6001 71.0467 44.0801 70.78C43.5734 70.5 43.1934 70.1 42.9401 69.58C42.6867 69.0467 42.5601 68.4 42.5601 67.64V62.54H41.2201C40.9934 62.54 40.8201 62.4867 40.7001 62.38C40.5801 62.26 40.5201 62.1 40.5201 61.9C40.5201 61.7 40.5801 61.5467 40.7001 61.44C40.8201 61.3333 40.9934 61.28 41.2201 61.28H42.5601V58.98C42.5601 58.7133 42.6334 58.5133 42.7801 58.38C42.9267 58.2333 43.1267 58.16 43.3801 58.16C43.6334 58.16 43.8267 58.2333 43.9601 58.38C44.1067 58.5133 44.1801 58.7133 44.1801 58.98V61.28H46.7001C46.9267 61.28 47.1001 61.3333 47.2201 61.44C47.3401 61.5467 47.4001 61.7 47.4001 61.9C47.4001 62.1 47.3401 62.26 47.2201 62.38C47.1001 62.4867 46.9267 62.54 46.7001 62.54H44.1801V67.48C44.1801 68.24 44.3401 68.82 44.6601 69.22C44.9801 69.6067 45.5001 69.8 46.2201 69.8C46.4734 69.8 46.6867 69.7733 46.8601 69.72C47.0467 69.6667 47.2001 69.64 47.3201 69.64C47.4401 69.6267 47.5401 69.6667 47.6201 69.76C47.7001 69.8533 47.7401 70.0133 47.7401 70.24C47.7401 70.4 47.7067 70.5467 47.6401 70.68C47.5867 70.8133 47.4867 70.9067 47.3401 70.96C47.1801 71.0133 46.9667 71.06 46.7001 71.1C46.4467 71.1533 46.2134 71.18 46.0001 71.18ZM50.0095 71.1C49.7428 71.1 49.5428 71.0267 49.4095 70.88C49.2761 70.72 49.2095 70.5 49.2095 70.22V62.04C49.2095 61.76 49.2761 61.5467 49.4095 61.4C49.5428 61.2533 49.7428 61.18 50.0095 61.18C50.2628 61.18 50.4628 61.2533 50.6095 61.4C50.7561 61.5467 50.8295 61.76 50.8295 62.04V70.22C50.8295 70.5 50.7561 70.72 50.6095 70.88C50.4761 71.0267 50.2761 71.1 50.0095 71.1ZM50.0095 58.94C49.6761 58.94 49.4161 58.8533 49.2295 58.68C49.0428 58.4933 48.9495 58.2467 48.9495 57.94C48.9495 57.62 49.0428 57.38 49.2295 57.22C49.4161 57.0467 49.6761 56.96 50.0095 56.96C50.3561 56.96 50.6161 57.0467 50.7895 57.22C50.9761 57.38 51.0695 57.62 51.0695 57.94C51.0695 58.2467 50.9761 58.4933 50.7895 58.68C50.6161 58.8533 50.3561 58.94 50.0095 58.94ZM57.8979 71.18C56.9512 71.18 56.1312 70.9733 55.4379 70.56C54.7446 70.1467 54.2046 69.5667 53.8179 68.82C53.4446 68.06 53.2579 67.1667 53.2579 66.14C53.2579 65.3667 53.3646 64.6733 53.5779 64.06C53.7912 63.4333 54.1046 62.9 54.5179 62.46C54.9312 62.02 55.4179 61.6867 55.9779 61.46C56.5512 61.22 57.1912 61.1 57.8979 61.1C58.8446 61.1 59.6646 61.3067 60.3579 61.72C61.0512 62.1333 61.5846 62.72 61.9579 63.48C62.3446 64.2267 62.5379 65.1133 62.5379 66.14C62.5379 66.9133 62.4312 67.6067 62.2179 68.22C62.0046 68.8333 61.6912 69.3667 61.2779 69.82C60.8646 70.26 60.3712 70.6 59.7979 70.84C59.2379 71.0667 58.6046 71.18 57.8979 71.18ZM57.8979 69.88C58.4979 69.88 59.0246 69.7333 59.4779 69.44C59.9312 69.1467 60.2779 68.72 60.5179 68.16C60.7712 67.6 60.8979 66.9267 60.8979 66.14C60.8979 64.9267 60.6246 64 60.0779 63.36C59.5446 62.72 58.8179 62.4 57.8979 62.4C57.2846 62.4 56.7512 62.5467 56.2979 62.84C55.8579 63.12 55.5112 63.54 55.2579 64.1C55.0179 64.6467 54.8979 65.3267 54.8979 66.14C54.8979 67.34 55.1712 68.2667 55.7179 68.92C56.2646 69.56 56.9912 69.88 57.8979 69.88ZM65.7712 71.14C65.5045 71.14 65.3045 71.0667 65.1712 70.92C65.0378 70.7733 64.9712 70.5667 64.9712 70.3V61.96C64.9712 61.6933 65.0378 61.4933 65.1712 61.36C65.3045 61.2133 65.4978 61.14 65.7512 61.14C66.0045 61.14 66.1978 61.2133 66.3312 61.36C66.4778 61.4933 66.5512 61.6933 66.5512 61.96V63.68L66.3312 63.44C66.6112 62.6667 67.0645 62.0867 67.6912 61.7C68.3312 61.3 69.0645 61.1 69.8912 61.1C70.6645 61.1 71.3045 61.24 71.8112 61.52C72.3312 61.8 72.7178 62.2267 72.9712 62.8C73.2245 63.36 73.3512 64.0733 73.3512 64.94V70.3C73.3512 70.5667 73.2778 70.7733 73.1312 70.92C72.9978 71.0667 72.8045 71.14 72.5512 71.14C72.2845 71.14 72.0778 71.0667 71.9312 70.92C71.7978 70.7733 71.7312 70.5667 71.7312 70.3V65.04C71.7312 64.1333 71.5512 63.4733 71.1912 63.06C70.8445 62.6333 70.2845 62.42 69.5112 62.42C68.6178 62.42 67.9045 62.7 67.3712 63.26C66.8512 63.8067 66.5912 64.54 66.5912 65.46V70.3C66.5912 70.86 66.3178 71.14 65.7712 71.14ZM79.6184 71.18C79.0184 71.18 78.4117 71.1067 77.7984 70.96C77.1984 70.8133 76.6384 70.56 76.1184 70.2C75.985 70.1067 75.8917 70 75.8384 69.88C75.785 69.7467 75.765 69.62 75.7784 69.5C75.805 69.3667 75.8584 69.2533 75.9384 69.16C76.0317 69.0667 76.1384 69.0133 76.2584 69C76.3917 68.9733 76.5384 69 76.6984 69.08C77.2184 69.4 77.7184 69.6267 78.1984 69.76C78.6917 69.88 79.1784 69.94 79.6584 69.94C80.4184 69.94 80.9917 69.8 81.3784 69.52C81.765 69.24 81.9584 68.86 81.9584 68.38C81.9584 68.0067 81.8317 67.7133 81.5784 67.5C81.325 67.2733 80.925 67.1 80.3784 66.98L78.5584 66.58C77.7184 66.4067 77.0917 66.1067 76.6784 65.68C76.2784 65.2533 76.0784 64.7 76.0784 64.02C76.0784 63.42 76.2317 62.9067 76.5384 62.48C76.8584 62.04 77.305 61.7 77.8784 61.46C78.4517 61.22 79.1184 61.1 79.8784 61.1C80.465 61.1 81.0184 61.18 81.5384 61.34C82.0717 61.4867 82.5517 61.7267 82.9784 62.06C83.1117 62.1533 83.1984 62.2667 83.2384 62.4C83.2917 62.52 83.2984 62.6467 83.2584 62.78C83.2317 62.9 83.1717 63.0067 83.0784 63.1C82.985 63.18 82.8717 63.2267 82.7384 63.24C82.605 63.2533 82.465 63.2133 82.3184 63.12C81.9184 62.8533 81.5117 62.66 81.0984 62.54C80.685 62.4067 80.2784 62.34 79.8784 62.34C79.1317 62.34 78.565 62.4867 78.1784 62.78C77.7917 63.0733 77.5984 63.46 77.5984 63.94C77.5984 64.3133 77.7184 64.62 77.9584 64.86C78.1984 65.1 78.5717 65.2733 79.0784 65.38L80.8984 65.76C81.765 65.9467 82.4117 66.2467 82.8384 66.66C83.2784 67.06 83.4984 67.6067 83.4984 68.3C83.4984 69.18 83.145 69.88 82.4384 70.4C81.7317 70.92 80.7917 71.18 79.6184 71.18ZM86.7673 71.14C86.5006 71.14 86.3006 71.0667 86.1673 70.92C86.0339 70.7733 85.9673 70.5667 85.9673 70.3V57.58C85.9673 57.3133 86.0339 57.1133 86.1673 56.98C86.3006 56.8333 86.5006 56.76 86.7673 56.76C87.0206 56.76 87.2206 56.8333 87.3673 56.98C87.5139 57.1133 87.5873 57.3133 87.5873 57.58V63.44H87.3273C87.6073 62.6667 88.0606 62.0867 88.6873 61.7C89.3273 61.3 90.0606 61.1 90.8873 61.1C91.6606 61.1 92.3006 61.24 92.8073 61.52C93.3273 61.8 93.7139 62.2267 93.9673 62.8C94.2206 63.36 94.3473 64.0733 94.3473 64.94V70.3C94.3473 70.5667 94.2739 70.7733 94.1273 70.92C93.9939 71.0667 93.8006 71.14 93.5473 71.14C93.2806 71.14 93.0739 71.0667 92.9273 70.92C92.7939 70.7733 92.7273 70.5667 92.7273 70.3V65.04C92.7273 64.1333 92.5473 63.4733 92.1873 63.06C91.8406 62.6333 91.2806 62.42 90.5073 62.42C89.6139 62.42 88.9006 62.7 88.3673 63.26C87.8473 63.8067 87.5873 64.54 87.5873 65.46V70.3C87.5873 70.86 87.3139 71.14 86.7673 71.14ZM98.1345 71.1C97.8678 71.1 97.6678 71.0267 97.5345 70.88C97.4011 70.72 97.3345 70.5 97.3345 70.22V62.04C97.3345 61.76 97.4011 61.5467 97.5345 61.4C97.6678 61.2533 97.8678 61.18 98.1345 61.18C98.3878 61.18 98.5878 61.2533 98.7345 61.4C98.8811 61.5467 98.9545 61.76 98.9545 62.04V70.22C98.9545 70.5 98.8811 70.72 98.7345 70.88C98.6011 71.0267 98.4011 71.1 98.1345 71.1ZM98.1345 58.94C97.8011 58.94 97.5411 58.8533 97.3545 58.68C97.1678 58.4933 97.0745 58.2467 97.0745 57.94C97.0745 57.62 97.1678 57.38 97.3545 57.22C97.5411 57.0467 97.8011 56.96 98.1345 56.96C98.4811 56.96 98.7411 57.0467 98.9145 57.22C99.1011 57.38 99.1945 57.62 99.1945 57.94C99.1945 58.2467 99.1011 58.4933 98.9145 58.68C98.7411 58.8533 98.4811 58.94 98.1345 58.94ZM102.783 74.74C102.516 74.74 102.316 74.6667 102.183 74.52C102.05 74.3867 101.983 74.1867 101.983 73.92V61.96C101.983 61.6933 102.05 61.4933 102.183 61.36C102.316 61.2133 102.51 61.14 102.763 61.14C103.03 61.14 103.23 61.2133 103.363 61.36C103.51 61.4933 103.583 61.6933 103.583 61.96V63.86L103.363 63.58C103.576 62.82 103.996 62.22 104.623 61.78C105.263 61.3267 106.023 61.1 106.903 61.1C107.77 61.1 108.523 61.3067 109.163 61.72C109.816 62.12 110.316 62.7 110.663 63.46C111.023 64.2067 111.203 65.1 111.203 66.14C111.203 67.1667 111.023 68.06 110.663 68.82C110.316 69.5667 109.823 70.1467 109.183 70.56C108.543 70.9733 107.783 71.18 106.903 71.18C106.023 71.18 105.27 70.96 104.643 70.52C104.016 70.0667 103.59 69.4667 103.363 68.72H103.603V73.92C103.603 74.1867 103.53 74.3867 103.383 74.52C103.236 74.6667 103.036 74.74 102.783 74.74ZM106.563 69.88C107.176 69.88 107.703 69.7333 108.143 69.44C108.596 69.1467 108.943 68.72 109.183 68.16C109.436 67.6 109.563 66.9267 109.563 66.14C109.563 64.9267 109.29 64 108.743 63.36C108.21 62.72 107.483 62.4 106.563 62.4C105.963 62.4 105.436 62.5467 104.983 62.84C104.53 63.12 104.176 63.54 103.923 64.1C103.683 64.6467 103.563 65.3267 103.563 66.14C103.563 67.34 103.836 68.2667 104.383 68.92C104.93 69.56 105.656 69.88 106.563 69.88ZM116.923 71.18C116.323 71.18 115.716 71.1067 115.103 70.96C114.503 70.8133 113.943 70.56 113.423 70.2C113.29 70.1067 113.196 70 113.143 69.88C113.09 69.7467 113.07 69.62 113.083 69.5C113.11 69.3667 113.163 69.2533 113.243 69.16C113.336 69.0667 113.443 69.0133 113.563 69C113.696 68.9733 113.843 69 114.003 69.08C114.523 69.4 115.023 69.6267 115.503 69.76C115.996 69.88 116.483 69.94 116.963 69.94C117.723 69.94 118.296 69.8 118.683 69.52C119.07 69.24 119.263 68.86 119.263 68.38C119.263 68.0067 119.136 67.7133 118.883 67.5C118.63 67.2733 118.23 67.1 117.683 66.98L115.863 66.58C115.023 66.4067 114.396 66.1067 113.983 65.68C113.583 65.2533 113.383 64.7 113.383 64.02C113.383 63.42 113.536 62.9067 113.843 62.48C114.163 62.04 114.61 61.7 115.183 61.46C115.756 61.22 116.423 61.1 117.183 61.1C117.77 61.1 118.323 61.18 118.843 61.34C119.376 61.4867 119.856 61.7267 120.283 62.06C120.416 62.1533 120.503 62.2667 120.543 62.4C120.596 62.52 120.603 62.6467 120.563 62.78C120.536 62.9 120.476 63.0067 120.383 63.1C120.29 63.18 120.176 63.2267 120.043 63.24C119.91 63.2533 119.77 63.2133 119.623 63.12C119.223 62.8533 118.816 62.66 118.403 62.54C117.99 62.4067 117.583 62.34 117.183 62.34C116.436 62.34 115.87 62.4867 115.483 62.78C115.096 63.0733 114.903 63.46 114.903 63.94C114.903 64.3133 115.023 64.62 115.263 64.86C115.503 65.1 115.876 65.2733 116.383 65.38L118.203 65.76C119.07 65.9467 119.716 66.2467 120.143 66.66C120.583 67.06 120.803 67.6067 120.803 68.3C120.803 69.18 120.45 69.88 119.743 70.4C119.036 70.92 118.096 71.18 116.923 71.18Z" fill="black"/>
<mask id="mask0_924_5584" style="mask-type:alpha" maskUnits="userSpaceOnUse" x="36" y="0" width="50" height="50">
<rect x="36" width="50" height="50" fill="#D9D9D9"/>
</mask>
<g mask="url(#mask0_924_5584)">
<path d="M38.0833 41.6666V35.8333C38.0833 34.6527 38.3871 33.5676 38.9947 32.578C39.6023 31.5885 40.4096 30.8333 41.4166 30.3124C43.5694 29.236 45.7569 28.4287 47.9791 27.8905C50.2013 27.3524 52.4583 27.0833 54.7499 27.0833C57.0416 27.0833 59.2985 27.3524 61.5208 27.8905C63.743 28.4287 65.9305 29.236 68.0833 30.3124C69.0902 30.8333 69.8975 31.5885 70.5051 32.578C71.1128 33.5676 71.4166 34.6527 71.4166 35.8333V41.6666H38.0833ZM75.5833 41.6666V35.4166C75.5833 33.8888 75.1579 32.4218 74.3072 31.0155C73.4565 29.6093 72.2499 28.4027 70.6874 27.3958C72.4583 27.6041 74.1249 27.96 75.6874 28.4635C77.2499 28.9669 78.7082 29.5833 80.0624 30.3124C81.3124 31.0069 82.2673 31.7794 82.927 32.6301C83.5867 33.4808 83.9166 34.4096 83.9166 35.4166V41.6666H75.5833ZM54.7499 24.9999C52.4583 24.9999 50.4964 24.1839 48.8645 22.552C47.2326 20.9201 46.4166 18.9583 46.4166 16.6666C46.4166 14.3749 47.2326 12.4131 48.8645 10.7812C50.4964 9.14922 52.4583 8.33325 54.7499 8.33325C57.0416 8.33325 59.0034 9.14922 60.6353 10.7812C62.2673 12.4131 63.0833 14.3749 63.0833 16.6666C63.0833 18.9583 62.2673 20.9201 60.6353 22.552C59.0034 24.1839 57.0416 24.9999 54.7499 24.9999ZM75.5833 16.6666C75.5833 18.9583 74.7673 20.9201 73.1353 22.552C71.5034 24.1839 69.5416 24.9999 67.2499 24.9999C66.868 24.9999 66.3819 24.9565 65.7916 24.8697C65.2013 24.7829 64.7152 24.6874 64.3333 24.5833C65.2708 23.4721 65.9912 22.2395 66.4947 20.8853C66.9982 19.5312 67.2499 18.1249 67.2499 16.6666C67.2499 15.2083 66.9982 13.802 66.4947 12.4478C65.9912 11.0937 65.2708 9.86103 64.3333 8.74992C64.8194 8.57631 65.3055 8.46346 65.7916 8.41138C66.2777 8.35929 66.7638 8.33325 67.2499 8.33325C69.5416 8.33325 71.5034 9.14922 73.1353 10.7812C74.7673 12.4131 75.5833 14.3749 75.5833 16.6666ZM42.2499 37.4999H67.2499V35.8333C67.2499 35.4513 67.1544 35.1041 66.9635 34.7916C66.7725 34.4791 66.5208 34.236 66.2083 34.0624C64.3333 33.1249 62.4409 32.4218 60.5312 31.953C58.6214 31.4843 56.6944 31.2499 54.7499 31.2499C52.8055 31.2499 50.8784 31.4843 48.9687 31.953C47.0589 32.4218 45.1666 33.1249 43.2916 34.0624C42.9791 34.236 42.7273 34.4791 42.5364 34.7916C42.3454 35.1041 42.2499 35.4513 42.2499 35.8333V37.4999ZM54.7499 20.8333C55.8958 20.8333 56.8767 20.4253 57.6926 19.6093C58.5086 18.7933 58.9166 17.8124 58.9166 16.6666C58.9166 15.5208 58.5086 14.5398 57.6926 13.7239C56.8767 12.9079 55.8958 12.4999 54.7499 12.4999C53.6041 12.4999 52.6232 12.9079 51.8072 13.7239C50.9912 14.5398 50.5833 15.5208 50.5833 16.6666C50.5833 17.8124 50.9912 18.7933 51.8072 19.6093C52.6232 20.4253 53.6041 20.8333 54.7499 20.8333Z" fill="#1C1B1F"/>
</g>
</svg>
