<svg width="98" height="75" viewBox="0 0 98 75" fill="none" xmlns="http://www.w3.org/2000/svg">
<path d="M2.44644 69.112C2.2331 69.112 2.06777 69.0533 1.95044 68.936C1.84377 68.808 1.79044 68.6373 1.79044 68.424V58.392C1.79044 58.168 1.8491 58.0027 1.96644 57.896C2.08377 57.7787 2.2491 57.72 2.46244 57.72H6.25444C7.45977 57.72 8.38777 58.0027 9.03844 58.568C9.6891 59.1333 10.0144 59.9387 10.0144 60.984C10.0144 61.6453 9.8651 62.2213 9.56644 62.712C9.27844 63.192 8.85177 63.56 8.28644 63.816C7.7211 64.0613 7.04377 64.184 6.25444 64.184L6.41444 63.976H6.73444C7.15044 63.976 7.5131 64.0827 7.82244 64.296C8.13177 64.5093 8.41444 64.8507 8.67044 65.32L10.2064 68.184C10.2918 68.3333 10.3291 68.4827 10.3184 68.632C10.3184 68.7707 10.2704 68.888 10.1744 68.984C10.0784 69.0693 9.93977 69.112 9.75844 69.112C9.5771 69.112 9.42777 69.0693 9.31044 68.984C9.1931 68.8987 9.09177 68.776 9.00644 68.616L7.26244 65.384C7.0171 64.9253 6.73444 64.6213 6.41444 64.472C6.09444 64.312 5.6731 64.232 5.15044 64.232H3.10244V68.424C3.10244 68.6373 3.0491 68.808 2.94244 68.936C2.83577 69.0533 2.67044 69.112 2.44644 69.112ZM3.10244 63.192H6.06244C6.9371 63.192 7.59844 63.0107 8.04644 62.648C8.49444 62.2747 8.71844 61.72 8.71844 60.984C8.71844 60.2693 8.49444 59.7307 8.04644 59.368C7.59844 58.9947 6.9371 58.808 6.06244 58.808H3.10244V63.192ZM15.6497 69.144C14.8284 69.144 14.119 68.984 13.5217 68.664C12.935 68.3333 12.4764 67.8693 12.1457 67.272C11.8257 66.6747 11.6657 65.96 11.6657 65.128C11.6657 64.3173 11.8257 63.6133 12.1457 63.016C12.4657 62.408 12.903 61.9333 13.4577 61.592C14.023 61.2507 14.6737 61.08 15.4097 61.08C15.9324 61.08 16.4017 61.1707 16.8177 61.352C17.2337 61.5227 17.5857 61.7733 17.8737 62.104C18.1724 62.4347 18.3964 62.8347 18.5457 63.304C18.7057 63.7733 18.7857 64.3013 18.7857 64.888C18.7857 65.0587 18.7377 65.1867 18.6417 65.272C18.5457 65.3467 18.407 65.384 18.2257 65.384H12.6577V64.536H17.9217L17.6657 64.744C17.6657 64.168 17.5804 63.6827 17.4097 63.288C17.239 62.8827 16.9884 62.5733 16.6577 62.36C16.3377 62.1467 15.9324 62.04 15.4417 62.04C14.8977 62.04 14.4337 62.168 14.0497 62.424C13.6764 62.6693 13.3937 63.016 13.2017 63.464C13.0097 63.9013 12.9137 64.4133 12.9137 65V65.096C12.9137 66.0773 13.1484 66.824 13.6177 67.336C14.0977 67.848 14.775 68.104 15.6497 68.104C16.0124 68.104 16.3697 68.056 16.7217 67.96C17.0844 67.864 17.4364 67.704 17.7777 67.48C17.927 67.384 18.0604 67.3413 18.1777 67.352C18.3057 67.352 18.407 67.3893 18.4817 67.464C18.5564 67.528 18.6044 67.6133 18.6257 67.72C18.6577 67.816 18.647 67.9227 18.5937 68.04C18.551 68.1573 18.4604 68.2587 18.3217 68.344C17.9697 68.6 17.5537 68.7973 17.0737 68.936C16.5937 69.0747 16.119 69.144 15.6497 69.144ZM23.0293 69.144C22.2613 69.144 21.6746 68.9093 21.2693 68.44C20.864 67.9707 20.6613 67.2987 20.6613 66.424V58.264C20.6613 58.0507 20.7146 57.8907 20.8213 57.784C20.928 57.6667 21.088 57.608 21.3013 57.608C21.504 57.608 21.664 57.6667 21.7813 57.784C21.8986 57.8907 21.9573 58.0507 21.9573 58.264V66.328C21.9573 66.904 22.0693 67.336 22.2933 67.624C22.528 67.9013 22.8693 68.04 23.3173 68.04C23.4133 68.04 23.4986 68.0347 23.5733 68.024C23.648 68.0133 23.7226 68.008 23.7973 68.008C23.9146 67.9973 23.9946 68.024 24.0373 68.088C24.0906 68.152 24.1173 68.28 24.1173 68.472C24.1173 68.664 24.0746 68.808 23.9893 68.904C23.904 69 23.7653 69.064 23.5733 69.096C23.488 69.1067 23.3973 69.1173 23.3013 69.128C23.2053 69.1387 23.1146 69.144 23.0293 69.144ZM27.8437 69.144C27.3104 69.144 26.8304 69.0427 26.4037 68.84C25.9877 68.6267 25.657 68.3387 25.4117 67.976C25.1664 67.6133 25.0437 67.208 25.0437 66.76C25.0437 66.184 25.1877 65.7307 25.4757 65.4C25.7744 65.0693 26.2597 64.8347 26.9317 64.696C27.6144 64.5573 28.5424 64.488 29.7157 64.488H30.4357V65.336H29.7317C28.8677 65.336 28.185 65.3787 27.6837 65.464C27.193 65.5387 26.8464 65.672 26.6437 65.864C26.4517 66.056 26.3557 66.328 26.3557 66.68C26.3557 67.1173 26.505 67.4747 26.8037 67.752C27.113 68.0293 27.529 68.168 28.0517 68.168C28.4784 68.168 28.8517 68.0667 29.1717 67.864C29.5024 67.6613 29.7584 67.384 29.9397 67.032C30.1317 66.68 30.2277 66.2747 30.2277 65.816V63.992C30.2277 63.3307 30.0944 62.856 29.8277 62.568C29.561 62.2693 29.1237 62.12 28.5157 62.12C28.1424 62.12 27.769 62.168 27.3957 62.264C27.0224 62.36 26.6277 62.5147 26.2117 62.728C26.0624 62.8027 25.9344 62.8293 25.8277 62.808C25.721 62.776 25.6357 62.7173 25.5717 62.632C25.5077 62.5467 25.4704 62.4507 25.4597 62.344C25.449 62.2267 25.4704 62.1147 25.5237 62.008C25.5877 61.9013 25.6837 61.816 25.8117 61.752C26.281 61.5173 26.745 61.3467 27.2037 61.24C27.6624 61.1333 28.0997 61.08 28.5157 61.08C29.1877 61.08 29.7424 61.192 30.1797 61.416C30.617 61.6293 30.9424 61.96 31.1557 62.408C31.369 62.8453 31.4757 63.4107 31.4757 64.104V68.44C31.4757 68.6533 31.4224 68.8187 31.3157 68.936C31.2197 69.0533 31.0757 69.112 30.8837 69.112C30.681 69.112 30.5264 69.0533 30.4197 68.936C30.313 68.8187 30.2597 68.6533 30.2597 68.44V67.192H30.4037C30.3184 67.5973 30.153 67.944 29.9077 68.232C29.673 68.52 29.3797 68.744 29.0277 68.904C28.6757 69.064 28.281 69.144 27.8437 69.144ZM37.0001 69.144C36.3921 69.144 35.8801 69.0373 35.4641 68.824C35.0587 68.6 34.7547 68.28 34.5521 67.864C34.3494 67.4373 34.2481 66.92 34.2481 66.312V62.232H33.1761C32.9947 62.232 32.8561 62.1893 32.7601 62.104C32.6641 62.008 32.6161 61.88 32.6161 61.72C32.6161 61.56 32.6641 61.4373 32.7601 61.352C32.8561 61.2667 32.9947 61.224 33.1761 61.224H34.2481V59.384C34.2481 59.1707 34.3067 59.0107 34.4241 58.904C34.5414 58.7867 34.7014 58.728 34.9041 58.728C35.1067 58.728 35.2614 58.7867 35.3681 58.904C35.4854 59.0107 35.5441 59.1707 35.5441 59.384V61.224H37.5601C37.7414 61.224 37.8801 61.2667 37.9761 61.352C38.0721 61.4373 38.1201 61.56 38.1201 61.72C38.1201 61.88 38.0721 62.008 37.9761 62.104C37.8801 62.1893 37.7414 62.232 37.5601 62.232H35.5441V66.184C35.5441 66.792 35.6721 67.256 35.9281 67.576C36.1841 67.8853 36.6001 68.04 37.1761 68.04C37.3787 68.04 37.5494 68.0187 37.6881 67.976C37.8374 67.9333 37.9601 67.912 38.0561 67.912C38.1521 67.9013 38.2321 67.9333 38.2961 68.008C38.3601 68.0827 38.3921 68.2107 38.3921 68.392C38.3921 68.52 38.3654 68.6373 38.3121 68.744C38.2694 68.8507 38.1894 68.9253 38.0721 68.968C37.9441 69.0107 37.7734 69.048 37.5601 69.08C37.3574 69.1227 37.1707 69.144 37.0001 69.144ZM40.2076 69.08C39.9942 69.08 39.8342 69.0213 39.7276 68.904C39.6209 68.776 39.5676 68.6 39.5676 68.376V61.832C39.5676 61.608 39.6209 61.4373 39.7276 61.32C39.8342 61.2027 39.9942 61.144 40.2076 61.144C40.4102 61.144 40.5702 61.2027 40.6876 61.32C40.8049 61.4373 40.8636 61.608 40.8636 61.832V68.376C40.8636 68.6 40.8049 68.776 40.6876 68.904C40.5809 69.0213 40.4209 69.08 40.2076 69.08ZM40.2076 59.352C39.9409 59.352 39.7329 59.2827 39.5836 59.144C39.4342 58.9947 39.3596 58.7973 39.3596 58.552C39.3596 58.296 39.4342 58.104 39.5836 57.976C39.7329 57.8373 39.9409 57.768 40.2076 57.768C40.4849 57.768 40.6929 57.8373 40.8316 57.976C40.9809 58.104 41.0556 58.296 41.0556 58.552C41.0556 58.7973 40.9809 58.9947 40.8316 59.144C40.6929 59.2827 40.4849 59.352 40.2076 59.352ZM46.5183 69.144C45.761 69.144 45.105 68.9787 44.5503 68.648C43.9956 68.3173 43.5636 67.8533 43.2543 67.256C42.9556 66.648 42.8063 65.9333 42.8063 65.112C42.8063 64.4933 42.8916 63.9387 43.0623 63.448C43.233 62.9467 43.4836 62.52 43.8143 62.168C44.145 61.816 44.5343 61.5493 44.9823 61.368C45.441 61.176 45.953 61.08 46.5183 61.08C47.2756 61.08 47.9316 61.2453 48.4863 61.576C49.041 61.9067 49.4676 62.376 49.7663 62.984C50.0756 63.5813 50.2303 64.2907 50.2303 65.112C50.2303 65.7307 50.145 66.2853 49.9743 66.776C49.8036 67.2667 49.553 67.6933 49.2223 68.056C48.8916 68.408 48.497 68.68 48.0383 68.872C47.5903 69.0533 47.0836 69.144 46.5183 69.144ZM46.5183 68.104C46.9983 68.104 47.4196 67.9867 47.7823 67.752C48.145 67.5173 48.4223 67.176 48.6143 66.728C48.817 66.28 48.9183 65.7413 48.9183 65.112C48.9183 64.1413 48.6996 63.4 48.2623 62.888C47.8356 62.376 47.2543 62.12 46.5183 62.12C46.0276 62.12 45.601 62.2373 45.2383 62.472C44.8863 62.696 44.609 63.032 44.4063 63.48C44.2143 63.9173 44.1183 64.4613 44.1183 65.112C44.1183 66.072 44.337 66.8133 44.7743 67.336C45.2116 67.848 45.793 68.104 46.5183 68.104ZM52.8169 69.112C52.6036 69.112 52.4436 69.0533 52.3369 68.936C52.2303 68.8187 52.1769 68.6533 52.1769 68.44V61.768C52.1769 61.5547 52.2303 61.3947 52.3369 61.288C52.4436 61.1707 52.5983 61.112 52.8009 61.112C53.0036 61.112 53.1583 61.1707 53.2649 61.288C53.3823 61.3947 53.4409 61.5547 53.4409 61.768V63.144L53.2649 62.952C53.4889 62.3333 53.8516 61.8693 54.3529 61.56C54.8649 61.24 55.4516 61.08 56.1129 61.08C56.7316 61.08 57.2436 61.192 57.6489 61.416C58.0649 61.64 58.3743 61.9813 58.5769 62.44C58.7796 62.888 58.8809 63.4587 58.8809 64.152V68.44C58.8809 68.6533 58.8223 68.8187 58.7049 68.936C58.5983 69.0533 58.4436 69.112 58.2409 69.112C58.0276 69.112 57.8623 69.0533 57.7449 68.936C57.6383 68.8187 57.5849 68.6533 57.5849 68.44V64.232C57.5849 63.5067 57.4409 62.9787 57.1529 62.648C56.8756 62.3067 56.4276 62.136 55.8089 62.136C55.0943 62.136 54.5236 62.36 54.0969 62.808C53.6809 63.2453 53.4729 63.832 53.4729 64.568V68.44C53.4729 68.888 53.2543 69.112 52.8169 69.112ZM63.8947 69.144C63.4147 69.144 62.9294 69.0853 62.4387 68.968C61.9587 68.8507 61.5107 68.648 61.0947 68.36C60.988 68.2853 60.9134 68.2 60.8707 68.104C60.828 67.9973 60.812 67.896 60.8227 67.8C60.844 67.6933 60.8867 67.6027 60.9507 67.528C61.0254 67.4533 61.1107 67.4107 61.2067 67.4C61.3134 67.3787 61.4307 67.4 61.5587 67.464C61.9747 67.72 62.3747 67.9013 62.7587 68.008C63.1534 68.104 63.5427 68.152 63.9267 68.152C64.5347 68.152 64.9934 68.04 65.3027 67.816C65.612 67.592 65.7667 67.288 65.7667 66.904C65.7667 66.6053 65.6654 66.3707 65.4627 66.2C65.26 66.0187 64.94 65.88 64.5027 65.784L63.0467 65.464C62.3747 65.3253 61.8734 65.0853 61.5427 64.744C61.2227 64.4027 61.0627 63.96 61.0627 63.416C61.0627 62.936 61.1854 62.5253 61.4307 62.184C61.6867 61.832 62.044 61.56 62.5027 61.368C62.9614 61.176 63.4947 61.08 64.1027 61.08C64.572 61.08 65.0147 61.144 65.4307 61.272C65.8574 61.3893 66.2414 61.5813 66.5827 61.848C66.6894 61.9227 66.7587 62.0133 66.7907 62.12C66.8334 62.216 66.8387 62.3173 66.8067 62.424C66.7854 62.52 66.7374 62.6053 66.6627 62.68C66.588 62.744 66.4974 62.7813 66.3907 62.792C66.284 62.8027 66.172 62.7707 66.0547 62.696C65.7347 62.4827 65.4094 62.328 65.0787 62.232C64.748 62.1253 64.4227 62.072 64.1027 62.072C63.5054 62.072 63.052 62.1893 62.7427 62.424C62.4334 62.6587 62.2787 62.968 62.2787 63.352C62.2787 63.6507 62.3747 63.896 62.5667 64.088C62.7587 64.28 63.0574 64.4187 63.4627 64.504L64.9187 64.808C65.612 64.9573 66.1294 65.1973 66.4707 65.528C66.8227 65.848 66.9987 66.2853 66.9987 66.84C66.9987 67.544 66.716 68.104 66.1507 68.52C65.5854 68.936 64.8334 69.144 63.8947 69.144ZM69.6138 69.112C69.4005 69.112 69.2405 69.0533 69.1338 68.936C69.0271 68.8187 68.9738 68.6533 68.9738 68.44V58.264C68.9738 58.0507 69.0271 57.8907 69.1338 57.784C69.2405 57.6667 69.4005 57.608 69.6138 57.608C69.8165 57.608 69.9765 57.6667 70.0938 57.784C70.2111 57.8907 70.2698 58.0507 70.2698 58.264V62.952H70.0618C70.2858 62.3333 70.6485 61.8693 71.1498 61.56C71.6618 61.24 72.2485 61.08 72.9098 61.08C73.5285 61.08 74.0405 61.192 74.4458 61.416C74.8618 61.64 75.1711 61.9813 75.3738 62.44C75.5765 62.888 75.6778 63.4587 75.6778 64.152V68.44C75.6778 68.6533 75.6191 68.8187 75.5018 68.936C75.3951 69.0533 75.2405 69.112 75.0378 69.112C74.8245 69.112 74.6591 69.0533 74.5418 68.936C74.4351 68.8187 74.3818 68.6533 74.3818 68.44V64.232C74.3818 63.5067 74.2378 62.9787 73.9498 62.648C73.6725 62.3067 73.2245 62.136 72.6058 62.136C71.8911 62.136 71.3205 62.36 70.8938 62.808C70.4778 63.2453 70.2698 63.832 70.2698 64.568V68.44C70.2698 68.888 70.0511 69.112 69.6138 69.112ZM78.7076 69.08C78.4942 69.08 78.3342 69.0213 78.2276 68.904C78.1209 68.776 78.0676 68.6 78.0676 68.376V61.832C78.0676 61.608 78.1209 61.4373 78.2276 61.32C78.3342 61.2027 78.4942 61.144 78.7076 61.144C78.9102 61.144 79.0702 61.2027 79.1876 61.32C79.3049 61.4373 79.3636 61.608 79.3636 61.832V68.376C79.3636 68.6 79.3049 68.776 79.1876 68.904C79.0809 69.0213 78.9209 69.08 78.7076 69.08ZM78.7076 59.352C78.4409 59.352 78.2329 59.2827 78.0836 59.144C77.9342 58.9947 77.8596 58.7973 77.8596 58.552C77.8596 58.296 77.9342 58.104 78.0836 57.976C78.2329 57.8373 78.4409 57.768 78.7076 57.768C78.9849 57.768 79.1929 57.8373 79.3316 57.976C79.4809 58.104 79.5556 58.296 79.5556 58.552C79.5556 58.7973 79.4809 58.9947 79.3316 59.144C79.1929 59.2827 78.9849 59.352 78.7076 59.352ZM82.4263 71.992C82.213 71.992 82.053 71.9333 81.9463 71.816C81.8396 71.7093 81.7863 71.5493 81.7863 71.336V61.768C81.7863 61.5547 81.8396 61.3947 81.9463 61.288C82.053 61.1707 82.2076 61.112 82.4103 61.112C82.6236 61.112 82.7836 61.1707 82.8903 61.288C83.0076 61.3947 83.0663 61.5547 83.0663 61.768V63.288L82.8903 63.064C83.061 62.456 83.397 61.976 83.8983 61.624C84.4103 61.2613 85.0183 61.08 85.7223 61.08C86.4156 61.08 87.0183 61.2453 87.5303 61.576C88.053 61.896 88.453 62.36 88.7303 62.968C89.0183 63.5653 89.1623 64.28 89.1623 65.112C89.1623 65.9333 89.0183 66.648 88.7303 67.256C88.453 67.8533 88.0583 68.3173 87.5463 68.648C87.0343 68.9787 86.4263 69.144 85.7223 69.144C85.0183 69.144 84.4156 68.968 83.9143 68.616C83.413 68.2533 83.0716 67.7733 82.8903 67.176H83.0823V71.336C83.0823 71.5493 83.0236 71.7093 82.9063 71.816C82.789 71.9333 82.629 71.992 82.4263 71.992ZM85.4503 68.104C85.941 68.104 86.3623 67.9867 86.7143 67.752C87.077 67.5173 87.3543 67.176 87.5463 66.728C87.749 66.28 87.8503 65.7413 87.8503 65.112C87.8503 64.1413 87.6316 63.4 87.1943 62.888C86.7676 62.376 86.1863 62.12 85.4503 62.12C84.9703 62.12 84.549 62.2373 84.1863 62.472C83.8236 62.696 83.541 63.032 83.3383 63.48C83.1463 63.9173 83.0503 64.4613 83.0503 65.112C83.0503 66.072 83.269 66.8133 83.7063 67.336C84.1436 67.848 84.725 68.104 85.4503 68.104ZM93.7384 69.144C93.2584 69.144 92.7731 69.0853 92.2824 68.968C91.8024 68.8507 91.3544 68.648 90.9384 68.36C90.8318 68.2853 90.7571 68.2 90.7144 68.104C90.6718 67.9973 90.6558 67.896 90.6664 67.8C90.6878 67.6933 90.7304 67.6027 90.7944 67.528C90.8691 67.4533 90.9544 67.4107 91.0504 67.4C91.1571 67.3787 91.2744 67.4 91.4024 67.464C91.8184 67.72 92.2184 67.9013 92.6024 68.008C92.9971 68.104 93.3864 68.152 93.7704 68.152C94.3784 68.152 94.8371 68.04 95.1464 67.816C95.4558 67.592 95.6104 67.288 95.6104 66.904C95.6104 66.6053 95.5091 66.3707 95.3064 66.2C95.1038 66.0187 94.7838 65.88 94.3464 65.784L92.8904 65.464C92.2184 65.3253 91.7171 65.0853 91.3864 64.744C91.0664 64.4027 90.9064 63.96 90.9064 63.416C90.9064 62.936 91.0291 62.5253 91.2744 62.184C91.5304 61.832 91.8878 61.56 92.3464 61.368C92.8051 61.176 93.3384 61.08 93.9464 61.08C94.4158 61.08 94.8584 61.144 95.2744 61.272C95.7011 61.3893 96.0851 61.5813 96.4264 61.848C96.5331 61.9227 96.6024 62.0133 96.6344 62.12C96.6771 62.216 96.6824 62.3173 96.6504 62.424C96.6291 62.52 96.5811 62.6053 96.5064 62.68C96.4318 62.744 96.3411 62.7813 96.2344 62.792C96.1278 62.8027 96.0158 62.7707 95.8984 62.696C95.5784 62.4827 95.2531 62.328 94.9224 62.232C94.5918 62.1253 94.2664 62.072 93.9464 62.072C93.3491 62.072 92.8958 62.1893 92.5864 62.424C92.2771 62.6587 92.1224 62.968 92.1224 63.352C92.1224 63.6507 92.2184 63.896 92.4104 64.088C92.6024 64.28 92.9011 64.4187 93.3064 64.504L94.7624 64.808C95.4558 64.9573 95.9731 65.1973 96.3144 65.528C96.6664 65.848 96.8424 66.2853 96.8424 66.84C96.8424 67.544 96.5598 68.104 95.9944 68.52C95.4291 68.936 94.6771 69.144 93.7384 69.144Z" fill="black"/>
<mask id="mask0_924_5584" style="mask-type:alpha" maskUnits="userSpaceOnUse" x="24" y="0" width="50" height="50">
<rect x="24" width="50" height="50" fill="#D9D9D9"/>
</mask>
<g mask="url(#mask0_924_5584)">
<path d="M26.0833 41.6666V35.8333C26.0833 34.6527 26.3871 33.5676 26.9947 32.578C27.6023 31.5885 28.4096 30.8333 29.4166 30.3124C31.5694 29.236 33.7569 28.4287 35.9791 27.8905C38.2013 27.3524 40.4583 27.0833 42.7499 27.0833C45.0416 27.0833 47.2985 27.3524 49.5208 27.8905C51.743 28.4287 53.9305 29.236 56.0833 30.3124C57.0902 30.8333 57.8975 31.5885 58.5051 32.578C59.1128 33.5676 59.4166 34.6527 59.4166 35.8333V41.6666H26.0833ZM63.5833 41.6666V35.4166C63.5833 33.8888 63.1579 32.4218 62.3072 31.0155C61.4565 29.6093 60.2499 28.4027 58.6874 27.3958C60.4583 27.6041 62.1249 27.96 63.6874 28.4635C65.2499 28.9669 66.7082 29.5833 68.0624 30.3124C69.3124 31.0069 70.2673 31.7794 70.927 32.6301C71.5867 33.4808 71.9166 34.4096 71.9166 35.4166V41.6666H63.5833ZM42.7499 24.9999C40.4583 24.9999 38.4964 24.1839 36.8645 22.552C35.2326 20.9201 34.4166 18.9583 34.4166 16.6666C34.4166 14.3749 35.2326 12.4131 36.8645 10.7812C38.4964 9.14922 40.4583 8.33325 42.7499 8.33325C45.0416 8.33325 47.0034 9.14922 48.6353 10.7812C50.2673 12.4131 51.0833 14.3749 51.0833 16.6666C51.0833 18.9583 50.2673 20.9201 48.6353 22.552C47.0034 24.1839 45.0416 24.9999 42.7499 24.9999ZM63.5833 16.6666C63.5833 18.9583 62.7673 20.9201 61.1353 22.552C59.5034 24.1839 57.5416 24.9999 55.2499 24.9999C54.868 24.9999 54.3819 24.9565 53.7916 24.8697C53.2013 24.7829 52.7152 24.6874 52.3333 24.5833C53.2708 23.4721 53.9912 22.2395 54.4947 20.8853C54.9982 19.5312 55.2499 18.1249 55.2499 16.6666C55.2499 15.2083 54.9982 13.802 54.4947 12.4478C53.9912 11.0937 53.2708 9.86103 52.3333 8.74992C52.8194 8.57631 53.3055 8.46346 53.7916 8.41138C54.2777 8.35929 54.7638 8.33325 55.2499 8.33325C57.5416 8.33325 59.5034 9.14922 61.1353 10.7812C62.7673 12.4131 63.5833 14.3749 63.5833 16.6666ZM30.2499 37.4999H55.2499V35.8333C55.2499 35.4513 55.1544 35.1041 54.9635 34.7916C54.7725 34.4791 54.5208 34.236 54.2083 34.0624C52.3333 33.1249 50.4409 32.4218 48.5312 31.953C46.6214 31.4843 44.6944 31.2499 42.7499 31.2499C40.8055 31.2499 38.8784 31.4843 36.9687 31.953C35.0589 32.4218 33.1666 33.1249 31.2916 34.0624C30.9791 34.236 30.7273 34.4791 30.5364 34.7916C30.3454 35.1041 30.2499 35.4513 30.2499 35.8333V37.4999ZM42.7499 20.8333C43.8958 20.8333 44.8767 20.4253 45.6926 19.6093C46.5086 18.7933 46.9166 17.8124 46.9166 16.6666C46.9166 15.5208 46.5086 14.5398 45.6926 13.7239C44.8767 12.9079 43.8958 12.4999 42.7499 12.4999C41.6041 12.4999 40.6232 12.9079 39.8072 13.7239C38.9912 14.5398 38.5833 15.5208 38.5833 16.6666C38.5833 17.8124 38.9912 18.7933 39.8072 19.6093C40.6232 20.4253 41.6041 20.8333 42.7499 20.8333Z" fill="#1C1B1F"/>
</g>
</svg>
