<svg width="50" height="75" viewBox="0 0 50 75" fill="none" xmlns="http://www.w3.org/2000/svg">
<path d="M6.11031 69.144C5.60898 69.144 5.11831 69.1013 4.63831 69.016C4.15831 68.9307 3.71031 68.808 3.29431 68.648C2.88898 68.488 2.52098 68.2853 2.19031 68.04C2.06231 67.944 1.97165 67.8373 1.91831 67.72C1.87565 67.592 1.86498 67.4693 1.88631 67.352C1.91831 67.224 1.97165 67.1173 2.04631 67.032C2.13165 66.9467 2.23298 66.8987 2.35031 66.888C2.46765 66.8773 2.59565 66.9147 2.73431 67C3.21431 67.3413 3.72631 67.592 4.27031 67.752C4.81431 67.9013 5.42765 67.976 6.11031 67.976C7.07031 67.976 7.77965 67.8 8.23831 67.448C8.70765 67.0853 8.94231 66.6107 8.94231 66.024C8.94231 65.544 8.77165 65.1707 8.43031 64.904C8.09965 64.6267 7.53965 64.408 6.75031 64.248L5.08631 63.912C4.08365 63.6987 3.33165 63.352 2.83031 62.872C2.33965 62.3813 2.09431 61.7307 2.09431 60.92C2.09431 60.4187 2.19565 59.9653 2.39831 59.56C2.60098 59.144 2.88365 58.792 3.24631 58.504C3.60898 58.2053 4.04098 57.976 4.54231 57.816C5.04365 57.656 5.59831 57.576 6.20631 57.576C6.87831 57.576 7.50231 57.672 8.07831 57.864C8.66498 58.0453 9.19298 58.3227 9.66231 58.696C9.77965 58.792 9.85965 58.904 9.90231 59.032C9.94498 59.1493 9.95031 59.2667 9.91831 59.384C9.88631 59.4907 9.82765 59.5813 9.74231 59.656C9.66765 59.7307 9.56631 59.7733 9.43831 59.784C9.32098 59.7947 9.18765 59.752 9.03831 59.656C8.61165 59.336 8.16898 59.1067 7.71031 58.968C7.25165 58.8187 6.74498 58.744 6.19031 58.744C5.62498 58.744 5.13431 58.8293 4.71831 59C4.31298 59.1707 3.99298 59.4213 3.75831 59.752C3.53431 60.072 3.42231 60.4453 3.42231 60.872C3.42231 61.384 3.57698 61.7893 3.88631 62.088C4.20631 62.3867 4.72365 62.6053 5.43831 62.744L7.10231 63.096C8.17965 63.32 8.97431 63.6613 9.48631 64.12C10.009 64.568 10.2703 65.1813 10.2703 65.96C10.2703 66.4293 10.1743 66.8613 9.98231 67.256C9.79031 67.6507 9.51298 67.992 9.15031 68.28C8.78765 68.5573 8.35031 68.7707 7.83831 68.92C7.32631 69.0693 6.75031 69.144 6.11031 69.144ZM15.4261 69.144C14.6474 69.144 13.9754 68.9733 13.4101 68.632C12.8447 68.2907 12.4074 67.816 12.0981 67.208C11.7994 66.5893 11.6501 65.8747 11.6501 65.064C11.6501 64.4453 11.7354 63.8907 11.9061 63.4C12.0767 62.9093 12.3274 62.4933 12.6581 62.152C12.9887 61.8 13.3834 61.5333 13.8421 61.352C14.3114 61.1707 14.8394 61.08 15.4261 61.08C15.8101 61.08 16.2101 61.1387 16.6261 61.256C17.0421 61.3733 17.4207 61.576 17.7621 61.864C17.8687 61.9387 17.9381 62.0293 17.9701 62.136C18.0021 62.2427 18.0021 62.3493 17.9701 62.456C17.9381 62.552 17.8847 62.6373 17.8101 62.712C17.7354 62.776 17.6394 62.8133 17.5221 62.824C17.4154 62.8347 17.3034 62.7973 17.1861 62.712C16.9087 62.4987 16.6261 62.3493 16.3381 62.264C16.0501 62.1787 15.7727 62.136 15.5061 62.136C15.0901 62.136 14.7274 62.2053 14.4181 62.344C14.1087 62.472 13.8474 62.6587 13.6341 62.904C13.4207 63.1493 13.2554 63.4533 13.1381 63.816C13.0314 64.1787 12.9781 64.6 12.9781 65.08C12.9781 66.008 13.1967 66.744 13.6341 67.288C14.0714 67.8213 14.6954 68.088 15.5061 68.088C15.7727 68.088 16.0447 68.0453 16.3221 67.96C16.6101 67.8747 16.8981 67.7253 17.1861 67.512C17.3034 67.4267 17.4154 67.3893 17.5221 67.4C17.6287 67.4107 17.7194 67.4533 17.7941 67.528C17.8687 67.592 17.9167 67.6773 17.9381 67.784C17.9701 67.8907 17.9701 67.9973 17.9381 68.104C17.9061 68.2 17.8367 68.2853 17.7301 68.36C17.3887 68.6373 17.0154 68.84 16.6101 68.968C16.2047 69.0853 15.8101 69.144 15.4261 69.144ZM20.1763 69.112C19.963 69.112 19.803 69.0533 19.6963 68.936C19.5896 68.8187 19.5363 68.6533 19.5363 68.44V58.264C19.5363 58.0507 19.5896 57.8907 19.6963 57.784C19.803 57.6667 19.963 57.608 20.1763 57.608C20.379 57.608 20.539 57.6667 20.6563 57.784C20.7736 57.8907 20.8323 58.0507 20.8323 58.264V62.952H20.6243C20.8483 62.3333 21.211 61.8693 21.7123 61.56C22.2243 61.24 22.811 61.08 23.4723 61.08C24.091 61.08 24.603 61.192 25.0083 61.416C25.4243 61.64 25.7336 61.9813 25.9363 62.44C26.139 62.888 26.2403 63.4587 26.2403 64.152V68.44C26.2403 68.6533 26.1816 68.8187 26.0643 68.936C25.9576 69.0533 25.803 69.112 25.6003 69.112C25.387 69.112 25.2216 69.0533 25.1043 68.936C24.9976 68.8187 24.9443 68.6533 24.9443 68.44V64.232C24.9443 63.5067 24.8003 62.9787 24.5123 62.648C24.235 62.3067 23.787 62.136 23.1683 62.136C22.4536 62.136 21.883 62.36 21.4563 62.808C21.0403 63.2453 20.8323 63.832 20.8323 64.568V68.44C20.8323 68.888 20.6136 69.112 20.1763 69.112ZM31.8621 69.144C31.1047 69.144 30.4487 68.9787 29.8941 68.648C29.3394 68.3173 28.9074 67.8533 28.5981 67.256C28.2994 66.648 28.1501 65.9333 28.1501 65.112C28.1501 64.4933 28.2354 63.9387 28.4061 63.448C28.5767 62.9467 28.8274 62.52 29.1581 62.168C29.4887 61.816 29.8781 61.5493 30.3261 61.368C30.7847 61.176 31.2967 61.08 31.8621 61.08C32.6194 61.08 33.2754 61.2453 33.8301 61.576C34.3847 61.9067 34.8114 62.376 35.1101 62.984C35.4194 63.5813 35.5741 64.2907 35.5741 65.112C35.5741 65.7307 35.4887 66.2853 35.3181 66.776C35.1474 67.2667 34.8967 67.6933 34.5661 68.056C34.2354 68.408 33.8407 68.68 33.3821 68.872C32.9341 69.0533 32.4274 69.144 31.8621 69.144ZM31.8621 68.104C32.3421 68.104 32.7634 67.9867 33.1261 67.752C33.4887 67.5173 33.7661 67.176 33.9581 66.728C34.1607 66.28 34.2621 65.7413 34.2621 65.112C34.2621 64.1413 34.0434 63.4 33.6061 62.888C33.1794 62.376 32.5981 62.12 31.8621 62.12C31.3714 62.12 30.9447 62.2373 30.5821 62.472C30.2301 62.696 29.9527 63.032 29.7501 63.48C29.5581 63.9173 29.4621 64.4613 29.4621 65.112C29.4621 66.072 29.6807 66.8133 30.1181 67.336C30.5554 67.848 31.1367 68.104 31.8621 68.104ZM40.7527 69.144C39.9954 69.144 39.3394 68.9787 38.7847 68.648C38.23 68.3173 37.798 67.8533 37.4887 67.256C37.19 66.648 37.0407 65.9333 37.0407 65.112C37.0407 64.4933 37.126 63.9387 37.2967 63.448C37.4674 62.9467 37.718 62.52 38.0487 62.168C38.3794 61.816 38.7687 61.5493 39.2167 61.368C39.6754 61.176 40.1874 61.08 40.7527 61.08C41.51 61.08 42.166 61.2453 42.7207 61.576C43.2754 61.9067 43.702 62.376 44.0007 62.984C44.31 63.5813 44.4647 64.2907 44.4647 65.112C44.4647 65.7307 44.3794 66.2853 44.2087 66.776C44.038 67.2667 43.7874 67.6933 43.4567 68.056C43.126 68.408 42.7314 68.68 42.2727 68.872C41.8247 69.0533 41.318 69.144 40.7527 69.144ZM40.7527 68.104C41.2327 68.104 41.654 67.9867 42.0167 67.752C42.3794 67.5173 42.6567 67.176 42.8487 66.728C43.0514 66.28 43.1527 65.7413 43.1527 65.112C43.1527 64.1413 42.934 63.4 42.4967 62.888C42.07 62.376 41.4887 62.12 40.7527 62.12C40.262 62.12 39.8354 62.2373 39.4727 62.472C39.1207 62.696 38.8434 63.032 38.6407 63.48C38.4487 63.9173 38.3527 64.4613 38.3527 65.112C38.3527 66.072 38.5714 66.8133 39.0087 67.336C39.446 67.848 40.0274 68.104 40.7527 68.104ZM48.7793 69.144C48.0113 69.144 47.4246 68.9093 47.0193 68.44C46.614 67.9707 46.4113 67.2987 46.4113 66.424V58.264C46.4113 58.0507 46.4646 57.8907 46.5713 57.784C46.678 57.6667 46.838 57.608 47.0513 57.608C47.254 57.608 47.414 57.6667 47.5313 57.784C47.6486 57.8907 47.7073 58.0507 47.7073 58.264V66.328C47.7073 66.904 47.8193 67.336 48.0433 67.624C48.278 67.9013 48.6193 68.04 49.0673 68.04C49.1633 68.04 49.2486 68.0347 49.3233 68.024C49.398 68.0133 49.4726 68.008 49.5473 68.008C49.6646 67.9973 49.7446 68.024 49.7873 68.088C49.8406 68.152 49.8673 68.28 49.8673 68.472C49.8673 68.664 49.8246 68.808 49.7393 68.904C49.654 69 49.5153 69.064 49.3233 69.096C49.238 69.1067 49.1473 69.1173 49.0513 69.128C48.9553 69.1387 48.8646 69.144 48.7793 69.144Z" fill="black"/>
<mask id="mask0_924_5585" style="mask-type:alpha" maskUnits="userSpaceOnUse" x="0" y="0" width="50" height="50">
<rect width="50" height="50" fill="#D9D9D9"/>
</mask>
<g mask="url(#mask0_924_5585)">
<path d="M24.9999 43.75L10.4166 35.8333V23.3333L2.08325 18.75L24.9999 6.25L47.9166 18.75V35.4167H43.7499V21.0417L39.5833 23.3333V35.8333L24.9999 43.75ZM24.9999 26.4583L39.2708 18.75L24.9999 11.0417L10.7291 18.75L24.9999 26.4583ZM24.9999 39.0104L35.4166 33.3854V25.5208L24.9999 31.25L14.5833 25.5208V33.3854L24.9999 39.0104Z" fill="#1C1B1F"/>
</g>
</svg>
