<svg width="62" height="78" viewBox="0 0 62 78" fill="none" xmlns="http://www.w3.org/2000/svg">
<path d="M6.76289 71.18C6.13622 71.18 5.52289 71.1267 4.92289 71.02C4.32289 70.9133 3.76289 70.76 3.24289 70.56C2.73622 70.36 2.27622 70.1067 1.86289 69.8C1.70289 69.68 1.58956 69.5467 1.52289 69.4C1.46956 69.24 1.45622 69.0867 1.48289 68.94C1.52289 68.78 1.58956 68.6467 1.68289 68.54C1.78956 68.4333 1.91622 68.3733 2.06289 68.36C2.20956 68.3467 2.36956 68.3933 2.54289 68.5C3.14289 68.9267 3.78289 69.24 4.46289 69.44C5.14289 69.6267 5.90956 69.72 6.76289 69.72C7.96289 69.72 8.84956 69.5 9.42289 69.06C10.0096 68.6067 10.3029 68.0133 10.3029 67.28C10.3029 66.68 10.0896 66.2133 9.66289 65.88C9.24956 65.5333 8.54956 65.26 7.56289 65.06L5.48289 64.64C4.22956 64.3733 3.28956 63.94 2.66289 63.34C2.04956 62.7267 1.74289 61.9133 1.74289 60.9C1.74289 60.2733 1.86956 59.7067 2.12289 59.2C2.37622 58.68 2.72956 58.24 3.18289 57.88C3.63622 57.5067 4.17622 57.22 4.80289 57.02C5.42956 56.82 6.12289 56.72 6.88289 56.72C7.72289 56.72 8.50289 56.84 9.22289 57.08C9.95622 57.3067 10.6162 57.6533 11.2029 58.12C11.3496 58.24 11.4496 58.38 11.5029 58.54C11.5562 58.6867 11.5629 58.8333 11.5229 58.98C11.4829 59.1133 11.4096 59.2267 11.3029 59.32C11.2096 59.4133 11.0829 59.4667 10.9229 59.48C10.7762 59.4933 10.6096 59.44 10.4229 59.32C9.88956 58.92 9.33622 58.6333 8.76289 58.46C8.18956 58.2733 7.55622 58.18 6.86289 58.18C6.15622 58.18 5.54289 58.2867 5.02289 58.5C4.51622 58.7133 4.11622 59.0267 3.82289 59.44C3.54289 59.84 3.40289 60.3067 3.40289 60.84C3.40289 61.48 3.59622 61.9867 3.98289 62.36C4.38289 62.7333 5.02956 63.0067 5.92289 63.18L8.00289 63.62C9.34956 63.9 10.3429 64.3267 10.9829 64.9C11.6362 65.46 11.9629 66.2267 11.9629 67.2C11.9629 67.7867 11.8429 68.3267 11.6029 68.82C11.3629 69.3133 11.0162 69.74 10.5629 70.1C10.1096 70.4467 9.56289 70.7133 8.92289 70.9C8.28289 71.0867 7.56289 71.18 6.76289 71.18ZM18.4076 71.18C17.4342 71.18 16.5942 70.9667 15.8876 70.54C15.1809 70.1133 14.6342 69.52 14.2476 68.76C13.8742 67.9867 13.6876 67.0933 13.6876 66.08C13.6876 65.3067 13.7942 64.6133 14.0076 64C14.2209 63.3867 14.5342 62.8667 14.9476 62.44C15.3609 62 15.8542 61.6667 16.4276 61.44C17.0142 61.2133 17.6742 61.1 18.4076 61.1C18.8876 61.1 19.3876 61.1733 19.9076 61.32C20.4276 61.4667 20.9009 61.72 21.3276 62.08C21.4609 62.1733 21.5476 62.2867 21.5876 62.42C21.6276 62.5533 21.6276 62.6867 21.5876 62.82C21.5476 62.94 21.4809 63.0467 21.3876 63.14C21.2942 63.22 21.1742 63.2667 21.0276 63.28C20.8942 63.2933 20.7542 63.2467 20.6076 63.14C20.2609 62.8733 19.9076 62.6867 19.5476 62.58C19.1876 62.4733 18.8409 62.42 18.5076 62.42C17.9876 62.42 17.5342 62.5067 17.1476 62.68C16.7609 62.84 16.4342 63.0733 16.1676 63.38C15.9009 63.6867 15.6942 64.0667 15.5476 64.52C15.4142 64.9733 15.3476 65.5 15.3476 66.1C15.3476 67.26 15.6209 68.18 16.1676 68.86C16.7142 69.5267 17.4942 69.86 18.5076 69.86C18.8409 69.86 19.1809 69.8067 19.5276 69.7C19.8876 69.5933 20.2476 69.4067 20.6076 69.14C20.7542 69.0333 20.8942 68.9867 21.0276 69C21.1609 69.0133 21.2742 69.0667 21.3676 69.16C21.4609 69.24 21.5209 69.3467 21.5476 69.48C21.5876 69.6133 21.5876 69.7467 21.5476 69.88C21.5076 70 21.4209 70.1067 21.2876 70.2C20.8609 70.5467 20.3942 70.8 19.8876 70.96C19.3809 71.1067 18.8876 71.18 18.4076 71.18ZM24.3454 71.14C24.0787 71.14 23.8787 71.0667 23.7454 70.92C23.6121 70.7733 23.5454 70.5667 23.5454 70.3V57.58C23.5454 57.3133 23.6121 57.1133 23.7454 56.98C23.8787 56.8333 24.0787 56.76 24.3454 56.76C24.5987 56.76 24.7987 56.8333 24.9454 56.98C25.0921 57.1133 25.1654 57.3133 25.1654 57.58V63.44H24.9054C25.1854 62.6667 25.6387 62.0867 26.2654 61.7C26.9054 61.3 27.6387 61.1 28.4654 61.1C29.2387 61.1 29.8787 61.24 30.3854 61.52C30.9054 61.8 31.2921 62.2267 31.5454 62.8C31.7987 63.36 31.9254 64.0733 31.9254 64.94V70.3C31.9254 70.5667 31.8521 70.7733 31.7054 70.92C31.5721 71.0667 31.3787 71.14 31.1254 71.14C30.8587 71.14 30.6521 71.0667 30.5054 70.92C30.3721 70.7733 30.3054 70.5667 30.3054 70.3V65.04C30.3054 64.1333 30.1254 63.4733 29.7654 63.06C29.4187 62.6333 28.8587 62.42 28.0854 62.42C27.1921 62.42 26.4787 62.7 25.9454 63.26C25.4254 63.8067 25.1654 64.54 25.1654 65.46V70.3C25.1654 70.86 24.8921 71.14 24.3454 71.14ZM38.9526 71.18C38.0059 71.18 37.1859 70.9733 36.4926 70.56C35.7992 70.1467 35.2592 69.5667 34.8726 68.82C34.4992 68.06 34.3126 67.1667 34.3126 66.14C34.3126 65.3667 34.4192 64.6733 34.6326 64.06C34.8459 63.4333 35.1592 62.9 35.5726 62.46C35.9859 62.02 36.4726 61.6867 37.0326 61.46C37.6059 61.22 38.2459 61.1 38.9526 61.1C39.8992 61.1 40.7192 61.3067 41.4126 61.72C42.1059 62.1333 42.6392 62.72 43.0126 63.48C43.3992 64.2267 43.5926 65.1133 43.5926 66.14C43.5926 66.9133 43.4859 67.6067 43.2726 68.22C43.0592 68.8333 42.7459 69.3667 42.3326 69.82C41.9192 70.26 41.4259 70.6 40.8526 70.84C40.2926 71.0667 39.6592 71.18 38.9526 71.18ZM38.9526 69.88C39.5526 69.88 40.0792 69.7333 40.5326 69.44C40.9859 69.1467 41.3326 68.72 41.5726 68.16C41.8259 67.6 41.9526 66.9267 41.9526 66.14C41.9526 64.9267 41.6792 64 41.1326 63.36C40.5992 62.72 39.8726 62.4 38.9526 62.4C38.3392 62.4 37.8059 62.5467 37.3526 62.84C36.9126 63.12 36.5659 63.54 36.3126 64.1C36.0726 64.6467 35.9526 65.3267 35.9526 66.14C35.9526 67.34 36.2259 68.2667 36.7726 68.92C37.3192 69.56 38.0459 69.88 38.9526 69.88ZM50.0659 71.18C49.1192 71.18 48.2992 70.9733 47.6059 70.56C46.9125 70.1467 46.3725 69.5667 45.9859 68.82C45.6125 68.06 45.4259 67.1667 45.4259 66.14C45.4259 65.3667 45.5325 64.6733 45.7459 64.06C45.9592 63.4333 46.2725 62.9 46.6859 62.46C47.0992 62.02 47.5859 61.6867 48.1459 61.46C48.7192 61.22 49.3592 61.1 50.0659 61.1C51.0125 61.1 51.8325 61.3067 52.5259 61.72C53.2192 62.1333 53.7525 62.72 54.1259 63.48C54.5125 64.2267 54.7059 65.1133 54.7059 66.14C54.7059 66.9133 54.5992 67.6067 54.3859 68.22C54.1725 68.8333 53.8592 69.3667 53.4459 69.82C53.0325 70.26 52.5392 70.6 51.9659 70.84C51.4059 71.0667 50.7725 71.18 50.0659 71.18ZM50.0659 69.88C50.6659 69.88 51.1925 69.7333 51.6459 69.44C52.0992 69.1467 52.4459 68.72 52.6859 68.16C52.9392 67.6 53.0659 66.9267 53.0659 66.14C53.0659 64.9267 52.7925 64 52.2459 63.36C51.7125 62.72 50.9859 62.4 50.0659 62.4C49.4525 62.4 48.9192 62.5467 48.4659 62.84C48.0259 63.12 47.6792 63.54 47.4259 64.1C47.1859 64.6467 47.0659 65.3267 47.0659 66.14C47.0659 67.34 47.3392 68.2667 47.8859 68.92C48.4325 69.56 49.1592 69.88 50.0659 69.88ZM60.0991 71.18C59.1391 71.18 58.4058 70.8867 57.8991 70.3C57.3925 69.7133 57.1391 68.8733 57.1391 67.78V57.58C57.1391 57.3133 57.2058 57.1133 57.3391 56.98C57.4725 56.8333 57.6725 56.76 57.9391 56.76C58.1925 56.76 58.3925 56.8333 58.5391 56.98C58.6858 57.1133 58.7591 57.3133 58.7591 57.58V67.66C58.7591 68.38 58.8991 68.92 59.1791 69.28C59.4725 69.6267 59.8991 69.8 60.4591 69.8C60.5791 69.8 60.6858 69.7933 60.7791 69.78C60.8725 69.7667 60.9658 69.76 61.0591 69.76C61.2058 69.7467 61.3058 69.78 61.3591 69.86C61.4258 69.94 61.4591 70.1 61.4591 70.34C61.4591 70.58 61.4058 70.76 61.2991 70.88C61.1925 71 61.0191 71.08 60.7791 71.12C60.6725 71.1333 60.5591 71.1467 60.4391 71.16C60.3191 71.1733 60.2058 71.18 60.0991 71.18Z" fill="black"/>
<mask id="mask0_924_5585" style="mask-type:alpha" maskUnits="userSpaceOnUse" x="6" y="0" width="50" height="50">
<rect x="6" width="50" height="50" fill="#D9D9D9"/>
</mask>
<g mask="url(#mask0_924_5585)">
<path d="M30.9999 43.75L16.4166 35.8333V23.3333L8.08325 18.75L30.9999 6.25L53.9166 18.75V35.4167H49.7499V21.0417L45.5833 23.3333V35.8333L30.9999 43.75ZM30.9999 26.4583L45.2708 18.75L30.9999 11.0417L16.7291 18.75L30.9999 26.4583ZM30.9999 39.0104L41.4166 33.3854V25.5208L30.9999 31.25L20.5833 25.5208V33.3854L30.9999 39.0104Z" fill="#1C1B1F"/>
</g>
</svg>
