<svg width="50" height="80" viewBox="0 0 50 80" fill="none" xmlns="http://www.w3.org/2000/svg">
<path d="M6.69945 73.14C6.45945 73.14 6.26612 73.08 6.11945 72.96C5.97279 72.8267 5.85279 72.6333 5.75945 72.38L1.33945 59.76C1.24612 59.48 1.26612 59.2467 1.39945 59.06C1.54612 58.86 1.77279 58.76 2.07945 58.76C2.30612 58.76 2.48612 58.82 2.61945 58.94C2.75279 59.0467 2.86612 59.22 2.95945 59.46L7.09945 71.6H6.39945L10.6195 59.52C10.7128 59.2667 10.8261 59.08 10.9595 58.96C11.0928 58.8267 11.2728 58.76 11.4995 58.76C11.7128 58.76 11.8795 58.8267 11.9995 58.96C12.1328 59.08 12.2461 59.2667 12.3395 59.52L16.4995 71.6H15.8795L20.0595 59.46C20.1261 59.2333 20.2261 59.06 20.3595 58.94C20.5061 58.82 20.6928 58.76 20.9195 58.76C21.1995 58.76 21.4061 58.8533 21.5395 59.04C21.6728 59.2267 21.6861 59.4667 21.5795 59.76L17.1395 72.38C17.0461 72.6333 16.9261 72.8267 16.7795 72.96C16.6461 73.08 16.4528 73.14 16.1995 73.14C15.9595 73.14 15.7661 73.08 15.6195 72.96C15.4861 72.8267 15.3661 72.6333 15.2595 72.38L11.2395 60.8H11.6795L7.61945 72.38C7.52612 72.6333 7.41279 72.8267 7.27945 72.96C7.14612 73.08 6.95279 73.14 6.69945 73.14ZM26.8393 73.18C25.8926 73.18 25.0726 72.9733 24.3793 72.56C23.686 72.1467 23.146 71.5667 22.7593 70.82C22.386 70.06 22.1993 69.1667 22.1993 68.14C22.1993 67.3667 22.306 66.6733 22.5193 66.06C22.7326 65.4333 23.046 64.9 23.4593 64.46C23.8726 64.02 24.3593 63.6867 24.9193 63.46C25.4926 63.22 26.1326 63.1 26.8393 63.1C27.786 63.1 28.606 63.3067 29.2993 63.72C29.9926 64.1333 30.526 64.72 30.8993 65.48C31.286 66.2267 31.4793 67.1133 31.4793 68.14C31.4793 68.9133 31.3726 69.6067 31.1593 70.22C30.946 70.8333 30.6326 71.3667 30.2193 71.82C29.806 72.26 29.3126 72.6 28.7393 72.84C28.1793 73.0667 27.546 73.18 26.8393 73.18ZM26.8393 71.88C27.4393 71.88 27.966 71.7333 28.4193 71.44C28.8726 71.1467 29.2193 70.72 29.4593 70.16C29.7126 69.6 29.8393 68.9267 29.8393 68.14C29.8393 66.9267 29.566 66 29.0193 65.36C28.486 64.72 27.7593 64.4 26.8393 64.4C26.226 64.4 25.6926 64.5467 25.2393 64.84C24.7993 65.12 24.4526 65.54 24.1993 66.1C23.9593 66.6467 23.8393 67.3267 23.8393 68.14C23.8393 69.34 24.1126 70.2667 24.6593 70.92C25.206 71.56 25.9326 71.88 26.8393 71.88ZM34.7326 73.14C34.4659 73.14 34.2592 73.0667 34.1126 72.92C33.9792 72.7733 33.9126 72.5667 33.9126 72.3V63.96C33.9126 63.6933 33.9792 63.4933 34.1126 63.36C34.2459 63.2133 34.4392 63.14 34.6926 63.14C34.9459 63.14 35.1392 63.2133 35.2726 63.36C35.4192 63.4933 35.4926 63.6933 35.4926 63.96V65.58H35.2926C35.5059 64.7933 35.9126 64.1867 36.5126 63.76C37.1126 63.3333 37.8526 63.1067 38.7326 63.08C38.9326 63.0667 39.0926 63.1133 39.2126 63.22C39.3326 63.3133 39.3992 63.48 39.4126 63.72C39.4259 63.9467 39.3726 64.1267 39.2526 64.26C39.1326 64.3933 38.9459 64.4733 38.6926 64.5L38.3726 64.54C37.4659 64.62 36.7659 64.9133 36.2726 65.42C35.7926 65.9133 35.5526 66.5933 35.5526 67.46V72.3C35.5526 72.5667 35.4792 72.7733 35.3326 72.92C35.1992 73.0667 34.9992 73.14 34.7326 73.14ZM41.8805 73.14C41.6139 73.14 41.4139 73.0667 41.2805 72.92C41.1472 72.7733 41.0805 72.5667 41.0805 72.3V59.58C41.0805 59.3133 41.1472 59.1133 41.2805 58.98C41.4139 58.8333 41.6139 58.76 41.8805 58.76C42.1339 58.76 42.3339 58.8333 42.4805 58.98C42.6272 59.1133 42.7005 59.3133 42.7005 59.58V67.6H42.7405L46.8405 63.68C47.0272 63.5067 47.1872 63.3733 47.3205 63.28C47.4672 63.1867 47.6605 63.14 47.9005 63.14C48.1139 63.14 48.2805 63.2 48.4005 63.32C48.5205 63.4267 48.5739 63.5667 48.5605 63.74C48.5605 63.9 48.4805 64.0733 48.3205 64.26L43.9605 68.4V67.52L48.7005 71.98C48.8872 72.1667 48.9805 72.3467 48.9805 72.52C48.9805 72.6933 48.9139 72.84 48.7805 72.96C48.6605 73.08 48.5005 73.14 48.3005 73.14C48.0605 73.14 47.8672 73.0933 47.7205 73C47.5739 72.8933 47.3939 72.74 47.1805 72.54L42.7405 68.44H42.7005V72.3C42.7005 72.86 42.4272 73.14 41.8805 73.14Z" fill="black"/>
<mask id="mask0_924_5582" style="mask-type:alpha" maskUnits="userSpaceOnUse" x="0" y="0" width="50" height="50">
<rect width="50" height="50" fill="#D9D9D9"/>
</mask>
<g mask="url(#mask0_924_5582)">
<path d="M8.33341 43.7501C7.18758 43.7501 6.20668 43.3421 5.39071 42.5261C4.57473 41.7102 4.16675 40.7292 4.16675 39.5834V16.6667C4.16675 15.5209 4.57473 14.54 5.39071 13.724C6.20668 12.9081 7.18758 12.5001 8.33341 12.5001H16.6667V8.33341C16.6667 7.18758 17.0747 6.20668 17.8907 5.39071C18.7067 4.57473 19.6876 4.16675 20.8334 4.16675H29.1667C30.3126 4.16675 31.2935 4.57473 32.1095 5.39071C32.9254 6.20668 33.3334 7.18758 33.3334 8.33341V12.5001H41.6667C42.8126 12.5001 43.7935 12.9081 44.6095 13.724C45.4254 14.54 45.8334 15.5209 45.8334 16.6667V39.5834C45.8334 40.7292 45.4254 41.7102 44.6095 42.5261C43.7935 43.3421 42.8126 43.7501 41.6667 43.7501H8.33341ZM20.8334 12.5001H29.1667V8.33341H20.8334V12.5001ZM41.6667 31.2501H31.2501V35.4167H18.7501V31.2501H8.33341V39.5834H41.6667V31.2501ZM22.9167 31.2501H27.0834V27.0834H22.9167V31.2501ZM8.33341 27.0834H18.7501V22.9167H31.2501V27.0834H41.6667V16.6667H8.33341V27.0834Z" fill="#1C1B1F"/>
</g>
</svg>
