<svg width="50" height="77" viewBox="0 0 50 77" fill="none" xmlns="http://www.w3.org/2000/svg">
<path d="M10.3596 71.112C10.1676 71.112 10.0129 71.064 9.89556 70.968C9.77823 70.8613 9.68223 70.7067 9.60756 70.504L6.07156 60.408C5.9969 60.184 6.0129 59.9973 6.11956 59.848C6.2369 59.688 6.41823 59.608 6.66356 59.608C6.8449 59.608 6.9889 59.656 7.09556 59.752C7.20223 59.8373 7.2929 59.976 7.36756 60.168L10.6796 69.88H10.1196L13.4956 60.216C13.5702 60.0133 13.6609 59.864 13.7676 59.768C13.8742 59.6613 14.0182 59.608 14.1996 59.608C14.3702 59.608 14.5036 59.6613 14.5996 59.768C14.7062 59.864 14.7969 60.0133 14.8716 60.216L18.1996 69.88H17.7036L21.0476 60.168C21.1009 59.9867 21.1809 59.848 21.2876 59.752C21.4049 59.656 21.5542 59.608 21.7356 59.608C21.9596 59.608 22.1249 59.6827 22.2316 59.832C22.3382 59.9813 22.3489 60.1733 22.2636 60.408L18.7116 70.504C18.6369 70.7067 18.5409 70.8613 18.4236 70.968C18.3169 71.064 18.1622 71.112 17.9596 71.112C17.7676 71.112 17.6129 71.064 17.4956 70.968C17.3889 70.8613 17.2929 70.7067 17.2076 70.504L13.9916 61.24H14.3436L11.0956 70.504C11.0209 70.7067 10.9302 70.8613 10.8236 70.968C10.7169 71.064 10.5622 71.112 10.3596 71.112ZM26.4714 71.144C25.7141 71.144 25.0581 70.9787 24.5034 70.648C23.9488 70.3173 23.5168 69.8533 23.2074 69.256C22.9088 68.648 22.7594 67.9333 22.7594 67.112C22.7594 66.4933 22.8448 65.9387 23.0154 65.448C23.1861 64.9467 23.4368 64.52 23.7674 64.168C24.0981 63.816 24.4874 63.5493 24.9354 63.368C25.3941 63.176 25.9061 63.08 26.4714 63.08C27.2288 63.08 27.8848 63.2453 28.4394 63.576C28.9941 63.9067 29.4208 64.376 29.7194 64.984C30.0288 65.5813 30.1834 66.2907 30.1834 67.112C30.1834 67.7307 30.0981 68.2853 29.9274 68.776C29.7568 69.2667 29.5061 69.6933 29.1754 70.056C28.8448 70.408 28.4501 70.68 27.9914 70.872C27.5434 71.0533 27.0368 71.144 26.4714 71.144ZM26.4714 70.104C26.9514 70.104 27.3728 69.9867 27.7354 69.752C28.0981 69.5173 28.3754 69.176 28.5674 68.728C28.7701 68.28 28.8714 67.7413 28.8714 67.112C28.8714 66.1413 28.6528 65.4 28.2154 64.888C27.7888 64.376 27.2074 64.12 26.4714 64.12C25.9808 64.12 25.5541 64.2373 25.1914 64.472C24.8394 64.696 24.5621 65.032 24.3594 65.48C24.1674 65.9173 24.0714 66.4613 24.0714 67.112C24.0714 68.072 24.2901 68.8133 24.7274 69.336C25.1648 69.848 25.7461 70.104 26.4714 70.104ZM32.7861 71.112C32.5727 71.112 32.4074 71.0533 32.2901 70.936C32.1834 70.8187 32.1301 70.6533 32.1301 70.44V63.768C32.1301 63.5547 32.1834 63.3947 32.2901 63.288C32.3967 63.1707 32.5514 63.112 32.7541 63.112C32.9567 63.112 33.1114 63.1707 33.2181 63.288C33.3354 63.3947 33.3941 63.5547 33.3941 63.768V65.064H33.2341C33.4047 64.4347 33.7301 63.9493 34.2101 63.608C34.6901 63.2667 35.2821 63.0853 35.9861 63.064C36.1461 63.0533 36.2741 63.0907 36.3701 63.176C36.4661 63.2507 36.5194 63.384 36.5301 63.576C36.5407 63.7573 36.4981 63.9013 36.4021 64.008C36.3061 64.1147 36.1567 64.1787 35.9541 64.2L35.6981 64.232C34.9727 64.296 34.4127 64.5307 34.0181 64.936C33.6341 65.3307 33.4421 65.8747 33.4421 66.568V70.44C33.4421 70.6533 33.3834 70.8187 33.2661 70.936C33.1594 71.0533 32.9994 71.112 32.7861 71.112ZM38.5044 71.112C38.2911 71.112 38.1311 71.0533 38.0244 70.936C37.9178 70.8187 37.8644 70.6533 37.8644 70.44V60.264C37.8644 60.0507 37.9178 59.8907 38.0244 59.784C38.1311 59.6667 38.2911 59.608 38.5044 59.608C38.7071 59.608 38.8671 59.6667 38.9844 59.784C39.1018 59.8907 39.1604 60.0507 39.1604 60.264V66.68H39.1924L42.4724 63.544C42.6218 63.4053 42.7498 63.2987 42.8564 63.224C42.9738 63.1493 43.1284 63.112 43.3204 63.112C43.4911 63.112 43.6244 63.16 43.7204 63.256C43.8164 63.3413 43.8591 63.4533 43.8484 63.592C43.8484 63.72 43.7844 63.8587 43.6564 64.008L40.1684 67.32V66.616L43.9604 70.184C44.1098 70.3333 44.1844 70.4773 44.1844 70.616C44.1844 70.7547 44.1311 70.872 44.0244 70.968C43.9284 71.064 43.8004 71.112 43.6404 71.112C43.4484 71.112 43.2938 71.0747 43.1764 71C43.0591 70.9147 42.9151 70.792 42.7444 70.632L39.1924 67.352H39.1604V70.44C39.1604 70.888 38.9418 71.112 38.5044 71.112Z" fill="black"/>
<mask id="mask0_924_5582" style="mask-type:alpha" maskUnits="userSpaceOnUse" x="0" y="0" width="50" height="50">
<rect width="50" height="50" fill="#D9D9D9"/>
</mask>
<g mask="url(#mask0_924_5582)">
<path d="M8.33341 43.7501C7.18758 43.7501 6.20668 43.3421 5.39071 42.5261C4.57473 41.7102 4.16675 40.7292 4.16675 39.5834V16.6667C4.16675 15.5209 4.57473 14.54 5.39071 13.724C6.20668 12.9081 7.18758 12.5001 8.33341 12.5001H16.6667V8.33341C16.6667 7.18758 17.0747 6.20668 17.8907 5.39071C18.7067 4.57473 19.6876 4.16675 20.8334 4.16675H29.1667C30.3126 4.16675 31.2935 4.57473 32.1095 5.39071C32.9254 6.20668 33.3334 7.18758 33.3334 8.33341V12.5001H41.6667C42.8126 12.5001 43.7935 12.9081 44.6095 13.724C45.4254 14.54 45.8334 15.5209 45.8334 16.6667V39.5834C45.8334 40.7292 45.4254 41.7102 44.6095 42.5261C43.7935 43.3421 42.8126 43.7501 41.6667 43.7501H8.33341ZM20.8334 12.5001H29.1667V8.33341H20.8334V12.5001ZM41.6667 31.2501H31.2501V35.4167H18.7501V31.2501H8.33341V39.5834H41.6667V31.2501ZM22.9167 31.2501H27.0834V27.0834H22.9167V31.2501ZM8.33341 27.0834H18.7501V22.9167H31.2501V27.0834H41.6667V16.6667H8.33341V27.0834Z" fill="#1C1B1F"/>
</g>
</svg>
