<svg width="145" height="214" viewBox="0 0 145 214" fill="none" xmlns="http://www.w3.org/2000/svg">
<g clip-path="url(#clip0_488_2034)">
<path d="M136.01 128.92L143.74 136.94C135.23 130.92 122.43 135.31 122.43 135.31M69.8 160.22C77.41 163.99 88.62 159.65 97.55 154.7C104.42 150.88 110.67 146.07 116.35 140.63C132.12 125.53 137.19 130.2 137.19 130.2C105.28 94.1 66.18 160.15 69.81 160.22H69.8Z" fill="#49962E"/>
<path d="M136.01 128.92L143.74 136.94C135.23 130.92 122.43 135.31 122.43 135.31M69.8 160.22C77.41 163.99 88.62 159.65 97.55 154.7C104.42 150.88 110.67 146.07 116.35 140.63C132.12 125.53 137.19 130.2 137.19 130.2C105.28 94.1 66.18 160.15 69.81 160.22H69.8Z" stroke="black" stroke-width="1.79" stroke-miterlimit="10"/>
<path d="M21.96 135.31C21.96 135.31 9.16002 130.91 0.650024 136.94L8.38002 128.92M7.21002 130.19C7.21002 130.19 12.28 125.52 28.05 140.62C33.72 146.06 39.98 150.87 46.85 154.69C55.77 159.65 66.99 163.98 74.6 160.21C78.23 160.13 39.13 94.09 7.22002 130.19H7.21002Z" fill="#49962E"/>
<path d="M21.96 135.31C21.96 135.31 9.16002 130.91 0.650024 136.94L8.38002 128.92M7.21002 130.19C7.21002 130.19 12.28 125.52 28.05 140.62C33.72 146.06 39.98 150.87 46.85 154.69C55.77 159.65 66.99 163.98 74.6 160.21C78.23 160.13 39.13 94.09 7.22002 130.19H7.21002Z" stroke="black" stroke-width="1.79" stroke-miterlimit="10"/>
<path d="M76.1 84.59H69.45V187.37H76.1V84.59Z" fill="#49962E"/>
<path d="M76.96 188.22H68.6V83.73H76.96V188.22ZM70.31 186.51H75.25V85.45H70.31V186.51Z" fill="black"/>
<path d="M85.7399 101.46C86.0999 91.41 81.5999 82.28 74.2999 76.17C66.5799 81.75 61.4399 90.53 61.0799 100.58C60.7199 110.63 65.2199 119.76 72.5199 125.87C80.2399 120.29 85.3799 111.51 85.7399 101.46Z" fill="#FAE033"/>
<path d="M72.47 127.38L71.76 126.78C63.86 120.16 59.54 110.6 59.9 100.53C60.26 90.47 65.26 81.23 73.61 75.2L74.36 74.66L75.07 75.26C82.97 81.88 87.29 91.44 86.93 101.51C86.57 111.57 81.57 120.81 73.22 126.84L72.47 127.38ZM74.25 77.7C66.95 83.3 62.6 91.6 62.27 100.62C61.95 109.64 65.69 118.23 72.57 124.34C79.87 118.74 84.22 110.44 84.55 101.42C84.87 92.4 81.13 83.81 74.25 77.7Z" fill="black"/>
<path d="M60.96 102.21C67.16 94.2901 68.89 84.2701 66.57 75.0301C57.05 75.0001 47.73 79.0801 41.53 87.0001C35.33 94.9201 33.61 104.94 35.92 114.18C45.44 114.21 54.76 110.13 60.96 102.21Z" fill="#FAE033"/>
<path d="M36.76 115.37C36.48 115.37 36.2 115.37 35.91 115.37H34.98L34.76 114.47C32.26 104.47 34.38 94.19 40.59 86.26C46.8 78.33 56.28 73.81 66.57 73.83H67.5L67.73 74.73C70.23 84.73 68.11 95.01 61.9 102.94C55.86 110.65 46.74 115.15 36.76 115.36V115.37ZM65.63 76.23C56.43 76.47 48.03 80.63 42.47 87.74C36.91 94.84 34.89 104 36.86 112.99C46.06 112.75 54.46 108.59 60.02 101.48C65.58 94.37 67.6 85.22 65.63 76.23Z" fill="black"/>
<path d="M40.46 88.24C50.13 85.48 57.42 78.38 60.98 69.55C53.29 63.93 43.35 61.75 33.68 64.52C24.01 67.28 16.72 74.38 13.16 83.21C20.85 88.83 30.79 91.01 40.46 88.24Z" fill="#FAE033"/>
<path d="M32.63 90.62C25.53 90.77 18.47 88.5599 12.47 84.1699L11.72 83.62L12.07 82.76C15.92 73.2 23.68 66.1299 33.37 63.3599C43.05 60.5899 53.38 62.4899 61.7 68.5799L62.45 69.1299L62.1 69.9899C58.25 79.5499 50.49 86.6199 40.8 89.3799C38.11 90.1499 35.37 90.56 32.64 90.62H32.63ZM14.63 82.7899C22.21 88 31.45 89.5799 40.13 87.0999C48.81 84.6199 55.82 78.4 59.51 69.9699C51.93 64.7599 42.68 63.18 34.01 65.66C25.33 68.14 18.32 74.3599 14.63 82.7899Z" fill="black"/>
<path d="M32.09 64.9C41.54 68.35 51.61 66.89 59.68 61.84C56.76 52.77 50 45.17 40.55 41.72C31.1 38.27 21.03 39.73 12.96 44.78C15.88 53.85 22.64 61.45 32.09 64.9Z" fill="#FAE033"/>
<path d="M43.41 67.96C39.46 68.04 35.49 67.4001 31.69 66.0101C22.23 62.5601 14.99 54.95 11.84 45.14L11.56 44.26L12.35 43.77C21.08 38.3 31.52 37.14 40.98 40.6C50.44 44.05 57.68 51.6601 60.83 61.4701L61.11 62.35L60.32 62.84C55.1 66.1101 49.28 67.84 43.41 67.96ZM14.4 45.3C17.47 53.98 24.02 60.68 32.5 63.7701C40.98 66.8601 50.31 65.96 58.24 61.3C55.17 52.62 48.62 45.9201 40.14 42.8301C31.66 39.7401 22.33 40.64 14.4 45.3Z" fill="black"/>
<path d="M39.04 41.0899C44.66 49.4299 53.66 54.1699 63.16 54.8299C66.13 45.7799 65.13 35.6599 59.51 27.3099C53.89 18.9699 44.89 14.2299 35.39 13.5699C32.42 22.6199 33.42 32.7399 39.04 41.0899Z" fill="#FAE033"/>
<path d="M64 56.08L63.07 56.02C52.79 55.31 43.67 50.11 38.04 41.76C32.42 33.4 31.03 23 34.25 13.21L34.54 12.33L35.47 12.39C45.75 13.1 54.87 18.3 60.5 26.65C66.12 35.01 67.51 45.41 64.29 55.2L64 56.08ZM40.03 40.42C45.07 47.91 53.15 52.66 62.31 53.56C64.92 44.74 63.56 35.46 58.52 27.98C53.48 20.49 45.4 15.74 36.24 14.84C33.63 23.66 34.99 32.94 40.03 40.42Z" fill="black"/>
<path d="M58.66 25.92C58.3 35.97 62.8 45.1 70.1 51.21C77.82 45.63 82.96 36.85 83.32 26.8C83.68 16.75 79.18 7.62001 71.88 1.51001C64.16 7.09001 59.02 15.87 58.66 25.92Z" fill="#FAE033"/>
<path d="M70.04 52.72L69.33 52.12C61.43 45.5 57.11 35.94 57.47 25.87C57.83 15.81 62.83 6.57 71.18 0.54L71.93 0L72.64 0.6C80.54 7.22 84.86 16.78 84.5 26.85C84.14 36.91 79.14 46.15 70.79 52.18L70.04 52.72ZM71.83 3.04C64.53 8.64 60.18 16.94 59.85 25.96C59.53 34.98 63.27 43.57 70.15 49.68C77.45 44.08 81.8 35.78 82.13 26.76C82.45 17.74 78.71 9.15 71.83 3.04Z" fill="black"/>
<path d="M83.45 25.17C77.25 33.09 75.52 43.11 77.84 52.35C87.36 52.38 96.68 48.3 102.88 40.38C109.08 32.46 110.8 22.44 108.49 13.2C98.97 13.17 89.65 17.25 83.45 25.17Z" fill="#FAE033"/>
<path d="M78.68 53.5399C78.4 53.5399 78.12 53.5399 77.83 53.5399H76.9L76.67 52.6399C74.17 42.6399 76.29 32.3599 82.5 24.4299C88.71 16.4999 98.2 11.9799 108.48 11.9999H109.41L109.63 12.8999C112.13 22.8999 110.01 33.1799 103.8 41.1099C97.76 48.8199 88.64 53.3199 78.66 53.5299L78.68 53.5399ZM84.39 25.8999C78.83 33.0099 76.81 42.1599 78.78 51.1499C87.98 50.9099 96.38 46.7499 101.94 39.6399C107.5 32.5399 109.52 23.3799 107.55 14.3899C98.35 14.6299 89.95 18.7899 84.39 25.8999Z" fill="black"/>
<path d="M103.94 39.14C94.2699 41.9 86.9799 49 83.4199 57.83C91.1099 63.45 101.05 65.63 110.72 62.86C120.39 60.09 127.68 53 131.24 44.17C123.55 38.55 113.61 36.37 103.94 39.14Z" fill="#FAE033"/>
<path d="M102.89 65.24C95.79 65.39 88.73 63.18 82.72 58.79L81.97 58.24L82.32 57.38C86.17 47.82 93.93 40.75 103.62 37.98C113.3 35.22 123.63 37.12 131.95 43.2L132.7 43.75L132.35 44.61C128.5 54.17 120.74 61.24 111.05 64.01C108.36 64.78 105.62 65.19 102.89 65.24ZM84.89 57.41C92.47 62.62 101.71 64.2 110.39 61.72C119.07 59.24 126.08 53.02 129.77 44.59C122.19 39.38 112.95 37.81 104.27 40.28C95.59 42.76 88.58 48.98 84.89 57.41Z" fill="black"/>
<path d="M112.31 62.4799C102.86 59.0299 92.79 60.4899 84.72 65.5399C87.64 74.6099 94.4 82.2099 103.85 85.6599C113.3 89.1099 123.37 87.6499 131.44 82.5999C128.52 73.5299 121.76 65.9299 112.31 62.4799Z" fill="#FAE033"/>
<path d="M115.17 88.7299C111.22 88.8099 107.25 88.1699 103.45 86.7799C93.9899 83.3299 86.7499 75.7199 83.5999 65.9099L83.3199 65.0299L84.1099 64.5399C92.8399 59.0699 103.28 57.9099 112.74 61.3699C122.2 64.8199 129.44 72.4299 132.59 82.2399L132.87 83.1199L132.08 83.6099C126.86 86.8799 121.04 88.6099 115.17 88.7299ZM86.16 66.0699C89.2299 74.7499 95.7799 81.4499 104.26 84.5399C112.74 87.6299 122.07 86.7299 130 82.0699C126.93 73.3899 120.38 66.6899 111.9 63.5999C103.42 60.5099 94.09 61.4099 86.16 66.0699Z" fill="black"/>
<path d="M105.36 86.29C99.74 77.95 90.74 73.21 81.2399 72.55C78.2699 81.6 79.27 91.72 84.89 100.07C90.51 108.41 99.51 113.15 109.01 113.81C111.98 104.76 110.98 94.64 105.36 86.29Z" fill="#FAE033"/>
<path d="M109.85 115.06L108.92 115C98.64 114.29 89.52 109.09 83.89 100.74C78.27 92.3901 76.88 81.9801 80.1 72.1901L80.39 71.3101L81.32 71.3701C91.6 72.0801 100.72 77.2801 106.35 85.6301C111.97 93.9801 113.36 104.39 110.14 114.18L109.85 115.06ZM82.09 73.8201C79.48 82.6401 80.84 91.9201 85.88 99.4001C90.92 106.89 99 111.64 108.16 112.54C110.77 103.72 109.41 94.4401 104.37 86.9601C99.33 79.4701 91.25 74.7201 82.09 73.8201Z" fill="black"/>
<path d="M72.2 93.17C88.4814 93.17 101.68 79.9713 101.68 63.69C101.68 47.4086 88.4814 34.21 72.2 34.21C55.9187 34.21 42.72 47.4086 42.72 63.69C42.72 79.9713 55.9187 93.17 72.2 93.17Z" fill="#C4996C"/>
<path d="M72.2 94.25C55.35 94.25 41.64 80.54 41.64 63.69C41.64 46.84 55.35 33.13 72.2 33.13C89.05 33.13 102.76 46.84 102.76 63.69C102.76 80.54 89.05 94.25 72.2 94.25ZM72.2 35.28C56.54 35.28 43.79 48.02 43.79 63.69C43.79 79.36 56.53 92.1 72.2 92.1C87.87 92.1 100.61 79.36 100.61 63.69C100.61 48.02 87.87 35.28 72.2 35.28Z" fill="black"/>
<path d="M59.53 68.76C61.7778 68.76 63.6 66.9378 63.6 64.69C63.6 62.4422 61.7778 60.62 59.53 60.62C57.2822 60.62 55.46 62.4422 55.46 64.69C55.46 66.9378 57.2822 68.76 59.53 68.76Z" fill="black"/>
<path d="M54.4 72.36C55.9906 72.36 57.28 71.7019 57.28 70.89C57.28 70.0782 55.9906 69.42 54.4 69.42C52.8094 69.42 51.52 70.0782 51.52 70.89C51.52 71.7019 52.8094 72.36 54.4 72.36Z" fill="#B37F4D"/>
<path d="M88.9401 72.36C90.5306 72.36 91.8201 71.7019 91.8201 70.89C91.8201 70.0782 90.5306 69.42 88.9401 69.42C87.3495 69.42 86.0601 70.0782 86.0601 70.89C86.0601 71.7019 87.3495 72.36 88.9401 72.36Z" fill="#B37F4D"/>
<path d="M84.87 68.76C87.1178 68.76 88.94 66.9378 88.94 64.69C88.94 62.4422 87.1178 60.62 84.87 60.62C82.6222 60.62 80.8 62.4422 80.8 64.69C80.8 66.9378 82.6222 68.76 84.87 68.76Z" fill="black"/>
<path d="M67.8 71.76C67.46 71.76 67.21 72.07 67.26 72.41C67.62 74.82 69.7 76.67 72.21 76.67C74.72 76.67 76.8 74.82 77.16 72.41C77.21 72.07 76.96 71.76 76.62 71.76H67.81H67.8Z" fill="black"/>
<path d="M67.44 39.67C60.32 41.48 54.26 46.52 50.82 52.96C49.84 54.79 52.63 56.42 53.61 54.59C56.68 48.85 61.95 44.4 68.3 42.78C70.31 42.27 69.46 39.15 67.44 39.67Z" fill="#FFDFC0"/>
<path d="M48.22 59.17C47.83 60.33 47.68 61.55 47.52 62.76C47.47 63.14 47.74 63.65 47.99 63.9C48.27 64.18 48.73 64.39 49.13 64.37C49.53 64.35 49.98 64.21 50.27 63.9L50.52 63.57C50.67 63.32 50.74 63.05 50.74 62.76V62.7C50.73 62.84 50.71 62.99 50.69 63.13C50.83 62.08 50.99 61.03 51.33 60.02C51.46 59.64 51.37 59.12 51.17 58.78C50.97 58.44 50.59 58.13 50.21 58.04C49.8 57.95 49.33 57.97 48.97 58.2C48.61 58.43 48.37 58.75 48.23 59.16L48.22 59.17Z" fill="#FFDFC0"/>
<path d="M71.16 172.31C78.45 173.05 82.16 181.73 77.59 187.46C72.56 193.77 63.22 199.47 47.98 204.05C44.82 205 41.68 206.32 39.16 209.05L35.94 212.55C38.23 201.52 46.96 169.86 71.15 172.31H71.16Z" fill="#49962E"/>
<path d="M35.94 213.54C35.79 213.54 35.63 213.5 35.49 213.43C35.1 213.23 34.89 212.79 34.98 212.35C37.12 202.08 46.06 168.78 71.26 171.33C75.07 171.72 78.24 174.08 79.75 177.67C81.24 181.22 80.73 185.11 78.36 188.07C72.88 194.94 62.76 200.63 48.27 204.99C45.52 205.82 42.37 207.03 39.89 209.71L36.68 213.21C36.49 213.42 36.22 213.53 35.95 213.53L35.94 213.54ZM68.58 173.16C49.16 173.16 40.71 197.26 37.73 209.14L38.43 208.38C41.23 205.34 44.68 204.01 47.69 203.11C61.79 198.87 71.59 193.39 76.81 186.84C78.72 184.45 79.13 181.3 77.92 178.43C76.7 175.52 74.13 173.6 71.05 173.29C70.21 173.21 69.38 173.16 68.58 173.16Z" fill="black"/>
<path d="M75.86 173.05C75.86 173.05 69.96 192.27 34.15 197.65C30.39 198.21 26.78 199.65 23.84 202.06C21.88 203.67 20.06 205.78 19.29 208.42C19.29 208.42 29.19 155.67 75.86 173.05Z" fill="#49962E"/>
<path d="M19.29 209.42C19.21 209.42 19.13 209.42 19.06 209.39C18.54 209.27 18.21 208.76 18.31 208.23C18.5 207.21 23.22 183.04 41.22 172.87C50.98 167.35 62.76 167.1 76.21 172.11C76.71 172.3 76.97 172.83 76.82 173.34C76.57 174.15 70.32 193.23 34.3 198.64C30.53 199.21 27.13 200.66 24.47 202.83C22.28 204.62 20.86 206.6 20.24 208.7C20.11 209.13 19.72 209.42 19.28 209.42H19.29ZM58.19 170.55C52.35 170.55 47.01 171.91 42.21 174.62C30.49 181.24 24.57 194.53 21.98 202.39C22.36 202.02 22.77 201.65 23.21 201.3C26.15 198.89 29.88 197.3 34.01 196.68C64.3 192.13 72.84 177.42 74.55 173.65C68.74 171.59 63.28 170.56 58.2 170.56L58.19 170.55Z" fill="black"/>
<path d="M70.63 173.05C70.63 173.05 76.53 192.27 112.34 197.65C116.1 198.21 119.71 199.65 122.65 202.06C124.61 203.67 126.43 205.78 127.2 208.42C127.2 208.42 117.3 155.67 70.63 173.05Z" fill="#49962E"/>
<path d="M127.21 209.42C126.78 209.42 126.38 209.14 126.25 208.7C125.63 206.6 124.21 204.62 122.02 202.83C119.36 200.65 115.96 199.2 112.19 198.64C76.1701 193.23 69.9201 174.15 69.6701 173.34C69.5101 172.83 69.7801 172.3 70.2801 172.11C83.7401 167.1 95.5101 167.36 105.27 172.87C123.27 183.04 127.99 207.21 128.18 208.23C128.28 208.75 127.95 209.26 127.43 209.39C127.35 209.41 127.27 209.42 127.2 209.42H127.21ZM71.9501 173.64C73.6601 177.4 82.2001 192.12 112.49 196.67C116.61 197.29 120.35 198.89 123.29 201.29C123.73 201.65 124.14 202.01 124.52 202.38C121.93 194.52 116.01 181.23 104.29 174.61C95.3001 169.53 84.4201 169.2 71.9501 173.63V173.64Z" fill="black"/>
<path d="M71.44 172.31C64.15 173.05 60.44 181.73 65.01 187.46C70.04 193.77 79.38 199.47 94.62 204.05C97.78 205 100.92 206.32 103.44 209.05L106.66 212.55C104.37 201.52 95.64 169.86 71.45 172.31H71.44Z" fill="#49962E"/>
<path d="M106.66 213.54C106.39 213.54 106.13 213.43 105.93 213.22L102.71 209.72C100.24 207.04 97.09 205.83 94.33 205C79.84 200.64 69.72 194.94 64.24 188.08C61.88 185.12 61.36 181.23 62.85 177.68C64.36 174.1 67.53 171.73 71.34 171.34C96.55 168.8 105.48 202.09 107.62 212.36C107.71 212.79 107.5 213.23 107.11 213.44C106.97 213.51 106.81 213.55 106.66 213.55V213.54ZM71.54 173.29C68.46 173.6 65.89 175.52 64.67 178.43C63.46 181.31 63.88 184.45 65.78 186.84C71.01 193.39 80.8 198.86 94.9 203.11C97.91 204.01 101.36 205.35 104.16 208.38L104.86 209.14C101.76 196.77 92.74 171.16 71.54 173.29Z" fill="black"/>
</g>
<defs>
<clipPath id="clip0_488_2034">
<rect width="144.39" height="213.54" fill="white"/>
</clipPath>
</defs>
</svg>
