<svg width="133" height="214" viewBox="0 0 133 214" fill="none" xmlns="http://www.w3.org/2000/svg">
<g clip-path="url(#clip0_488_2037)">
<path d="M21.98 134.26C21.98 134.26 9.42999 129.2 0.609985 134.78L8.74999 127.17M7.51999 128.38C7.51999 128.38 12.83 123.98 27.79 139.88C33.17 145.6 39.17 150.74 45.83 154.91C54.48 160.32 65.46 165.24 73.25 161.87C76.88 161.98 41.27 93.99 7.51999 128.38Z" fill="#49962E"/>
<path d="M21.98 134.26C21.98 134.26 9.42999 129.2 0.609985 134.78L8.74999 127.17M7.51999 128.38C7.51999 128.38 12.83 123.98 27.79 139.88C33.17 145.6 39.17 150.74 45.83 154.91C54.48 160.32 65.46 165.24 73.25 161.87C76.88 161.98 41.27 93.99 7.51999 128.38Z" stroke="black" stroke-width="1.79" stroke-miterlimit="10"/>
<path d="M75.4199 84.59H68.7699V187.37H75.4199V84.59Z" fill="#49962E"/>
<path d="M76.2799 188.22H67.9199V83.73H76.2799V188.22ZM69.6299 186.51H74.5699V85.45H69.6299V186.51Z" fill="black"/>
<path d="M85.07 101.46C85.43 91.41 80.93 82.28 73.63 76.17C65.91 81.75 60.77 90.53 60.41 100.58C60.05 110.63 64.55 119.76 71.85 125.87C79.57 120.29 84.71 111.51 85.07 101.46Z" fill="#FAE033"/>
<path d="M71.7901 127.38L71.0801 126.78C63.1801 120.16 58.8601 110.6 59.2201 100.53C59.5801 90.47 64.58 81.23 72.93 75.2L73.68 74.66L74.39 75.26C82.29 81.88 86.6101 91.44 86.25 101.51C85.89 111.57 80.8901 120.81 72.5401 126.84L71.7901 127.38ZM73.57 77.7C66.27 83.3 61.92 91.6 61.59 100.62C61.2701 109.64 65.01 118.23 71.89 124.34C79.19 118.74 83.5401 110.44 83.8701 101.42C84.1901 92.4 80.4501 83.81 73.57 77.7Z" fill="black"/>
<path d="M60.28 102.21C66.48 94.29 68.21 84.27 65.89 75.03C56.37 75 47.05 79.08 40.85 87C34.65 94.92 32.93 104.94 35.24 114.18C44.76 114.21 54.08 110.13 60.28 102.21Z" fill="#FAE033"/>
<path d="M36.08 115.37C35.8 115.37 35.52 115.37 35.23 115.37H34.3L34.08 114.47C31.58 104.47 33.7 94.19 39.91 86.26C46.12 78.33 55.6 73.81 65.89 73.83H66.82L67.05 74.73C69.55 84.73 67.43 95.01 61.22 102.94C55.18 110.65 46.06 115.15 36.08 115.36V115.37ZM64.95 76.23C55.75 76.47 47.35 80.63 41.79 87.74C36.23 94.84 34.21 104 36.18 112.99C45.38 112.75 53.78 108.59 59.34 101.48C64.9 94.37 66.92 85.22 64.95 76.23Z" fill="black"/>
<path d="M39.78 88.24C49.45 85.48 56.74 78.38 60.3 69.55C52.61 63.93 42.67 61.75 33 64.52C23.33 67.28 16.04 74.38 12.48 83.21C20.17 88.83 30.11 91.01 39.78 88.24Z" fill="#FAE033"/>
<path d="M31.95 90.62C24.85 90.77 17.79 88.56 11.79 84.17L11.04 83.62L11.39 82.76C15.24 73.2 23 66.13 32.69 63.36C42.37 60.59 52.7 62.49 61.02 68.58L61.77 69.13L61.42 69.99C57.57 79.55 49.81 86.62 40.12 89.38C37.43 90.15 34.69 90.56 31.96 90.62H31.95ZM13.95 82.79C21.53 88 30.77 89.58 39.45 87.1C48.13 84.62 55.14 78.4 58.83 69.97C51.25 64.76 42 63.18 33.33 65.66C24.65 68.14 17.64 74.36 13.95 82.79Z" fill="black"/>
<path d="M31.41 64.9C40.86 68.35 50.93 66.89 59 61.84C56.08 52.77 49.32 45.17 39.87 41.72C30.42 38.27 20.35 39.73 12.28 44.78C15.2 53.85 21.96 61.45 31.41 64.9Z" fill="#FAE033"/>
<path d="M42.73 67.96C38.78 68.04 34.81 67.4 31.01 66.01C21.55 62.56 14.31 54.95 11.16 45.14L10.88 44.26L11.67 43.77C20.4 38.3 30.84 37.14 40.3 40.6C49.76 44.05 57 51.66 60.15 61.47L60.43 62.35L59.64 62.84C54.42 66.11 48.6 67.84 42.73 67.96ZM13.72 45.3C16.79 53.98 23.34 60.68 31.82 63.77C40.3 66.86 49.63 65.96 57.56 61.3C54.49 52.62 47.94 45.92 39.46 42.83C30.98 39.74 21.65 40.64 13.72 45.3Z" fill="black"/>
<path d="M38.36 41.09C43.98 49.43 52.98 54.17 62.48 54.83C65.45 45.78 64.45 35.66 58.83 27.31C53.21 18.97 44.21 14.23 34.71 13.57C31.74 22.62 32.74 32.74 38.36 41.09Z" fill="#FAE033"/>
<path d="M63.33 56.08L62.4 56.02C52.12 55.31 43 50.11 37.37 41.76C31.75 33.4 30.36 23 33.58 13.21L33.87 12.33L34.8 12.39C45.08 13.1 54.2 18.3 59.83 26.65C65.45 35.01 66.84 45.41 63.62 55.2L63.33 56.08ZM39.35 40.42C44.39 47.91 52.47 52.66 61.63 53.56C64.24 44.74 62.88 35.46 57.84 27.98C52.8 20.49 44.72 15.74 35.56 14.84C32.95 23.66 34.31 32.94 39.35 40.42Z" fill="black"/>
<path d="M57.9799 25.92C57.6199 35.97 62.1199 45.1 69.4199 51.21C77.1399 45.63 82.2799 36.85 82.6399 26.8C82.9999 16.75 78.4999 7.62001 71.1999 1.51001C63.4799 7.09001 58.3399 15.87 57.9799 25.92Z" fill="#FAE033"/>
<path d="M69.36 52.72L68.65 52.12C60.75 45.5 56.43 35.94 56.79 25.87C57.15 15.81 62.15 6.57 70.5 0.54L71.25 0L71.96 0.6C79.86 7.22 84.18 16.78 83.82 26.85C83.46 36.91 78.46 46.15 70.11 52.18L69.36 52.72ZM71.15 3.04C63.85 8.64 59.5 16.94 59.17 25.96C58.85 34.98 62.59 43.57 69.47 49.68C76.77 44.08 81.12 35.78 81.45 26.76C81.77 17.74 78.03 9.15 71.15 3.04Z" fill="black"/>
<path d="M82.7699 25.17C76.5699 33.09 74.8399 43.11 77.1599 52.35C86.6799 52.38 95.9999 48.3 102.2 40.38C108.4 32.46 110.12 22.44 107.81 13.2C98.2899 13.17 88.9699 17.25 82.7699 25.17Z" fill="#FAE033"/>
<path d="M78 53.54C77.72 53.54 77.44 53.54 77.15 53.54H76.22L75.99 52.64C73.49 42.64 75.61 32.36 81.82 24.43C88.03 16.5 97.52 11.98 107.8 12H108.73L108.95 12.9C111.45 22.9 109.33 33.18 103.12 41.11C97.08 48.82 87.96 53.32 77.98 53.53L78 53.54ZM83.71 25.9C78.15 33.01 76.13 42.16 78.1 51.15C87.3 50.91 95.7 46.75 101.26 39.64C106.82 32.54 108.84 23.38 106.87 14.39C97.67 14.63 89.27 18.79 83.71 25.9Z" fill="black"/>
<path d="M103.26 39.14C93.59 41.9 86.3 49 82.74 57.83C90.43 63.45 100.37 65.63 110.04 62.86C119.71 60.09 127 53 130.56 44.17C122.87 38.55 112.93 36.37 103.26 39.14Z" fill="#FAE033"/>
<path d="M102.21 65.24C95.11 65.39 88.05 63.18 82.04 58.79L81.29 58.24L81.64 57.38C85.49 47.82 93.25 40.75 102.94 37.98C112.62 35.22 122.95 37.12 131.27 43.2L132.02 43.75L131.67 44.61C127.82 54.17 120.06 61.24 110.37 64.01C107.68 64.78 104.94 65.19 102.21 65.24ZM84.21 57.41C91.79 62.62 101.03 64.2 109.71 61.72C118.39 59.24 125.4 53.02 129.09 44.59C121.51 39.38 112.27 37.81 103.59 40.28C94.91 42.76 87.9 48.98 84.21 57.41Z" fill="black"/>
<path d="M111.63 62.48C102.18 59.03 92.11 60.49 84.04 65.54C86.96 74.61 93.72 82.21 103.17 85.66C112.62 89.11 122.69 87.65 130.76 82.6C127.84 73.53 121.08 65.93 111.63 62.48Z" fill="#FAE033"/>
<path d="M114.49 88.73C110.54 88.81 106.57 88.17 102.77 86.78C93.31 83.33 86.07 75.72 82.92 65.91L82.64 65.03L83.43 64.54C92.16 59.07 102.6 57.91 112.06 61.37C121.52 64.82 128.76 72.43 131.91 82.24L132.19 83.12L131.4 83.61C126.18 86.88 120.36 88.61 114.49 88.73ZM85.48 66.07C88.55 74.75 95.1 81.45 103.58 84.54C112.06 87.63 121.39 86.73 129.32 82.07C126.25 73.39 119.7 66.69 111.22 63.6C102.74 60.51 93.41 61.41 85.48 66.07Z" fill="black"/>
<path d="M104.68 86.29C99.06 77.95 90.06 73.21 80.56 72.55C77.59 81.6 78.59 91.72 84.21 100.07C89.83 108.41 98.83 113.15 108.33 113.81C111.3 104.76 110.3 94.64 104.68 86.29Z" fill="#FAE033"/>
<path d="M109.17 115.06L108.24 115C97.9601 114.29 88.8401 109.09 83.2101 100.74C77.5901 92.39 76.2001 81.98 79.4201 72.19L79.7101 71.31L80.6401 71.37C90.9201 72.08 100.04 77.28 105.67 85.63C111.29 93.98 112.68 104.39 109.46 114.18L109.17 115.06ZM81.4201 73.82C78.8101 82.64 80.1701 91.92 85.2101 99.4C90.2501 106.89 98.3301 111.64 107.49 112.54C110.1 103.72 108.74 94.44 103.7 86.96C98.6601 79.47 90.5801 74.72 81.4201 73.82Z" fill="black"/>
<path d="M71.52 93.17C87.8013 93.17 101 79.9714 101 63.69C101 47.4087 87.8013 34.21 71.52 34.21C55.2386 34.21 42.04 47.4087 42.04 63.69C42.04 79.9714 55.2386 93.17 71.52 93.17Z" fill="#C4996C"/>
<path d="M71.52 94.25C54.67 94.25 40.96 80.54 40.96 63.69C40.96 46.84 54.67 33.13 71.52 33.13C88.37 33.13 102.08 46.84 102.08 63.69C102.08 80.54 88.37 94.25 71.52 94.25ZM71.52 35.28C55.86 35.28 43.11 48.02 43.11 63.69C43.11 79.36 55.85 92.1 71.52 92.1C87.19 92.1 99.93 79.36 99.93 63.69C99.93 48.02 87.19 35.28 71.52 35.28Z" fill="black"/>
<path d="M58.85 68.76C61.0978 68.76 62.92 66.9378 62.92 64.69C62.92 62.4422 61.0978 60.62 58.85 60.62C56.6022 60.62 54.78 62.4422 54.78 64.69C54.78 66.9378 56.6022 68.76 58.85 68.76Z" fill="black"/>
<path d="M53.72 72.36C55.3105 72.36 56.6 71.7018 56.6 70.89C56.6 70.0781 55.3105 69.42 53.72 69.42C52.1294 69.42 50.84 70.0781 50.84 70.89C50.84 71.7018 52.1294 72.36 53.72 72.36Z" fill="#B37F4D"/>
<path d="M88.26 72.36C89.8506 72.36 91.14 71.7018 91.14 70.89C91.14 70.0781 89.8506 69.42 88.26 69.42C86.6694 69.42 85.38 70.0781 85.38 70.89C85.38 71.7018 86.6694 72.36 88.26 72.36Z" fill="#B37F4D"/>
<path d="M84.19 68.76C86.4378 68.76 88.26 66.9378 88.26 64.69C88.26 62.4422 86.4378 60.62 84.19 60.62C81.9422 60.62 80.12 62.4422 80.12 64.69C80.12 66.9378 81.9422 68.76 84.19 68.76Z" fill="black"/>
<path d="M67.12 72.76C66.78 72.76 66.53 72.92 66.58 73.09C66.94 74.3 69.02 75.22 71.53 75.22C74.04 75.22 76.12 74.29 76.48 73.09C76.53 72.92 76.28 72.76 75.94 72.76H67.13H67.12Z" fill="black"/>
<path d="M66.76 39.67C59.64 41.48 53.58 46.52 50.14 52.96C49.16 54.79 51.95 56.42 52.93 54.59C56 48.85 61.27 44.4 67.62 42.78C69.63 42.27 68.78 39.15 66.76 39.67Z" fill="#FFDFC0"/>
<path d="M47.54 59.17C47.15 60.33 47 61.55 46.84 62.76C46.79 63.14 47.06 63.65 47.31 63.9C47.59 64.18 48.05 64.39 48.45 64.37C48.85 64.35 49.3 64.21 49.59 63.9L49.84 63.57C49.99 63.32 50.06 63.05 50.06 62.76V62.7C50.05 62.84 50.03 62.99 50.01 63.13C50.15 62.08 50.31 61.03 50.65 60.02C50.78 59.64 50.69 59.12 50.49 58.78C50.29 58.44 49.91 58.13 49.53 58.04C49.12 57.95 48.65 57.97 48.29 58.2C47.93 58.43 47.69 58.75 47.55 59.16L47.54 59.17Z" fill="#FFDFC0"/>
<path d="M70.48 172.31C77.77 173.05 81.48 181.73 76.91 187.46C71.88 193.77 62.5399 199.47 47.2999 204.05C44.1399 205 40.9999 206.32 38.4799 209.05L35.2599 212.55C37.5499 201.52 46.28 169.86 70.47 172.31H70.48Z" fill="#49962E"/>
<path d="M35.26 213.54C35.11 213.54 34.95 213.5 34.81 213.43C34.42 213.23 34.21 212.79 34.3 212.35C36.44 202.08 45.38 168.78 70.58 171.33C74.39 171.72 77.56 174.08 79.07 177.67C80.56 181.22 80.05 185.11 77.68 188.07C72.2 194.94 62.08 200.63 47.59 204.99C44.84 205.82 41.69 207.03 39.21 209.71L36 213.21C35.81 213.42 35.54 213.53 35.27 213.53L35.26 213.54ZM67.9 173.16C48.48 173.16 40.03 197.26 37.05 209.14L37.75 208.38C40.55 205.34 44 204.01 47.01 203.11C61.11 198.87 70.91 193.39 76.13 186.84C78.04 184.45 78.45 181.3 77.24 178.43C76.02 175.52 73.45 173.6 70.37 173.29C69.53 173.21 68.7 173.16 67.9 173.16Z" fill="black"/>
<path d="M75.18 173.05C75.18 173.05 69.28 192.27 33.47 197.65C29.71 198.21 26.1 199.65 23.16 202.06C21.2 203.67 19.38 205.78 18.61 208.42C18.61 208.42 28.51 155.67 75.18 173.05Z" fill="#49962E"/>
<path d="M18.61 209.42C18.53 209.42 18.45 209.42 18.38 209.39C17.86 209.27 17.53 208.76 17.63 208.23C17.82 207.21 22.54 183.04 40.54 172.87C50.3 167.35 62.08 167.1 75.53 172.11C76.03 172.3 76.29 172.83 76.14 173.34C75.89 174.15 69.64 193.23 33.62 198.64C29.85 199.21 26.45 200.66 23.79 202.83C21.6 204.62 20.18 206.6 19.56 208.7C19.43 209.13 19.04 209.42 18.6 209.42H18.61ZM57.51 170.55C51.67 170.55 46.33 171.91 41.53 174.62C29.81 181.24 23.89 194.53 21.3 202.39C21.68 202.02 22.09 201.65 22.53 201.3C25.47 198.89 29.2 197.3 33.33 196.68C63.62 192.13 72.16 177.42 73.87 173.65C68.06 171.59 62.6 170.56 57.52 170.56L57.51 170.55Z" fill="black"/>
<path d="M69.95 173.05C69.95 173.05 75.85 192.27 111.66 197.65C115.42 198.21 119.03 199.65 121.97 202.06C123.93 203.67 125.75 205.78 126.52 208.42C126.52 208.42 116.62 155.67 69.95 173.05Z" fill="#49962E"/>
<path d="M126.53 209.42C126.1 209.42 125.7 209.14 125.57 208.7C124.95 206.6 123.53 204.62 121.34 202.83C118.68 200.65 115.28 199.2 111.51 198.64C75.49 193.23 69.24 174.15 68.99 173.34C68.83 172.83 69.1 172.3 69.6 172.11C83.06 167.1 94.83 167.36 104.59 172.87C122.59 183.04 127.31 207.21 127.5 208.23C127.6 208.75 127.27 209.26 126.75 209.39C126.67 209.41 126.59 209.42 126.52 209.42H126.53ZM71.27 173.64C72.98 177.4 81.52 192.12 111.81 196.67C115.93 197.29 119.67 198.89 122.61 201.29C123.05 201.65 123.46 202.01 123.84 202.38C121.25 194.52 115.33 181.23 103.61 174.61C94.62 169.53 83.74 169.2 71.27 173.63V173.64Z" fill="black"/>
<path d="M70.7599 172.31C63.4699 173.05 59.7599 181.73 64.3299 187.46C69.3599 193.77 78.6999 199.47 93.9399 204.05C97.0999 205 100.24 206.32 102.76 209.05L105.98 212.55C103.69 201.52 94.9599 169.86 70.7699 172.31H70.7599Z" fill="#49962E"/>
<path d="M105.98 213.54C105.71 213.54 105.45 213.43 105.25 213.22L102.03 209.72C99.5599 207.04 96.4099 205.83 93.6499 205C79.1599 200.64 69.0399 194.94 63.5599 188.08C61.1999 185.12 60.6799 181.23 62.1699 177.68C63.6799 174.1 66.8499 171.73 70.6599 171.34C95.8699 168.8 104.8 202.09 106.94 212.36C107.03 212.79 106.82 213.23 106.43 213.44C106.29 213.51 106.13 213.55 105.98 213.55V213.54ZM70.8599 173.29C67.7799 173.6 65.2099 175.52 63.9899 178.43C62.7799 181.31 63.1999 184.45 65.0999 186.84C70.3299 193.39 80.1199 198.86 94.2199 203.11C97.2299 204.01 100.68 205.35 103.48 208.38L104.18 209.14C101.08 196.77 92.0599 171.16 70.8599 173.29Z" fill="black"/>
</g>
<defs>
<clipPath id="clip0_488_2037">
<rect width="132.18" height="213.54" fill="white"/>
</clipPath>
</defs>
</svg>
