<svg width="140" height="214" viewBox="0 0 140 214" fill="none" xmlns="http://www.w3.org/2000/svg">
<g clip-path="url(#clip0_488_2036)">
<path d="M136.44 159.31L138.35 170.29C134.67 160.53 121.61 157 121.61 157M64.05 148.13C68.24 155.51 79.96 158.21 90.13 159.1C97.96 159.79 105.83 159.3 113.58 157.98C135.1 154.3 136.68 161.02 136.68 161.02C130.48 113.24 61.09 146.03 64.05 148.13Z" fill="#49962E"/>
<path d="M136.44 159.31L138.35 170.29C134.67 160.53 121.61 157 121.61 157M64.05 148.13C68.24 155.51 79.96 158.21 90.13 159.1C97.96 159.79 105.83 159.3 113.58 157.98C135.1 154.3 136.68 161.02 136.68 161.02C130.48 113.24 61.09 146.03 64.05 148.13Z" stroke="black" stroke-width="1.79" stroke-miterlimit="10"/>
<path d="M21.93 121.26C21.93 121.26 9.71001 115.44 0.570007 120.46L9.16001 113.36M7.86001 114.5C7.86001 114.5 13.43 110.43 27.38 127.23C32.4 133.27 38.07 138.77 44.46 143.34C52.77 149.28 63.42 154.85 71.4 151.97C75.01 152.31 43.66 82.25 7.86001 114.5Z" fill="#49962E"/>
<path d="M21.93 121.26C21.93 121.26 9.71001 115.44 0.570007 120.46L9.16001 113.36M7.86001 114.5C7.86001 114.5 13.43 110.43 27.38 127.23C32.4 133.27 38.07 138.77 44.46 143.34C52.77 149.28 63.42 154.85 71.4 151.97C75.01 152.31 43.66 82.25 7.86001 114.5Z" stroke="black" stroke-width="1.79" stroke-miterlimit="10"/>
<path d="M74.49 84.59H67.84V187.37H74.49V84.59Z" fill="#49962E"/>
<path d="M75.35 188.22H66.99V83.73H75.35V188.22ZM68.7 186.51H73.64V85.45H68.7V186.51Z" fill="black"/>
<path d="M84.1399 101.46C84.4999 91.41 79.9999 82.28 72.6999 76.17C64.9799 81.75 59.8399 90.53 59.4799 100.58C59.1199 110.63 63.6199 119.76 70.9199 125.87C78.6399 120.29 83.7799 111.51 84.1399 101.46Z" fill="#FAE033"/>
<path d="M70.86 127.38L70.15 126.78C62.25 120.16 57.93 110.6 58.29 100.53C58.65 90.47 63.65 81.23 72 75.2L72.75 74.66L73.46 75.26C81.36 81.88 85.68 91.44 85.32 101.51C84.96 111.57 79.96 120.81 71.61 126.84L70.86 127.38ZM72.64 77.7C65.34 83.3 60.99 91.6 60.66 100.62C60.34 109.64 64.08 118.23 70.96 124.34C78.26 118.74 82.61 110.44 82.94 101.42C83.26 92.4 79.52 83.81 72.64 77.7Z" fill="black"/>
<path d="M59.35 102.21C65.55 94.29 67.28 84.27 64.96 75.03C55.44 75 46.12 79.08 39.92 87C33.72 94.92 32 104.94 34.31 114.18C43.83 114.21 53.15 110.13 59.35 102.21Z" fill="#FAE033"/>
<path d="M35.15 115.37C34.87 115.37 34.59 115.37 34.3 115.37H33.37L33.15 114.47C30.65 104.47 32.77 94.19 38.98 86.26C45.19 78.33 54.67 73.81 64.96 73.83H65.89L66.12 74.73C68.62 84.73 66.5 95.01 60.29 102.94C54.25 110.65 45.13 115.15 35.15 115.36V115.37ZM64.02 76.23C54.82 76.47 46.42 80.63 40.86 87.74C35.3 94.84 33.28 104 35.25 112.99C44.45 112.75 52.85 108.59 58.41 101.48C63.97 94.37 65.99 85.22 64.02 76.23Z" fill="black"/>
<path d="M38.85 88.24C48.52 85.48 55.81 78.38 59.37 69.55C51.68 63.93 41.74 61.75 32.07 64.52C22.4 67.28 15.11 74.38 11.55 83.21C19.24 88.83 29.18 91.01 38.85 88.24Z" fill="#FAE033"/>
<path d="M31.02 90.62C23.92 90.77 16.86 88.56 10.86 84.17L10.11 83.62L10.46 82.76C14.31 73.2 22.07 66.13 31.76 63.36C41.44 60.59 51.77 62.49 60.09 68.58L60.84 69.13L60.49 69.99C56.64 79.55 48.88 86.62 39.19 89.38C36.5 90.15 33.76 90.56 31.03 90.62H31.02ZM13.03 82.79C20.61 88 29.85 89.58 38.53 87.1C47.21 84.62 54.22 78.4 57.91 69.97C50.33 64.76 41.08 63.18 32.41 65.66C23.73 68.14 16.72 74.36 13.03 82.79Z" fill="black"/>
<path d="M30.48 64.9C39.93 68.35 50 66.89 58.07 61.84C55.15 52.77 48.39 45.17 38.94 41.72C29.49 38.27 19.42 39.73 11.35 44.78C14.27 53.85 21.03 61.45 30.48 64.9Z" fill="#FAE033"/>
<path d="M41.8 67.96C37.85 68.04 33.88 67.4 30.08 66.01C20.62 62.56 13.38 54.95 10.23 45.14L9.95001 44.26L10.74 43.77C19.47 38.3 29.91 37.14 39.37 40.6C48.83 44.05 56.07 51.66 59.22 61.47L59.5 62.35L58.71 62.84C53.49 66.11 47.67 67.84 41.8 67.96ZM12.79 45.3C15.86 53.98 22.41 60.68 30.89 63.77C39.37 66.86 48.7 65.96 56.63 61.3C53.56 52.62 47.01 45.92 38.53 42.83C30.05 39.74 20.72 40.64 12.79 45.3Z" fill="black"/>
<path d="M37.4301 41.09C43.0501 49.43 52.0501 54.17 61.5501 54.83C64.5201 45.78 63.5201 35.66 57.9001 27.31C52.2801 18.97 43.2801 14.23 33.78 13.57C30.81 22.62 31.8101 32.74 37.4301 41.09Z" fill="#FAE033"/>
<path d="M62.4 56.08L61.47 56.02C51.19 55.31 42.07 50.11 36.44 41.76C30.82 33.4 29.43 23 32.65 13.21L32.94 12.33L33.87 12.39C44.15 13.1 53.27 18.3 58.9 26.65C64.52 35.01 65.91 45.41 62.69 55.2L62.4 56.08ZM38.42 40.42C43.46 47.91 51.54 52.66 60.7 53.56C63.31 44.74 61.95 35.46 56.91 27.98C51.87 20.49 43.79 15.74 34.63 14.84C32.02 23.66 33.38 32.94 38.42 40.42Z" fill="black"/>
<path d="M57.05 25.92C56.69 35.97 61.19 45.1 68.49 51.21C76.21 45.63 81.35 36.85 81.71 26.8C82.07 16.75 77.57 7.62001 70.27 1.51001C62.55 7.09001 57.41 15.87 57.05 25.92Z" fill="#FAE033"/>
<path d="M68.43 52.72L67.72 52.12C59.82 45.5 55.5 35.94 55.86 25.87C56.22 15.81 61.22 6.57 69.57 0.54L70.32 0L71.03 0.6C78.93 7.22 83.25 16.78 82.89 26.85C82.53 36.91 77.53 46.15 69.18 52.18L68.43 52.72ZM70.22 3.04C62.92 8.64 58.57 16.94 58.24 25.96C57.92 34.98 61.66 43.57 68.54 49.68C75.84 44.08 80.19 35.78 80.52 26.76C80.84 17.74 77.1 9.15 70.22 3.04Z" fill="black"/>
<path d="M81.84 25.17C75.64 33.09 73.91 43.11 76.23 52.35C85.75 52.38 95.07 48.3 101.27 40.38C107.47 32.46 109.19 22.44 106.88 13.2C97.36 13.17 88.04 17.25 81.84 25.17Z" fill="#FAE033"/>
<path d="M77.07 53.54C76.79 53.54 76.51 53.54 76.22 53.54H75.29L75.06 52.64C72.56 42.64 74.68 32.36 80.89 24.43C87.1 16.5 96.59 11.98 106.87 12H107.8L108.02 12.9C110.52 22.9 108.4 33.18 102.19 41.11C96.15 48.82 87.03 53.32 77.05 53.53L77.07 53.54ZM82.78 25.9C77.22 33.01 75.2 42.16 77.17 51.15C86.37 50.91 94.77 46.75 100.33 39.64C105.89 32.54 107.91 23.38 105.94 14.39C96.74 14.63 88.34 18.79 82.78 25.9Z" fill="black"/>
<path d="M102.33 39.14C92.6599 41.9 85.3699 49 81.8099 57.83C89.4999 63.45 99.4399 65.63 109.11 62.86C118.78 60.1 126.07 53 129.63 44.17C121.94 38.55 112 36.37 102.33 39.14Z" fill="#FAE033"/>
<path d="M101.28 65.24C94.18 65.39 87.12 63.18 81.11 58.79L80.36 58.24L80.71 57.38C84.56 47.82 92.32 40.75 102.01 37.98C111.69 35.22 122.02 37.12 130.34 43.2L131.09 43.75L130.74 44.61C126.89 54.17 119.13 61.24 109.44 64.01C106.75 64.78 104.01 65.19 101.28 65.24ZM83.28 57.41C90.86 62.62 100.1 64.2 108.78 61.72C117.46 59.24 124.47 53.02 128.16 44.59C120.58 39.38 111.34 37.81 102.66 40.28C93.98 42.76 86.97 48.98 83.28 57.41Z" fill="black"/>
<path d="M110.7 62.48C101.25 59.03 91.18 60.49 83.11 65.54C86.03 74.61 92.79 82.21 102.24 85.66C111.69 89.11 121.76 87.65 129.83 82.6C126.91 73.53 120.15 65.93 110.7 62.48Z" fill="#FAE033"/>
<path d="M113.56 88.73C109.61 88.81 105.64 88.17 101.84 86.78C92.38 83.33 85.14 75.72 81.99 65.91L81.71 65.03L82.5 64.54C91.23 59.07 101.67 57.91 111.13 61.37C120.59 64.82 127.83 72.43 130.98 82.24L131.26 83.12L130.47 83.61C125.25 86.88 119.43 88.61 113.56 88.73ZM84.55 66.07C87.62 74.75 94.17 81.45 102.65 84.54C111.13 87.63 120.46 86.73 128.39 82.07C125.32 73.39 118.77 66.69 110.29 63.6C101.81 60.51 92.48 61.41 84.55 66.07Z" fill="black"/>
<path d="M103.75 86.29C98.13 77.95 89.13 73.21 79.63 72.55C76.66 81.6 77.66 91.72 83.28 100.07C88.9 108.41 97.9 113.15 107.4 113.81C110.37 104.76 109.37 94.64 103.75 86.29Z" fill="#FAE033"/>
<path d="M108.25 115.06L107.32 115C97.04 114.29 87.92 109.09 82.29 100.74C76.67 92.39 75.28 81.98 78.5 72.19L78.79 71.31L79.72 71.37C90 72.08 99.12 77.28 104.75 85.63C110.37 93.98 111.76 104.39 108.54 114.18L108.25 115.06ZM80.49 73.82C77.88 82.64 79.24 91.92 84.28 99.4C89.32 106.89 97.4 111.64 106.56 112.54C109.17 103.72 107.81 94.44 102.77 86.96C97.73 79.47 89.65 74.72 80.49 73.82Z" fill="black"/>
<path d="M70.59 93.17C86.8714 93.17 100.07 79.9714 100.07 63.69C100.07 47.4087 86.8714 34.21 70.59 34.21C54.3087 34.21 41.11 47.4087 41.11 63.69C41.11 79.9714 54.3087 93.17 70.59 93.17Z" fill="#C4996C"/>
<path d="M70.59 94.25C53.74 94.25 40.03 80.54 40.03 63.69C40.03 46.84 53.74 33.13 70.59 33.13C87.44 33.13 101.15 46.84 101.15 63.69C101.15 80.54 87.44 94.25 70.59 94.25ZM70.59 35.28C54.93 35.28 42.18 48.02 42.18 63.69C42.18 79.36 54.92 92.1 70.59 92.1C86.26 92.1 99 79.36 99 63.69C99 48.02 86.26 35.28 70.59 35.28Z" fill="black"/>
<path d="M52.79 72.36C54.3806 72.36 55.67 71.7018 55.67 70.89C55.67 70.0781 54.3806 69.42 52.79 69.42C51.1995 69.42 49.91 70.0781 49.91 70.89C49.91 71.7018 51.1995 72.36 52.79 72.36Z" fill="#B37F4D"/>
<path d="M87.3301 72.36C88.9207 72.36 90.2101 71.7018 90.2101 70.89C90.2101 70.0781 88.9207 69.42 87.3301 69.42C85.7395 69.42 84.4501 70.0781 84.4501 70.89C84.4501 71.7018 85.7395 72.36 87.3301 72.36Z" fill="#B37F4D"/>
<path d="M65.83 39.67C58.71 41.48 52.65 46.52 49.21 52.96C48.23 54.79 51.02 56.42 52 54.59C55.07 48.85 60.34 44.4 66.69 42.78C68.7 42.27 67.85 39.15 65.83 39.67Z" fill="#FFDFC0"/>
<path d="M46.61 59.17C46.22 60.33 46.07 61.55 45.91 62.76C45.86 63.14 46.13 63.65 46.38 63.9C46.66 64.18 47.12 64.39 47.52 64.37C47.92 64.35 48.37 64.21 48.66 63.9L48.91 63.57C49.06 63.32 49.13 63.05 49.13 62.76V62.7C49.12 62.84 49.1 62.99 49.08 63.13C49.22 62.08 49.38 61.03 49.72 60.02C49.85 59.64 49.76 59.12 49.56 58.78C49.36 58.44 48.98 58.13 48.6 58.04C48.19 57.95 47.72 57.97 47.36 58.2C47 58.43 46.76 58.75 46.62 59.16L46.61 59.17Z" fill="#FFDFC0"/>
<path d="M69.55 172.31C76.84 173.05 80.55 181.73 75.98 187.46C70.95 193.77 61.61 199.47 46.37 204.05C43.21 205 40.07 206.32 37.55 209.05L34.33 212.55C36.62 201.52 45.35 169.86 69.54 172.31H69.55Z" fill="#49962E"/>
<path d="M34.33 213.54C34.18 213.54 34.02 213.5 33.88 213.43C33.49 213.23 33.28 212.79 33.37 212.35C35.51 202.08 44.45 168.78 69.65 171.33C73.46 171.72 76.63 174.08 78.14 177.67C79.63 181.22 79.12 185.11 76.75 188.07C71.27 194.94 61.15 200.63 46.66 204.99C43.91 205.82 40.76 207.03 38.28 209.71L35.07 213.21C34.88 213.42 34.61 213.53 34.34 213.53L34.33 213.54ZM66.98 173.16C47.56 173.16 39.11 197.26 36.13 209.14L36.83 208.38C39.63 205.34 43.08 204.01 46.09 203.11C60.19 198.87 69.99 193.39 75.21 186.84C77.12 184.45 77.53 181.3 76.32 178.43C75.1 175.52 72.53 173.6 69.45 173.29C68.61 173.21 67.78 173.16 66.98 173.16Z" fill="black"/>
<path d="M74.2501 173.05C74.2501 173.05 68.3501 192.27 32.5401 197.65C28.7801 198.21 25.1701 199.65 22.2301 202.06C20.2701 203.67 18.4501 205.78 17.6801 208.42C17.6801 208.42 27.5801 155.67 74.2501 173.05Z" fill="#49962E"/>
<path d="M17.68 209.42C17.6 209.42 17.52 209.42 17.45 209.39C16.93 209.27 16.6 208.76 16.7 208.23C16.89 207.21 21.61 183.04 39.61 172.87C49.37 167.35 61.15 167.1 74.6 172.11C75.1 172.3 75.36 172.83 75.21 173.34C74.96 174.15 68.71 193.23 32.69 198.64C28.92 199.21 25.52 200.66 22.86 202.83C20.67 204.62 19.25 206.6 18.63 208.7C18.5 209.13 18.11 209.42 17.67 209.42H17.68ZM56.58 170.55C50.74 170.55 45.4 171.91 40.6 174.62C28.88 181.24 22.96 194.53 20.37 202.39C20.75 202.02 21.16 201.65 21.6 201.3C24.54 198.89 28.27 197.3 32.4 196.68C62.69 192.13 71.23 177.42 72.94 173.65C67.13 171.59 61.67 170.56 56.59 170.56L56.58 170.55Z" fill="black"/>
<path d="M69.02 173.05C69.02 173.05 74.92 192.27 110.73 197.65C114.49 198.21 118.1 199.65 121.04 202.06C123 203.67 124.82 205.78 125.59 208.42C125.59 208.42 115.69 155.67 69.02 173.05Z" fill="#49962E"/>
<path d="M125.6 209.42C125.17 209.42 124.77 209.14 124.64 208.7C124.02 206.6 122.6 204.62 120.41 202.83C117.75 200.65 114.35 199.2 110.58 198.64C74.5601 193.23 68.3101 174.15 68.0601 173.34C67.9001 172.83 68.1701 172.3 68.6701 172.11C82.1301 167.1 93.9001 167.36 103.66 172.87C121.66 183.04 126.38 207.21 126.57 208.23C126.67 208.75 126.34 209.26 125.82 209.39C125.74 209.41 125.66 209.42 125.59 209.42H125.6ZM70.3401 173.64C72.0501 177.4 80.5901 192.12 110.88 196.67C115 197.29 118.74 198.89 121.68 201.29C122.12 201.65 122.53 202.01 122.91 202.38C120.32 194.52 114.4 181.23 102.68 174.61C93.6901 169.53 82.8101 169.2 70.3401 173.63V173.64Z" fill="black"/>
<path d="M69.8401 172.31C62.5501 173.05 58.8401 181.73 63.4101 187.46C68.4401 193.77 77.7801 199.47 93.0201 204.05C96.1801 205 99.3201 206.32 101.84 209.05L105.06 212.55C102.77 201.52 94.0401 169.86 69.8501 172.31H69.8401Z" fill="#49962E"/>
<path d="M105.05 213.54C104.78 213.54 104.52 213.43 104.32 213.22L101.1 209.72C98.6301 207.04 95.4801 205.83 92.7201 205C78.2301 200.64 68.1101 194.94 62.6301 188.08C60.2701 185.12 59.7501 181.23 61.2401 177.68C62.7501 174.1 65.9201 171.73 69.7301 171.34C94.9401 168.8 103.87 202.09 106.01 212.36C106.1 212.79 105.89 213.23 105.5 213.44C105.36 213.51 105.2 213.55 105.05 213.55V213.54ZM69.9301 173.29C66.8501 173.6 64.2801 175.52 63.0601 178.43C61.8501 181.31 62.2701 184.45 64.1701 186.84C69.4001 193.39 79.1901 198.86 93.2901 203.11C96.3001 204.01 99.7501 205.35 102.55 208.38L103.25 209.14C100.15 196.77 91.1301 171.16 69.9301 173.29Z" fill="black"/>
<path d="M64.22 73.71C64.22 73.71 65.9 79.63 70.59 73.71C75.28 79.63 76.96 73.71 76.96 73.71" stroke="black" stroke-width="2" stroke-miterlimit="10" stroke-linecap="round"/>
<path d="M55.38 62.01L62.23 64.09C62.52 64.18 62.52 64.6 62.23 64.69L55.38 66.77" stroke="black" stroke-width="2" stroke-miterlimit="10" stroke-linecap="round"/>
<path d="M85.0701 62.14L78.2201 64.22C77.9301 64.31 77.9301 64.73 78.2201 64.82L85.0701 66.9" stroke="black" stroke-width="2" stroke-miterlimit="10" stroke-linecap="round"/>
</g>
<defs>
<clipPath id="clip0_488_2036">
<rect width="139.23" height="213.54" fill="white"/>
</clipPath>
</defs>
</svg>
